<?xml version="1.0" encoding="utf-8"?>
<!-- Generator: Adobe Illustrator 25.4.1, SVG Export Plug-In . SVG Version: 6.00 Build 0)  -->
<svg version="1.1" id="Calque_1" xmlns="http://www.w3.org/2000/svg" xmlns:xlink="http://www.w3.org/1999/xlink" x="0px" y="0px"
	 viewBox="0 0 24 24" style="enable-background:new 0 0 24 24;" xml:space="preserve">
<style type="text/css">
	.st0{fill:#FFFFFF;}
</style>
<path class="st0" d="M22,4.9v11.9c0,1-0.8,1.9-1.8,2l-0.3,0c-1.6,0.2-4,0.9-5.8,1.7c-0.6,0.3-1.4-0.2-1.4-0.9V5.6
	c0-0.4,0.2-0.7,0.5-0.9c1.8-1,4.6-1.9,6.5-2h0.1C21,2.7,22,3.7,22,4.9z"/>
<path class="st0" d="M10.7,4.7c-1.8-1-4.6-1.9-6.5-2H4.2C3,2.7,2,3.7,2,4.9v11.9c0,1,0.8,1.9,1.8,2l0.3,0C5.7,19,8,19.7,9.9,20.4
	c0.7,0.3,1.4-0.2,1.4-0.9V5.6C11.2,5.2,11,4.9,10.7,4.7z M5,7.7h2.2C7.7,7.7,8,8.1,8,8.5c0,0.4-0.3,0.8-0.8,0.8H5
	c-0.4,0-0.8-0.3-0.8-0.8C4.2,8.1,4.6,7.7,5,7.7z M8,12.2H5c-0.4,0-0.8-0.3-0.8-0.8c0-0.4,0.3-0.8,0.8-0.8h3c0.4,0,0.8,0.3,0.8,0.8
	C8.7,11.9,8.4,12.2,8,12.2z"/>
</svg>
