<?xml version="1.0" encoding="utf-8"?>
<!-- Generator: Adobe Illustrator 25.4.1, SVG Export Plug-In . SVG Version: 6.00 Build 0)  -->
<svg version="1.1" id="Calque_1" xmlns="http://www.w3.org/2000/svg" xmlns:xlink="http://www.w3.org/1999/xlink" x="0px" y="0px"
	 viewBox="0 0 24 24" style="enable-background:new 0 0 24 24;" xml:space="preserve">
<style type="text/css">
	.st0{fill:#FFFFFF;}
</style>
<path class="st0" d="M12,2C6.4,2,2,6.5,2,12s4.5,10,10,10c5.5,0,10-4.5,10-10S17.5,2,12,2z M17.4,16.4c-1.2,1.8-3.2,2.8-5.4,2.8
	c-2.2,0-4.2-1-5.4-2.8c-0.2-0.3-0.2-0.8,0.2-1c0.3-0.2,0.8-0.2,1,0.2c1,1.4,2.5,2.2,4.2,2.2s3.2-0.8,4.2-2.2c0.2-0.3,0.7-0.4,1-0.2
	C17.6,15.6,17.6,16.1,17.4,16.4z"/>
</svg>
