<?xml version="1.0" encoding="utf-8"?>
<!-- Generator: Adobe Illustrator 25.4.1, SVG Export Plug-In . SVG Version: 6.00 Build 0)  -->
<svg version="1.1" id="Calque_1" xmlns="http://www.w3.org/2000/svg" xmlns:xlink="http://www.w3.org/1999/xlink" x="0px" y="0px"
	 viewBox="0 0 24 24" style="enable-background:new 0 0 24 24;" xml:space="preserve">
<style type="text/css">
	.st0{fill:#FFFFFF;}
</style>
<path class="st0" d="M13.2,6H6.8C6.5,6,6.3,6,6,6c-2.7,0.2-4,1.8-4,4.8v4c0,4,1.6,4.8,4.8,4.8h0.4c0.2,0,0.5,0.1,0.6,0.3L9,21.5
	c0.5,0.7,1.4,0.7,1.9,0l1.2-1.6c0.2-0.2,0.4-0.3,0.6-0.3h0.4c2.9,0,4.5-1.3,4.8-4c0-0.2,0-0.5,0-0.8v-4C18,7.6,16.4,6,13.2,6z
	 M6.5,14c-0.6,0-1-0.4-1-1s0.4-1,1-1s1,0.4,1,1S7.1,14,6.5,14z M10,14c-0.6,0-1-0.4-1-1s0.4-1,1-1s1,0.4,1,1S10.6,14,10,14z
	 M13.5,14c-0.6,0-1-0.4-1-1s0.4-1,1-1s1,0.4,1,1S14,14,13.5,14z"/>
<path class="st0" d="M22,6.8v4c0,2-0.6,3.4-1.9,4.1c-0.3,0.2-0.7-0.1-0.7-0.4l0-3.7c0-4-2.3-6.3-6.3-6.3l-6.1,0
	c-0.3,0-0.6-0.4-0.4-0.7C7.4,2.6,8.8,2,10.8,2h6.4C20.4,2,22,3.6,22,6.8z"/>
</svg>
