<svg width="109" height="100" viewBox="0 0 109 100" fill="none" xmlns="http://www.w3.org/2000/svg">
<g clip-path="url(#clip0_12_2426)">
<path d="M41.4744 3.4262C42.3262 1.85153 41.1268 0 41.1268 0C41.1268 0 40.6401 1.7131 38.1196 1.59197V4.77591C38.1196 4.77591 40.6401 5.01817 41.4744 3.4262Z" fill="#141F47"/>
<path d="M28.542 12.7184C28.542 12.7184 27.2557 11.1265 25.5522 11.7494C23.8488 12.3724 23.9357 13.0472 23.1187 13.2722C22.3539 13.4625 21.1371 13.3587 20.7373 13.0126C21.1197 13.4106 22.8406 15.0718 24.5267 14.0336C26.4214 12.8569 26.6995 11.9571 28.542 12.7184Z" fill="#141F47"/>
<path d="M30.6973 55.667C31.7228 55.5286 32.6093 56.1862 32.6093 56.1862C32.6093 56.1862 33.2699 56.1169 34.5388 53.7636C35.8077 51.4102 35.8946 50.0778 35.9294 48.6416C35.9641 47.2054 34.7474 44.5925 34.7474 44.5925C33.5306 43.7792 31.184 41.097 31.184 41.097C30.7494 42.3256 30.5408 41.9795 31.1318 44.9558C31.7228 47.9148 32.8527 47.7591 33.3046 50.8219C33.7566 53.8847 30.6973 55.667 30.6973 55.667Z" fill="#141F47"/>
<path d="M28.9069 56.8438C28.9069 56.8438 23.7096 57.086 23.6748 60.8929C25.0133 61.0313 26.3517 61.1005 27.6902 61.0832C27.6902 61.0832 26.2822 58.7299 28.9069 56.8438Z" fill="#141F47"/>
<path d="M36.9202 9.25766C35.8425 9.37879 35.1124 9.62105 34.6431 9.13653C34.1738 8.65202 34.0521 8.28864 33.4437 8.28864C33.0439 8.28864 32.6441 8.23672 32.2443 8.1502C32.2443 8.1502 32.4703 7.90795 33.5654 7.42344C33.5654 7.42344 35.9642 7.66569 36.9202 7.78682C37.3721 7.83873 37.8067 7.92525 38.2413 8.02908C38.2413 8.04638 37.9979 9.13653 36.9202 9.25766ZM85.7127 49.2992C85.8344 48.6935 87.6596 48.0533 87.6596 48.0533C87.6596 48.0533 87.0859 46.3229 86.4776 45.8384C85.8692 45.3539 84.7393 45.7692 84.0266 45.0251C83.3139 44.281 80.6718 43.087 80.3068 36.8403C79.9417 30.5935 80.1156 30.8877 80.1156 30.8877C80.1156 30.8877 86.5471 27.1846 86.3211 19.7266C86.0951 12.2686 77.0736 12.8915 73.9448 15.0891C70.816 17.2867 63.2546 21.1974 60.7341 14.2239C59.8998 12.1647 63.863 11.04 63.863 11.04C63.863 11.04 66.0184 11.1611 67.2178 10.071C68.4172 8.9808 67.6871 8.72124 68.6432 8.35785C69.5992 7.99447 70.5726 8.21942 71.772 7.00814C72.9714 5.79686 73.3364 3.46081 73.3364 3.46081C73.3364 3.46081 72.2587 5.29504 70.816 5.17391C69.3732 5.05278 67.0961 3.70307 65.41 4.18758C63.7239 4.67209 63.1329 5.27773 62.4029 6.50632C61.6728 7.73491 61.7945 8.08099 60.9601 8.70393C60.1258 9.32688 54.9632 16.4042 63.3589 20.0727C68.8865 21.7858 73.5624 17.9962 74.7618 17.2694C75.9612 16.5254 77.1606 15.7986 79.455 15.7986C81.7495 15.7986 84.1483 17.3906 84.2526 19.5882C84.3569 21.7858 82.8099 24.6063 79.3334 25.3331C78.6207 25.3331 77.4213 25.6965 77.4213 25.6965C77.4213 25.6965 75.3875 23.0144 66.4877 24.9697C57.5879 26.9251 48.6012 28.1537 46.3241 21.1801C45.7331 14.9507 50.3568 21.855 50.3568 21.855C50.3568 21.855 50.2178 15.6948 48.2362 15.6948C47.1411 15.6948 45.8374 14.7257 45.8374 14.7257C45.8374 14.7257 46.0634 13.4972 46.6717 13.4972C47.2801 13.4972 48.8272 15.2276 48.8272 15.2276C48.8272 15.2276 49.2965 10.5382 47.4887 9.44801C46.5153 8.85967 46.0807 8.20212 45.8721 7.7176C46.5501 7.61378 47.3497 7.38883 47.8711 6.90431C49.0705 5.81416 49.6615 4.58557 49.7832 3.23586C49.9049 1.88615 49.4355 2.63022 48.5838 3.11473C47.7321 3.59924 46.185 3.8415 44.9856 3.8415C43.7863 3.8415 42.4652 3.33968 42.4652 3.33968C42.4652 3.33968 41.6308 4.44714 40.6748 4.6894C39.7188 4.93165 37.4243 4.81053 35.7556 4.6894C34.0695 4.56827 33.1134 3.70307 31.914 4.06645C30.7147 4.42984 30.3496 5.29504 28.7852 5.65842C27.2208 6.02181 26.6124 5.65842 25.5347 5.5373C24.457 5.41617 23.1359 5.41617 22.8925 6.26407C22.6492 7.11196 22.3015 8.21942 22.6492 9.30957C22.9968 10.3997 23.2402 10.7631 25.048 10.6593C26.8557 10.5555 28.8721 10.6593 29.7239 11.7494C30.4018 12.6146 30.6277 13.7567 30.3149 14.8123C30.0715 15.5563 28.5071 15.2795 27.6901 15.1583C26.8557 15.0372 25.6564 14.5354 25.187 15.4006C24.7177 16.2658 24.231 18.9479 25.8997 18.325C27.5858 17.702 31.914 17.9962 32.505 17.9962H33.1134C33.1134 17.9962 26.9948 22.5472 27.0991 28.2921C27.0991 36.9614 34.7821 42.5679 34.7821 42.5679C34.7821 42.5679 33.4785 38.5361 33.7044 34.9888C33.9304 31.4414 35.6165 29.8668 35.6165 29.8668C35.6165 29.8668 34.2954 33.8986 35.4948 39.2802C36.6942 44.6617 38.137 49.0569 36.6942 52.4658C35.2515 55.8747 34.0695 57.2071 33.2351 57.2071C32.4007 57.2071 31.0449 56.6188 30.3322 56.9822C29.6196 57.3456 28.8895 58.3146 28.8895 59.1798C28.8895 60.045 28.6461 61.1351 29.6196 61.1351C30.593 61.1351 32.9744 61.014 34.1738 61.014C35.3731 61.014 36.4509 60.7545 37.3026 60.1488C38.1543 59.5432 38.502 56.8437 38.502 56.8437C38.502 56.8437 39.4754 57.1033 39.4754 57.709L39.9621 56.1343C39.7188 55.2864 39.8404 54.9057 40.5531 53.5733C41.2832 52.2409 41.3875 52.2236 42.4652 51.1334C43.5429 50.0433 41.7525 50.2682 41.7525 48.9358C41.7525 47.6034 42.2218 47.1016 42.8128 45.7519C43.4038 44.4021 42.7085 44.6617 42.2218 44.2983C41.7351 43.9349 42.5173 43.6927 42.5869 42.8275C42.7259 41.2182 40.7617 40.0934 40.7617 40.0934C44.9683 39.4013 45.229 37.8785 45.229 37.8785C39.8578 36.4423 40.1012 32.1509 40.1012 32.1509C45.4028 32.5662 46.8977 29.9533 46.8977 29.9533C44.0296 30.507 42.7259 27.3058 42.7259 27.3058C43.5429 26.4925 43.1779 24.1045 43.1779 24.1045C41.2832 20.1073 37.3026 22.8932 37.3026 22.8932C38.3977 20.4015 42.6042 20.5399 43.9601 23.1528C45.3159 25.7657 44.2208 27.0981 44.2208 27.0981C45.5766 29.5899 48.8445 28.967 48.8445 28.967C46.1329 34.3485 41.7873 33.3276 41.7873 33.3276C43.1605 37.1864 46.6891 36.5461 46.6891 36.5461C46.6196 38.6053 45.9243 39.4532 45.1421 39.8512C45.5071 40.1108 46.1155 40.3184 47.1063 40.0415C47.8885 39.7993 48.636 39.5051 49.3834 39.1417C51.0521 38.415 52.9468 37.5671 55.7106 37.2556C58.909 36.8922 60.9601 37.0999 62.9069 38.1727C63.0286 37.792 63.2546 37.1518 62.9417 36.4942C62.6984 35.9924 62.4898 35.4733 63.0286 35.7501L63.4806 36.2173C63.4806 36.2173 64.7321 37.9131 64.9928 39.6782L65.4274 40.0934C66.1227 40.7337 66.6963 41.3912 67.2699 42.0142C68.2955 43.1563 69.2863 44.2464 70.816 45.2154C71.2679 45.4923 71.8937 45.8384 72.6933 46.2364C74.6053 47.2227 77.543 46.7036 79.09 47.4477C80.637 48.1917 81.9755 50.5105 82.6882 52.2063C83.4009 53.9021 83.4182 55.3729 82.9315 56.3592C82.4448 57.3456 82.2015 57.9512 81.6105 57.9512C81.0195 57.9512 80.6544 57.4667 79.6984 57.4667C78.7424 57.4667 78.2557 57.9512 77.908 58.7991C77.5604 59.647 77.5604 61.239 78.0297 61.239C78.499 61.239 84.0266 60.7545 84.7393 60.7545C85.452 60.7545 85.9561 59.9066 86.0604 59.0414C86.1647 58.1762 86.0604 57.086 86.0604 56.4804C86.0604 55.8747 87.2598 56.8437 87.2598 56.8437C87.3988 55.7363 87.2771 54.6115 86.9121 53.556C86.3211 51.8429 85.591 49.8875 85.7127 49.2992Z" fill="#141F47"/>
<path d="M66.3662 43.2601C65.8099 42.6371 65.2537 42.0142 64.5932 41.4085C62.0032 38.986 60.0563 38.4322 55.8498 38.9167C53.2424 39.1936 51.452 39.9896 49.8876 40.6991C49.088 41.0624 48.271 41.3912 47.4367 41.6508C45.5072 42.1872 44.6555 40.9586 44.1514 40.2838L43.6473 40.3011C43.6473 40.3011 42.6391 40.751 43.1084 41.2355C43.5778 41.72 45.2812 44.0041 49.314 43.4504C51.5911 43.1389 59.9347 41.8584 59.9347 41.8584C59.9347 41.8584 56.2148 43.2255 57.7097 47.3611C58.179 48.6416 60.7864 49.8356 61.8293 51.341C62.8723 52.8465 62.6463 54.8192 62.0379 55.6671C61.4295 56.515 59.6218 57.1033 59.6218 57.1033C59.6218 57.1033 57.2404 56.0304 55.5543 57.9858C53.8682 59.9412 54.8416 61.0486 55.5543 61.0486C56.267 61.0486 60.8385 60.9275 61.7946 60.9275C62.7506 60.9275 63.359 60.443 63.8457 59.82C64.3324 59.1971 64.5584 57.0168 64.5584 57.0168C64.5584 57.0168 65.8794 57.6224 65.8794 58.3492C66.2271 57.259 66.0011 56.8783 65.8794 55.7882C65.7578 54.698 66.1228 53.5906 66.7312 52.9849C67.3396 52.3793 68.5216 52.2582 68.8866 51.5141C69.2516 50.77 68.6433 50.9084 68.2782 50.6489C67.9132 50.3893 67.0788 49.6799 67.4439 49.0742C67.7915 48.4686 69.1473 48.0187 69.269 47.1535C69.3212 46.8074 69.4429 46.7209 69.5471 46.2883C68.2261 45.3019 67.2874 44.281 66.3662 43.2601Z" fill="#141F47"/>
<path d="M29.0981 93.9436C29.0981 94.6012 28.9243 95.1203 28.5419 95.4837C27.7075 96.2277 26.4386 96.2277 25.6043 95.4837C25.2566 95.1203 25.0654 94.6012 25.0654 93.9436V87.593H23.5879V94.0128C23.5879 94.48 23.6748 94.9472 23.8486 95.3798C24.0225 95.7778 24.2658 96.1412 24.5787 96.4354C24.8916 96.7295 25.274 96.9718 25.6738 97.1102C26.5603 97.439 27.5337 97.439 28.4376 97.1102C28.8548 96.9545 29.2372 96.7295 29.5501 96.4354C29.863 96.1412 30.1237 95.7778 30.2801 95.3798C30.454 94.9472 30.5409 94.48 30.5409 94.0128V87.593H29.0634L29.0981 93.9436Z" fill="#141F47"/>
<path d="M37.72 90.9327C37.5114 90.725 37.2507 90.5693 36.9726 90.4654C36.6597 90.3616 36.3294 90.2924 36.0165 90.3097C35.6689 90.3097 35.3386 90.3789 35.0084 90.5001C34.6781 90.6212 34.4 90.8288 34.174 91.0884V90.3962H32.8008V97.2832H34.1914V93.0784C34.1914 92.5592 34.3304 92.1612 34.6086 91.919C34.8867 91.6767 35.2517 91.5383 35.6167 91.5383C35.9818 91.521 36.3294 91.6594 36.6075 91.9017C36.8683 92.1439 37.0073 92.5419 37.0073 93.0611V97.2659H38.3979V92.8534C38.3979 92.49 38.3458 92.1439 38.2589 91.7979C38.1546 91.4864 37.9808 91.1749 37.72 90.9327Z" fill="#141F47"/>
<path d="M41.8047 87.5757H40.3271V89.0465H41.8047V87.5757Z" fill="#141F47"/>
<path d="M41.7524 90.3962H40.3618V97.2832H41.7524V90.3962Z" fill="#141F47"/>
<path d="M46.2721 95.2414L44.6382 90.3962H43.1606L45.6985 97.2832H46.8457L49.3836 90.3962H47.9061L46.2721 95.2414Z" fill="#141F47"/>
<path d="M51.4868 93.2687C51.4868 93.0957 51.5042 92.9226 51.5216 92.7669C51.539 92.6112 51.5911 92.4727 51.6606 92.3343C51.7649 92.0747 51.9388 91.8498 52.1821 91.6941C52.4429 91.5383 52.7384 91.4518 53.0339 91.4691C53.3294 91.4518 53.6249 91.5383 53.8856 91.6941C54.1116 91.8498 54.3028 92.0747 54.4071 92.3343C54.4766 92.4727 54.5287 92.6112 54.5461 92.7669C54.5809 92.9399 54.5983 93.0957 54.5983 93.2687H51.4868ZM55.1893 91.2269C54.9285 90.9327 54.6157 90.7077 54.268 90.552C53.8682 90.379 53.451 90.3097 53.0165 90.3097C52.1995 90.2751 51.4173 90.6212 50.8784 91.2269C50.3396 91.8325 50.0788 92.6977 50.0788 93.8225C50.0615 94.3935 50.1484 94.9472 50.3222 95.4836C50.4613 95.8989 50.6872 96.2623 50.9827 96.5738C51.2608 96.8507 51.5911 97.041 51.9735 97.1621C52.3733 97.2833 52.7731 97.3525 53.1903 97.3525C53.4684 97.3525 53.7292 97.3352 54.0073 97.2833C54.2332 97.2487 54.4592 97.1794 54.6678 97.0756C54.8764 96.9891 55.0676 96.868 55.2414 96.7468C55.4326 96.6084 55.6065 96.4354 55.7803 96.2623L54.9112 95.449C54.7026 95.6567 54.4592 95.847 54.1811 95.9855C53.8856 96.1066 53.5553 96.1758 53.2251 96.1585C52.6514 96.1585 52.2169 95.9855 51.9214 95.6394C51.6259 95.2933 51.4694 94.8261 51.4694 94.2205H55.9715V93.6148C55.9715 93.1649 55.902 92.6977 55.7629 92.2651C55.6412 91.9017 55.45 91.5556 55.1893 91.2269Z" fill="#141F47"/>
<path d="M60.8385 90.3098C60.4561 90.3098 60.0911 90.379 59.7608 90.5347C59.4653 90.6731 59.2046 90.8808 59.0133 91.1403V90.3963H57.6401V97.2833H59.0307V93.0957C59.0134 92.6804 59.1524 92.2651 59.4305 91.9709C59.6913 91.7114 60.0389 91.5556 60.4039 91.5556C60.5952 91.5556 60.8037 91.5902 60.9776 91.6768C61.1514 91.7633 61.3078 91.8844 61.4295 92.0228L62.4898 90.9846C62.2812 90.7597 62.0205 90.5866 61.7424 90.4828C61.4469 90.3617 61.1514 90.3098 60.8385 90.3098Z" fill="#141F47"/>
<path d="M68.2607 93.7879C67.8957 93.4764 67.3916 93.3033 66.7311 93.2341L65.6534 93.1303C65.2883 93.0957 65.0276 93.0092 64.8885 92.8707C64.7495 92.7323 64.6799 92.542 64.6799 92.3516C64.6799 92.0921 64.7842 91.8671 64.9928 91.7114C65.2014 91.5383 65.5143 91.4691 65.9315 91.4691C66.2444 91.4691 66.5573 91.5037 66.8701 91.5902C67.1483 91.6595 67.409 91.7979 67.635 91.9709L68.5041 91.0884C68.1738 90.7943 67.7914 90.5866 67.3742 90.4828C66.9049 90.3617 66.4182 90.3098 65.9489 90.3098C65.6012 90.3098 65.2709 90.3444 64.9407 90.4482C64.6452 90.5347 64.3671 90.6731 64.1237 90.8635C63.8804 91.0365 63.6891 91.2615 63.5675 91.521C63.4284 91.7979 63.3589 92.1094 63.3589 92.4208C63.3589 93.0265 63.5327 93.4764 63.8977 93.7879C64.2628 94.082 64.7495 94.2724 65.41 94.3243L66.5225 94.4108C66.7832 94.4108 67.044 94.4973 67.2352 94.6531C67.3742 94.8088 67.4611 95.0164 67.4438 95.2241C67.4611 95.5356 67.2873 95.8124 67.0092 95.9509C66.6789 96.1239 66.3139 96.1931 65.9315 96.1758C65.5838 96.1758 65.2362 96.1239 64.8885 96.0374C64.5235 95.9336 64.1932 95.7432 63.9325 95.4664L63.0112 96.3662C63.3763 96.7295 63.8456 97.0064 64.3497 97.1621C64.8712 97.3006 65.3926 97.3698 65.9315 97.3698C66.3139 97.3698 66.6963 97.3352 67.0787 97.2314C67.409 97.1448 67.7219 97.0064 67.9826 96.8161C68.5215 96.4354 68.817 95.8297 68.7996 95.1722C68.7822 94.5665 68.6084 94.0993 68.2607 93.7879Z" fill="#141F47"/>
<path d="M71.9287 87.5757H70.4512V89.0465H71.9287V87.5757Z" fill="#141F47"/>
<path d="M71.8764 90.3962H70.4858V97.2832H71.8764V90.3962Z" fill="#141F47"/>
<path d="M75.8398 88.3025H74.4492V90.3963H73.667V91.4518H74.4492V95.2587C74.4492 95.501 74.484 95.7432 74.5709 95.9682C74.6404 96.1931 74.7621 96.4008 74.9185 96.5738C75.075 96.7642 75.2662 96.9026 75.4921 97.0064C75.7703 97.1275 76.0484 97.1795 76.3439 97.1795H77.1782V95.9855H76.6046C76.396 96.0028 76.1701 95.9336 76.0136 95.7778C75.8919 95.6048 75.8224 95.3971 75.8398 95.1722V91.4518H77.1782V90.3963H75.8398V88.3025Z" fill="#141F47"/>
<path d="M81.6977 95.2414L80.0464 90.3963H78.5688L80.985 96.9545L80.6026 98.0274C80.5331 98.2523 80.4114 98.4426 80.2376 98.5984C80.0464 98.7195 79.8204 98.7714 79.5944 98.7541H79.2468V100H79.803C80.0637 100 80.3245 99.9654 80.5678 99.8962C80.8112 99.827 81.0372 99.6885 81.2284 99.4982C81.4543 99.2559 81.6282 98.9618 81.7325 98.6503L84.7918 90.379H83.2969L81.6977 95.2414Z" fill="#141F47"/>
<path d="M4.8497 80.308C4.58897 80.5676 4.20655 80.706 3.70246 80.706H1.46013V77.8508H3.70246C4.11964 77.8162 4.53682 77.9547 4.8497 78.2315C5.12782 78.5084 5.26688 78.8891 5.2495 79.2698C5.2495 79.6505 5.11044 80.0312 4.8497 80.308ZM1.44274 73.8709H3.5634C3.9632 73.8536 4.36299 73.9747 4.67588 74.217C4.97138 74.4593 5.12782 74.8399 5.09306 75.2206C5.12782 75.6013 4.97138 75.982 4.67588 76.2243C4.36299 76.4665 3.9632 76.5877 3.5634 76.5703H1.44274V73.8709ZM6.2403 77.9201C6.11862 77.747 5.96218 77.5913 5.78836 77.4702C5.63191 77.349 5.45809 77.2452 5.26688 77.176C5.44071 77.1068 5.59715 77.0203 5.73621 76.8991C5.89265 76.778 6.03171 76.6223 6.136 76.4665C6.25768 76.2935 6.36198 76.0858 6.43151 75.8782C6.50104 75.6532 6.5358 75.411 6.5358 75.186C6.5358 74.39 6.29245 73.7498 5.77097 73.2999C5.2495 72.8327 4.57158 72.6077 3.68508 72.6077H0V82.0038H3.82414C4.20655 82.0038 4.60635 81.9519 4.97138 81.8308C5.6493 81.6404 6.18815 81.1386 6.46627 80.4984C6.62271 80.135 6.69224 79.7543 6.67486 79.3563C6.67486 79.0794 6.6401 78.8199 6.55318 78.543C6.48365 78.3008 6.37936 78.0931 6.2403 77.9201Z" fill="#141F47"/>
<path d="M9.94294 72.5904H8.51758V81.9865H9.94294V72.5904Z" fill="#141F47"/>
<path d="M13.5931 76.8126V73.8709H15.7138C16.131 73.8536 16.5481 73.9921 16.8784 74.2689C17.1913 74.5458 17.3477 74.9438 17.3304 75.3591C17.3477 75.7744 17.1913 76.1551 16.8784 76.4319C16.5481 76.7088 16.1484 76.8472 15.7138 76.8126H13.5931ZM19.0338 81.9865L16.861 77.8335C17.3825 77.6778 17.8518 77.3836 18.1995 76.9856C18.5819 76.5184 18.7731 75.9301 18.7383 75.3418C18.7383 74.9611 18.6688 74.5977 18.5297 74.2516C18.3907 73.9228 18.1995 73.6287 17.9387 73.3864C17.678 73.1442 17.3651 72.9538 17.0175 72.8154C16.6351 72.6769 16.2179 72.6077 15.8007 72.6077H12.1504V82.0038H13.5758V78.0412H15.3661L17.3477 82.0038L19.0338 81.9865Z" fill="#141F47"/>
<path d="M22.0064 75.7051L24.2314 80.2907H25.2917L27.4645 75.7051V81.9865H28.9072V72.5904H27.4645L24.7702 78.4392L22.0064 72.5904H20.5811V81.9865H22.0064V75.7051Z" fill="#141F47"/>
<path d="M32.5225 72.5904H31.0972V81.9865H32.5225V72.5904Z" fill="#141F47"/>
<path d="M41.822 81.9865V72.5904H40.3967V79.1832L36.0337 72.5904H34.73V81.9865H36.1553V75.3763L40.5183 81.9865H41.822Z" fill="#141F47"/>
<path d="M47.0715 78.1277H49.0879V78.6468C49.0879 78.9237 49.0531 79.2005 48.9836 79.4774C48.914 79.7196 48.775 79.9446 48.6186 80.1349C48.4273 80.3426 48.2014 80.5156 47.9406 80.6194C47.6625 80.7406 47.367 80.7925 47.0715 80.7925C46.8108 80.7925 46.5327 80.7406 46.2893 80.6368C45.9069 80.481 45.5766 80.1868 45.4028 79.8235C45.3159 79.6504 45.2637 79.4601 45.229 79.287C45.1942 79.0275 45.1594 78.7506 45.1421 78.4911C45.1247 78.1796 45.1247 77.7816 45.1247 77.3144C45.1247 76.8472 45.1247 76.4492 45.1421 76.1377C45.1594 75.8781 45.1942 75.6013 45.229 75.3417C45.2637 75.1514 45.3159 74.9783 45.4028 74.8053C45.4723 74.6669 45.5766 74.5284 45.6809 74.4073C45.8547 74.2343 46.0633 74.0785 46.2893 73.992C46.9846 73.7151 47.7842 73.819 48.3752 74.2689C48.7228 74.5803 48.9662 75.0129 49.0531 75.4802H50.4959C50.4263 75.0822 50.3046 74.7015 50.1308 74.3554C49.7832 73.6459 49.1574 73.0922 48.41 72.798C47.9754 72.625 47.5235 72.5558 47.0715 72.5558C46.1329 72.5385 45.2464 72.9019 44.5858 73.5594C44.3772 73.7671 44.186 74.0093 44.0643 74.2862C43.9427 74.5457 43.8384 74.8226 43.7862 75.1168C43.7341 75.4455 43.6993 75.7743 43.6819 76.1204C43.6819 76.4838 43.6646 76.8991 43.6646 77.349C43.6646 77.7989 43.6646 78.1969 43.6819 78.5603C43.6819 78.889 43.7167 79.2351 43.7862 79.5639C43.8384 79.8581 43.9427 80.1349 44.0643 80.3945C44.2034 80.6714 44.3772 80.9136 44.5858 81.1213C44.8987 81.45 45.2811 81.6923 45.6983 81.8653C46.1329 82.0384 46.5848 82.1249 47.0541 82.1249C47.5408 82.1249 48.0102 82.0384 48.4621 81.8653C48.914 81.675 49.3312 81.3981 49.6615 81.0347C49.957 80.7233 50.183 80.3426 50.3046 79.91C50.4437 79.4082 50.5132 78.889 50.4959 78.3699V76.9337H47.0541L47.0715 78.1277Z" fill="#141F47"/>
<path d="M57.6228 76.6049H53.7987V72.5904H52.356V81.9865H53.7987V77.8854H57.6228V81.9865H59.0656V72.5904H57.6228V76.6049Z" fill="#141F47"/>
<path d="M62.7333 78.8891L64.2109 74.7188L65.6362 78.8891H62.7333ZM63.5851 72.5904L60.126 81.9865H61.6556L62.3162 80.1003H66.036L66.6792 81.9865H68.2088L64.7497 72.5904H63.5851Z" fill="#141F47"/>
<path d="M73.4582 78.4392L70.7118 72.5904H69.269V81.9865H70.7118V75.7051L72.9367 80.2907H73.9971L76.1699 75.7051V81.9865H77.5952V72.5904H76.1699L73.4582 78.4392Z" fill="#141F47"/>
<path d="M83.9051 75.3071C83.9399 75.1168 83.9921 74.9437 84.079 74.7707C84.2702 74.4073 84.5831 74.1131 84.9829 73.9401C85.2262 73.8363 85.5043 73.7844 85.7651 73.7844C86.2344 73.7671 86.6863 73.9228 87.034 74.2343C87.3469 74.5457 87.5728 74.961 87.6771 75.3936H89.1373C88.9634 74.4592 88.581 73.7324 87.9726 73.2479C87.3469 72.7461 86.5647 72.4866 85.7651 72.5039C85.2957 72.5039 84.8264 72.5904 84.3919 72.7634C83.9747 72.9365 83.5923 73.196 83.2794 73.5075C83.0708 73.7151 82.897 73.9574 82.7579 74.2343C82.6362 74.4938 82.5319 74.7707 82.4798 75.0649C82.4103 75.3936 82.3929 75.7224 82.3929 76.0685C82.3929 76.4319 82.3755 76.8472 82.3755 77.2971C82.3755 77.747 82.3755 78.145 82.3929 78.5084C82.3929 78.8371 82.4276 79.1832 82.4798 79.512C82.5319 79.8062 82.6362 80.083 82.7579 80.3426C82.897 80.6195 83.0708 80.8617 83.2794 81.0694C83.5923 81.3808 83.9747 81.6404 84.3919 81.8134C84.8264 81.9865 85.2957 82.073 85.7651 82.073C86.1649 82.073 86.5647 82.0038 86.9645 81.8827C87.3295 81.7615 87.6771 81.5885 87.9726 81.3289C88.2855 81.0694 88.5289 80.7579 88.7201 80.4118C88.9287 80.0311 89.0677 79.6158 89.1373 79.1832H87.6945C87.5902 79.6158 87.3643 80.0311 87.0514 80.3426C86.7037 80.6541 86.2518 80.8098 85.7824 80.7925C85.5043 80.7925 85.2436 80.7406 85.0002 80.6368C84.7743 80.5502 84.5657 80.3945 84.3919 80.2215C84.2702 80.1003 84.1833 79.9619 84.0963 79.8235C84.0094 79.6504 83.9573 79.4774 83.9225 79.287C83.8704 79.0275 83.853 78.7506 83.8356 78.4911C83.8182 78.1796 83.8009 77.7816 83.8009 77.3144C83.8009 76.8472 83.8182 76.4492 83.8356 76.1377C83.8182 75.8262 83.853 75.5667 83.9051 75.3071Z" fill="#141F47"/>
<path d="M92.1964 72.5904H90.771V81.9865H92.1964V72.5904Z" fill="#141F47"/>
<path d="M93.5522 73.8709H96.1596V81.9865H97.585V73.8709H100.192V72.5904H93.5522V73.8709Z" fill="#141F47"/>
<path d="M106.832 72.5904L104.851 76.7261L102.869 72.5904H101.322L104.138 78.1277V81.9865H105.564V78.1277L108.397 72.5904H106.832Z" fill="#141F47"/>
</g>
<defs>
<clipPath id="clip0_12_2426">
<rect width="108.397" height="100" fill="white"/>
</clipPath>
</defs>
</svg>
