<svg width="202" height="100" viewBox="0 0 202 100" fill="none" xmlns="http://www.w3.org/2000/svg">
<g clip-path="url(#clip0_12_2408)">
<path fill-rule="evenodd" clip-rule="evenodd" d="M9.53668 53.5497H15.419C19.6787 53.5497 22.7213 52.7383 24.7497 51.1156C26.7781 49.2901 27.9951 47.0588 27.9951 44.2191C27.9951 41.5821 26.9809 39.3509 24.9525 37.3225C22.9241 35.497 19.4758 34.6856 14.4048 34.6856H9.53668M9.53668 26.7748H12.5793C16.0276 26.7748 18.6645 25.9635 20.2872 24.5436C21.9099 22.9209 22.7213 20.6897 22.7213 17.6471C22.7213 14.8073 21.9099 12.5761 20.2872 10.9533C18.6645 9.33063 16.2304 8.72211 12.985 8.72211H9.53668V26.7748ZM0.206055 62.4746V0H9.53668C13.7963 0 17.0418 0.405679 19.4758 1.0142C21.9099 1.62272 24.1411 2.83976 25.7639 4.25963C27.5894 5.88235 28.8065 7.91075 30.0235 10.142C31.0377 12.5761 31.6462 15.0101 31.6462 17.4442C31.6462 21.9067 30.0235 25.7606 26.5752 28.8032C29.8207 30.0203 32.4576 31.8458 34.486 34.6856C36.5144 37.5254 37.3257 40.7708 37.3257 44.4219C37.3257 49.2901 35.5002 53.3469 32.0519 56.7951C30.0235 58.8235 27.5894 60.2434 25.1553 61.0548C22.3156 61.8661 18.8673 62.2718 14.6077 62.2718L0.206055 62.4746Z" fill="#00539B"/>
<path d="M41.3825 23.1237H50.5103V26.572C52.133 24.7464 53.7558 23.5294 54.9728 22.9209C56.1898 22.3124 57.8125 21.9067 59.6381 21.9067C62.0722 21.9067 64.5063 22.718 67.1432 24.3408L62.8835 32.6572C61.058 31.4401 59.4353 30.8316 57.8125 30.8316C52.9444 30.8316 50.3075 34.4827 50.3075 41.9878V62.4746H41.1797" fill="#00539B"/>
<path d="M78.7051 23.1237V45.8418C78.7051 52.3326 81.3421 55.5781 86.413 55.5781C91.484 55.5781 94.121 52.3326 94.121 45.8418V23.1237H103.249V46.0446C103.249 49.29 102.843 51.927 102.032 54.1582C101.22 56.1866 100.003 58.0122 98.1778 59.6349C95.1352 62.2718 91.2812 63.6917 86.413 63.6917C81.7477 63.6917 77.8938 62.2718 74.6483 59.6349C72.8228 58.0122 71.4029 56.1866 70.5915 54.1582C69.7802 52.3326 69.3745 49.6957 69.3745 46.0446V23.1237" fill="#00539B"/>
<path d="M108.928 23.1238H118.056V26.7749C121.301 23.5294 124.75 22.1096 128.807 22.1096C133.472 22.1096 136.92 23.5294 139.557 26.3692C141.788 28.8033 142.802 32.8601 142.802 38.3367V62.4747H133.675V40.568C133.675 36.714 133.066 34.0771 132.052 32.4544C131.038 31.0345 129.009 30.2231 126.372 30.2231C123.33 30.2231 121.301 31.2373 119.882 33.2657C118.665 35.2941 118.056 38.7424 118.056 43.6106V62.6775H108.928" fill="#00539B"/>
<path fill-rule="evenodd" clip-rule="evenodd" d="M174.851 37.5254C173.634 32.6572 170.592 30.2231 165.723 30.2231C164.709 30.2231 163.492 30.426 162.681 30.8316C161.667 31.2373 160.855 31.643 160.044 32.2515C159.233 32.86 158.624 33.6714 158.015 34.4828C157.407 35.2941 157.001 36.3083 156.798 37.5254M184.182 44.8276H155.987C156.19 48.073 157.204 50.7099 159.233 52.5355C161.058 54.3611 163.492 55.3753 166.332 55.3753C168.563 55.3753 170.389 54.7667 172.011 53.7525C173.431 52.7383 175.054 50.7099 177.082 47.6673L184.79 51.927C183.573 53.9554 182.356 55.7809 180.936 57.2008C179.516 58.8235 178.097 60.0406 176.474 60.8519C175.054 61.8661 173.431 62.4746 171.606 62.8803C169.78 63.286 167.955 63.4888 165.926 63.4888C160.044 63.4888 155.379 61.6633 151.727 57.8093C148.076 53.9554 146.454 48.8844 146.454 42.5964C146.454 36.3083 148.076 31.2373 151.727 27.3834C155.176 23.5294 159.841 21.7039 165.521 21.7039C171.403 21.7039 175.865 23.5294 179.314 27.1805C182.559 30.8316 184.385 35.9026 184.385 42.3935L184.182 44.8276Z" fill="#00539B"/>
<path d="M198.178 0H189.05V62.4746H198.178V0Z" fill="#00539B"/>
<path d="M3.65453 73.6309V88.4382C3.65453 90.4666 4.06021 92.0893 4.66873 93.1035C5.68293 94.5234 7.10281 95.1319 8.92837 95.1319C10.7539 95.1319 12.1738 94.5234 13.188 93.1035C13.7965 92.0893 14.2022 90.6694 14.2022 88.4382V73.6309H18.259V89.4524C18.259 92.0893 17.4476 94.1177 15.8249 95.9432C13.9994 97.7688 11.7681 98.783 9.13121 98.783C6.49429 98.783 4.26305 97.7688 2.4375 95.9432C0.814777 94.1177 0.00341797 91.8864 0.00341797 89.4524V73.6309" fill="#00539B"/>
<path d="M25.9668 98.1745V71.8053L43.8167 90.6694V73.6309H47.6707V99.5943L29.6179 80.9331V98.1745" fill="#00539B"/>
<path d="M59.03 73.6309H55.3789V98.1745H59.03V73.6309Z" fill="#00539B"/>
<path d="M68.1574 73.6309L75.0539 90.4666L81.9505 73.6309H85.8044L74.8511 100L64.1006 73.6309" fill="#00539B"/>
<path d="M104.466 77.0791H94.5266V82.9615H104.06V86.4098H94.5266V94.5234H104.466V98.1745H90.8755V73.6309H104.466" fill="#00539B"/>
<path fill-rule="evenodd" clip-rule="evenodd" d="M115.014 84.787H116.231C119.679 84.787 121.505 83.3672 121.505 80.7303C121.505 78.2962 119.882 76.8763 116.434 76.8763H115.216M119.476 87.6268L126.981 98.1745H122.519L115.419 88.0325H114.811V98.1745H111.16V73.6309H115.622C118.868 73.6309 121.302 74.2394 122.722 75.4564C124.344 76.8763 125.156 78.7019 125.156 80.7303C125.156 82.5558 124.75 83.9757 123.736 85.1927C122.519 86.4098 121.099 87.2211 119.476 87.6268Z" fill="#00539B"/>
<path d="M146.657 77.282L143.614 79.1075C143.006 78.0933 142.6 77.4848 141.991 77.282C141.383 76.8763 140.774 76.8763 139.963 76.8763C138.949 76.8763 138.137 77.0791 137.326 77.6877C136.717 78.2962 136.312 78.9047 136.312 79.9189C136.312 81.1359 137.123 82.1501 138.949 82.7586L141.383 83.7728C143.411 84.5842 144.831 85.5984 145.845 86.8154C146.859 88.0325 147.265 89.4524 147.265 91.0751C147.265 93.3063 146.454 95.1319 145.034 96.7546C143.614 98.1745 141.586 98.9858 139.354 98.9858C137.326 98.9858 135.5 98.3773 134.081 97.1603C132.661 95.3347 131.849 93.712 131.646 91.2779L135.298 90.4666C135.5 91.8864 135.703 92.9006 136.109 93.5092C136.92 94.5233 137.935 95.1319 139.354 95.1319C140.571 95.1319 141.383 94.7262 142.194 93.9148C143.006 93.1035 143.411 92.0893 143.411 90.8722C143.411 90.4666 143.411 90.0609 143.208 89.6552C143.006 89.2495 142.803 88.8438 142.6 88.641C142.397 88.2353 141.991 88.0325 141.586 87.6268C141.18 87.424 140.571 87.0183 139.963 86.8154L137.529 85.8012C134.081 84.3814 132.458 82.353 132.458 79.5132C132.458 77.6877 133.066 76.0649 134.486 74.8479C136.109 73.6309 137.935 73.0223 139.963 73.0223C142.803 73.0223 145.034 74.4422 146.657 77.282Z" fill="#00539B"/>
<path d="M157.407 73.6309H153.756V98.1745H157.407V73.6309Z" fill="#00539B"/>
<path d="M172.011 77.0791V98.1745H168.36V77.0791H162.681V73.6309H177.691V77.0791" fill="#00539B"/>
<path d="M189.456 87.424L181.342 73.6309H185.602L191.281 83.3672L196.961 73.6309H201.221L193.107 87.424V98.1745H189.456" fill="#00539B"/>
</g>
<defs>
<clipPath id="clip0_12_2408">
<rect width="201.217" height="100" fill="white" transform="translate(0.00341797)"/>
</clipPath>
</defs>
</svg>
