<svg width="212" height="100" viewBox="0 0 212 100" fill="none" xmlns="http://www.w3.org/2000/svg">
<g clip-path="url(#clip0_12_2460)">
<path d="M24.6546 53.2357C17.0555 53.2357 11.1985 50.8878 7.08336 46.1921C2.99351 41.4711 0.92334 34.7556 0.92334 26.071C0.92334 18.0428 3.01876 11.7565 7.20959 7.2375C11.4257 2.69322 17.2322 0.421082 24.6798 0.421082C32.3041 0.421082 38.1864 2.74371 42.3015 7.36373C46.4166 11.9837 48.4868 18.5729 48.4868 27.1061C48.5373 28.0907 48.4615 29.0753 48.2596 30.1104H14.2532C14.5562 34.0992 15.4398 37.053 16.8788 39.0474C18.7218 41.5216 21.7513 42.7334 26.0431 42.7334C28.0375 42.7334 29.8805 42.1527 31.572 41.0166C33.2635 39.8806 34.2733 38.5173 34.6267 36.9015H48.0324C46.8963 42.0012 44.2707 45.9901 40.1556 48.8934C35.99 51.7714 30.8398 53.2357 24.6546 53.2357ZM34.753 21.653C34.45 18.6487 33.6421 16.3008 32.3546 14.6093C30.6631 12.3624 28.0628 11.2516 24.5031 11.2516C21.1201 11.2516 18.545 12.5392 16.7778 15.1647C15.667 16.831 14.8844 18.9769 14.3795 21.653H34.753Z" fill="#9D9FA2"/>
<path d="M70.5266 33.1904C70.5266 36.2704 71.1829 38.5425 72.521 40.0321C73.8338 41.5216 75.8787 42.2537 78.6053 42.2537C82.0387 42.2537 84.6896 41.2186 86.5578 39.1232C88.4007 37.0278 89.3348 34.0235 89.3348 30.0599V1.73389H95.8988H102.488V51.9229H96.2522H89.966V44.3996C89.5115 45.3337 88.9561 46.1921 88.2997 46.9999C85.043 51.1655 80.3472 53.2357 74.162 53.2357C68.8856 53.2357 64.7705 51.6705 61.7914 48.5652C58.8377 45.4347 57.3481 41.1176 57.3481 35.5888V1.73389H63.9121H70.5013L70.5266 33.1904Z" fill="#9D9FA2"/>
<path d="M143.033 16.831C143.033 14.887 142.225 13.347 140.635 12.1857C139.044 11.0244 136.924 10.4437 134.298 10.4437C131.748 10.4437 129.779 10.8729 128.365 11.7565C126.926 12.6149 126.244 13.8519 126.244 15.4172C126.244 16.528 127.052 17.4621 128.668 18.27C130.259 19.0274 133.111 19.8857 137.176 20.7946C145.28 22.6123 150.683 24.6067 153.409 26.7527C156.136 28.8986 157.524 32.2815 157.524 36.9015C157.524 41.8245 155.53 45.7881 151.566 48.7672C147.603 51.7714 142.377 53.2609 135.863 53.2609C128.163 53.2609 122.256 51.7714 118.115 48.8176C113.975 45.8639 111.753 41.5468 111.476 35.8665H124.881C124.982 38.1638 125.992 39.9815 127.936 41.2943C129.88 42.6071 132.505 43.2635 135.863 43.2635C138.489 43.2635 140.559 42.8091 142.023 41.9002C143.513 40.9914 144.245 39.7291 144.245 38.1133C144.245 36.9773 143.538 36.0179 142.099 35.2101C140.66 34.4527 138.135 33.6701 134.525 32.8622C126.093 30.9435 120.438 28.9491 117.585 26.8284C114.732 24.733 113.319 21.5015 113.319 17.1087C113.319 12.1352 115.162 8.09586 118.847 5.0411C122.533 1.96109 127.381 0.421082 133.414 0.421082C140.206 0.421082 145.684 1.91059 149.849 4.91487C154.015 7.91914 156.085 11.8828 156.085 16.8057C156.11 16.831 143.033 16.831 143.033 16.831Z" fill="#ED174E"/>
<path d="M179.109 53.2357C174.464 53.2357 170.753 51.8977 167.925 49.2468C165.098 46.596 163.684 43.0868 163.684 38.7697C163.684 34.2002 164.946 30.5143 167.496 27.7625C170.071 25.0107 173.782 23.2687 178.655 22.5618L187.365 21.35C189.637 21.0471 191.53 20.5169 193.02 19.7848C193.651 19.4818 194.156 18.9264 194.509 18.1185C194.863 17.3106 194.989 16.5028 194.888 15.6697C194.711 14.2559 193.979 13.1451 192.717 12.3372C191.202 11.3778 189.031 10.8982 186.204 10.8982C183.679 10.8982 181.71 11.5041 180.321 12.7411C178.907 13.9782 178.15 15.6949 178.074 17.9418H165.401C165.679 12.0847 167.673 7.69193 171.384 4.76339C175.121 1.88535 180.574 0.421082 187.744 0.421082C193.979 0.421082 198.902 1.73387 202.512 4.35946C206.123 6.98504 207.915 10.57 207.915 15.1395V43.1878C207.915 45.4347 208.092 46.9999 208.47 47.9088C208.849 48.8176 209.581 49.5245 210.692 50.0547V50.1052V51.8977H203.547H196.403V51.8219C195.822 49.8022 195.444 47.8583 195.267 45.9396L195.216 45.8386C191.076 50.7616 185.724 53.2357 179.109 53.2357ZM194.989 33.4176V27.6615C193.449 28.5199 191.429 29.2015 188.93 29.7317L184.058 30.6658C181.76 31.095 180.018 31.8776 178.806 33.0389C177.62 34.2002 177.014 35.6392 177.014 37.4065C177.014 39.4009 177.544 40.9661 178.63 42.1275C179.69 43.2635 181.205 43.8442 183.149 43.8442C187.365 43.8442 190.748 42.3547 193.272 39.3756C193.752 38.795 194.181 37.9366 194.509 36.8006C194.838 35.6645 194.989 34.4779 194.989 33.4176Z" fill="#9D9FA2"/>
<path d="M3.39795 77.8253V62.198H14.9859V63.1321V64.0662H5.54386V68.8377H14.178V69.7718V70.7059H5.54386V75.9318H15.1121V76.8659V77.8H3.39795V77.8253Z" fill="#9D9FA2"/>
<path d="M22.08 78.1535C20.54 78.1535 19.3029 77.5728 18.394 76.4367C17.4852 75.3007 17.0308 73.7607 17.0308 71.8167C17.0308 70.1 17.4852 68.7367 18.3688 67.6764C19.2524 66.616 20.4137 66.1111 21.8275 66.1111C23.2413 66.1111 24.3773 66.6918 25.1852 67.8783L25.3367 68.0803V62.198H26.3213H27.3059V77.8253H26.397H25.4882V76.2853L25.2357 76.6387C24.4026 77.6485 23.3675 78.1535 22.08 78.1535ZM22.1809 67.8279C21.0954 67.8279 20.2875 68.1813 19.8078 68.8629C19.3029 69.5446 19.0504 70.6302 19.0504 72.1197C19.0504 73.5334 19.3281 74.619 19.8583 75.3764C20.3885 76.1338 21.1711 76.5125 22.1809 76.5125C23.115 76.5125 23.8724 76.159 24.4531 75.4774C25.0337 74.7705 25.3114 73.8616 25.3114 72.7003C25.3114 71.1603 25.0337 69.9485 24.5036 69.1154C23.9482 68.257 23.1908 67.8279 22.1809 67.8279Z" fill="#9D9FA2"/>
<path d="M30.0073 62.198H32.0018V64.3692H30.0073V62.198ZM30.0326 66.4646H31.0172H32.0018V77.8505H31.0172H30.0326V66.4646Z" fill="#9D9FA2"/>
<path d="M34.8794 66.4646H35.7883H36.7224V68.1308L37.1515 67.5754C37.9847 66.5908 39.045 66.1111 40.3073 66.1111C41.5696 66.1111 42.5542 66.4646 43.2611 67.121C43.9427 67.8026 44.2961 68.762 44.2961 70.0243V77.8253H43.3368H42.3522V70.6807C42.3522 69.6708 42.1502 68.9639 41.7716 68.5095C41.3676 68.0551 40.7365 67.8531 39.8781 67.8531C38.944 67.8531 38.2119 68.2066 37.6565 68.8882C37.101 69.5951 36.8486 70.5292 36.8486 71.7158V77.8H35.864H34.8794V66.4646Z" fill="#9D9FA2"/>
<path d="M47.0229 62.198H48.0075H48.9921V67.9288C49.8505 66.6918 50.9361 66.0859 52.2741 66.0859C53.7889 66.0859 54.9754 66.5908 55.859 67.6259C56.7427 68.661 57.1718 70.0495 57.1718 71.7915C57.1718 73.7859 56.7174 75.3259 55.8338 76.462C54.9502 77.5981 53.7131 78.1535 52.1226 78.1535C50.8098 78.1535 49.7748 77.6485 49.0174 76.664L48.8407 76.4367V77.8505H47.0229V62.198ZM52.0469 76.4872C53.0567 76.4872 53.8394 76.1085 54.3695 75.3512C54.8997 74.5938 55.1522 73.5082 55.1522 72.0439C55.1522 70.6302 54.8997 69.5698 54.3948 68.8882C53.8899 68.2065 53.1072 67.8531 52.0721 67.8531C51.0118 67.8531 50.2292 68.2318 49.7243 69.0144C49.2193 69.797 48.9921 71.0089 48.9921 72.6751C48.9921 73.8869 49.2698 74.821 49.8 75.4774C50.2797 76.159 51.0371 76.4872 52.0469 76.4872Z" fill="#9D9FA2"/>
<path d="M61.4889 73.7859C61.4889 74.7453 61.6656 75.4269 62.0443 75.8561C62.423 76.2853 63.0289 76.4872 63.862 76.4872C64.7961 76.4872 65.5282 76.1338 66.0836 75.4269C66.639 74.72 66.9168 73.7607 66.9168 72.5236V66.4393H67.8761H68.8607V77.8253H67.9518H67.0177V76.0833C66.8915 76.2853 66.74 76.4872 66.5886 76.664C65.7554 77.6233 64.7204 78.1282 63.4833 78.1282C62.1705 78.1282 61.1859 77.8 60.5295 77.1689C59.8731 76.5125 59.5449 75.5531 59.5449 74.2656V66.4393H60.5295H61.4889V73.7859Z" fill="#9D9FA2"/>
<path d="M72.0166 66.4646H72.9255H73.8596V68.4085C74.0363 68.1056 74.213 67.8279 74.3897 67.5754C75.1219 66.5908 76.0307 66.1111 77.091 66.1111C77.2678 66.1111 77.4445 66.1364 77.6465 66.2121V68.1561H77.2425C76.1822 68.1561 75.3743 68.459 74.8189 69.0902C74.2383 69.7213 73.9605 70.6049 73.9605 71.741V77.8253H72.9759H72.0166V66.4646Z" fill="#9D9FA2"/>
<path d="M83.3517 81.0567C84.4625 81.0567 85.3209 80.7033 85.9016 80.0217C86.4822 79.34 86.7852 78.3302 86.7852 76.9921V76.6134C85.9773 77.6233 84.9422 78.1282 83.6547 78.1282C82.1147 78.1282 80.8776 77.5476 79.9688 76.4115C79.0599 75.2754 78.6055 73.7354 78.6055 71.7915C78.6055 70.0747 79.0599 68.7115 79.9435 67.6511C80.8524 66.5908 82.0137 66.0859 83.4779 66.0859C84.8665 66.0859 85.9773 66.6665 86.7852 67.8531L86.9366 68.0551V66.4393H88.7544V76.9921C88.7544 78.9108 88.2999 80.3246 87.4416 81.2587C86.558 82.1676 85.2199 82.6472 83.4274 82.6472C82.1147 82.6472 81.0796 82.3443 80.2969 81.7636C79.5143 81.1577 79.0599 80.2994 78.9084 79.1633H80.9028C81.0291 79.7692 81.2815 80.2489 81.736 80.5771C82.1147 80.9053 82.6701 81.0567 83.3517 81.0567ZM83.7304 67.8531C82.6448 67.8531 81.8622 68.1813 81.3573 68.8629C80.8524 69.5446 80.5999 70.6302 80.5999 72.0944C80.5999 73.4829 80.8776 74.5685 81.4078 75.3259C81.9632 76.0833 82.7206 76.462 83.7304 76.462C84.6645 76.462 85.4219 76.1085 86.0025 75.4269C86.5832 74.72 86.8609 73.8112 86.8609 72.6751C86.8609 71.0593 86.6084 69.8475 86.0783 69.0649C85.5734 68.257 84.7907 67.8531 83.7304 67.8531Z" fill="#9D9FA2"/>
<path d="M91.4305 62.198H92.4151H93.3997V67.9793L93.7279 67.5501C94.561 66.5656 95.6214 66.0859 96.8837 66.0859C98.146 66.0859 99.1305 66.4393 99.8374 67.0957C100.519 67.7774 100.873 68.7367 100.873 69.999V77.8H99.8879H98.9033V70.4787C98.9033 69.5446 98.7266 68.8629 98.3479 68.4338C97.9692 68.0298 97.3886 67.8026 96.5555 67.8026C95.5709 67.8026 94.8135 68.1561 94.2328 68.8377C93.6522 69.5446 93.3745 70.4787 93.3745 71.6652V77.7495H92.3899H91.4053L91.4305 62.198Z" fill="#9D9FA2"/>
<path d="M122.685 72.0944C122.685 74.0131 122.13 75.5279 121.044 76.6135C119.934 77.699 118.419 78.2544 116.45 78.2544C114.405 78.2544 112.865 77.7243 111.804 76.6892C110.744 75.6541 110.214 74.1141 110.214 72.0944V62.198H111.299H112.385V71.9177C112.385 73.3567 112.738 74.4675 113.42 75.2249C114.127 75.9823 115.137 76.361 116.475 76.361C117.813 76.361 118.823 75.9823 119.53 75.2249C120.211 74.4675 120.565 73.3567 120.565 71.9177V62.198H121.65H122.736L122.685 72.0944Z" fill="#9D9FA2"/>
<path d="M125.841 66.4646H126.75H127.684V68.1308L128.113 67.5754C128.946 66.5908 130.006 66.1111 131.269 66.1111C132.531 66.1111 133.516 66.4646 134.222 67.121C134.904 67.8026 135.258 68.762 135.258 70.0243V77.8253H134.273H133.314V70.6807C133.314 69.6708 133.112 68.9639 132.733 68.5095C132.329 68.0551 131.698 67.8531 130.84 67.8531C129.905 67.8531 129.173 68.2066 128.618 68.8882C128.062 69.5951 127.81 70.5292 127.81 71.7158V77.8H126.825H125.841V66.4646Z" fill="#9D9FA2"/>
<path d="M138.186 62.198H140.18V64.3692H138.186V62.198ZM138.186 66.4646H139.171H140.155V77.8505H139.171H138.186V66.4646Z" fill="#9D9FA2"/>
<path d="M141.771 66.4646H142.907H144.043L147.148 75.7804L150.355 66.4646H151.415H152.501L148.183 77.8505H147.148H146.088L141.771 66.4646Z" fill="#9D9FA2"/>
<path d="M158.787 78.1535C157.146 78.1535 155.859 77.6486 154.925 76.6135C153.99 75.5784 153.511 74.1646 153.511 72.3721C153.511 70.4535 154.016 68.9387 155 67.8026C155.985 66.6666 157.323 66.1111 158.989 66.1111C160.504 66.1111 161.716 66.6666 162.65 67.7774C163.584 68.8882 164.038 70.3272 164.038 72.1449L164.013 72.8266H155.581C155.657 73.9626 155.909 74.821 156.364 75.4269C156.919 76.159 157.777 76.5125 158.964 76.5125C159.696 76.5125 160.352 76.3105 160.908 75.9066C161.463 75.5027 161.791 74.9725 161.918 74.3413H163.836C163.559 75.5784 162.978 76.5377 162.12 77.1941C161.261 77.8253 160.15 78.1535 158.787 78.1535ZM162.044 71.2613C161.993 70.201 161.716 69.3679 161.236 68.7872C160.706 68.1308 159.948 67.8026 158.913 67.8026C157.878 67.8026 157.07 68.1813 156.465 68.9387C155.985 69.5193 155.682 70.302 155.581 71.2613H162.044Z" fill="#9D9FA2"/>
<path d="M166.639 66.4646H167.548H168.482V68.4085C168.633 68.1056 168.81 67.8279 169.012 67.5754C169.744 66.5908 170.653 66.1111 171.713 66.1111C171.89 66.1111 172.067 66.1364 172.269 66.2121V68.1561H171.865C170.804 68.1561 169.996 68.459 169.441 69.0902C168.86 69.7213 168.583 70.6049 168.583 71.741V77.8253H167.623H166.639V66.4646Z" fill="#9D9FA2"/>
<path d="M180.372 69.7465C180.322 69.1154 180.044 68.6104 179.589 68.2823C179.135 67.9288 178.504 67.7521 177.721 67.7521C176.913 67.7521 176.308 67.8783 175.878 68.156C175.449 68.4337 175.247 68.8377 175.247 69.3678C175.247 69.7718 175.399 70.0747 175.702 70.2767C176.005 70.4787 176.585 70.6806 177.469 70.9078L179.489 71.3875C180.599 71.6652 181.407 72.0439 181.887 72.4983C182.367 72.978 182.594 73.6344 182.594 74.4675C182.594 75.6036 182.19 76.4872 181.357 77.1436C180.524 77.8 179.413 78.1282 178.024 78.1282C176.409 78.1282 175.171 77.8 174.389 77.1688C173.581 76.5377 173.152 75.5279 173.051 74.1898H174.919C175.02 74.9977 175.298 75.5783 175.777 75.9318C176.257 76.2852 177.014 76.462 177.999 76.462C178.857 76.462 179.539 76.3105 179.968 75.9823C180.423 75.6541 180.65 75.1744 180.65 74.5433C180.65 74.1393 180.498 73.8364 180.195 73.6344C179.892 73.4324 179.312 73.2305 178.403 73.0033L176.383 72.5488C175.298 72.2964 174.515 71.9429 174.061 71.4632C173.606 71.0088 173.379 70.3777 173.379 69.5446C173.379 68.4842 173.758 67.6259 174.54 66.9947C175.323 66.3636 176.358 66.0606 177.696 66.0606C179.034 66.0606 180.12 66.3888 180.902 67.02C181.71 67.6763 182.114 68.56 182.165 69.696L180.372 69.7465Z" fill="#9D9FA2"/>
<path d="M184.866 62.198H186.861V64.3692H184.866V62.198ZM184.866 66.4646H185.851H186.835V77.8505H185.851H184.866V66.4646Z" fill="#9D9FA2"/>
<path d="M193.955 77.8252C193.298 77.9262 192.819 77.9767 192.516 77.9767C191.657 77.9767 191.077 77.8 190.723 77.4213C190.37 77.0426 190.193 76.4115 190.193 75.5026V67.9793H188.603V66.4393H190.193V63.2583H192.137V66.4393H193.955V67.9793H192.137V75.5026C192.137 75.7551 192.238 75.957 192.44 76.1085C192.642 76.26 192.92 76.3357 193.273 76.3357H193.955V77.8252Z" fill="#9D9FA2"/>
<path d="M200.847 78.204C200.165 79.946 199.559 81.1073 199.029 81.6374C198.499 82.1676 197.716 82.4453 196.656 82.4453C196.302 82.4453 195.999 82.4201 195.722 82.3191V80.5519C196.025 80.6528 196.378 80.7033 196.832 80.7286C197.262 80.7286 197.64 80.5519 197.943 80.1984C198.246 79.845 198.574 79.1886 198.953 78.204L198.978 78.0273L194.687 66.4646H195.797H196.908L199.988 75.8814L203.119 66.4646H204.179H205.239L200.847 78.204Z" fill="#9D9FA2"/>
<path d="M12.8144 88.0499C12.7134 87.0653 12.3347 86.3079 11.6278 85.7777C10.9462 85.2476 10.0121 84.9699 8.82551 84.9699C7.6137 84.9699 6.70485 85.1971 6.0737 85.6515C5.44255 86.1059 5.1396 86.7876 5.1396 87.6712C5.1396 88.2771 5.34157 88.7315 5.77075 89.0092C6.19993 89.3122 7.03305 89.5899 8.2701 89.8928L11.0219 90.5492C12.5114 90.9027 13.5465 91.4076 14.1777 92.0892C14.8088 92.7709 15.137 93.705 15.137 94.942C15.137 96.3558 14.5816 97.4919 13.496 98.325C12.4104 99.1581 10.9209 99.5621 9.05273 99.5621C6.98256 99.5621 5.36681 99.0824 4.2055 98.123C3.06943 97.1889 2.48877 95.9014 2.48877 94.2604V94.1342H4.45796C4.4832 95.2702 4.91238 96.1286 5.72026 96.7597C6.52813 97.3656 7.63895 97.6938 9.05273 97.6938C10.3655 97.6938 11.3754 97.4666 12.057 97.0375C12.7386 96.583 13.0921 95.9266 13.0921 95.0683C13.0921 94.3109 12.8649 93.7555 12.4104 93.402C11.956 93.0486 11.0724 92.7204 9.70912 92.3922L6.95731 91.7358C5.56878 91.4076 4.55894 90.9532 3.97828 90.3725C3.37238 89.7918 3.09467 88.984 3.09467 87.9489C3.09467 86.4594 3.59959 85.2728 4.63468 84.3892C5.66976 83.5056 7.05829 83.0764 8.80027 83.0764C10.5927 83.0764 12.0065 83.5056 13.0668 84.3892C14.1272 85.2728 14.6826 86.4846 14.7583 88.0246L12.8144 88.0499Z" fill="#9D9FA2"/>
<path d="M21.9034 99.1581C21.247 99.2591 20.7674 99.3096 20.4644 99.3096C19.606 99.3096 19.0254 99.1329 18.6719 98.7542C18.3185 98.3755 18.1418 97.7443 18.1418 96.8355V89.3122H16.5513V87.7722H18.1418V84.5912H20.0857V87.7722H21.9034V89.3122H20.0857V96.8607C20.0857 97.1132 20.1867 97.3152 20.3887 97.4666C20.5906 97.6181 20.8683 97.6939 21.2218 97.6939H21.9034V99.1581Z" fill="#9D9FA2"/>
<path d="M25.8164 95.1187C25.8164 96.0781 25.9931 96.7597 26.3718 97.1889C26.7505 97.6181 27.3564 97.8201 28.1895 97.8201C29.1236 97.8201 29.8557 97.4666 30.4111 96.7597C30.9665 96.0528 31.219 95.0935 31.219 93.8564V87.7722H32.2036H33.1629V99.1581H32.2541H31.32V97.4161C31.1938 97.6181 31.0423 97.8201 30.8908 97.9968C30.0577 98.9814 29.0226 99.461 27.7855 99.461C26.4728 99.461 25.4882 99.1329 24.8318 98.5017C24.1754 97.8453 23.8472 96.886 23.8472 95.5984V87.7722H24.8318H25.8164V95.1187Z" fill="#9D9FA2"/>
<path d="M40.5096 99.4863C38.9696 99.4863 37.7326 98.9057 36.8237 97.7696C35.9149 96.6335 35.4604 95.0935 35.4604 93.1496C35.4604 91.4328 35.9149 90.0696 36.7985 89.0092C37.6821 87.9489 38.8434 87.444 40.2572 87.444C41.671 87.444 42.807 88.0246 43.6149 89.2112L43.7664 89.4384V83.5561H44.751H45.7356V99.1834H44.8267H43.9179V97.6181L43.6654 97.9716C42.8575 98.9814 41.7972 99.4863 40.5096 99.4863ZM40.6106 89.1607C39.5251 89.1607 38.7172 89.4889 38.2375 90.1958C37.7326 90.8774 37.4801 91.963 37.4801 93.4525C37.4801 94.8663 37.7578 95.9266 38.288 96.684C38.8434 97.4414 39.6008 97.8201 40.6106 97.8201C41.5447 97.8201 42.3021 97.4666 42.8828 96.7597C43.4634 96.0529 43.7411 95.144 43.7411 93.9827C43.7411 92.4427 43.4634 91.2309 42.9333 90.3978C42.4031 89.5899 41.6205 89.1607 40.6106 89.1607Z" fill="#9D9FA2"/>
<path d="M53.1075 99.4863C51.4665 99.4863 50.1789 98.9814 49.2448 97.9463C48.3107 96.9112 47.8311 95.5227 47.8311 93.705C47.8311 91.7863 48.336 90.2715 49.3206 89.1354C50.3052 87.9994 51.6432 87.444 53.3094 87.444C54.8242 87.444 56.036 87.9994 56.9701 89.1102C57.9042 90.221 58.3586 91.6853 58.3586 93.4778L58.3334 94.1594H49.9012C49.977 95.2955 50.2547 96.1538 50.6839 96.7597C51.2393 97.4919 52.0976 97.8453 53.2589 97.8453C53.9911 97.8453 54.6475 97.6433 55.2029 97.2142C55.7583 96.8102 56.0865 96.2801 56.2127 95.6489H58.1314C57.8537 96.886 57.2731 97.8453 56.4147 98.5017C55.5816 99.1581 54.4707 99.4863 53.1075 99.4863ZM56.3642 92.5942C56.3137 91.5338 56.036 90.7007 55.5563 90.12C55.0262 89.4636 54.2688 89.1354 53.2337 89.1354C52.1986 89.1354 51.3907 89.5141 50.7848 90.2715C50.3052 90.8522 50.0022 91.6348 49.9012 92.5942H56.3642Z" fill="#9D9FA2"/>
<path d="M60.7061 87.7974H61.6149H62.549V89.4636L62.9782 88.9082C63.8113 87.9489 64.8716 87.444 66.1339 87.444C67.3962 87.444 68.3808 87.7722 69.0877 88.4538C69.7694 89.1355 70.1228 90.0948 70.1228 91.3571V99.1581H69.1382H68.1536V92.0135C68.1536 91.0036 67.9517 90.2968 67.573 89.8423C67.1943 89.3879 66.5379 89.1859 65.6795 89.1859C64.7454 89.1859 64.0133 89.5394 63.4579 90.2463C62.9025 90.9532 62.65 91.8873 62.65 93.0738V99.1581H61.6906H60.7061V87.7974Z" fill="#9D9FA2"/>
<path d="M77.2421 99.1581C76.5857 99.2591 76.1061 99.3096 75.8031 99.3096C74.9448 99.3096 74.3641 99.1329 74.0107 98.7542C73.6572 98.3755 73.4805 97.7443 73.4805 96.8355V89.3122H71.8647V87.7722H73.4552V84.5912H75.3992V87.7722H77.2169V89.3122H75.3992V96.8607C75.3992 97.1132 75.5002 97.3152 75.7021 97.4666C75.9041 97.6181 76.1818 97.6939 76.5353 97.6939H77.2169V99.1581H77.2421Z" fill="#9D9FA2"/>
<path d="M85.75 91.0794C85.6996 90.4482 85.4218 89.9433 84.9674 89.6151C84.513 89.2617 83.8818 89.085 83.0992 89.085C82.2913 89.085 81.6854 89.2112 81.2563 89.4889C80.8271 89.7666 80.6251 90.1705 80.6251 90.7007C80.6251 91.1046 80.7766 91.4076 81.0795 91.6096C81.3825 91.8115 81.9631 92.0135 82.8468 92.2407L84.8664 92.7204C85.9773 92.9981 86.7851 93.3515 87.2648 93.8312C87.7445 94.3109 87.9717 94.9673 87.9717 95.8004C87.9717 96.9365 87.5678 97.8201 86.7346 98.4765C85.9015 99.1329 84.7907 99.4611 83.4022 99.4611C81.7864 99.4611 80.5494 99.1329 79.7667 98.5017C78.9589 97.8706 78.5297 96.8607 78.4287 95.5227H80.2969C80.3979 96.3306 80.6756 96.9112 81.1553 97.2647C81.6349 97.6181 82.3923 97.7948 83.3769 97.7948C84.2353 97.7948 84.9169 97.6181 85.3714 97.2899C85.8258 96.9617 86.053 96.482 86.053 95.8509C86.053 95.4469 85.9015 95.144 85.6238 94.942C85.3209 94.7401 84.7402 94.5381 83.8314 94.3361L81.8117 93.8564C80.7261 93.604 79.9435 93.2505 79.489 92.7709C79.0346 92.3164 78.8074 91.6853 78.8074 90.8522C78.8074 89.7666 79.1861 88.9335 79.9687 88.3023C80.7513 87.6712 81.7864 87.3682 83.1245 87.3682C84.4625 87.3682 85.5481 87.6964 86.3307 88.3276C87.1386 88.984 87.5425 89.8676 87.593 91.0036L85.75 91.0794Z" fill="#9D9FA2"/>
<path d="M89.9159 84.6922V83.5309H91.0772H92.2133V85.4748C92.2133 86.5856 92.0365 87.4188 91.6831 87.9489C91.3296 88.5043 90.749 88.883 89.9159 89.0598V88.0499C90.3703 87.9742 90.6733 87.7217 90.85 87.2925C90.9762 86.9643 91.0772 86.4594 91.0772 85.803H91.0519H89.8906L89.9159 84.6922Z" fill="#9D9FA2"/>
<path d="M106.124 83.5309H107.335H108.572L114.278 99.1581H113.117H111.955L110.34 94.6391H103.978L102.311 99.1581H101.201H100.09L106.124 83.5309ZM104.685 92.7709H109.683L107.234 85.8283L104.685 92.7709Z" fill="#9D9FA2"/>
<path d="M122.609 91.0794C122.559 90.4482 122.281 89.9433 121.827 89.6151C121.347 89.2617 120.741 89.085 119.959 89.085C119.151 89.085 118.545 89.2112 118.116 89.4889C117.686 89.7666 117.484 90.1705 117.484 90.7007C117.484 91.1046 117.636 91.4076 117.939 91.6096C118.242 91.8115 118.823 92.0135 119.706 92.2407L121.726 92.7204C122.837 92.9981 123.645 93.3515 124.124 93.8312C124.604 94.3109 124.831 94.9673 124.831 95.8004C124.831 96.9365 124.427 97.8201 123.594 98.4765C122.761 99.1329 121.65 99.4611 120.262 99.4611C118.621 99.4611 117.409 99.1329 116.626 98.5017C115.818 97.8706 115.389 96.8607 115.288 95.5227H117.156C117.257 96.3306 117.535 96.9112 118.04 97.2647C118.52 97.6181 119.277 97.7948 120.262 97.7948C121.12 97.7948 121.802 97.6181 122.231 97.2899C122.685 96.9617 122.912 96.482 122.912 95.8509C122.912 95.4469 122.761 95.144 122.483 94.942C122.18 94.7401 121.6 94.5381 120.691 94.3361L118.696 93.8564C117.611 93.604 116.828 93.2505 116.374 92.7709C115.919 92.3164 115.692 91.6853 115.692 90.8522C115.692 89.7666 116.071 88.9335 116.853 88.3023C117.636 87.6712 118.671 87.3682 120.009 87.3682C121.347 87.3682 122.433 87.6964 123.215 88.3276C123.998 88.984 124.427 89.8676 124.478 91.0036L122.609 91.0794Z" fill="#9D9FA2"/>
<path d="M133.667 91.0794C133.617 90.4482 133.339 89.9433 132.885 89.6151C132.43 89.2617 131.799 89.085 131.017 89.085C130.209 89.085 129.603 89.2112 129.174 89.4889C128.744 89.7666 128.542 90.1705 128.542 90.7007C128.542 91.1046 128.694 91.4076 128.972 91.6096C129.275 91.8115 129.855 92.0135 130.739 92.2407L132.759 92.7204C133.895 92.9981 134.677 93.3515 135.157 93.8312C135.637 94.3109 135.864 94.9673 135.864 95.8004C135.864 96.9365 135.46 97.8201 134.627 98.4765C133.794 99.1329 132.683 99.4611 131.294 99.4611C129.679 99.4611 128.441 99.1329 127.659 98.5017C126.851 97.8706 126.422 96.8607 126.321 95.5227H128.189C128.29 96.3306 128.568 96.9112 129.073 97.2647C129.552 97.6181 130.31 97.7948 131.294 97.7948C132.153 97.7948 132.834 97.6181 133.263 97.2899C133.718 96.9617 133.945 96.482 133.945 95.8509C133.945 95.4469 133.794 95.144 133.491 94.942C133.188 94.7401 132.607 94.5381 131.698 94.3361L129.704 93.8564C128.618 93.604 127.836 93.2505 127.381 92.7709C126.927 92.3164 126.699 91.6853 126.699 90.8522C126.699 89.7666 127.078 88.9335 127.861 88.3023C128.618 87.6712 129.679 87.3682 131.017 87.3682C132.355 87.3682 133.44 87.6964 134.223 88.3276C135.005 88.984 135.435 89.8676 135.485 91.0036L133.667 91.0794Z" fill="#9D9FA2"/>
<path d="M138.918 97.8201C137.934 96.7093 137.429 95.2703 137.429 93.4526C137.429 91.6601 137.934 90.1958 138.918 89.085C139.903 87.9742 141.19 87.4188 142.806 87.4188C144.422 87.4188 145.709 87.9742 146.694 89.085C147.679 90.1958 148.183 91.6348 148.183 93.4526C148.183 95.245 147.704 96.7093 146.694 97.8201C145.709 98.9309 144.397 99.4863 142.806 99.4863C141.216 99.4863 139.903 98.9309 138.918 97.8201ZM145.23 96.6588C145.836 95.8762 146.139 94.8158 146.139 93.4778C146.139 92.1398 145.836 91.0794 145.23 90.2968C144.624 89.5142 143.816 89.1102 142.781 89.1102C141.771 89.1102 140.938 89.5142 140.357 90.2968C139.751 91.0794 139.448 92.1398 139.448 93.4778C139.448 94.8158 139.751 95.8762 140.357 96.6588C140.963 97.4414 141.771 97.8454 142.781 97.8454C143.816 97.8454 144.649 97.4414 145.23 96.6588Z" fill="#9D9FA2"/>
<path d="M159.494 95.0935C159.292 96.5325 158.787 97.6181 157.954 98.3755C157.121 99.1329 156.035 99.5116 154.647 99.5116C153.107 99.5116 151.895 98.9561 150.986 97.8706C150.077 96.785 149.623 95.3207 149.623 93.4778C149.623 91.6348 150.102 90.1705 151.036 89.085C151.97 87.9994 153.258 87.444 154.848 87.444C156.237 87.444 157.348 87.8227 158.181 88.5548C159.014 89.3122 159.443 90.322 159.519 91.6348H157.651C157.575 90.8269 157.297 90.1958 156.792 89.7413C156.288 89.2869 155.631 89.085 154.798 89.085C153.813 89.085 153.056 89.4636 152.501 90.2463C151.945 91.0289 151.667 92.0892 151.667 93.4525C151.667 94.8915 151.92 96.0024 152.45 96.7345C152.955 97.4666 153.738 97.8453 154.747 97.8453C155.505 97.8453 156.136 97.5929 156.641 97.1384C157.146 96.6588 157.474 95.9771 157.651 95.0935H159.494Z" fill="#9D9FA2"/>
<path d="M161.514 83.5309H163.508V85.702H161.514V83.5309ZM161.514 87.7975H162.473H163.458V99.1834H162.498H161.539V87.7975H161.514Z" fill="#9D9FA2"/>
<path d="M169.416 99.4863C168.279 99.4863 167.396 99.1834 166.739 98.6027C166.083 97.9968 165.755 97.2142 165.755 96.2044C165.755 95.1945 166.058 94.3614 166.689 93.7807C167.32 93.1748 168.229 92.7961 169.416 92.6447L172.066 92.3165C172.294 92.2912 172.496 92.266 172.672 92.2155C172.925 92.1398 173.127 92.0135 173.253 91.8368C173.379 91.6348 173.455 91.4076 173.455 91.1047V91.0037C173.455 90.3978 173.228 89.9181 172.748 89.5647C172.268 89.2112 171.637 89.0345 170.804 89.0345C169.996 89.0345 169.39 89.2112 168.936 89.5899C168.481 89.9434 168.204 90.4988 168.128 91.2056H166.285C166.386 89.9686 166.815 89.0345 167.623 88.4033C168.431 87.7722 169.567 87.4692 171.057 87.4692C172.47 87.4692 173.531 87.7722 174.263 88.3781C174.995 88.984 175.374 89.8424 175.374 91.0037V97.2647C175.374 97.4667 175.424 97.6181 175.55 97.7191C175.677 97.8453 175.828 97.8958 176.03 97.8958C176.08 97.8958 176.181 97.8958 176.282 97.8706C176.409 97.8453 176.51 97.8453 176.636 97.7949V99.1834C176.459 99.2591 176.257 99.3096 176.03 99.3601C175.828 99.4106 175.651 99.4106 175.5 99.4106C174.768 99.4106 174.238 99.2086 173.884 98.8047C173.657 98.5522 173.505 98.1735 173.43 97.6939C173.278 97.8706 173.127 98.0473 172.925 98.1988C171.991 99.0571 170.804 99.4863 169.416 99.4863ZM173.43 94.6643V93.4273C173.076 93.604 172.672 93.705 172.243 93.7807L170.476 94.0332C169.542 94.1594 168.86 94.3614 168.431 94.6643C168.002 94.9673 167.775 95.3712 167.775 95.9014C167.775 96.5326 167.951 97.0375 168.305 97.3657C168.658 97.7191 169.163 97.8706 169.794 97.8706C170.804 97.8706 171.688 97.5929 172.369 97.0627C172.849 96.684 173.177 96.2548 173.329 95.7752C173.354 95.6742 173.379 95.548 173.404 95.346C173.43 95.144 173.43 94.9168 173.43 94.6643Z" fill="#9D9FA2"/>
<path d="M182.897 99.1581C182.24 99.2591 181.761 99.3096 181.458 99.3096C180.599 99.3096 180.019 99.1329 179.665 98.7542C179.312 98.3755 179.135 97.7443 179.135 96.8355V89.3122H177.544V87.7722H179.135V84.5912H181.079V87.7722H182.897V89.3122H181.079V96.8607C181.079 97.1132 181.18 97.3152 181.382 97.4666C181.584 97.6181 181.861 97.6939 182.215 97.6939H182.897V99.1581Z" fill="#9D9FA2"/>
<path d="M184.866 83.5309H186.861V85.702H184.866V83.5309ZM184.866 87.7975H185.851H186.81V99.1834H185.851H184.866V87.7975Z" fill="#9D9FA2"/>
<path d="M190.546 97.8201C189.562 96.7093 189.057 95.2703 189.057 93.4526C189.057 91.6601 189.562 90.1958 190.546 89.085C191.531 87.9742 192.818 87.4188 194.434 87.4188C196.05 87.4188 197.337 87.9742 198.322 89.085C199.307 90.1958 199.811 91.6348 199.811 93.4526C199.811 95.245 199.307 96.7093 198.322 97.8201C197.337 98.9309 196.05 99.4863 194.434 99.4863C192.818 99.4863 191.531 98.9309 190.546 97.8201ZM196.858 96.6588C197.464 95.8762 197.767 94.8158 197.767 93.4778C197.767 92.1398 197.464 91.0794 196.858 90.2968C196.252 89.5142 195.444 89.1102 194.409 89.1102C193.374 89.1102 192.566 89.5142 191.985 90.2968C191.379 91.0794 191.076 92.1398 191.076 93.4778C191.076 94.8158 191.379 95.8762 191.985 96.6588C192.591 97.4414 193.399 97.8454 194.409 97.8454C195.444 97.8454 196.252 97.4414 196.858 96.6588Z" fill="#9D9FA2"/>
<path d="M202.033 87.7974H202.942H203.876V89.4636L204.305 88.9082C205.138 87.9489 206.199 87.444 207.461 87.444C208.723 87.444 209.708 87.7722 210.415 88.4538C211.096 89.1355 211.45 90.0948 211.45 91.3571V99.1581H210.465H209.481V92.0135C209.481 91.0036 209.279 90.2968 208.9 89.8423C208.521 89.3879 207.865 89.1859 207.007 89.1859C206.072 89.1859 205.34 89.5394 204.785 90.2463C204.229 90.9532 203.977 91.8873 203.977 93.0738V99.1581H202.992H202.008L202.033 87.7974Z" fill="#9D9FA2"/>
</g>
<defs>
<clipPath id="clip0_12_2460">
<rect width="211.579" height="100" fill="white" transform="translate(0.396973)"/>
</clipPath>
</defs>
</svg>
