<svg width="397" height="100" viewBox="0 0 397 100" fill="none" xmlns="http://www.w3.org/2000/svg">
<g clip-path="url(#clip0_12_2506)">
<path d="M99.5011 90.7928C99.5011 95.0351 96.0481 98.4882 91.8058 98.4882H10.1168C5.87447 98.4882 2.32275 95.0351 2.32275 90.7928V9.10381C2.32275 4.8615 5.77582 1.40848 10.1168 1.40848H91.8058C96.0481 1.40848 99.5011 4.8615 99.5011 9.10381V90.7928Z" fill="#1476C6"/>
<path d="M99.5011 90.7928C99.5011 95.0351 96.0481 98.4882 91.8058 98.4882H10.1168C5.87447 98.4882 2.32275 95.0351 2.32275 90.7928V9.10381C2.32275 4.8615 5.77582 1.40848 10.1168 1.40848H91.8058C96.0481 1.40848 99.5011 4.8615 99.5011 9.10381V90.7928Z" stroke="white" stroke-width="4.47062" stroke-miterlimit="5"/>
<path d="M87.3664 69.8773C87.3664 69.8773 80.263 77.6713 70.9891 80.8284C66.2535 82.4069 59.6434 82.2096 59.6434 82.2096C59.6434 82.2096 50.3696 82.6042 40.3064 79.1512C35.7681 77.5726 31.9204 75.3035 29.0593 72.6398C28.9607 72.5411 28.9607 72.5411 28.8621 72.4424C22.5479 65.1417 23.5345 50.8362 23.5345 50.8362C23.7318 36.7281 24.7184 32.7818 25.3103 31.4006C26.7902 27.4543 28.0728 25.3824 31.6245 22.62C39.6158 16.4045 57.2756 16.4046 58.8541 16.4046C68.128 16.4046 73.4556 17.8844 75.7247 19.9562C77.6979 22.4227 77.2046 23.3106 77.3033 24.1985C77.3033 24.4945 79.3751 26.1717 79.3751 26.1717C79.3751 26.1717 83.7161 14.7273 84.4067 11.8662C84.5053 11.6689 82.0388 9.59712 82.0388 9.59712C79.8684 8.90651 70.1012 7.72262 58.5582 8.80786C48.1004 9.79445 36.3601 13.4448 29.3554 18.0818C17.2204 25.9744 15.4445 30.8086 14.6553 32.7818C12.9781 37.2214 11.8928 59.1236 13.7673 65.931C15.4445 72.2451 18.7003 76.5861 21.956 79.5458C25.705 83.5908 29.8486 85.6626 31.9205 86.8465C42.2796 92.2727 55.8944 91.6808 55.8944 91.6808C59.9394 91.6808 63.8858 91.1875 67.3388 90.0036C79.1778 85.9586 88.9449 74.2183 88.9449 74.2183V74.1196C89.0436 73.9223 87.3664 69.8773 87.3664 69.8773Z" fill="white"/>
<path d="M139.556 55.9665C139.063 56.1638 138.471 56.3611 137.781 56.5585C137.09 56.7558 136.301 56.9531 135.511 57.0518C134.624 57.1504 133.834 57.249 132.848 57.249C130.875 57.249 129.099 56.9531 127.421 56.4598C125.744 55.8678 124.363 55.0786 123.179 53.8947C121.995 52.7108 121.009 51.3296 120.417 49.751C119.726 48.0738 119.43 46.298 119.43 44.1275C119.43 42.0557 119.726 40.1811 120.417 38.504C121.107 36.8268 121.995 35.4456 123.278 34.3604C124.462 33.2751 125.942 32.3872 127.619 31.7952C129.296 31.2033 131.171 30.9073 133.242 30.9073C134.821 30.9073 136.301 31.1046 137.682 31.4006C139.063 31.6966 140.247 32.0912 141.234 32.5845C141.036 32.8804 140.839 33.3738 140.74 33.9657C140.642 34.5576 140.543 35.0509 140.444 35.4456L140.247 35.5442C140.05 35.2482 139.655 34.9523 139.162 34.5576C138.767 34.163 138.175 33.867 137.583 33.4724C136.991 33.0778 136.301 32.8804 135.61 32.5845C134.821 32.3871 134.032 32.1899 133.144 32.1899C131.664 32.1899 130.381 32.3872 129.099 32.8805C127.816 33.3738 126.731 34.0643 125.843 35.0509C124.955 36.0375 124.166 37.2214 123.672 38.7013C123.179 40.1812 122.883 41.957 122.883 44.0289C122.883 46.1007 123.179 47.8765 123.672 49.3564C124.166 50.8362 124.955 52.1188 125.843 53.0067C126.731 53.9933 127.816 54.6839 129.099 55.1772C130.381 55.6705 131.664 55.8678 133.144 55.8678C134.032 55.8678 134.821 55.7692 135.61 55.5719C136.399 55.3746 137.09 55.0785 137.682 54.7826C138.274 54.4866 138.866 54.092 139.359 53.796C139.852 53.4014 140.247 53.1054 140.642 52.8094L140.839 52.9081L140.543 55.0786C140.346 55.4732 140.05 55.6705 139.556 55.9665Z" fill="white"/>
<path d="M139.556 55.9665C139.063 56.1638 138.471 56.3611 137.781 56.5585C137.09 56.7558 136.301 56.9531 135.511 57.0518C134.624 57.1504 133.834 57.249 132.848 57.249C130.875 57.249 129.099 56.9531 127.421 56.4598C125.744 55.8678 124.363 55.0786 123.179 53.8947C121.995 52.7108 121.009 51.3296 120.417 49.751C119.726 48.0738 119.43 46.298 119.43 44.1275C119.43 42.0557 119.726 40.1811 120.417 38.504C121.107 36.8268 121.995 35.4456 123.278 34.3604C124.462 33.2751 125.942 32.3872 127.619 31.7952C129.296 31.2033 131.171 30.9073 133.242 30.9073C134.821 30.9073 136.301 31.1046 137.682 31.4006C139.063 31.6966 140.247 32.0912 141.234 32.5845C141.036 32.8804 140.839 33.3738 140.74 33.9657C140.642 34.5576 140.543 35.0509 140.444 35.4456L140.247 35.5442C140.05 35.2482 139.655 34.9523 139.162 34.5576C138.767 34.163 138.175 33.867 137.583 33.4724C136.991 33.0778 136.301 32.8804 135.61 32.5845C134.821 32.3871 134.032 32.1899 133.144 32.1899C131.664 32.1899 130.381 32.3872 129.099 32.8805C127.816 33.3738 126.731 34.0643 125.843 35.0509C124.955 36.0375 124.166 37.2214 123.672 38.7013C123.179 40.1812 122.883 41.957 122.883 44.0289C122.883 46.1007 123.179 47.8765 123.672 49.3564C124.166 50.8362 124.955 52.1188 125.843 53.0067C126.731 53.9933 127.816 54.6839 129.099 55.1772C130.381 55.6705 131.664 55.8678 133.144 55.8678C134.032 55.8678 134.821 55.7692 135.61 55.5719C136.399 55.3746 137.09 55.0785 137.682 54.7826C138.274 54.4866 138.866 54.092 139.359 53.796C139.852 53.4014 140.247 53.1054 140.642 52.8094L140.839 52.9081L140.543 55.0786C140.346 55.4732 140.05 55.6705 139.556 55.9665Z" fill="#001822" stroke="#001822" stroke-width="0.58125" stroke-miterlimit="5"/>
<path d="M153.368 45.3114C154.059 45.3114 154.651 45.3114 155.342 45.3114C156.032 45.3114 156.723 45.3114 157.315 45.3114C158.005 45.3114 158.696 45.3114 159.387 45.3114C160.077 45.3114 160.768 45.3114 161.458 45.2128L157.315 35.8402L153.368 45.3114ZM169.746 56.7557C169.351 56.6571 169.055 56.6571 168.759 56.6571C168.463 56.6571 168.167 56.6571 167.773 56.6571C167.378 56.6571 167.082 56.6571 166.786 56.6571C166.49 56.6571 166.194 56.6571 165.799 56.7557C165.602 56.1638 165.405 55.4732 165.109 54.6839C164.813 53.8947 164.517 53.0068 164.122 52.1188C163.728 51.2309 163.432 50.343 163.037 49.4551C162.642 48.5671 162.346 47.6792 162.05 46.8899C161.261 46.8899 160.472 46.7913 159.683 46.7913C158.893 46.7913 158.104 46.7913 157.216 46.7913C156.427 46.7913 155.736 46.7913 154.947 46.7913C154.256 46.7913 153.467 46.7913 152.678 46.8899C151.889 48.8631 151.198 50.639 150.507 52.4148C149.915 54.1907 149.422 55.5718 149.028 56.7557C148.633 56.6571 148.14 56.6571 147.646 56.6571C147.153 56.6571 146.66 56.6571 146.265 56.7557C148.238 52.4148 150.211 48.1725 152.086 43.9302C153.96 39.6879 155.835 35.3469 157.808 30.9073H158.499C159.091 32.2885 159.683 33.867 160.472 35.5442C161.162 37.2214 161.853 38.8986 162.544 40.5758C163.234 42.253 163.925 43.9302 164.714 45.6074C165.405 47.2846 166.095 48.8631 166.687 50.2443C167.279 51.7242 167.871 53.0068 168.365 54.092C168.956 55.3746 169.351 56.2624 169.746 56.7557Z" fill="#001822"/>
<path d="M153.368 45.3114C154.059 45.3114 154.651 45.3114 155.342 45.3114C156.032 45.3114 156.723 45.3114 157.315 45.3114C158.005 45.3114 158.696 45.3114 159.387 45.3114C160.077 45.3114 160.768 45.3114 161.458 45.2128L157.315 35.8402L153.368 45.3114ZM169.746 56.7557C169.351 56.6571 169.055 56.6571 168.759 56.6571C168.463 56.6571 168.167 56.6571 167.773 56.6571C167.378 56.6571 167.082 56.6571 166.786 56.6571C166.49 56.6571 166.194 56.6571 165.799 56.7557C165.602 56.1638 165.405 55.4732 165.109 54.6839C164.813 53.8947 164.517 53.0068 164.122 52.1188C163.728 51.2309 163.432 50.343 163.037 49.4551C162.642 48.5671 162.346 47.6792 162.05 46.8899C161.261 46.8899 160.472 46.7913 159.683 46.7913C158.893 46.7913 158.104 46.7913 157.216 46.7913C156.427 46.7913 155.736 46.7913 154.947 46.7913C154.256 46.7913 153.467 46.7913 152.678 46.8899C151.889 48.8631 151.198 50.639 150.507 52.4148C149.915 54.1907 149.422 55.5718 149.028 56.7557C148.633 56.6571 148.14 56.6571 147.646 56.6571C147.153 56.6571 146.66 56.6571 146.265 56.7557C148.238 52.4148 150.211 48.1725 152.086 43.9302C153.96 39.6879 155.835 35.3469 157.808 30.9073H158.499C159.091 32.2885 159.683 33.867 160.472 35.5442C161.162 37.2214 161.853 38.8986 162.544 40.5758C163.234 42.253 163.925 43.9302 164.714 45.6074C165.405 47.2846 166.095 48.8631 166.687 50.2443C167.279 51.7242 167.871 53.0068 168.365 54.092C168.956 55.3746 169.351 56.2624 169.746 56.7557Z" stroke="#001822" stroke-width="0.58125" stroke-miterlimit="5"/>
<path d="M178.822 36.2348C178.724 34.6563 178.724 33.0778 178.625 31.4992C178.921 31.4992 179.217 31.5979 179.513 31.5979C179.809 31.5979 180.105 31.6966 180.401 31.6966C180.697 31.6966 180.993 31.6965 181.289 31.5979C181.585 31.5979 181.881 31.4992 182.177 31.4992C182.078 33.0778 181.979 34.755 181.979 36.2348C181.881 37.8134 181.881 39.3919 181.881 40.9704C181.881 44.0288 181.881 46.7913 181.881 49.0604C181.881 51.3295 181.881 53.4014 181.979 55.1772C183.755 55.1772 185.432 55.1772 187.011 55.1772C188.589 55.1772 190.365 54.9799 192.141 54.7826C192.043 55.2759 191.944 55.5719 191.944 55.8678C191.944 56.1638 192.043 56.4598 192.141 56.8544C191.056 56.7558 189.872 56.7557 188.787 56.7557C187.702 56.7557 186.518 56.7557 185.432 56.7557C184.248 56.7557 183.163 56.7557 181.979 56.7557C180.894 56.7557 179.809 56.7558 178.625 56.8544C178.724 55.3746 178.724 53.796 178.822 52.2175C178.921 50.6389 178.921 49.0604 178.921 47.3832V41.0691C178.822 39.3919 178.822 37.8134 178.822 36.2348Z" fill="#001822"/>
<path d="M178.822 36.2348C178.724 34.6563 178.724 33.0778 178.625 31.4992C178.921 31.4992 179.217 31.5979 179.513 31.5979C179.809 31.5979 180.105 31.6966 180.401 31.6966C180.697 31.6966 180.993 31.6965 181.289 31.5979C181.585 31.5979 181.881 31.4992 182.177 31.4992C182.078 33.0778 181.979 34.755 181.979 36.2348C181.881 37.8134 181.881 39.3919 181.881 40.9704C181.881 44.0288 181.881 46.7913 181.881 49.0604C181.881 51.3295 181.881 53.4014 181.979 55.1772C183.755 55.1772 185.432 55.1772 187.011 55.1772C188.589 55.1772 190.365 54.9799 192.141 54.7826C192.043 55.2759 191.944 55.5719 191.944 55.8678C191.944 56.1638 192.043 56.4598 192.141 56.8544C191.056 56.7558 189.872 56.7557 188.787 56.7557C187.702 56.7557 186.518 56.7557 185.432 56.7557C184.248 56.7557 183.163 56.7557 181.979 56.7557C180.894 56.7557 179.809 56.7558 178.625 56.8544C178.724 55.3746 178.724 53.796 178.822 52.2175C178.921 50.6389 178.921 49.0604 178.921 47.3832V41.0691C178.822 39.3919 178.822 37.8134 178.822 36.2348Z" fill="#001822" stroke="#001822" stroke-width="0.58125" stroke-miterlimit="5"/>
<path d="M202.106 36.1362C202.007 34.5577 202.007 32.9791 201.908 31.4006C202.993 31.4006 204.079 31.4992 205.164 31.4992C206.249 31.4992 207.334 31.5979 208.42 31.5979C209.505 31.5979 210.59 31.5979 211.675 31.4992C212.761 31.4992 213.846 31.4006 214.931 31.4006C214.832 31.7952 214.832 32.0912 214.832 32.4858C214.832 32.8805 214.832 33.1764 214.931 33.571C214.142 33.571 213.451 33.4724 212.761 33.4724C212.07 33.4724 211.379 33.3738 210.689 33.3738C209.998 33.3738 209.209 33.2751 208.321 33.2751C207.433 33.2751 206.447 33.1764 205.263 33.1764C205.263 33.9657 205.263 34.755 205.164 35.4456C205.164 36.1362 205.065 36.9255 205.065 37.912C205.065 38.8986 205.065 39.7865 205.065 40.6745C205.065 41.5624 205.065 42.253 205.065 42.7463C206.151 42.7463 207.137 42.7463 208.025 42.7463C208.913 42.7463 209.702 42.6476 210.393 42.6476C211.083 42.6476 211.774 42.549 212.366 42.549C212.958 42.549 213.55 42.4503 214.043 42.4503C213.944 42.8449 213.945 43.2396 213.945 43.6342C213.945 44.0288 213.944 44.3248 214.043 44.7195C213.451 44.6208 212.662 44.6208 211.774 44.5221C210.886 44.5221 210.097 44.4235 209.209 44.4235C208.321 44.4235 207.532 44.4235 206.841 44.4235C206.052 44.4235 205.46 44.4235 205.065 44.4235C205.065 44.6208 205.065 44.9168 205.065 45.1141C205.065 45.41 205.065 45.706 205.065 46.1007V47.5805V49.751C205.065 51.1322 205.065 52.3161 205.065 53.2041C205.065 54.092 205.065 54.7826 205.164 55.2759C205.953 55.2759 206.841 55.2759 207.729 55.2759C208.617 55.2759 209.604 55.2759 210.491 55.2759C211.379 55.2759 212.267 55.1772 213.057 55.1772C213.846 55.0786 214.536 55.0786 215.128 54.8813C215.128 55.0786 215.03 55.2759 215.03 55.4732C215.03 55.6705 215.03 55.8679 215.03 56.0652C215.03 56.4598 215.03 56.7558 215.128 57.0518C214.043 56.9531 212.958 56.9531 211.873 56.9531C210.787 56.9531 209.702 56.9531 208.518 56.9531C207.334 56.9531 206.249 56.9531 205.164 56.9531C204.079 56.9531 202.895 56.9531 201.81 57.0518C201.908 55.4732 201.908 53.8946 202.007 52.3161C202.106 50.7376 202.106 49.1591 202.106 47.5805V41.2664C202.204 39.3919 202.204 37.7147 202.106 36.1362Z" fill="#001822"/>
<path d="M202.106 36.1362C202.007 34.5577 202.007 32.9791 201.908 31.4006C202.993 31.4006 204.079 31.4992 205.164 31.4992C206.249 31.4992 207.334 31.5979 208.42 31.5979C209.505 31.5979 210.59 31.5979 211.675 31.4992C212.761 31.4992 213.846 31.4006 214.931 31.4006C214.832 31.7952 214.832 32.0912 214.832 32.4858C214.832 32.8805 214.832 33.1764 214.931 33.571C214.142 33.571 213.451 33.4724 212.761 33.4724C212.07 33.4724 211.379 33.3738 210.689 33.3738C209.998 33.3738 209.209 33.2751 208.321 33.2751C207.433 33.2751 206.447 33.1764 205.263 33.1764C205.263 33.9657 205.263 34.755 205.164 35.4456C205.164 36.1362 205.065 36.9255 205.065 37.912C205.065 38.8986 205.065 39.7865 205.065 40.6745C205.065 41.5624 205.065 42.253 205.065 42.7463C206.151 42.7463 207.137 42.7463 208.025 42.7463C208.913 42.7463 209.702 42.6476 210.393 42.6476C211.083 42.6476 211.774 42.549 212.366 42.549C212.958 42.549 213.55 42.4503 214.043 42.4503C213.944 42.8449 213.945 43.2396 213.945 43.6342C213.945 44.0288 213.944 44.3248 214.043 44.7195C213.451 44.6208 212.662 44.6208 211.774 44.5221C210.886 44.5221 210.097 44.4235 209.209 44.4235C208.321 44.4235 207.532 44.4235 206.841 44.4235C206.052 44.4235 205.46 44.4235 205.065 44.4235C205.065 44.6208 205.065 44.9168 205.065 45.1141C205.065 45.41 205.065 45.706 205.065 46.1007V47.5805V49.751C205.065 51.1322 205.065 52.3161 205.065 53.2041C205.065 54.092 205.065 54.7826 205.164 55.2759C205.953 55.2759 206.841 55.2759 207.729 55.2759C208.617 55.2759 209.604 55.2759 210.491 55.2759C211.379 55.2759 212.267 55.1772 213.057 55.1772C213.846 55.0786 214.536 55.0786 215.128 54.8813C215.128 55.0786 215.03 55.2759 215.03 55.4732C215.03 55.6705 215.03 55.8679 215.03 56.0652C215.03 56.4598 215.03 56.7558 215.128 57.0518C214.043 56.9531 212.958 56.9531 211.873 56.9531C210.787 56.9531 209.702 56.9531 208.518 56.9531C207.334 56.9531 206.249 56.9531 205.164 56.9531C204.079 56.9531 202.895 56.9531 201.81 57.0518C201.908 55.4732 201.908 53.8946 202.007 52.3161C202.106 50.7376 202.106 49.1591 202.106 47.5805V41.2664C202.204 39.3919 202.204 37.7147 202.106 36.1362Z" fill="#001822" stroke="#001822" stroke-width="0.58125" stroke-miterlimit="5"/>
<path d="M228.842 55.1773C229.335 55.2759 230.026 55.3746 230.914 55.4733C231.802 55.5719 232.69 55.5719 233.676 55.5719C235.058 55.5719 236.34 55.3746 237.721 55.0787C239.103 54.7827 240.287 54.1907 241.372 53.3028C242.457 52.4148 243.345 51.231 243.937 49.6525C244.628 48.0739 244.924 46.1008 244.924 43.733C244.924 41.5625 244.628 39.7866 244.134 38.4054C243.641 37.0242 242.852 35.9389 241.964 35.1497C241.076 34.3604 239.991 33.7684 238.708 33.4725C237.425 33.1765 236.044 32.9792 234.466 32.9792C233.38 32.9792 232.295 32.9792 231.407 33.0778C230.421 33.1765 229.631 33.2752 228.842 33.3738C228.744 34.5577 228.744 35.8403 228.645 37.1228C228.645 38.4054 228.546 39.688 228.546 41.0692V47.3833C228.645 50.047 228.645 52.6122 228.842 55.1773ZM225.488 36.2349C225.389 34.6564 225.389 33.0778 225.291 31.4993C226.178 31.4993 227.165 31.5979 228.053 31.5979C228.941 31.5979 229.927 31.6966 230.815 31.6966C231.703 31.6966 232.69 31.6966 233.578 31.5979C234.466 31.4993 235.452 31.4993 236.34 31.4993C238.511 31.4993 240.385 31.7953 241.865 32.3873C243.444 32.9792 244.628 33.7685 245.614 34.8537C246.601 35.939 247.291 37.2215 247.785 38.7013C248.278 40.1812 248.475 41.9571 248.475 43.8316C248.475 46.298 248.081 48.3699 247.193 50.047C246.305 51.7242 245.22 53.1055 243.937 54.0921C242.654 55.0787 241.175 55.8679 239.596 56.2625C238.017 56.6571 236.538 56.8545 235.058 56.8545C234.268 56.8545 233.381 56.8545 232.591 56.8545C231.802 56.8545 230.914 56.8545 230.125 56.8545C229.336 56.8545 228.448 56.8545 227.658 56.8545C226.869 56.8545 225.981 56.8545 225.192 56.9531C225.291 55.4733 225.291 53.8947 225.389 52.3162C225.488 50.7376 225.488 49.1591 225.488 47.482V41.1678C225.587 39.392 225.587 37.8134 225.488 36.2349Z" fill="#001822"/>
<path d="M228.842 55.1773C229.335 55.2759 230.026 55.3746 230.914 55.4733C231.802 55.5719 232.69 55.5719 233.676 55.5719C235.058 55.5719 236.34 55.3746 237.721 55.0787C239.103 54.7827 240.287 54.1907 241.372 53.3028C242.457 52.4148 243.345 51.231 243.937 49.6525C244.628 48.0739 244.924 46.1008 244.924 43.733C244.924 41.5625 244.628 39.7866 244.134 38.4054C243.641 37.0242 242.852 35.9389 241.964 35.1497C241.076 34.3604 239.991 33.7684 238.708 33.4725C237.425 33.1765 236.044 32.9792 234.466 32.9792C233.38 32.9792 232.295 32.9792 231.407 33.0778C230.421 33.1765 229.631 33.2752 228.842 33.3738C228.744 34.5577 228.744 35.8403 228.645 37.1228C228.645 38.4054 228.546 39.688 228.546 41.0692V47.3833C228.645 50.047 228.645 52.6122 228.842 55.1773ZM225.488 36.2349C225.389 34.6564 225.389 33.0778 225.291 31.4993C226.178 31.4993 227.165 31.5979 228.053 31.5979C228.941 31.5979 229.927 31.6966 230.815 31.6966C231.703 31.6966 232.69 31.6966 233.578 31.5979C234.466 31.4993 235.452 31.4993 236.34 31.4993C238.511 31.4993 240.385 31.7953 241.865 32.3873C243.444 32.9792 244.628 33.7685 245.614 34.8537C246.601 35.939 247.291 37.2215 247.785 38.7013C248.278 40.1812 248.475 41.9571 248.475 43.8316C248.475 46.298 248.081 48.3699 247.193 50.047C246.305 51.7242 245.22 53.1055 243.937 54.0921C242.654 55.0787 241.175 55.8679 239.596 56.2625C238.017 56.6571 236.538 56.8545 235.058 56.8545C234.268 56.8545 233.381 56.8545 232.591 56.8545C231.802 56.8545 230.914 56.8545 230.125 56.8545C229.336 56.8545 228.448 56.8545 227.658 56.8545C226.869 56.8545 225.981 56.8545 225.192 56.9531C225.291 55.4733 225.291 53.8947 225.389 52.3162C225.488 50.7376 225.488 49.1591 225.488 47.482V41.1678C225.587 39.392 225.587 37.8134 225.488 36.2349Z" fill="#001822" stroke="#001822" stroke-width="0.58125" stroke-miterlimit="5"/>
<path d="M280.342 38.8986C279.849 37.4187 279.059 36.1362 278.171 35.2482C277.283 34.2617 276.198 33.571 274.916 33.0778C273.633 32.5845 272.351 32.3872 270.871 32.3872C269.49 32.3872 268.108 32.5845 266.826 33.0778C265.543 33.571 264.458 34.2617 263.57 35.2482C262.682 36.2348 261.893 37.4187 261.4 38.8986C260.906 40.3785 260.61 42.1544 260.61 44.2262C260.61 46.298 260.906 48.0738 261.4 49.5537C261.893 51.0336 262.682 52.3161 263.57 53.2041C264.458 54.1906 265.543 54.8813 266.826 55.3746C268.108 55.8678 269.391 56.0652 270.871 56.0652C272.351 56.0652 273.633 55.8678 274.916 55.3746C276.198 54.8813 277.283 54.1906 278.171 53.2041C279.059 52.2175 279.849 51.0336 280.342 49.5537C280.835 48.0738 281.131 46.298 281.131 44.2262C281.131 42.1544 280.934 40.3785 280.342 38.8986ZM258.144 38.6027C258.834 36.9255 259.722 35.5442 261.005 34.459C262.189 33.3738 263.669 32.4859 265.346 31.8939C267.023 31.302 268.898 31.006 270.871 31.006C272.943 31.006 274.817 31.302 276.494 31.8939C278.171 32.4859 279.651 33.3738 280.835 34.459C282.019 35.5442 283.006 37.0241 283.696 38.6027C284.387 40.2798 284.683 42.0557 284.683 44.2262C284.683 46.298 284.387 48.1725 283.696 49.8497C283.006 51.5268 282.019 52.9081 280.835 53.9933C279.651 55.0786 278.171 55.9665 276.494 56.5585C274.817 57.1504 272.943 57.3477 270.871 57.3477C268.898 57.3477 267.023 57.0518 265.346 56.5585C263.669 55.9665 262.189 55.1772 261.005 53.9933C259.821 52.8094 258.834 51.4282 258.144 49.8497C257.453 48.1725 257.157 46.3967 257.157 44.2262C257.157 42.0557 257.453 40.1812 258.144 38.6027Z" fill="#001822"/>
<path d="M280.342 38.8986C279.849 37.4187 279.059 36.1362 278.171 35.2482C277.283 34.2617 276.198 33.571 274.916 33.0778C273.633 32.5845 272.351 32.3872 270.871 32.3872C269.49 32.3872 268.108 32.5845 266.826 33.0778C265.543 33.571 264.458 34.2617 263.57 35.2482C262.682 36.2348 261.893 37.4187 261.4 38.8986C260.906 40.3785 260.61 42.1544 260.61 44.2262C260.61 46.298 260.906 48.0738 261.4 49.5537C261.893 51.0336 262.682 52.3161 263.57 53.2041C264.458 54.1906 265.543 54.8813 266.826 55.3746C268.108 55.8678 269.391 56.0652 270.871 56.0652C272.351 56.0652 273.633 55.8678 274.916 55.3746C276.198 54.8813 277.283 54.1906 278.171 53.2041C279.059 52.2175 279.849 51.0336 280.342 49.5537C280.835 48.0738 281.131 46.298 281.131 44.2262C281.131 42.1544 280.934 40.3785 280.342 38.8986ZM258.144 38.6027C258.834 36.9255 259.722 35.5442 261.005 34.459C262.189 33.3738 263.669 32.4859 265.346 31.8939C267.023 31.302 268.898 31.006 270.871 31.006C272.943 31.006 274.817 31.302 276.494 31.8939C278.171 32.4859 279.651 33.3738 280.835 34.459C282.019 35.5442 283.006 37.0241 283.696 38.6027C284.387 40.2798 284.683 42.0557 284.683 44.2262C284.683 46.298 284.387 48.1725 283.696 49.8497C283.006 51.5268 282.019 52.9081 280.835 53.9933C279.651 55.0786 278.171 55.9665 276.494 56.5585C274.817 57.1504 272.943 57.3477 270.871 57.3477C268.898 57.3477 267.023 57.0518 265.346 56.5585C263.669 55.9665 262.189 55.1772 261.005 53.9933C259.821 52.8094 258.834 51.4282 258.144 49.8497C257.453 48.1725 257.157 46.3967 257.157 44.2262C257.157 42.0557 257.453 40.1812 258.144 38.6027Z" stroke="#001822" stroke-width="0.58125" stroke-miterlimit="5"/>
<path d="M306.585 47.1859C303.428 43.7329 300.172 40.3785 297.015 36.9255C297.015 37.6161 297.015 38.504 296.916 39.6879C296.916 40.8718 296.916 42.4503 296.916 44.4235C296.916 44.9167 296.916 45.6074 296.916 46.298C296.916 47.0872 296.916 47.8765 296.916 48.6658C296.916 49.4551 296.916 50.343 297.015 51.2309C297.015 52.1188 297.015 52.9081 297.113 53.5987C297.113 54.2893 297.212 54.9799 297.212 55.5719C297.212 56.1638 297.212 56.4598 297.311 56.6571C296.916 56.5584 296.522 56.5585 296.028 56.5585C295.535 56.5585 295.042 56.5584 294.647 56.6571C294.647 56.4598 294.746 55.9665 294.844 55.2759C294.943 54.5853 294.943 53.796 295.042 52.9081C295.042 52.0202 295.14 50.9349 295.239 49.9484C295.338 48.8631 295.338 47.7779 295.338 46.6926C295.338 45.6074 295.436 44.5221 295.436 43.5356C295.436 42.549 295.436 41.5624 295.436 40.7731C295.436 38.4053 295.436 36.3335 295.436 34.6563C295.436 32.9791 295.436 31.6966 295.338 30.8086H295.93C297.409 32.3872 298.988 34.163 300.764 36.0375C302.441 37.912 304.217 39.6879 305.894 41.5624C307.571 43.3382 309.15 45.1141 310.728 46.6926C312.208 48.2712 313.589 49.6523 314.675 50.8362V45.8047C314.675 43.2396 314.675 40.6745 314.675 38.208C314.675 35.7415 314.576 33.4724 314.477 31.3019C314.971 31.4006 315.365 31.4992 315.76 31.4992C316.056 31.4992 316.45 31.4006 316.944 31.3019C316.845 31.7952 316.845 32.6831 316.746 33.7684C316.648 34.8536 316.648 36.0375 316.549 37.2214C316.45 38.504 316.45 39.6879 316.352 40.8718C316.253 42.0557 316.253 43.0423 316.253 43.7329C316.253 44.3248 316.253 45.1141 316.253 45.9033C316.253 46.6926 316.253 47.5805 316.253 48.5671C316.253 49.455 316.253 50.4416 316.253 51.3295C316.253 52.2175 316.253 53.1054 316.253 53.8947C316.253 54.6839 316.253 55.3745 316.253 55.9665C316.253 56.4598 316.253 56.9531 316.253 57.1504H315.563C312.8 53.9933 309.742 50.639 306.585 47.1859Z" fill="#001822"/>
<path d="M306.585 47.1859C303.428 43.7329 300.172 40.3785 297.015 36.9255C297.015 37.6161 297.015 38.504 296.916 39.6879C296.916 40.8718 296.916 42.4503 296.916 44.4235C296.916 44.9167 296.916 45.6074 296.916 46.298C296.916 47.0872 296.916 47.8765 296.916 48.6658C296.916 49.4551 296.916 50.343 297.015 51.2309C297.015 52.1188 297.015 52.9081 297.113 53.5987C297.113 54.2893 297.212 54.9799 297.212 55.5719C297.212 56.1638 297.212 56.4598 297.311 56.6571C296.916 56.5584 296.522 56.5585 296.028 56.5585C295.535 56.5585 295.042 56.5584 294.647 56.6571C294.647 56.4598 294.746 55.9665 294.844 55.2759C294.943 54.5853 294.943 53.796 295.042 52.9081C295.042 52.0202 295.14 50.9349 295.239 49.9484C295.338 48.8631 295.338 47.7779 295.338 46.6926C295.338 45.6074 295.436 44.5221 295.436 43.5356C295.436 42.549 295.436 41.5624 295.436 40.7731C295.436 38.4053 295.436 36.3335 295.436 34.6563C295.436 32.9791 295.436 31.6966 295.338 30.8086H295.93C297.409 32.3872 298.988 34.163 300.764 36.0375C302.441 37.912 304.217 39.6879 305.894 41.5624C307.571 43.3382 309.15 45.1141 310.728 46.6926C312.208 48.2712 313.589 49.6523 314.675 50.8362V45.8047C314.675 43.2396 314.675 40.6745 314.675 38.208C314.675 35.7415 314.576 33.4724 314.477 31.3019C314.971 31.4006 315.365 31.4992 315.76 31.4992C316.056 31.4992 316.45 31.4006 316.944 31.3019C316.845 31.7952 316.845 32.6831 316.746 33.7684C316.648 34.8536 316.648 36.0375 316.549 37.2214C316.45 38.504 316.45 39.6879 316.352 40.8718C316.253 42.0557 316.253 43.0423 316.253 43.7329C316.253 44.3248 316.253 45.1141 316.253 45.9033C316.253 46.6926 316.253 47.5805 316.253 48.5671C316.253 49.455 316.253 50.4416 316.253 51.3295C316.253 52.2175 316.253 53.1054 316.253 53.8947C316.253 54.6839 316.253 55.3745 316.253 55.9665C316.253 56.4598 316.253 56.9531 316.253 57.1504H315.563C312.8 53.9933 309.742 50.639 306.585 47.1859Z" stroke="#001822" stroke-width="0.58125" stroke-miterlimit="5"/>
<path d="M328.29 36.2348C328.191 34.6563 328.191 33.0778 328.092 31.4993C328.388 31.4993 328.684 31.5979 328.98 31.5979C329.276 31.5979 329.572 31.6966 329.868 31.6966C330.164 31.6966 330.46 31.6965 330.756 31.5979C331.052 31.5979 331.348 31.4993 331.644 31.4993C331.545 33.0778 331.447 34.755 331.447 36.2348C331.348 37.8134 331.348 39.3919 331.348 40.9704V47.2846C331.348 48.8631 331.348 50.5403 331.447 52.1188C331.545 53.6974 331.545 55.2759 331.644 56.7557C331.052 56.6571 330.46 56.6571 329.868 56.6571C329.276 56.6571 328.586 56.6571 328.092 56.7557C328.191 55.2759 328.191 53.6974 328.29 52.1188C328.388 50.5403 328.388 48.9618 328.388 47.2846V40.9704C328.388 39.3919 328.388 37.8134 328.29 36.2348Z" fill="#001822"/>
<path d="M328.29 36.2348C328.191 34.6563 328.191 33.0778 328.092 31.4993C328.388 31.4993 328.684 31.5979 328.98 31.5979C329.276 31.5979 329.572 31.6966 329.868 31.6966C330.164 31.6966 330.46 31.6965 330.756 31.5979C331.052 31.5979 331.348 31.4993 331.644 31.4993C331.545 33.0778 331.447 34.755 331.447 36.2348C331.348 37.8134 331.348 39.3919 331.348 40.9704V47.2846C331.348 48.8631 331.348 50.5403 331.447 52.1188C331.545 53.6974 331.545 55.2759 331.644 56.7557C331.052 56.6571 330.46 56.6571 329.868 56.6571C329.276 56.6571 328.586 56.6571 328.092 56.7557C328.191 55.2759 328.191 53.6974 328.29 52.1188C328.388 50.5403 328.388 48.9618 328.388 47.2846V40.9704C328.388 39.3919 328.388 37.8134 328.29 36.2348Z" fill="#001822" stroke="#001822" stroke-width="0.58125" stroke-miterlimit="5"/>
<path d="M347.627 45.3114C348.219 45.3114 348.909 45.3114 349.6 45.3114C350.291 45.3114 350.981 45.3114 351.573 45.3114C352.264 45.3114 352.954 45.3114 353.645 45.3114C354.336 45.3114 355.026 45.3114 355.717 45.2128L351.573 35.8402L347.627 45.3114ZM364.004 56.7557C363.708 56.6571 363.313 56.6571 363.018 56.6571C362.722 56.6571 362.426 56.6571 362.031 56.6571C361.735 56.6571 361.34 56.6571 361.044 56.6571C360.748 56.6571 360.452 56.6571 360.058 56.7557C359.86 56.1638 359.663 55.4732 359.367 54.6839C359.071 53.8947 358.775 53.0068 358.381 52.1188C357.986 51.2309 357.69 50.343 357.295 49.4551C356.901 48.5671 356.605 47.6792 356.309 46.8899C355.519 46.8899 354.73 46.7913 353.941 46.7913C353.152 46.7913 352.362 46.7913 351.475 46.7913C350.685 46.7913 349.995 46.7913 349.205 46.7913C348.515 46.7913 347.725 46.7913 346.936 46.8899C346.147 48.8631 345.456 50.639 344.766 52.4148C344.174 54.1907 343.68 55.5718 343.286 56.7557C342.891 56.6571 342.398 56.6571 341.905 56.6571C341.411 56.6571 340.918 56.6571 340.523 56.7557C342.497 52.4148 344.47 48.1725 346.344 43.9302C348.219 39.6879 350.192 35.3469 352.066 30.9073H352.757C353.349 32.2885 354.04 33.867 354.632 35.5442C355.322 37.2214 356.013 38.8986 356.703 40.5758C357.394 42.253 358.085 43.9302 358.874 45.6074C359.565 47.2846 360.255 48.8631 360.847 50.2443C361.439 51.7242 362.031 53.0068 362.524 54.092C363.215 55.3746 363.708 56.2624 364.004 56.7557Z" fill="#001822"/>
<path d="M347.627 45.3114C348.219 45.3114 348.909 45.3114 349.6 45.3114C350.291 45.3114 350.981 45.3114 351.573 45.3114C352.264 45.3114 352.954 45.3114 353.645 45.3114C354.336 45.3114 355.026 45.3114 355.717 45.2128L351.573 35.8402L347.627 45.3114ZM364.004 56.7557C363.708 56.6571 363.313 56.6571 363.018 56.6571C362.722 56.6571 362.426 56.6571 362.031 56.6571C361.735 56.6571 361.34 56.6571 361.044 56.6571C360.748 56.6571 360.452 56.6571 360.058 56.7557C359.86 56.1638 359.663 55.4732 359.367 54.6839C359.071 53.8947 358.775 53.0068 358.381 52.1188C357.986 51.2309 357.69 50.343 357.295 49.4551C356.901 48.5671 356.605 47.6792 356.309 46.8899C355.519 46.8899 354.73 46.7913 353.941 46.7913C353.152 46.7913 352.362 46.7913 351.475 46.7913C350.685 46.7913 349.995 46.7913 349.205 46.7913C348.515 46.7913 347.725 46.7913 346.936 46.8899C346.147 48.8631 345.456 50.639 344.766 52.4148C344.174 54.1907 343.68 55.5718 343.286 56.7557C342.891 56.6571 342.398 56.6571 341.905 56.6571C341.411 56.6571 340.918 56.6571 340.523 56.7557C342.497 52.4148 344.47 48.1725 346.344 43.9302C348.219 39.6879 350.192 35.3469 352.066 30.9073H352.757C353.349 32.2885 354.04 33.867 354.632 35.5442C355.322 37.2214 356.013 38.8986 356.703 40.5758C357.394 42.253 358.085 43.9302 358.874 45.6074C359.565 47.2846 360.255 48.8631 360.847 50.2443C361.439 51.7242 362.031 53.0068 362.524 54.092C363.215 55.3746 363.708 56.2624 364.004 56.7557Z" stroke="#001822" stroke-width="0.58125" stroke-miterlimit="5"/>
<path d="M384.821 47.1859C381.664 43.7329 378.408 40.3785 375.251 36.9255C375.251 37.6161 375.251 38.504 375.152 39.6879C375.152 40.8718 375.152 42.4503 375.152 44.4235C375.152 44.9167 375.152 45.6074 375.152 46.298C375.152 47.0872 375.152 47.8765 375.152 48.6658C375.152 49.4551 375.152 50.343 375.251 51.2309C375.251 52.1188 375.35 52.9081 375.35 53.5987C375.35 54.2893 375.448 54.9799 375.448 55.5719C375.448 56.1638 375.448 56.4598 375.547 56.6571C375.152 56.5584 374.758 56.5585 374.265 56.5585C373.771 56.5585 373.278 56.5584 372.883 56.6571C372.982 56.4598 372.982 55.9665 373.081 55.2759C373.179 54.5853 373.179 53.796 373.278 52.9081C373.377 52.0202 373.377 50.9349 373.475 49.9484C373.574 48.8631 373.574 47.7779 373.673 46.6926C373.673 45.6074 373.771 44.5221 373.771 43.5356C373.771 42.549 373.771 41.5624 373.771 40.7731C373.771 38.4053 373.771 36.3335 373.771 34.6563C373.771 32.9791 373.771 31.6966 373.673 30.8086H374.265C375.744 32.3872 377.323 34.163 379.099 36.0375C380.776 37.912 382.552 39.6879 384.229 41.5624C385.906 43.3382 387.485 45.1141 389.063 46.6926C390.543 48.2712 391.924 49.6523 393.01 50.8362V45.8047C393.01 43.2396 393.01 40.6745 392.911 38.208C392.911 35.7415 392.812 33.4724 392.714 31.3019C393.207 31.4006 393.602 31.4992 393.996 31.4992C394.292 31.4992 394.687 31.4006 395.18 31.3019C395.081 31.7952 395.081 32.6831 394.983 33.7684C394.884 34.8536 394.884 36.0375 394.786 37.2214C394.687 38.504 394.687 39.6879 394.588 40.8718C394.489 42.0557 394.489 43.0423 394.489 43.7329C394.489 44.3248 394.489 45.1141 394.489 45.9033C394.489 46.6926 394.489 47.5805 394.489 48.5671C394.489 49.455 394.489 50.4416 394.489 51.3295C394.489 52.2175 394.489 53.1054 394.489 53.8947C394.489 54.6839 394.489 55.3745 394.489 55.9665C394.489 56.4598 394.489 56.9531 394.489 57.1504H393.996C391.036 53.9933 388.077 50.639 384.821 47.1859Z" fill="#001822"/>
<path d="M384.821 47.1859C381.664 43.7329 378.408 40.3785 375.251 36.9255C375.251 37.6161 375.251 38.504 375.152 39.6879C375.152 40.8718 375.152 42.4503 375.152 44.4235C375.152 44.9167 375.152 45.6074 375.152 46.298C375.152 47.0872 375.152 47.8765 375.152 48.6658C375.152 49.4551 375.152 50.343 375.251 51.2309C375.251 52.1188 375.35 52.9081 375.35 53.5987C375.35 54.2893 375.448 54.9799 375.448 55.5719C375.448 56.1638 375.448 56.4598 375.547 56.6571C375.152 56.5584 374.758 56.5585 374.265 56.5585C373.771 56.5585 373.278 56.5584 372.883 56.6571C372.982 56.4598 372.982 55.9665 373.081 55.2759C373.179 54.5853 373.179 53.796 373.278 52.9081C373.377 52.0202 373.377 50.9349 373.475 49.9484C373.574 48.8631 373.574 47.7779 373.673 46.6926C373.673 45.6074 373.771 44.5221 373.771 43.5356C373.771 42.549 373.771 41.5624 373.771 40.7731C373.771 38.4053 373.771 36.3335 373.771 34.6563C373.771 32.9791 373.771 31.6966 373.673 30.8086H374.265C375.744 32.3872 377.323 34.163 379.099 36.0375C380.776 37.912 382.552 39.6879 384.229 41.5624C385.906 43.3382 387.485 45.1141 389.063 46.6926C390.543 48.2712 391.924 49.6523 393.01 50.8362V45.8047C393.01 43.2396 393.01 40.6745 392.911 38.208C392.911 35.7415 392.812 33.4724 392.714 31.3019C393.207 31.4006 393.602 31.4992 393.996 31.4992C394.292 31.4992 394.687 31.4006 395.18 31.3019C395.081 31.7952 395.081 32.6831 394.983 33.7684C394.884 34.8536 394.884 36.0375 394.786 37.2214C394.687 38.504 394.687 39.6879 394.588 40.8718C394.489 42.0557 394.489 43.0423 394.489 43.7329C394.489 44.3248 394.489 45.1141 394.489 45.9033C394.489 46.6926 394.489 47.5805 394.489 48.5671C394.489 49.455 394.489 50.4416 394.489 51.3295C394.489 52.2175 394.489 53.1054 394.489 53.8947C394.489 54.6839 394.489 55.3745 394.489 55.9665C394.489 56.4598 394.489 56.9531 394.489 57.1504H393.996C391.036 53.9933 388.077 50.639 384.821 47.1859Z" stroke="#001822" stroke-width="0.58125" stroke-miterlimit="5"/>
<path d="M133.538 6.83468C133.144 6.53871 132.749 6.24274 132.256 6.04543C131.763 5.84811 131.269 5.65079 130.776 5.55213C130.184 5.45348 129.592 5.35481 129 5.35481C128.014 5.35481 127.027 5.55212 126.139 5.8481C125.251 6.14407 124.462 6.63736 123.771 7.32797C123.081 8.01858 122.587 8.80784 122.193 9.79443C121.798 10.781 121.601 11.9649 121.601 13.3461C121.601 14.53 121.798 15.6153 122.094 16.6019C122.39 17.5885 122.883 18.3777 123.574 19.0683C124.265 19.7589 124.955 20.2522 125.942 20.6468C126.83 21.0415 127.915 21.2388 129.099 21.2388C129.493 21.2388 129.789 21.2388 130.184 21.1401C130.579 21.1401 130.973 21.0415 131.269 21.0415C131.664 20.9428 131.96 20.8441 132.256 20.7455C132.552 20.6468 132.848 20.5482 133.045 20.3509C133.045 19.8576 133.045 19.3643 133.045 18.871C133.045 18.3777 133.045 17.8844 133.045 17.3911C133.045 16.7992 133.045 16.2072 133.045 15.6153C133.045 15.0233 132.946 14.4314 132.946 13.9381C133.341 14.0367 133.736 14.0367 134.13 14.0367C134.328 14.0367 134.525 14.0367 134.722 14.0367C134.92 14.0367 135.117 13.9381 135.216 13.9381C135.216 14.3327 135.117 14.9247 135.117 15.7139C135.117 16.5032 135.117 17.5884 135.117 18.9696C135.117 19.2656 135.117 19.6602 135.117 19.9562C135.117 20.2522 135.117 20.6468 135.117 20.9428C134.722 21.0415 134.328 21.2388 133.834 21.3375C133.341 21.4361 132.749 21.6334 132.157 21.7321C131.565 21.8307 130.973 21.9294 130.381 22.0281C129.789 22.1267 129.296 22.1267 128.803 22.1267C127.323 22.1267 125.942 21.9294 124.758 21.6334C123.574 21.2388 122.587 20.7455 121.699 19.9562C120.91 19.1669 120.219 18.279 119.825 17.1938C119.332 16.1086 119.134 14.826 119.134 13.3461C119.134 11.9649 119.332 10.6823 119.825 9.5971C120.318 8.51186 120.91 7.52529 121.798 6.83468C122.686 6.04541 123.673 5.45348 124.856 5.05884C126.04 4.66421 127.422 4.46686 128.901 4.46686C129.789 4.46686 130.48 4.46689 131.171 4.56555C131.861 4.66421 132.453 4.76283 132.946 4.96015C133.44 5.15747 133.933 5.25612 134.328 5.45344C134.722 5.65076 135.018 5.74942 135.314 5.94673C135.216 6.14405 135.018 6.44005 134.92 6.83468C134.821 7.22931 134.722 7.52529 134.722 7.82126H134.426C134.229 7.42663 133.933 7.13065 133.538 6.83468Z" fill="white"/>
<path d="M133.538 6.83468C133.144 6.53871 132.749 6.24274 132.256 6.04543C131.763 5.84811 131.269 5.65079 130.776 5.55213C130.184 5.45348 129.592 5.35481 129 5.35481C128.014 5.35481 127.027 5.55212 126.139 5.8481C125.251 6.14407 124.462 6.63736 123.771 7.32797C123.081 8.01858 122.587 8.80784 122.193 9.79443C121.798 10.781 121.601 11.9649 121.601 13.3461C121.601 14.53 121.798 15.6153 122.094 16.6019C122.39 17.5885 122.883 18.3777 123.574 19.0683C124.265 19.7589 124.955 20.2522 125.942 20.6468C126.83 21.0415 127.915 21.2388 129.099 21.2388C129.493 21.2388 129.789 21.2388 130.184 21.1401C130.579 21.1401 130.973 21.0415 131.269 21.0415C131.664 20.9428 131.96 20.8441 132.256 20.7455C132.552 20.6468 132.848 20.5482 133.045 20.3509C133.045 19.8576 133.045 19.3643 133.045 18.871C133.045 18.3777 133.045 17.8844 133.045 17.3911C133.045 16.7992 133.045 16.2072 133.045 15.6153C133.045 15.0233 132.946 14.4314 132.946 13.9381C133.341 14.0367 133.736 14.0367 134.13 14.0367C134.328 14.0367 134.525 14.0367 134.722 14.0367C134.92 14.0367 135.117 13.9381 135.216 13.9381C135.216 14.3327 135.117 14.9247 135.117 15.7139C135.117 16.5032 135.117 17.5884 135.117 18.9696C135.117 19.2656 135.117 19.6602 135.117 19.9562C135.117 20.2522 135.117 20.6468 135.117 20.9428C134.722 21.0415 134.328 21.2388 133.834 21.3375C133.341 21.4361 132.749 21.6334 132.157 21.7321C131.565 21.8307 130.973 21.9294 130.381 22.0281C129.789 22.1267 129.296 22.1267 128.803 22.1267C127.323 22.1267 125.942 21.9294 124.758 21.6334C123.574 21.2388 122.587 20.7455 121.699 19.9562C120.91 19.1669 120.219 18.279 119.825 17.1938C119.332 16.1086 119.134 14.826 119.134 13.3461C119.134 11.9649 119.332 10.6823 119.825 9.5971C120.318 8.51186 120.91 7.52529 121.798 6.83468C122.686 6.04541 123.673 5.45348 124.856 5.05884C126.04 4.66421 127.422 4.46686 128.901 4.46686C129.789 4.46686 130.48 4.46689 131.171 4.56555C131.861 4.66421 132.453 4.76283 132.946 4.96015C133.44 5.15747 133.933 5.25612 134.328 5.45344C134.722 5.65076 135.018 5.74942 135.314 5.94673C135.216 6.14405 135.018 6.44005 134.92 6.83468C134.821 7.22931 134.722 7.52529 134.722 7.82126H134.426C134.229 7.42663 133.933 7.13065 133.538 6.83468Z" fill="black" stroke="#001822" stroke-width="1.7885" stroke-miterlimit="5"/>
<path d="M164.813 7.9199C164.813 6.83466 164.714 5.74943 164.714 4.66419C164.912 4.66419 165.109 4.76288 165.306 4.76288C165.504 4.76288 165.701 4.76288 165.898 4.76288C166.096 4.76288 166.293 4.76288 166.49 4.76288C166.688 4.76288 166.885 4.66419 167.082 4.66419C166.984 5.74943 166.984 6.83466 166.885 7.9199C166.885 9.00514 166.786 10.0904 166.786 11.1757C166.786 13.2475 166.786 15.122 166.786 16.6019C166.786 18.1804 166.786 19.5616 166.885 20.7455C168.069 20.7455 169.154 20.7455 170.239 20.7455C171.324 20.7455 172.508 20.6468 173.692 20.4495C173.594 20.7455 173.594 21.0414 173.594 21.2388C173.594 21.4361 173.594 21.6334 173.692 21.9294C172.903 21.9294 172.114 21.9294 171.423 21.9294C170.634 21.9294 169.943 21.9294 169.154 21.9294C168.365 21.9294 167.575 21.9294 166.885 21.9294C166.194 21.9294 165.405 21.9294 164.616 21.9294C164.616 20.9428 164.714 19.8575 164.714 18.7723C164.714 17.6871 164.714 16.6018 164.714 15.5166V11.1757C164.912 10.0904 164.912 9.00514 164.813 7.9199Z" fill="white"/>
<path d="M164.813 7.9199C164.813 6.83466 164.714 5.74943 164.714 4.66419C164.912 4.66419 165.109 4.76288 165.306 4.76288C165.504 4.76288 165.701 4.76288 165.898 4.76288C166.096 4.76288 166.293 4.76288 166.49 4.76288C166.688 4.76288 166.885 4.66419 167.082 4.66419C166.984 5.74943 166.984 6.83466 166.885 7.9199C166.885 9.00514 166.786 10.0904 166.786 11.1757C166.786 13.2475 166.786 15.122 166.786 16.6019C166.786 18.1804 166.786 19.5616 166.885 20.7455C168.069 20.7455 169.154 20.7455 170.239 20.7455C171.324 20.7455 172.508 20.6468 173.692 20.4495C173.594 20.7455 173.594 21.0414 173.594 21.2388C173.594 21.4361 173.594 21.6334 173.692 21.9294C172.903 21.9294 172.114 21.9294 171.423 21.9294C170.634 21.9294 169.943 21.9294 169.154 21.9294C168.365 21.9294 167.575 21.9294 166.885 21.9294C166.194 21.9294 165.405 21.9294 164.616 21.9294C164.616 20.9428 164.714 19.8575 164.714 18.7723C164.714 17.6871 164.714 16.6018 164.714 15.5166V11.1757C164.912 10.0904 164.912 9.00514 164.813 7.9199Z" fill="#001822" stroke="#001822" stroke-width="1.7885" stroke-miterlimit="5"/>
<path d="M205.46 14.1355C205.855 14.1355 206.348 14.1355 206.841 14.1355C207.335 14.1355 207.729 14.1355 208.223 14.1355C208.716 14.1355 209.111 14.1355 209.604 14.1355C210.097 14.1355 210.492 14.1355 210.985 14.1355L208.223 7.82133L205.46 14.1355ZM216.51 21.8308C216.313 21.8308 216.017 21.8308 215.819 21.8308C215.622 21.8308 215.425 21.8308 215.129 21.8308C214.931 21.8308 214.635 21.8308 214.438 21.8308C214.241 21.8308 214.043 21.8308 213.748 21.8308C213.649 21.4362 213.452 20.9429 213.254 20.4496C213.057 19.9563 212.86 19.3643 212.564 18.7724C212.366 18.1804 212.07 17.5885 211.873 16.9965C211.577 16.4046 211.38 15.8126 211.182 15.2207C210.689 15.2207 210.097 15.2207 209.604 15.2207C209.012 15.2207 208.519 15.2207 207.927 15.2207C207.433 15.2207 206.94 15.2207 206.447 15.2207C205.954 15.2207 205.46 15.2207 204.967 15.2207C204.474 16.5033 203.98 17.7858 203.487 18.9697C203.092 20.1536 202.698 21.1402 202.501 21.8308C202.205 21.8308 201.909 21.8308 201.613 21.8308C201.317 21.8308 201.021 21.8308 200.725 21.8308C202.106 18.8711 203.388 16.01 204.671 13.1489C205.953 10.2878 207.236 7.32804 208.519 4.36829H209.012C209.407 5.35487 209.801 6.34146 210.294 7.52536C210.788 8.6106 211.281 9.7945 211.676 10.9784C212.169 12.1623 212.662 13.2475 213.156 14.4314C213.649 15.5167 214.043 16.6019 214.537 17.5885C214.931 18.5751 215.326 19.463 215.721 20.1536C216.017 20.8442 216.313 21.4362 216.51 21.8308Z" fill="white"/>
<path d="M205.46 14.1355C205.855 14.1355 206.348 14.1355 206.841 14.1355C207.335 14.1355 207.729 14.1355 208.223 14.1355C208.716 14.1355 209.111 14.1355 209.604 14.1355C210.097 14.1355 210.492 14.1355 210.985 14.1355L208.223 7.82133L205.46 14.1355ZM216.51 21.8308C216.313 21.8308 216.017 21.8308 215.819 21.8308C215.622 21.8308 215.425 21.8308 215.129 21.8308C214.931 21.8308 214.635 21.8308 214.438 21.8308C214.241 21.8308 214.043 21.8308 213.748 21.8308C213.649 21.4362 213.452 20.9429 213.254 20.4496C213.057 19.9563 212.86 19.3643 212.564 18.7724C212.366 18.1804 212.07 17.5885 211.873 16.9965C211.577 16.4046 211.38 15.8126 211.182 15.2207C210.689 15.2207 210.097 15.2207 209.604 15.2207C209.012 15.2207 208.519 15.2207 207.927 15.2207C207.433 15.2207 206.94 15.2207 206.447 15.2207C205.954 15.2207 205.46 15.2207 204.967 15.2207C204.474 16.5033 203.98 17.7858 203.487 18.9697C203.092 20.1536 202.698 21.1402 202.501 21.8308C202.205 21.8308 201.909 21.8308 201.613 21.8308C201.317 21.8308 201.021 21.8308 200.725 21.8308C202.106 18.8711 203.388 16.01 204.671 13.1489C205.953 10.2878 207.236 7.32804 208.519 4.36829H209.012C209.407 5.35487 209.801 6.34146 210.294 7.52536C210.788 8.6106 211.281 9.7945 211.676 10.9784C212.169 12.1623 212.662 13.2475 213.156 14.4314C213.649 15.5167 214.043 16.6019 214.537 17.5885C214.931 18.5751 215.326 19.463 215.721 20.1536C216.017 20.8442 216.313 21.4362 216.51 21.8308Z" fill="#001822" stroke="#001822" stroke-width="1.7885" stroke-miterlimit="5"/>
<path d="M244.726 19.5617C244.923 19.8577 245.219 20.1536 245.515 20.3509C245.811 20.6469 246.206 20.8442 246.699 20.9429C247.094 21.1402 247.587 21.1402 248.179 21.1402C248.771 21.1402 249.264 21.0415 249.659 20.8442C250.053 20.6469 250.448 20.3509 250.744 20.055C251.04 19.759 251.336 19.3644 251.435 18.8711C251.632 18.4764 251.731 17.9831 251.731 17.4898C251.731 16.7006 251.533 16.1086 251.139 15.714C250.744 15.2207 250.251 14.9247 249.659 14.6288C249.067 14.3328 248.475 14.0368 247.784 13.8395C247.094 13.5435 246.502 13.2475 245.91 12.8529C245.318 12.4582 244.825 11.9649 244.43 11.373C244.035 10.781 243.838 9.99182 243.838 9.00524C243.838 8.31463 243.937 7.624 244.233 7.13071C244.43 6.53876 244.825 6.04546 245.318 5.65083C245.811 5.2562 246.403 4.96022 246.995 4.66425C247.686 4.46693 248.376 4.26965 249.264 4.26965C250.053 4.26965 250.744 4.3683 251.336 4.56561C251.928 4.76293 252.421 5.05887 252.915 5.4535C252.717 5.74948 252.619 6.04548 252.52 6.34145C252.421 6.63743 252.323 7.03207 252.224 7.52536H251.928C251.829 7.32805 251.731 7.03208 251.632 6.73611C251.533 6.44013 251.336 6.24277 251.04 5.94679C250.843 5.74948 250.547 5.55219 250.152 5.35487C249.856 5.15755 249.461 5.15754 248.968 5.15754C248.475 5.15754 248.08 5.25621 247.686 5.35487C247.291 5.55219 246.995 5.74948 246.699 5.94679C246.403 6.24277 246.206 6.53874 246.008 6.93338C245.811 7.32801 245.811 7.72269 245.811 8.21598C245.811 9.00525 246.008 9.59716 246.403 10.0905C246.798 10.5837 247.291 10.8797 247.883 11.2744C248.475 11.5703 249.067 11.8663 249.757 12.0636C250.448 12.2609 251.04 12.5569 251.632 12.9516C252.224 13.3462 252.717 13.7408 253.112 14.3327C253.506 14.9247 253.704 15.6153 253.704 16.5032C253.704 17.2925 253.605 17.9831 253.309 18.6737C253.013 19.3643 252.619 19.9563 252.125 20.4496C251.632 20.9429 250.941 21.3375 250.251 21.6335C249.461 21.9295 248.672 22.0281 247.686 22.0281C246.699 22.0281 245.811 21.9295 245.219 21.6335C244.627 21.3375 244.035 21.0415 243.641 20.7455C243.838 20.3509 243.937 20.0549 243.937 19.6603C244.035 19.3643 244.035 18.9697 244.134 18.4764H244.43C244.331 18.871 244.43 19.167 244.726 19.5617Z" fill="white"/>
<path d="M244.726 19.5617C244.923 19.8577 245.219 20.1536 245.515 20.3509C245.811 20.6469 246.206 20.8442 246.699 20.9429C247.094 21.1402 247.587 21.1402 248.179 21.1402C248.771 21.1402 249.264 21.0415 249.659 20.8442C250.053 20.6469 250.448 20.3509 250.744 20.055C251.04 19.759 251.336 19.3644 251.435 18.8711C251.632 18.4764 251.731 17.9831 251.731 17.4898C251.731 16.7006 251.533 16.1086 251.139 15.714C250.744 15.2207 250.251 14.9247 249.659 14.6288C249.067 14.3328 248.475 14.0368 247.784 13.8395C247.094 13.5435 246.502 13.2475 245.91 12.8529C245.318 12.4582 244.825 11.9649 244.43 11.373C244.035 10.781 243.838 9.99182 243.838 9.00524C243.838 8.31463 243.937 7.624 244.233 7.13071C244.43 6.53876 244.825 6.04546 245.318 5.65083C245.811 5.2562 246.403 4.96022 246.995 4.66425C247.686 4.46693 248.376 4.26965 249.264 4.26965C250.053 4.26965 250.744 4.3683 251.336 4.56561C251.928 4.76293 252.421 5.05887 252.915 5.4535C252.717 5.74948 252.619 6.04548 252.52 6.34145C252.421 6.63743 252.323 7.03207 252.224 7.52536H251.928C251.829 7.32805 251.731 7.03208 251.632 6.73611C251.533 6.44013 251.336 6.24277 251.04 5.94679C250.843 5.74948 250.547 5.55219 250.152 5.35487C249.856 5.15755 249.461 5.15754 248.968 5.15754C248.475 5.15754 248.08 5.25621 247.686 5.35487C247.291 5.55219 246.995 5.74948 246.699 5.94679C246.403 6.24277 246.206 6.53874 246.008 6.93338C245.811 7.32801 245.811 7.72269 245.811 8.21598C245.811 9.00525 246.008 9.59716 246.403 10.0905C246.798 10.5837 247.291 10.8797 247.883 11.2744C248.475 11.5703 249.067 11.8663 249.757 12.0636C250.448 12.2609 251.04 12.5569 251.632 12.9516C252.224 13.3462 252.717 13.7408 253.112 14.3327C253.506 14.9247 253.704 15.6153 253.704 16.5032C253.704 17.2925 253.605 17.9831 253.309 18.6737C253.013 19.3643 252.619 19.9563 252.125 20.4496C251.632 20.9429 250.941 21.3375 250.251 21.6335C249.461 21.9295 248.672 22.0281 247.686 22.0281C246.699 22.0281 245.811 21.9295 245.219 21.6335C244.627 21.3375 244.035 21.0415 243.641 20.7455C243.838 20.3509 243.937 20.0549 243.937 19.6603C244.035 19.3643 244.035 18.9697 244.134 18.4764H244.43C244.331 18.871 244.43 19.167 244.726 19.5617Z" fill="#001822" stroke="#001822" stroke-width="1.7885" stroke-miterlimit="5"/>
<path d="M295.831 6.83468C295.436 6.53871 295.042 6.24274 294.548 6.04543C294.055 5.84811 293.562 5.65079 293.068 5.55213C292.476 5.45348 291.885 5.35481 291.293 5.35481C290.306 5.35481 289.319 5.55212 288.431 5.8481C287.544 6.14407 286.754 6.63736 286.162 7.32797C285.472 8.01858 284.978 8.80784 284.584 9.79443C284.189 10.781 283.992 11.9649 283.992 13.3461C283.992 14.53 284.189 15.6153 284.485 16.6019C284.781 17.5885 285.274 18.3777 285.965 19.0683C286.557 19.7589 287.346 20.2522 288.333 20.6468C289.221 21.0415 290.306 21.2388 291.49 21.2388C291.884 21.2388 292.18 21.2388 292.575 21.1401C292.97 21.1401 293.364 21.0415 293.66 21.0415C294.055 20.9428 294.351 20.8441 294.647 20.7455C294.943 20.6468 295.239 20.5482 295.436 20.3509C295.436 19.8576 295.436 19.3643 295.436 18.871C295.436 18.3777 295.436 17.8844 295.436 17.3911C295.436 16.7992 295.436 16.2072 295.436 15.6153C295.436 15.0233 295.338 14.4314 295.338 13.9381C295.732 14.0367 296.127 14.0367 296.521 14.0367C296.719 14.0367 296.916 14.0367 297.113 14.0367C297.311 14.0367 297.508 13.9381 297.607 13.9381C297.607 14.3327 297.508 14.9247 297.508 15.7139C297.508 16.5032 297.508 17.5884 297.508 18.9696C297.508 19.2656 297.508 19.6602 297.508 19.9562C297.508 20.2522 297.508 20.6468 297.508 20.9428C297.212 21.0415 296.719 21.2388 296.225 21.3375C295.732 21.4361 295.14 21.6334 294.548 21.7321C293.956 21.8307 293.364 21.9294 292.772 22.0281C292.181 22.1267 291.687 22.1267 291.194 22.1267C289.714 22.1267 288.333 21.9294 287.149 21.6334C285.965 21.2388 284.978 20.7455 284.09 19.9562C283.301 19.1669 282.611 18.279 282.117 17.1938C281.624 16.1086 281.427 14.826 281.427 13.3461C281.427 11.9649 281.624 10.6823 282.117 9.5971C282.611 8.51186 283.203 7.52529 284.09 6.83468C284.978 6.04541 285.965 5.45348 287.149 5.05884C288.333 4.66421 289.714 4.46686 291.095 4.46686C291.983 4.46686 292.674 4.46689 293.364 4.56555C294.055 4.66421 294.647 4.76283 295.14 4.96015C295.634 5.15747 296.127 5.25612 296.521 5.45344C296.916 5.65076 297.212 5.74942 297.508 5.94673C297.409 6.14405 297.212 6.44005 297.113 6.83468C297.015 7.22931 296.916 7.52529 296.916 7.82126H296.817C296.521 7.42663 296.225 7.13065 295.831 6.83468Z" fill="white"/>
<path d="M295.831 6.83468C295.436 6.53871 295.042 6.24274 294.548 6.04543C294.055 5.84811 293.562 5.65079 293.068 5.55213C292.476 5.45348 291.885 5.35481 291.293 5.35481C290.306 5.35481 289.319 5.55212 288.431 5.8481C287.544 6.14407 286.754 6.63736 286.162 7.32797C285.472 8.01858 284.978 8.80784 284.584 9.79443C284.189 10.781 283.992 11.9649 283.992 13.3461C283.992 14.53 284.189 15.6153 284.485 16.6019C284.781 17.5885 285.274 18.3777 285.965 19.0683C286.557 19.7589 287.346 20.2522 288.333 20.6468C289.221 21.0415 290.306 21.2388 291.49 21.2388C291.884 21.2388 292.18 21.2388 292.575 21.1401C292.97 21.1401 293.364 21.0415 293.66 21.0415C294.055 20.9428 294.351 20.8441 294.647 20.7455C294.943 20.6468 295.239 20.5482 295.436 20.3509C295.436 19.8576 295.436 19.3643 295.436 18.871C295.436 18.3777 295.436 17.8844 295.436 17.3911C295.436 16.7992 295.436 16.2072 295.436 15.6153C295.436 15.0233 295.338 14.4314 295.338 13.9381C295.732 14.0367 296.127 14.0367 296.521 14.0367C296.719 14.0367 296.916 14.0367 297.113 14.0367C297.311 14.0367 297.508 13.9381 297.607 13.9381C297.607 14.3327 297.508 14.9247 297.508 15.7139C297.508 16.5032 297.508 17.5884 297.508 18.9696C297.508 19.2656 297.508 19.6602 297.508 19.9562C297.508 20.2522 297.508 20.6468 297.508 20.9428C297.212 21.0415 296.719 21.2388 296.225 21.3375C295.732 21.4361 295.14 21.6334 294.548 21.7321C293.956 21.8307 293.364 21.9294 292.772 22.0281C292.181 22.1267 291.687 22.1267 291.194 22.1267C289.714 22.1267 288.333 21.9294 287.149 21.6334C285.965 21.2388 284.978 20.7455 284.09 19.9562C283.301 19.1669 282.611 18.279 282.117 17.1938C281.624 16.1086 281.427 14.826 281.427 13.3461C281.427 11.9649 281.624 10.6823 282.117 9.5971C282.611 8.51186 283.203 7.52529 284.09 6.83468C284.978 6.04541 285.965 5.45348 287.149 5.05884C288.333 4.66421 289.714 4.46686 291.095 4.46686C291.983 4.46686 292.674 4.46689 293.364 4.56555C294.055 4.66421 294.647 4.76283 295.14 4.96015C295.634 5.15747 296.127 5.25612 296.521 5.45344C296.916 5.65076 297.212 5.74942 297.508 5.94673C297.409 6.14405 297.212 6.44005 297.113 6.83468C297.015 7.22931 296.916 7.52529 296.916 7.82126H296.817C296.521 7.42663 296.225 7.13065 295.831 6.83468Z" fill="#001822" stroke="#001822" stroke-width="1.7885" stroke-miterlimit="5"/>
<path d="M341.51 9.69586C341.115 8.70927 340.721 7.82135 340.03 7.2294C339.438 6.53879 338.649 6.0455 337.86 5.74953C337.07 5.45355 336.084 5.25623 335.097 5.25623C334.11 5.25623 333.223 5.45355 332.433 5.74953C331.545 6.0455 330.855 6.53879 330.263 7.2294C329.671 7.92001 329.178 8.70927 328.783 9.69586C328.388 10.6824 328.29 11.8663 328.29 13.2475C328.29 14.6287 328.487 15.8126 328.783 16.7992C329.178 17.7858 329.572 18.6737 330.263 19.2657C330.855 19.9563 331.644 20.4496 332.433 20.7455C333.223 21.0415 334.209 21.2388 335.097 21.2388C336.084 21.2388 336.972 21.0415 337.86 20.7455C338.747 20.4496 339.438 19.9563 340.03 19.2657C340.622 18.5751 341.115 17.7858 341.51 16.7992C341.905 15.8126 342.003 14.6287 342.003 13.2475C342.102 11.8663 341.905 10.6824 341.51 9.69586ZM326.514 9.49853C327.007 8.41329 327.599 7.42672 328.388 6.73611C329.178 5.94684 330.164 5.35484 331.348 4.96021C332.532 4.56558 333.716 4.36829 335.097 4.36829C336.478 4.36829 337.761 4.56558 338.846 4.96021C340.03 5.35484 341.017 5.94684 341.806 6.73611C342.595 7.52537 343.286 8.41329 343.779 9.49853C344.272 10.5838 344.47 11.8663 344.47 13.2475C344.47 14.6287 344.272 15.9113 343.779 16.9965C343.286 18.0818 342.694 19.0683 341.806 19.7589C341.017 20.5482 340.03 21.1402 338.846 21.4362C337.662 21.8308 336.478 22.0281 335.097 22.0281C333.716 22.0281 332.433 21.8308 331.348 21.4362C330.164 21.0415 329.178 20.4496 328.388 19.7589C327.599 18.9697 326.908 18.0818 326.514 16.9965C326.021 15.9113 325.823 14.6287 325.823 13.2475C325.823 11.8663 326.021 10.5838 326.514 9.49853Z" fill="white"/>
<path d="M341.51 9.69586C341.115 8.70927 340.721 7.82135 340.03 7.2294C339.438 6.53879 338.649 6.0455 337.86 5.74953C337.07 5.45355 336.084 5.25623 335.097 5.25623C334.11 5.25623 333.223 5.45355 332.433 5.74953C331.545 6.0455 330.855 6.53879 330.263 7.2294C329.671 7.92001 329.178 8.70927 328.783 9.69586C328.388 10.6824 328.29 11.8663 328.29 13.2475C328.29 14.6287 328.487 15.8126 328.783 16.7992C329.178 17.7858 329.572 18.6737 330.263 19.2657C330.855 19.9563 331.644 20.4496 332.433 20.7455C333.223 21.0415 334.209 21.2388 335.097 21.2388C336.084 21.2388 336.972 21.0415 337.86 20.7455C338.747 20.4496 339.438 19.9563 340.03 19.2657C340.622 18.5751 341.115 17.7858 341.51 16.7992C341.905 15.8126 342.003 14.6287 342.003 13.2475C342.102 11.8663 341.905 10.6824 341.51 9.69586ZM326.514 9.49853C327.007 8.41329 327.599 7.42672 328.388 6.73611C329.178 5.94684 330.164 5.35484 331.348 4.96021C332.532 4.56558 333.716 4.36829 335.097 4.36829C336.478 4.36829 337.761 4.56558 338.846 4.96021C340.03 5.35484 341.017 5.94684 341.806 6.73611C342.595 7.52537 343.286 8.41329 343.779 9.49853C344.272 10.5838 344.47 11.8663 344.47 13.2475C344.47 14.6287 344.272 15.9113 343.779 16.9965C343.286 18.0818 342.694 19.0683 341.806 19.7589C341.017 20.5482 340.03 21.1402 338.846 21.4362C337.662 21.8308 336.478 22.0281 335.097 22.0281C333.716 22.0281 332.433 21.8308 331.348 21.4362C330.164 21.0415 329.178 20.4496 328.388 19.7589C327.599 18.9697 326.908 18.0818 326.514 16.9965C326.021 15.9113 325.823 14.6287 325.823 13.2475C325.823 11.8663 326.021 10.5838 326.514 9.49853Z" fill="#001822" stroke="#001822" stroke-width="1.7885" stroke-miterlimit="5"/>
<path d="M375.547 19.8576C375.251 18.9697 374.955 17.983 374.561 16.7991C374.166 15.6152 373.87 14.4314 373.475 13.2475C373.081 11.9649 372.686 10.781 372.39 9.6958C372.094 8.61056 371.699 7.52528 371.403 6.63736C371.107 5.74943 370.91 5.05882 370.713 4.66419C370.91 4.66419 371.107 4.76289 371.305 4.76289C371.502 4.76289 371.699 4.76289 371.897 4.76289C372.094 4.76289 372.291 4.76289 372.489 4.76289C372.686 4.76289 372.883 4.66419 373.081 4.66419C373.377 5.94675 373.673 7.13068 373.969 8.21592C374.265 9.30116 374.561 10.485 374.955 11.5703C375.251 12.7542 375.646 13.9381 376.04 15.122C376.435 16.4046 376.83 17.7858 377.422 19.3643C377.619 18.871 377.816 18.279 378.014 17.4898C378.31 16.7005 378.606 15.8126 378.902 14.826C379.197 13.8394 379.592 12.8528 379.888 11.8662C380.283 10.8796 380.579 9.89307 380.875 8.90648C381.171 7.9199 381.467 7.13066 381.664 6.34139C381.861 5.55213 382.059 4.96019 382.157 4.56556C382.453 4.66422 382.749 4.66419 382.946 4.66419C383.144 4.66419 383.44 4.66422 383.736 4.56556C383.834 5.05885 384.032 5.65076 384.229 6.44003C384.426 7.22929 384.722 8.11725 385.018 9.00518C385.314 9.99176 385.61 10.9783 386.005 11.9649C386.301 12.9515 386.696 14.0367 386.992 14.9247C387.287 15.9113 387.583 16.7005 387.879 17.4898C388.175 18.279 388.373 18.871 388.471 19.2656H388.57C388.669 18.871 388.866 18.3777 389.063 17.5885C389.261 16.7992 389.557 15.9113 389.853 14.9247C390.149 13.9381 390.445 12.9515 390.839 11.8662C391.135 10.781 391.431 9.79443 391.727 8.80785C392.023 7.82127 392.319 6.93337 392.516 6.24276C392.714 5.45349 392.911 4.86153 393.01 4.56556C393.207 4.56556 393.306 4.66419 393.404 4.66419C393.503 4.66419 393.7 4.66419 393.799 4.66419C393.996 4.66419 394.095 4.66419 394.194 4.66419C394.292 4.66419 394.489 4.56556 394.588 4.56556C394.391 4.96019 394.194 5.5521 393.898 6.44003C393.602 7.32795 393.207 8.31457 392.812 9.49847C392.418 10.5837 392.023 11.8662 391.628 13.0501C391.234 14.3327 390.839 15.5166 390.445 16.7005C390.05 17.8844 389.754 18.871 389.359 19.7589C389.063 20.6468 388.866 21.3374 388.669 21.7321C388.373 21.7321 388.077 21.7321 387.781 21.7321C387.485 21.7321 387.189 21.7321 386.893 21.7321C386.104 19.4629 385.413 17.0951 384.624 14.7273C383.933 12.3595 383.144 9.99172 382.256 7.42661C382.157 7.82124 381.96 8.31457 381.763 9.00518C381.565 9.59713 381.269 10.3864 380.973 11.1757C380.677 11.9649 380.381 12.8528 380.085 13.7408C379.789 14.6287 379.493 15.6153 379.099 16.5032C378.803 17.3911 378.507 18.3777 378.211 19.2656C377.915 20.1535 377.619 20.9428 377.422 21.7321C377.126 21.7321 376.83 21.7321 376.534 21.7321C376.238 21.7321 375.942 21.7321 375.646 21.7321C376.04 21.4361 375.843 20.7455 375.547 19.8576Z" fill="white"/>
<path d="M375.547 19.8576C375.251 18.9697 374.955 17.983 374.561 16.7991C374.166 15.6152 373.87 14.4314 373.475 13.2475C373.081 11.9649 372.686 10.781 372.39 9.6958C372.094 8.61056 371.699 7.52528 371.403 6.63736C371.107 5.74943 370.91 5.05882 370.713 4.66419C370.91 4.66419 371.107 4.76289 371.305 4.76289C371.502 4.76289 371.699 4.76289 371.897 4.76289C372.094 4.76289 372.291 4.76289 372.489 4.76289C372.686 4.76289 372.883 4.66419 373.081 4.66419C373.377 5.94675 373.673 7.13068 373.969 8.21592C374.265 9.30116 374.561 10.485 374.955 11.5703C375.251 12.7542 375.646 13.9381 376.04 15.122C376.435 16.4046 376.83 17.7858 377.422 19.3643C377.619 18.871 377.816 18.279 378.014 17.4898C378.31 16.7005 378.606 15.8126 378.902 14.826C379.197 13.8394 379.592 12.8528 379.888 11.8662C380.283 10.8796 380.579 9.89307 380.875 8.90648C381.171 7.9199 381.467 7.13066 381.664 6.34139C381.861 5.55213 382.059 4.96019 382.157 4.56556C382.453 4.66422 382.749 4.66419 382.946 4.66419C383.144 4.66419 383.44 4.66422 383.736 4.56556C383.834 5.05885 384.032 5.65076 384.229 6.44003C384.426 7.22929 384.722 8.11725 385.018 9.00518C385.314 9.99176 385.61 10.9783 386.005 11.9649C386.301 12.9515 386.696 14.0367 386.992 14.9247C387.287 15.9113 387.583 16.7005 387.879 17.4898C388.175 18.279 388.373 18.871 388.471 19.2656H388.57C388.669 18.871 388.866 18.3777 389.063 17.5885C389.261 16.7992 389.557 15.9113 389.853 14.9247C390.149 13.9381 390.445 12.9515 390.839 11.8662C391.135 10.781 391.431 9.79443 391.727 8.80785C392.023 7.82127 392.319 6.93337 392.516 6.24276C392.714 5.45349 392.911 4.86153 393.01 4.56556C393.207 4.56556 393.306 4.66419 393.404 4.66419C393.503 4.66419 393.7 4.66419 393.799 4.66419C393.996 4.66419 394.095 4.66419 394.194 4.66419C394.292 4.66419 394.489 4.56556 394.588 4.56556C394.391 4.96019 394.194 5.5521 393.898 6.44003C393.602 7.32795 393.207 8.31457 392.812 9.49847C392.418 10.5837 392.023 11.8662 391.628 13.0501C391.234 14.3327 390.839 15.5166 390.445 16.7005C390.05 17.8844 389.754 18.871 389.359 19.7589C389.063 20.6468 388.866 21.3374 388.669 21.7321C388.373 21.7321 388.077 21.7321 387.781 21.7321C387.485 21.7321 387.189 21.7321 386.893 21.7321C386.104 19.4629 385.413 17.0951 384.624 14.7273C383.933 12.3595 383.144 9.99172 382.256 7.42661C382.157 7.82124 381.96 8.31457 381.763 9.00518C381.565 9.59713 381.269 10.3864 380.973 11.1757C380.677 11.9649 380.381 12.8528 380.085 13.7408C379.789 14.6287 379.493 15.6153 379.099 16.5032C378.803 17.3911 378.507 18.3777 378.211 19.2656C377.915 20.1535 377.619 20.9428 377.422 21.7321C377.126 21.7321 376.83 21.7321 376.534 21.7321C376.238 21.7321 375.942 21.7321 375.646 21.7321C376.04 21.4361 375.843 20.7455 375.547 19.8576Z" fill="#001822" stroke="#001822" stroke-width="1.7885" stroke-miterlimit="5"/>
<path d="M139.951 73.8237C139.951 71.9492 139.852 70.6666 139.753 69.8774C140.049 69.976 140.247 69.976 140.543 69.976C140.74 69.976 141.036 70.0746 141.233 70.0746C141.529 70.0746 141.924 69.976 142.319 69.8774C142.22 70.7653 142.22 71.7518 142.121 72.9357C142.023 74.1196 142.023 75.4022 141.924 76.7834C141.825 78.1646 141.825 79.5459 141.727 81.0257C141.727 82.5056 141.628 83.8868 141.628 85.1694C141.628 86.8466 141.332 88.3264 140.839 89.609C140.345 90.8916 139.655 91.9768 138.767 92.9634C137.879 93.8513 136.794 94.5419 135.511 95.0352C134.229 95.5285 132.749 95.7258 131.072 95.7258C127.421 95.7258 124.659 94.9365 122.982 93.2593C121.304 91.5821 120.515 88.9183 120.515 85.3667C120.515 84.1828 120.515 83.1962 120.614 82.3083C120.712 81.4203 120.712 80.5324 120.712 79.5459C120.712 77.474 120.712 75.5995 120.614 74.021C120.515 72.4424 120.515 71.0612 120.417 69.976C120.712 70.0746 121.008 70.0746 121.403 70.0746C121.798 70.0746 122.094 70.1733 122.39 70.1733C122.686 70.1733 122.883 70.1733 123.179 70.0746C123.475 70.0746 123.672 69.976 123.968 69.976C123.87 70.5679 123.87 71.2586 123.771 72.1465C123.672 73.0344 123.672 74.021 123.574 75.1062C123.475 76.1915 123.475 77.3753 123.475 78.6579C123.475 79.9405 123.475 81.223 123.475 82.6042C123.475 83.3935 123.475 84.2815 123.475 85.1694C123.475 86.0573 123.574 86.9452 123.771 87.8331C123.968 88.721 124.165 89.5103 124.461 90.2996C124.757 91.0888 125.251 91.7795 125.843 92.3714C126.435 92.9634 127.224 93.358 128.21 93.7526C129.197 94.0486 130.282 94.2459 131.664 94.2459C133.045 94.2459 134.13 94.0486 135.117 93.654C136.004 93.2593 136.794 92.7661 137.386 92.0755C137.978 91.4835 138.471 90.6942 138.767 89.905C139.063 89.1157 139.359 88.2278 139.458 87.2412C139.655 86.3533 139.655 85.4653 139.753 84.4788C139.753 83.5908 139.753 82.7029 139.753 82.0123C139.951 78.4606 139.951 75.6982 139.951 73.8237Z" fill="white"/>
<path d="M139.951 73.8237C139.951 71.9492 139.852 70.6666 139.753 69.8774C140.049 69.976 140.247 69.976 140.543 69.976C140.74 69.976 141.036 70.0746 141.233 70.0746C141.529 70.0746 141.924 69.976 142.319 69.8774C142.22 70.7653 142.22 71.7518 142.121 72.9357C142.023 74.1196 142.023 75.4022 141.924 76.7834C141.825 78.1646 141.825 79.5459 141.727 81.0257C141.727 82.5056 141.628 83.8868 141.628 85.1694C141.628 86.8466 141.332 88.3264 140.839 89.609C140.345 90.8916 139.655 91.9768 138.767 92.9634C137.879 93.8513 136.794 94.5419 135.511 95.0352C134.229 95.5285 132.749 95.7258 131.072 95.7258C127.421 95.7258 124.659 94.9365 122.982 93.2593C121.304 91.5821 120.515 88.9183 120.515 85.3667C120.515 84.1828 120.515 83.1962 120.614 82.3083C120.712 81.4203 120.712 80.5324 120.712 79.5459C120.712 77.474 120.712 75.5995 120.614 74.021C120.515 72.4424 120.515 71.0612 120.417 69.976C120.712 70.0746 121.008 70.0746 121.403 70.0746C121.798 70.0746 122.094 70.1733 122.39 70.1733C122.686 70.1733 122.883 70.1733 123.179 70.0746C123.475 70.0746 123.672 69.976 123.968 69.976C123.87 70.5679 123.87 71.2586 123.771 72.1465C123.672 73.0344 123.672 74.021 123.574 75.1062C123.475 76.1915 123.475 77.3753 123.475 78.6579C123.475 79.9405 123.475 81.223 123.475 82.6042C123.475 83.3935 123.475 84.2815 123.475 85.1694C123.475 86.0573 123.574 86.9452 123.771 87.8331C123.968 88.721 124.165 89.5103 124.461 90.2996C124.757 91.0888 125.251 91.7795 125.843 92.3714C126.435 92.9634 127.224 93.358 128.21 93.7526C129.197 94.0486 130.282 94.2459 131.664 94.2459C133.045 94.2459 134.13 94.0486 135.117 93.654C136.004 93.2593 136.794 92.7661 137.386 92.0755C137.978 91.4835 138.471 90.6942 138.767 89.905C139.063 89.1157 139.359 88.2278 139.458 87.2412C139.655 86.3533 139.655 85.4653 139.753 84.4788C139.753 83.5908 139.753 82.7029 139.753 82.0123C139.951 78.4606 139.951 75.6982 139.951 73.8237Z" fill="#001822" stroke="#001822" stroke-width="0.58125" stroke-miterlimit="5"/>
<path d="M169.253 85.6627C166.096 82.2096 162.84 78.8552 159.683 75.4022C159.683 76.0928 159.683 76.9807 159.584 78.1646C159.584 79.3485 159.584 80.927 159.584 82.9002C159.584 83.3935 159.584 84.0841 159.584 84.7747C159.584 85.564 159.584 86.3533 159.584 87.1426C159.584 88.0305 159.584 88.8197 159.683 89.7076C159.683 90.5956 159.781 91.3849 159.781 92.0755C159.781 92.7661 159.781 93.4567 159.88 94.0486C159.88 94.6406 159.979 94.9365 159.979 95.1338C159.584 95.1338 159.189 95.0352 158.696 95.0352C158.203 95.0352 157.71 95.0352 157.315 95.1338C157.315 94.9365 157.414 94.4432 157.512 93.7526C157.611 93.062 157.611 92.2728 157.71 91.3848C157.71 90.4969 157.808 89.4116 157.907 88.3264C158.006 87.2412 158.006 86.1559 158.104 85.0707C158.104 83.9855 158.203 82.9002 158.203 81.9136C158.203 80.927 158.203 79.9405 158.203 79.1512C158.203 76.7834 158.203 74.7116 158.203 73.0344C158.203 71.3572 158.203 70.0747 158.104 69.1867H158.696C160.176 70.7653 161.755 72.5411 163.53 74.4156C165.208 76.2901 166.983 78.0659 168.661 79.9405C170.338 81.7163 171.916 83.4922 173.495 85.0707C174.975 86.6492 176.356 88.0305 177.441 89.2144V84.1828C177.441 81.6177 177.441 79.0526 177.441 76.5861C177.441 74.1197 177.343 71.8505 177.244 69.68C177.737 69.7787 178.132 69.8774 178.526 69.8774C178.822 69.8774 179.217 69.7787 179.71 69.68C179.612 70.272 179.612 71.0612 179.513 72.1465C179.414 73.2317 179.414 74.4156 179.316 75.5995C179.217 76.7834 179.217 78.066 179.118 79.2499C179.02 80.4338 179.02 81.4203 179.02 82.1109C179.02 82.7029 179.02 83.4922 179.02 84.2814C179.02 85.0707 179.02 85.9586 179.02 86.9452C179.02 87.8331 179.02 88.8197 179.02 89.7076C179.02 90.5956 179.02 91.4835 179.02 92.2727C179.02 93.062 179.02 93.7526 179.02 94.3446C179.02 94.8379 179.02 95.3312 179.02 95.5285H178.526C175.468 92.4701 172.41 89.1157 169.253 85.6627Z" fill="#001822"/>
<path d="M169.253 85.6627C166.096 82.2096 162.84 78.8552 159.683 75.4022C159.683 76.0928 159.683 76.9807 159.584 78.1646C159.584 79.3485 159.584 80.927 159.584 82.9002C159.584 83.3935 159.584 84.0841 159.584 84.7747C159.584 85.564 159.584 86.3533 159.584 87.1426C159.584 88.0305 159.584 88.8197 159.683 89.7076C159.683 90.5956 159.781 91.3849 159.781 92.0755C159.781 92.7661 159.781 93.4567 159.88 94.0486C159.88 94.6406 159.979 94.9365 159.979 95.1338C159.584 95.1338 159.189 95.0352 158.696 95.0352C158.203 95.0352 157.71 95.0352 157.315 95.1338C157.315 94.9365 157.414 94.4432 157.512 93.7526C157.611 93.062 157.611 92.2728 157.71 91.3848C157.71 90.4969 157.808 89.4116 157.907 88.3264C158.006 87.2412 158.006 86.1559 158.104 85.0707C158.104 83.9855 158.203 82.9002 158.203 81.9136C158.203 80.927 158.203 79.9405 158.203 79.1512C158.203 76.7834 158.203 74.7116 158.203 73.0344C158.203 71.3572 158.203 70.0747 158.104 69.1867H158.696C160.176 70.7653 161.755 72.5411 163.53 74.4156C165.208 76.2901 166.983 78.0659 168.661 79.9405C170.338 81.7163 171.916 83.4922 173.495 85.0707C174.975 86.6492 176.356 88.0305 177.441 89.2144V84.1828C177.441 81.6177 177.441 79.0526 177.441 76.5861C177.441 74.1197 177.343 71.8505 177.244 69.68C177.737 69.7787 178.132 69.8774 178.526 69.8774C178.822 69.8774 179.217 69.7787 179.71 69.68C179.612 70.272 179.612 71.0612 179.513 72.1465C179.414 73.2317 179.414 74.4156 179.316 75.5995C179.217 76.7834 179.217 78.066 179.118 79.2499C179.02 80.4338 179.02 81.4203 179.02 82.1109C179.02 82.7029 179.02 83.4922 179.02 84.2814C179.02 85.0707 179.02 85.9586 179.02 86.9452C179.02 87.8331 179.02 88.8197 179.02 89.7076C179.02 90.5956 179.02 91.4835 179.02 92.2727C179.02 93.062 179.02 93.7526 179.02 94.3446C179.02 94.8379 179.02 95.3312 179.02 95.5285H178.526C175.468 92.4701 172.41 89.1157 169.253 85.6627Z" fill="#001822" stroke="#001822" stroke-width="0.58125" stroke-miterlimit="5"/>
<path d="M194.114 74.7116C194.016 73.133 194.016 71.5545 193.917 69.976C194.213 70.0747 194.509 70.0746 194.805 70.0746C195.101 70.0746 195.397 70.1733 195.693 70.1733C195.989 70.1733 196.285 70.1733 196.581 70.0746C196.877 70.0746 197.173 69.976 197.469 69.976C197.37 71.5545 197.271 73.2317 197.271 74.7116C197.173 76.2901 197.173 77.8686 197.173 79.4472V85.7613C197.173 87.4385 197.173 89.0171 197.271 90.5956C197.37 92.1741 197.37 93.7526 197.469 95.2325C196.877 95.1338 196.285 95.1338 195.693 95.1338C195.101 95.1338 194.41 95.1338 193.917 95.2325C194.016 93.7526 194.016 92.1741 194.114 90.5956C194.213 89.0171 194.213 87.4385 194.213 85.7613V79.4472C194.213 77.8686 194.213 76.2901 194.114 74.7116Z" fill="#001822"/>
<path d="M194.114 74.7116C194.016 73.133 194.016 71.5545 193.917 69.976C194.213 70.0747 194.509 70.0746 194.805 70.0746C195.101 70.0746 195.397 70.1733 195.693 70.1733C195.989 70.1733 196.285 70.1733 196.581 70.0746C196.877 70.0746 197.173 69.976 197.469 69.976C197.37 71.5545 197.271 73.2317 197.271 74.7116C197.173 76.2901 197.173 77.8686 197.173 79.4472V85.7613C197.173 87.4385 197.173 89.0171 197.271 90.5956C197.37 92.1741 197.37 93.7526 197.469 95.2325C196.877 95.1338 196.285 95.1338 195.693 95.1338C195.101 95.1338 194.41 95.1338 193.917 95.2325C194.016 93.7526 194.016 92.1741 194.114 90.5956C194.213 89.0171 194.213 87.4385 194.213 85.7613V79.4472C194.213 77.8686 194.213 76.2901 194.114 74.7116Z" fill="#001822" stroke="#001822" stroke-width="0.58125" stroke-miterlimit="5"/>
<path d="M217.792 90.0036C217.003 87.9318 216.115 85.7613 215.227 83.5908C214.339 81.3217 213.353 79.0525 212.366 76.6847C211.379 74.3169 210.491 72.0478 209.604 69.976C209.998 70.0747 210.294 70.0746 210.59 70.0746C210.886 70.0746 211.182 70.1733 211.478 70.1733C211.774 70.1733 212.07 70.1733 212.366 70.0746C212.662 70.0746 213.057 69.976 213.353 69.976C213.846 71.5545 214.536 73.3304 215.128 75.1062C215.819 76.8821 216.51 78.6579 217.2 80.5324C217.891 82.4069 218.68 84.2815 219.469 86.156C220.259 88.0305 221.048 89.9049 221.837 91.7794C222.232 90.7929 222.725 89.609 223.317 88.4251C223.81 87.1425 224.402 85.86 224.896 84.5774C225.389 83.1962 225.981 81.9136 226.474 80.4337C226.967 79.0525 227.461 77.6713 227.954 76.3888C228.447 75.1062 228.842 73.9223 229.237 72.8371C229.631 71.7519 229.927 70.7653 230.223 69.976C230.716 70.0747 231.21 70.1733 231.604 70.1733C231.999 70.1733 232.394 70.0747 232.986 69.976C231.111 74.2183 229.237 78.4606 227.461 82.7029C225.685 86.9452 224.008 91.0889 222.33 95.3312C221.936 95.2325 221.541 95.2325 221.147 95.2325C220.653 95.2325 220.259 95.2325 219.963 95.3312C219.272 93.8513 218.581 92.0754 217.792 90.0036Z" fill="#001822"/>
<path d="M217.792 90.0036C217.003 87.9318 216.115 85.7613 215.227 83.5908C214.339 81.3217 213.353 79.0525 212.366 76.6847C211.379 74.3169 210.491 72.0478 209.604 69.976C209.998 70.0747 210.294 70.0746 210.59 70.0746C210.886 70.0746 211.182 70.1733 211.478 70.1733C211.774 70.1733 212.07 70.1733 212.366 70.0746C212.662 70.0746 213.057 69.976 213.353 69.976C213.846 71.5545 214.536 73.3304 215.128 75.1062C215.819 76.8821 216.51 78.6579 217.2 80.5324C217.891 82.4069 218.68 84.2815 219.469 86.156C220.259 88.0305 221.048 89.9049 221.837 91.7794C222.232 90.7929 222.725 89.609 223.317 88.4251C223.81 87.1425 224.402 85.86 224.896 84.5774C225.389 83.1962 225.981 81.9136 226.474 80.4337C226.967 79.0525 227.461 77.6713 227.954 76.3888C228.447 75.1062 228.842 73.9223 229.237 72.8371C229.631 71.7519 229.927 70.7653 230.223 69.976C230.716 70.0747 231.21 70.1733 231.604 70.1733C231.999 70.1733 232.394 70.0747 232.986 69.976C231.111 74.2183 229.237 78.4606 227.461 82.7029C225.685 86.9452 224.008 91.0889 222.33 95.3312C221.936 95.2325 221.541 95.2325 221.147 95.2325C220.653 95.2325 220.259 95.2325 219.963 95.3312C219.272 93.8513 218.581 92.0754 217.792 90.0036Z" fill="#001822" stroke="#001822" stroke-width="0.58125" stroke-miterlimit="5"/>
<path d="M245.121 74.6129C245.022 73.0344 245.022 71.4559 244.923 69.8774C246.009 69.976 247.094 69.976 248.179 69.976C249.264 69.976 250.35 70.0746 251.435 70.0746C252.52 70.0746 253.605 70.0747 254.691 69.976C255.776 69.976 256.861 69.8774 257.946 69.8774C257.848 70.272 257.848 70.5679 257.848 70.9626C257.848 71.3572 257.848 71.6532 257.946 72.0478C257.157 72.0478 256.466 71.9492 255.776 71.9492C255.085 71.9492 254.395 71.8505 253.704 71.8505C253.013 71.7519 252.224 71.7518 251.336 71.7518C250.448 71.7518 249.462 71.6532 248.278 71.6532C248.278 72.4425 248.179 73.2317 248.179 73.9223C248.179 74.6129 248.08 75.4022 248.08 76.3888C248.08 77.3754 248.08 78.2633 248.08 79.1512C248.08 80.0391 248.08 80.7298 248.08 81.2231C249.166 81.2231 250.152 81.2231 251.04 81.2231C251.928 81.2231 252.717 81.1244 253.408 81.1244C254.099 81.1244 254.789 81.0257 255.381 81.0257C255.973 81.0257 256.565 80.927 257.058 80.927C256.96 81.3217 256.96 81.7163 256.96 82.1109C256.96 82.5056 256.96 82.8016 257.058 83.1962C256.368 83.0976 255.677 83.0976 254.789 82.9989C253.901 82.9989 253.112 82.9002 252.224 82.9002C251.336 82.9002 250.547 82.9002 249.856 82.9002C249.067 82.9002 248.475 82.9002 248.08 82.9002C248.08 83.0975 248.08 83.3935 248.08 83.5908C248.08 83.8868 248.08 84.1828 248.08 84.5774V86.0573V88.2278C248.08 89.609 248.08 90.7929 248.08 91.6808C248.08 92.5687 248.08 93.2593 248.179 93.7526C248.968 93.7526 249.856 93.7526 250.744 93.7526C251.632 93.7526 252.619 93.7526 253.507 93.654C254.395 93.654 255.283 93.5553 256.072 93.5553C256.861 93.4567 257.552 93.4566 258.144 93.2593C258.144 93.4566 258.045 93.654 258.045 93.8513C258.045 94.0486 258.045 94.2459 258.045 94.4432C258.045 94.8379 258.045 95.1338 258.144 95.4298C257.058 95.3312 255.973 95.3312 254.888 95.3312C253.803 95.3312 252.717 95.3312 251.533 95.3312C250.35 95.3312 249.264 95.3312 248.179 95.3312C247.094 95.3312 245.91 95.3312 244.825 95.4298C244.923 93.8513 244.923 92.2728 245.022 90.6942C245.121 89.1157 245.121 87.5372 245.121 85.9586V79.6445C245.219 77.8686 245.219 76.1915 245.121 74.6129Z" fill="#001822"/>
<path d="M245.121 74.6129C245.022 73.0344 245.022 71.4559 244.923 69.8774C246.009 69.976 247.094 69.976 248.179 69.976C249.264 69.976 250.35 70.0746 251.435 70.0746C252.52 70.0746 253.605 70.0747 254.691 69.976C255.776 69.976 256.861 69.8774 257.946 69.8774C257.848 70.272 257.848 70.5679 257.848 70.9626C257.848 71.3572 257.848 71.6532 257.946 72.0478C257.157 72.0478 256.466 71.9492 255.776 71.9492C255.085 71.9492 254.395 71.8505 253.704 71.8505C253.013 71.7519 252.224 71.7518 251.336 71.7518C250.448 71.7518 249.462 71.6532 248.278 71.6532C248.278 72.4425 248.179 73.2317 248.179 73.9223C248.179 74.6129 248.08 75.4022 248.08 76.3888C248.08 77.3754 248.08 78.2633 248.08 79.1512C248.08 80.0391 248.08 80.7298 248.08 81.2231C249.166 81.2231 250.152 81.2231 251.04 81.2231C251.928 81.2231 252.717 81.1244 253.408 81.1244C254.099 81.1244 254.789 81.0257 255.381 81.0257C255.973 81.0257 256.565 80.927 257.058 80.927C256.96 81.3217 256.96 81.7163 256.96 82.1109C256.96 82.5056 256.96 82.8016 257.058 83.1962C256.368 83.0976 255.677 83.0976 254.789 82.9989C253.901 82.9989 253.112 82.9002 252.224 82.9002C251.336 82.9002 250.547 82.9002 249.856 82.9002C249.067 82.9002 248.475 82.9002 248.08 82.9002C248.08 83.0975 248.08 83.3935 248.08 83.5908C248.08 83.8868 248.08 84.1828 248.08 84.5774V86.0573V88.2278C248.08 89.609 248.08 90.7929 248.08 91.6808C248.08 92.5687 248.08 93.2593 248.179 93.7526C248.968 93.7526 249.856 93.7526 250.744 93.7526C251.632 93.7526 252.619 93.7526 253.507 93.654C254.395 93.654 255.283 93.5553 256.072 93.5553C256.861 93.4567 257.552 93.4566 258.144 93.2593C258.144 93.4566 258.045 93.654 258.045 93.8513C258.045 94.0486 258.045 94.2459 258.045 94.4432C258.045 94.8379 258.045 95.1338 258.144 95.4298C257.058 95.3312 255.973 95.3312 254.888 95.3312C253.803 95.3312 252.717 95.3312 251.533 95.3312C250.35 95.3312 249.264 95.3312 248.179 95.3312C247.094 95.3312 245.91 95.3312 244.825 95.4298C244.923 93.8513 244.923 92.2728 245.022 90.6942C245.121 89.1157 245.121 87.5372 245.121 85.9586V79.6445C245.219 77.8686 245.219 76.1915 245.121 74.6129Z" fill="#001822" stroke="#001822" stroke-width="0.58125" stroke-miterlimit="5"/>
<path d="M275.803 81.7164C276.198 81.7164 276.691 81.7164 277.185 81.7164C277.974 81.7164 278.763 81.6176 279.552 81.4203C280.342 81.223 281.131 80.9271 281.822 80.5324C282.512 80.1378 283.104 79.5459 283.597 78.7566C284.091 78.066 284.288 77.0794 284.288 75.9941C284.288 75.0075 284.091 74.2183 283.795 73.6264C283.4 73.0344 283.005 72.5411 282.414 72.1465C281.822 71.7519 281.23 71.5546 280.539 71.3572C279.848 71.2586 279.256 71.1599 278.566 71.1599C277.678 71.1599 276.987 71.1599 276.395 71.2585C275.803 71.2585 275.31 71.3572 274.915 71.3572C274.817 72.7385 274.817 74.021 274.718 75.4022C274.718 76.6848 274.619 78.066 274.619 79.3485V81.4203C275.014 81.7163 275.409 81.7164 275.803 81.7164ZM271.561 74.7116C271.462 73.133 271.462 71.5545 271.364 69.976C272.054 70.0747 272.745 70.0746 273.436 70.0746C274.126 70.0746 274.817 70.1733 275.507 70.1733C276.198 70.1733 276.889 70.1733 277.579 70.0746C278.27 69.976 278.96 69.976 279.651 69.976C280.638 69.976 281.723 70.0746 282.611 70.272C283.499 70.4693 284.387 70.7652 285.077 71.2585C285.768 71.7518 286.36 72.3438 286.754 73.0344C287.149 73.725 287.346 74.7116 287.346 75.7969C287.346 76.9808 287.05 77.9673 286.557 78.8552C286.064 79.7432 285.373 80.4337 284.584 80.927C283.795 81.519 283.005 81.9137 282.117 82.2096C281.23 82.5056 280.44 82.7029 279.75 82.8016C280.046 83.1962 280.44 83.6895 280.934 84.3801C281.427 85.0707 282.019 85.7613 282.709 86.5506C283.301 87.3398 283.992 88.2278 284.683 89.017C285.373 89.905 286.064 90.6942 286.656 91.4835C287.248 92.2727 287.938 93.062 288.432 93.654C289.024 94.3446 289.418 94.8379 289.813 95.1339C289.418 95.0352 289.024 95.0352 288.728 95.0352C288.333 95.0352 288.037 95.0352 287.642 95.0352C287.248 95.0352 286.952 95.0352 286.557 95.0352C286.162 95.0352 285.867 95.0352 285.472 95.1339C285.077 94.6406 284.584 93.8513 283.795 92.766C283.005 91.7794 282.216 90.5956 281.328 89.4117C280.44 88.2278 279.454 87.0438 278.566 85.86C277.579 84.6761 276.79 83.6895 276.001 82.9002H274.619V85.564C274.619 87.1425 274.619 88.8197 274.718 90.3983C274.817 91.9768 274.817 93.5553 274.915 95.0352C274.323 94.9366 273.732 94.9365 273.14 94.9365C272.548 94.9365 271.857 94.9366 271.364 95.0352C271.462 93.5553 271.462 91.9768 271.561 90.3983C271.66 88.8197 271.66 87.2412 271.66 85.564V79.2499C271.66 77.8687 271.66 76.2901 271.561 74.7116Z" fill="#001822"/>
<path d="M275.803 81.7164C276.198 81.7164 276.691 81.7164 277.185 81.7164C277.974 81.7164 278.763 81.6176 279.552 81.4203C280.342 81.223 281.131 80.9271 281.822 80.5324C282.512 80.1378 283.104 79.5459 283.597 78.7566C284.091 78.066 284.288 77.0794 284.288 75.9941C284.288 75.0075 284.091 74.2183 283.795 73.6264C283.4 73.0344 283.005 72.5411 282.414 72.1465C281.822 71.7519 281.23 71.5546 280.539 71.3572C279.848 71.2586 279.256 71.1599 278.566 71.1599C277.678 71.1599 276.987 71.1599 276.395 71.2585C275.803 71.2585 275.31 71.3572 274.915 71.3572C274.817 72.7385 274.817 74.021 274.718 75.4022C274.718 76.6848 274.619 78.066 274.619 79.3485V81.4203C275.014 81.7163 275.409 81.7164 275.803 81.7164ZM271.561 74.7116C271.462 73.133 271.462 71.5545 271.364 69.976C272.054 70.0747 272.745 70.0746 273.436 70.0746C274.126 70.0746 274.817 70.1733 275.507 70.1733C276.198 70.1733 276.889 70.1733 277.579 70.0746C278.27 69.976 278.96 69.976 279.651 69.976C280.638 69.976 281.723 70.0746 282.611 70.272C283.499 70.4693 284.387 70.7652 285.077 71.2585C285.768 71.7518 286.36 72.3438 286.754 73.0344C287.149 73.725 287.346 74.7116 287.346 75.7969C287.346 76.9808 287.05 77.9673 286.557 78.8552C286.064 79.7432 285.373 80.4337 284.584 80.927C283.795 81.519 283.005 81.9137 282.117 82.2096C281.23 82.5056 280.44 82.7029 279.75 82.8016C280.046 83.1962 280.44 83.6895 280.934 84.3801C281.427 85.0707 282.019 85.7613 282.709 86.5506C283.301 87.3398 283.992 88.2278 284.683 89.017C285.373 89.905 286.064 90.6942 286.656 91.4835C287.248 92.2727 287.938 93.062 288.432 93.654C289.024 94.3446 289.418 94.8379 289.813 95.1339C289.418 95.0352 289.024 95.0352 288.728 95.0352C288.333 95.0352 288.037 95.0352 287.642 95.0352C287.248 95.0352 286.952 95.0352 286.557 95.0352C286.162 95.0352 285.867 95.0352 285.472 95.1339C285.077 94.6406 284.584 93.8513 283.795 92.766C283.005 91.7794 282.216 90.5956 281.328 89.4117C280.44 88.2278 279.454 87.0438 278.566 85.86C277.579 84.6761 276.79 83.6895 276.001 82.9002H274.619V85.564C274.619 87.1425 274.619 88.8197 274.718 90.3983C274.817 91.9768 274.817 93.5553 274.915 95.0352C274.323 94.9366 273.732 94.9365 273.14 94.9365C272.548 94.9365 271.857 94.9366 271.364 95.0352C271.462 93.5553 271.462 91.9768 271.561 90.3983C271.66 88.8197 271.66 87.2412 271.66 85.564V79.2499C271.66 77.8687 271.66 76.2901 271.561 74.7116Z" fill="#001822" stroke="#001822" stroke-width="0.58125" stroke-miterlimit="5"/>
<path d="M302.342 91.8781C302.638 92.3714 303.033 92.766 303.526 93.1607C304.02 93.5553 304.611 93.8513 305.203 94.0486C305.795 94.2459 306.585 94.4432 307.374 94.4432C308.163 94.4432 308.952 94.3446 309.544 94.0486C310.235 93.7527 310.728 93.358 311.222 92.8647C311.715 92.3714 312.011 91.7795 312.307 91.1875C312.504 90.4969 312.701 89.8063 312.701 89.1157C312.701 88.0305 312.405 87.0439 311.814 86.4519C311.222 85.7613 310.531 85.268 309.643 84.7747C308.755 84.3801 307.867 83.8868 306.881 83.5908C305.894 83.1962 304.907 82.8016 304.118 82.2096C303.23 81.6177 302.54 80.9271 301.948 80.0391C301.356 79.1512 301.06 78.066 301.06 76.5861C301.06 75.5995 301.257 74.6129 301.652 73.725C302.046 72.8371 302.54 72.1464 303.23 71.5545C303.921 70.9625 304.809 70.4693 305.795 70.0746C306.782 69.7786 307.867 69.5813 309.15 69.5813C310.334 69.5813 311.32 69.68 312.208 69.976C313.096 70.272 313.885 70.6666 314.576 71.2585C314.379 71.6532 314.181 72.1464 313.984 72.5411C313.885 73.0344 313.688 73.6264 313.589 74.317H313.096C312.997 74.021 312.8 73.6263 312.603 73.2317C312.405 72.8371 312.109 72.4425 311.715 72.1465C311.32 71.8505 310.926 71.5545 310.432 71.2585C309.939 71.0612 309.347 70.8639 308.656 70.8639C307.966 70.8639 307.374 70.9626 306.782 71.1599C306.19 71.3572 305.697 71.6532 305.302 72.1465C304.907 72.5411 304.513 73.0344 304.315 73.6264C304.118 74.2183 303.921 74.8102 303.921 75.5008C303.921 76.6847 304.217 77.5727 304.809 78.2633C305.401 78.9539 306.091 79.4472 306.979 79.9404C307.867 80.4337 308.755 80.8284 309.742 81.1244C310.728 81.519 311.715 81.9136 312.504 82.4069C313.392 82.9002 314.083 83.5908 314.675 84.3801C315.267 85.1693 315.563 86.2546 315.563 87.6358C315.563 88.7211 315.365 89.8063 314.971 90.8915C314.576 91.8781 313.984 92.7661 313.195 93.5553C312.405 94.3446 311.518 94.8379 310.334 95.3312C309.248 95.7258 307.966 95.9231 306.486 95.9231C305.006 95.9231 303.724 95.7258 302.737 95.3312C301.75 94.9365 300.961 94.4432 300.369 93.9499C300.566 93.358 300.764 92.8647 300.862 92.3714C300.961 91.8781 301.06 91.2862 301.06 90.5956H301.454C301.75 90.8916 301.948 91.3848 302.342 91.8781Z" fill="#001822"/>
<path d="M302.342 91.8781C302.638 92.3714 303.033 92.766 303.526 93.1607C304.02 93.5553 304.611 93.8513 305.203 94.0486C305.795 94.2459 306.585 94.4432 307.374 94.4432C308.163 94.4432 308.952 94.3446 309.544 94.0486C310.235 93.7527 310.728 93.358 311.222 92.8647C311.715 92.3714 312.011 91.7795 312.307 91.1875C312.504 90.4969 312.701 89.8063 312.701 89.1157C312.701 88.0305 312.405 87.0439 311.814 86.4519C311.222 85.7613 310.531 85.268 309.643 84.7747C308.755 84.3801 307.867 83.8868 306.881 83.5908C305.894 83.1962 304.907 82.8016 304.118 82.2096C303.23 81.6177 302.54 80.9271 301.948 80.0391C301.356 79.1512 301.06 78.066 301.06 76.5861C301.06 75.5995 301.257 74.6129 301.652 73.725C302.046 72.8371 302.54 72.1464 303.23 71.5545C303.921 70.9625 304.809 70.4693 305.795 70.0746C306.782 69.7786 307.867 69.5813 309.15 69.5813C310.334 69.5813 311.32 69.68 312.208 69.976C313.096 70.272 313.885 70.6666 314.576 71.2585C314.379 71.6532 314.181 72.1464 313.984 72.5411C313.885 73.0344 313.688 73.6264 313.589 74.317H313.096C312.997 74.021 312.8 73.6263 312.603 73.2317C312.405 72.8371 312.109 72.4425 311.715 72.1465C311.32 71.8505 310.926 71.5545 310.432 71.2585C309.939 71.0612 309.347 70.8639 308.656 70.8639C307.966 70.8639 307.374 70.9626 306.782 71.1599C306.19 71.3572 305.697 71.6532 305.302 72.1465C304.907 72.5411 304.513 73.0344 304.315 73.6264C304.118 74.2183 303.921 74.8102 303.921 75.5008C303.921 76.6847 304.217 77.5727 304.809 78.2633C305.401 78.9539 306.091 79.4472 306.979 79.9404C307.867 80.4337 308.755 80.8284 309.742 81.1244C310.728 81.519 311.715 81.9136 312.504 82.4069C313.392 82.9002 314.083 83.5908 314.675 84.3801C315.267 85.1693 315.563 86.2546 315.563 87.6358C315.563 88.7211 315.365 89.8063 314.971 90.8915C314.576 91.8781 313.984 92.7661 313.195 93.5553C312.405 94.3446 311.518 94.8379 310.334 95.3312C309.248 95.7258 307.966 95.9231 306.486 95.9231C305.006 95.9231 303.724 95.7258 302.737 95.3312C301.75 94.9365 300.961 94.4432 300.369 93.9499C300.566 93.358 300.764 92.8647 300.862 92.3714C300.961 91.8781 301.06 91.2862 301.06 90.5956H301.454C301.75 90.8916 301.948 91.3848 302.342 91.8781Z" fill="#001822" stroke="#001822" stroke-width="0.58125" stroke-miterlimit="5"/>
<path d="M328.684 74.7116C328.585 73.133 328.585 71.5545 328.487 69.976C328.783 70.0747 329.079 70.0746 329.375 70.0746C329.671 70.0746 329.967 70.1733 330.263 70.1733C330.559 70.1733 330.855 70.1733 331.151 70.0746C331.447 70.0746 331.743 69.976 332.039 69.976C331.94 71.5545 331.841 73.2317 331.841 74.7116C331.743 76.2901 331.743 77.8686 331.743 79.4472V85.7613C331.743 87.4385 331.743 89.0171 331.841 90.5956C331.94 92.1741 331.94 93.7526 332.039 95.2325C331.447 95.1338 330.855 95.1338 330.263 95.1338C329.572 95.1338 328.98 95.1338 328.487 95.2325C328.585 93.7526 328.585 92.1741 328.684 90.5956C328.783 89.0171 328.783 87.4385 328.783 85.7613V79.4472C328.783 77.8686 328.684 76.2901 328.684 74.7116Z" fill="#001822"/>
<path d="M328.684 74.7116C328.585 73.133 328.585 71.5545 328.487 69.976C328.783 70.0747 329.079 70.0746 329.375 70.0746C329.671 70.0746 329.967 70.1733 330.263 70.1733C330.559 70.1733 330.855 70.1733 331.151 70.0746C331.447 70.0746 331.743 69.976 332.039 69.976C331.94 71.5545 331.841 73.2317 331.841 74.7116C331.743 76.2901 331.743 77.8686 331.743 79.4472V85.7613C331.743 87.4385 331.743 89.0171 331.841 90.5956C331.94 92.1741 331.94 93.7526 332.039 95.2325C331.447 95.1338 330.855 95.1338 330.263 95.1338C329.572 95.1338 328.98 95.1338 328.487 95.2325C328.585 93.7526 328.585 92.1741 328.684 90.5956C328.783 89.0171 328.783 87.4385 328.783 85.7613V79.4472C328.783 77.8686 328.684 76.2901 328.684 74.7116Z" fill="#001822" stroke="#001822" stroke-width="0.58125" stroke-miterlimit="5"/>
<path d="M352.066 71.8505C351.376 71.8505 350.784 71.8505 350.093 71.8505C349.403 71.8505 348.712 71.8505 348.022 71.9492C347.331 71.9492 346.64 72.0478 345.95 72.0478C345.259 72.0478 344.667 72.1465 344.174 72.2451C344.272 71.8505 344.371 71.4558 344.371 71.0612C344.371 70.7652 344.272 70.3707 344.174 69.8774C345.752 69.976 347.331 69.976 348.909 69.976C350.488 69.976 352.066 70.0746 353.645 70.0746C355.224 70.0746 356.901 70.0747 358.381 69.976C359.959 69.976 361.538 69.8774 363.116 69.8774C363.018 70.3707 362.919 70.7652 362.919 71.0612C362.919 71.3572 363.018 71.7518 363.116 72.2451C362.623 72.1465 362.031 72.1465 361.34 72.0478C360.65 72.0478 360.058 71.9492 359.269 71.9492C358.578 71.9492 357.887 71.8505 357.197 71.8505C356.506 71.8505 355.816 71.8505 355.224 71.8505C355.125 74.4156 355.125 76.9807 355.125 79.4472V85.7613C355.125 87.3398 355.125 89.0171 355.224 90.5956C355.322 92.1741 355.322 93.7526 355.421 95.2325C354.829 95.1338 354.237 95.1338 353.645 95.1338C353.053 95.1338 352.362 95.1338 351.869 95.2325C351.968 93.7526 351.968 92.1741 352.066 90.5956C352.165 89.0171 352.165 87.4385 352.165 85.7613V79.4472C352.264 76.9807 352.165 74.4156 352.066 71.8505Z" fill="#001822"/>
<path d="M352.066 71.8505C351.376 71.8505 350.784 71.8505 350.093 71.8505C349.403 71.8505 348.712 71.8505 348.022 71.9492C347.331 71.9492 346.64 72.0478 345.95 72.0478C345.259 72.0478 344.667 72.1465 344.174 72.2451C344.272 71.8505 344.371 71.4558 344.371 71.0612C344.371 70.7652 344.272 70.3707 344.174 69.8774C345.752 69.976 347.331 69.976 348.909 69.976C350.488 69.976 352.066 70.0746 353.645 70.0746C355.224 70.0746 356.901 70.0747 358.381 69.976C359.959 69.976 361.538 69.8774 363.116 69.8774C363.018 70.3707 362.919 70.7652 362.919 71.0612C362.919 71.3572 363.018 71.7518 363.116 72.2451C362.623 72.1465 362.031 72.1465 361.34 72.0478C360.65 72.0478 360.058 71.9492 359.269 71.9492C358.578 71.9492 357.887 71.8505 357.197 71.8505C356.506 71.8505 355.816 71.8505 355.224 71.8505C355.125 74.4156 355.125 76.9807 355.125 79.4472V85.7613C355.125 87.3398 355.125 89.0171 355.224 90.5956C355.322 92.1741 355.322 93.7526 355.421 95.2325C354.829 95.1338 354.237 95.1338 353.645 95.1338C353.053 95.1338 352.362 95.1338 351.869 95.2325C351.968 93.7526 351.968 92.1741 352.066 90.5956C352.165 89.0171 352.165 87.4385 352.165 85.7613V79.4472C352.264 76.9807 352.165 74.4156 352.066 71.8505Z" fill="#001822" stroke="#001822" stroke-width="0.58125" stroke-miterlimit="5"/>
<path d="M380.677 83.0975C380.184 82.3083 379.691 81.4203 379.099 80.4337C378.507 79.4472 377.915 78.4606 377.224 77.3754C376.632 76.2901 375.942 75.3036 375.35 74.317C374.758 73.3304 374.265 72.4425 373.771 71.6532C373.278 70.8639 372.982 70.272 372.686 69.8774C373.081 69.976 373.377 69.976 373.673 69.976C373.969 69.976 374.363 70.0746 374.659 70.0746C374.955 70.0746 375.35 70.0747 375.646 69.976C375.942 69.976 376.336 69.8774 376.632 69.8774C377.718 72.0478 378.901 74.1196 379.987 76.1915C381.171 78.2633 382.355 80.4338 383.637 82.6042C384.229 81.7163 384.821 80.7297 385.413 79.6445C386.005 78.5593 386.597 77.474 387.287 76.3888C387.879 75.3035 388.471 74.1196 389.063 73.0344C389.655 71.9491 390.148 70.8639 390.642 69.7787C391.234 69.8773 391.727 69.976 392.122 69.976C392.516 69.976 392.911 69.8773 393.602 69.7787C392.418 71.5545 391.332 73.2317 390.445 74.6129C389.557 76.0928 388.669 77.3754 387.978 78.5593C387.287 79.7432 386.597 80.8284 386.104 81.7164C385.61 82.7029 385.117 83.4922 384.722 84.2814C384.722 85.1694 384.722 86.1559 384.722 87.2412C384.722 88.2278 384.722 89.313 384.821 90.2996C384.821 91.2862 384.92 92.1741 384.92 93.0621C384.92 93.95 385.018 94.6406 385.018 95.1339C384.426 95.0352 383.834 95.0352 383.242 95.0352C382.65 95.0352 381.96 95.0352 381.467 95.1339C381.565 93.8513 381.664 92.2727 381.763 90.4969C381.763 88.7211 381.763 86.7479 381.763 84.7747C381.565 84.4788 381.171 83.8868 380.677 83.0975Z" fill="#001822"/>
<path d="M380.677 83.0975C380.184 82.3083 379.691 81.4203 379.099 80.4337C378.507 79.4472 377.915 78.4606 377.224 77.3754C376.632 76.2901 375.942 75.3036 375.35 74.317C374.758 73.3304 374.265 72.4425 373.771 71.6532C373.278 70.8639 372.982 70.272 372.686 69.8774C373.081 69.976 373.377 69.976 373.673 69.976C373.969 69.976 374.363 70.0746 374.659 70.0746C374.955 70.0746 375.35 70.0747 375.646 69.976C375.942 69.976 376.336 69.8774 376.632 69.8774C377.718 72.0478 378.901 74.1196 379.987 76.1915C381.171 78.2633 382.355 80.4338 383.637 82.6042C384.229 81.7163 384.821 80.7297 385.413 79.6445C386.005 78.5593 386.597 77.474 387.287 76.3888C387.879 75.3035 388.471 74.1196 389.063 73.0344C389.655 71.9491 390.148 70.8639 390.642 69.7787C391.234 69.8773 391.727 69.976 392.122 69.976C392.516 69.976 392.911 69.8773 393.602 69.7787C392.418 71.5545 391.332 73.2317 390.445 74.6129C389.557 76.0928 388.669 77.3754 387.978 78.5593C387.287 79.7432 386.597 80.8284 386.104 81.7164C385.61 82.7029 385.117 83.4922 384.722 84.2814C384.722 85.1694 384.722 86.1559 384.722 87.2412C384.722 88.2278 384.722 89.313 384.821 90.2996C384.821 91.2862 384.92 92.1741 384.92 93.0621C384.92 93.95 385.018 94.6406 385.018 95.1339C384.426 95.0352 383.834 95.0352 383.242 95.0352C382.65 95.0352 381.96 95.0352 381.467 95.1339C381.565 93.8513 381.664 92.2727 381.763 90.4969C381.763 88.7211 381.763 86.7479 381.763 84.7747C381.565 84.4788 381.171 83.8868 380.677 83.0975Z" fill="#001822" stroke="#001822" stroke-width="0.58125" stroke-miterlimit="5"/>
</g>
<defs>
<clipPath id="clip0_12_2506">
<rect width="395.028" height="100" fill="white" transform="translate(0.976074)"/>
</clipPath>
</defs>
</svg>
