<svg width="151" height="100" viewBox="0 0 151 100" fill="none" xmlns="http://www.w3.org/2000/svg">
<g clip-path="url(#clip0_12_2653)">
<path d="M34.6851 4.24175C34.6851 3.3934 34.3669 2.65109 33.3065 2.22691C32.4581 1.90877 31.6098 1.80273 30.6554 1.69669C29.3828 1.4846 29.5949 0.212063 30.7614 0.212063C31.5037 0.212063 35.1092 0.530196 39.351 0.530196C41.79 0.530196 45.3956 0.424152 47.0923 0.318107C48.1527 0.212063 48.2588 1.37855 47.5164 1.59064C46.7741 1.80273 43.2747 2.65109 36.912 8.48354C30.3372 14.422 21.8537 23.3298 21.8537 23.3298C21.8537 23.3298 40.8356 45.9173 44.123 48.5684C47.5164 51.3255 49.9555 51.5376 52.5005 51.7497C53.1368 51.7497 53.3489 53.0222 52.5005 53.0222H37.6543C37.6543 53.0222 19.3086 30.8589 16.3394 28.8441C15.8091 28.526 14.5366 28.1018 14.4305 29.5864C14.3245 30.965 14.2185 42.7359 14.5366 45.281C14.8547 47.8261 15.9152 51.6437 22.0658 51.6437C22.8081 51.6437 23.2322 53.0222 22.1718 53.0222C18.5663 52.8102 15.8091 52.8102 11.3553 52.8102C7.53765 52.8102 2.12938 53.0222 1.38707 53.0222C0.114535 53.0222 0.114535 51.8557 1.28103 51.7497C2.97774 51.6437 7.11347 51.4316 7.32556 44.8568C7.53765 38.176 7.43161 9.75607 7.32556 6.68078C7.32556 4.55989 5.41676 1.59064 0.750802 1.59064C0.00849057 1.59064 0.114535 0.318107 0.962891 0.318107H21.1114C21.8537 0.318107 22.2778 1.59064 21.0053 1.69669C19.7328 1.80273 14.8547 1.90878 14.6426 8.48354C14.4305 15.0583 14.4305 25.1325 14.4305 25.5567C14.4305 26.0869 14.6426 26.6172 15.3849 26.0869C17.7179 24.4963 24.6108 17.7094 29.701 11.983C31.7158 9.65003 33.0944 7.74122 34.0488 5.83242C34.473 5.51429 34.6851 4.87802 34.6851 4.24175ZM60.0297 22.3754V4.13571C60.0297 1.90878 61.6204 1.27251 63.3171 1.16646C63.9534 1.16646 64.0594 0.318107 63.211 0.318107H52.5005C51.7582 0.318107 51.6522 1.16646 52.3945 1.16646C53.9852 1.37855 55.894 2.12086 55.894 4.13571V22.3754C55.894 24.3902 55.1517 25.6628 52.8187 25.6628C51.8643 25.6628 52.0764 26.4051 52.8187 26.4051H63.3171C63.8473 26.4051 63.9533 25.6628 63.105 25.6628C60.8781 25.6628 60.0297 24.1781 60.0297 22.3754ZM73.8155 38.07C74.0276 38.07 74.1336 37.9639 74.2397 37.7518L75.9364 32.2375C76.0424 31.9194 75.9364 31.7073 75.6182 31.7073C75.5122 31.7073 75.4062 31.7073 75.3001 31.8133C74.982 32.1315 74.5578 32.4496 74.2397 32.4496C74.0276 32.4496 73.9215 32.3436 73.7094 32.2375C72.1188 30.3287 69.6798 30.0106 68.5133 30.0106C62.9989 30.0106 58.333 33.6161 55.5758 37.9639C53.8791 40.615 53.0308 43.4782 53.0308 46.2354C53.0308 50.6893 56.1061 53.2343 60.2418 53.2343C62.0445 53.2343 63.4231 53.0222 65.9682 51.9618C66.4984 51.7497 67.1347 51.5376 67.4528 51.5376C68.0891 51.5376 68.0891 52.386 68.1951 53.2343C68.1951 53.5525 68.4072 53.6585 68.6193 53.6585C68.7254 53.6585 68.9374 53.5525 69.0435 53.3404L71.3765 46.7656C71.5886 46.2354 71.3765 46.0233 71.1644 46.0233C70.8462 46.0233 70.6341 46.1293 70.4221 46.5535C69.3616 48.1442 68.6193 49.2046 65.0138 50.9013C63.5292 51.6437 61.7264 52.0678 60.3478 52.0678C57.2725 52.0678 56.1061 49.7349 56.1061 46.7656C56.1061 42.948 57.9088 38.9183 60.772 35.5249C62.5748 33.298 65.2259 30.8589 68.4072 30.8589C71.4825 30.8589 73.7094 33.0859 73.3913 37.3277C73.2853 37.9639 73.6034 38.07 73.8155 38.07ZM66.9226 0.318107C66.1803 0.318107 66.1803 1.06042 66.6045 1.16646C67.4528 1.37855 69.1495 1.4846 69.1495 3.71153C69.1495 9.01376 69.1495 16.0127 68.9374 21.7391C68.9374 23.7539 68.3012 25.4507 66.4984 25.6628C65.8622 25.6628 65.8622 26.4051 66.2863 26.4051H74.0276C74.4518 26.4051 74.5578 25.7688 74.0276 25.6628C72.8611 25.4507 70.9523 25.4507 70.7402 21.7391C70.6342 18.1336 70.5281 4.24175 70.5281 4.24175L89.9343 25.7688H91.5249C91.5249 25.7688 91.5249 5.62033 91.631 4.02967C91.737 2.22691 92.3733 1.27251 94.2821 1.16646C95.2365 1.06042 95.0244 0.212063 94.3881 0.212063H86.5408C85.5864 0.212063 85.7985 1.06042 86.2227 1.06042C87.0711 1.16646 89.7222 1.4846 89.8282 4.02967C89.9343 7.74122 90.1464 19.5122 90.1464 19.5122L72.9671 0.318107H66.9226ZM84.1018 35.9491C87.4952 35.9491 88.1315 38.9183 88.1315 41.7815C88.1315 46.2354 84.1018 53.2343 79.1177 53.2343C76.0424 53.2343 74.8759 50.6893 74.8759 48.1442C74.8759 41.9936 79.3298 35.9491 84.1018 35.9491ZM84.8441 36.9035C81.4507 36.9035 76.5726 44.9629 76.5726 49.8409C76.5726 51.1134 77.1029 52.0678 78.4815 52.0678C81.7688 52.0678 86.7529 43.9024 86.7529 39.5546C86.859 38.282 86.4348 36.9035 84.8441 36.9035ZM97.5695 31.6012C97.5695 31.7073 97.5695 31.9194 97.4634 32.1315C94.6002 38.3881 91.737 44.6447 88.8738 51.0074C88.7678 51.3255 88.4496 51.9618 88.4496 52.386C88.4496 52.9162 88.8738 53.3404 89.404 53.3404C89.7222 53.3404 90.0403 53.2343 90.2524 53.1283C91.8431 52.492 93.4337 50.7953 94.3881 49.3107C94.6002 48.9925 94.176 48.6744 93.964 48.8865C93.5398 49.2046 92.4793 50.7953 91.3128 51.4316C91.1008 51.5376 90.8887 51.5376 90.9947 51.1134L99.9024 31.2831C100.008 30.965 100.115 30.7529 100.115 30.5408C100.115 30.3287 99.9024 30.2227 99.6904 30.2227C99.2662 30.2227 98.736 30.3287 98.0997 30.4348C97.5695 30.4348 96.6151 30.5408 95.7667 30.6468C95.5546 30.6468 95.4486 30.8589 95.4486 30.965C95.4486 31.1771 95.6607 31.2831 95.8728 31.2831C96.2969 31.2831 96.7211 31.2831 97.1453 31.3892C97.5695 31.3892 97.5695 31.4952 97.5695 31.6012ZM121.217 17.9215C121.217 15.6946 122.808 15.4825 124.187 15.3764C124.717 15.2704 124.823 14.422 124.081 14.422H113.264C112.522 14.422 112.522 15.3764 113.264 15.4825C115.385 15.5885 117.082 16.0127 117.082 18.1336V22.0572C117.082 22.9056 116.657 23.5419 116.233 23.86C114.325 25.4507 111.992 25.5567 110.507 25.5567C103.614 25.5567 100.539 19.6182 100.539 13.6797C100.539 8.90771 102.978 1.37855 110.931 1.37855C118.036 1.37855 120.581 6.04451 121.429 7.74122C121.748 8.27145 122.384 8.1654 122.384 7.74122V2.01482C122.384 1.4846 121.642 1.37855 121.429 2.01482C121.323 2.65109 120.899 3.07527 120.369 3.07527C119.945 3.07527 119.415 2.75713 119.203 2.65109C117.082 1.27251 114.961 0.212063 110.931 0.212063C104.356 0.212063 96.1909 3.49944 96.1909 13.4676C96.1909 23.5419 103.826 26.6172 110.401 26.6172C116.976 26.6172 120.369 23.3298 121.005 22.9056V17.9215H121.217ZM105.523 31.6012C105.523 31.7073 105.523 31.9194 105.417 32.1315C102.554 38.3881 99.6904 44.6447 96.8272 51.0074C96.7211 51.3255 96.403 51.9618 96.403 52.386C96.403 52.9162 96.8272 53.3404 97.3574 53.3404C97.6755 53.3404 97.9936 53.2343 98.2057 53.1283C99.7964 52.492 101.387 50.7953 102.341 49.3107C102.554 48.9925 102.129 48.6744 101.917 48.8865C101.493 49.2046 100.433 50.7953 99.2662 51.4316C99.0541 51.5376 98.842 51.5376 98.948 51.1134L107.856 31.2831C107.962 30.965 108.068 30.7529 108.068 30.5408C108.068 30.3287 107.856 30.2227 107.644 30.2227C107.22 30.2227 106.689 30.3287 106.053 30.4348C105.523 30.4348 104.568 30.5408 103.72 30.6468C103.508 30.6468 103.402 30.8589 103.402 30.965C103.402 31.1771 103.614 31.2831 103.826 31.2831C104.25 31.2831 104.674 31.2831 105.099 31.3892C105.523 31.3892 105.523 31.4952 105.523 31.6012ZM116.021 49.4167C114.537 51.4316 112.204 53.2343 109.234 53.2343C107.007 53.2343 105.629 51.6437 105.629 49.5228C105.629 43.1601 112.734 36.3732 117.4 36.3732C118.99 36.3732 120.157 37.0095 120.157 38.7062C120.157 41.2513 117.93 42.5238 114.006 43.7964C112.946 44.1145 110.507 44.6447 109.34 44.8568C108.81 45.7052 108.174 47.4019 108.174 48.7805C108.174 50.5832 109.022 51.6437 110.719 51.6437C112.628 51.6437 114.431 50.159 115.491 48.9925C115.809 48.6744 116.233 49.0986 116.021 49.4167ZM113.794 42.842C116.021 42.0997 118.036 40.9332 118.036 39.0244C118.036 37.9639 117.506 37.5397 116.551 37.5397C115.279 37.5397 114.112 38.4941 113.37 39.2365C112.098 40.4029 110.931 41.8876 109.871 43.7964C110.719 43.6903 112.31 43.2661 113.794 42.842ZM135.958 37.9639C136.382 37.9639 136.806 37.7518 136.806 37.0095C136.806 36.3733 136.17 36.1612 135.639 36.1612C135.003 36.1612 134.155 36.3732 133.306 36.9035C133.094 37.1156 132.564 37.3277 132.246 37.1156C131.61 36.6914 130.974 36.3732 129.383 36.3732C127.792 36.3732 125.459 37.3276 123.869 39.3425C122.808 40.8271 122.596 41.8876 122.596 42.948C122.596 44.0085 123.02 44.8568 123.338 45.281C123.444 45.387 123.444 45.4931 123.444 45.5991C123.444 45.8112 123.126 46.0233 122.596 46.1293C121.642 46.4475 120.051 47.4019 120.051 48.9925C120.051 50.053 120.899 51.1134 121.854 51.7497C121.854 51.7497 119.839 52.2799 118.354 53.1283C117.188 53.7646 115.809 54.825 115.809 56.3096C115.809 58.0063 117.294 60.7635 123.338 60.7635C126.838 60.7635 129.065 59.491 129.913 58.5366C130.549 57.7942 130.655 56.9459 130.655 56.4157C130.655 54.5069 128.534 52.7041 126.201 51.3255C124.717 50.4772 122.49 49.4167 122.49 47.9321C122.49 47.5079 122.596 47.0837 123.02 46.8717C123.338 46.6596 123.762 46.5535 124.293 46.5535C124.929 46.5535 125.883 46.7656 126.414 46.7656C128.322 46.7656 130.974 46.1293 132.564 42.7359C132.988 41.7815 133.2 40.8271 133.2 39.9788C133.2 38.9183 132.988 38.7062 132.988 38.176C132.988 37.7518 133.413 37.5397 134.261 37.5397C135.215 37.4337 135.215 37.9639 135.958 37.9639ZM123.444 59.8091C119.521 59.8091 118.248 57.4761 118.248 56.4157C118.248 55.3552 118.672 54.6129 119.733 53.8706C120.475 53.3404 121.642 52.8102 122.49 52.492C123.444 52.9162 124.929 53.7646 125.353 54.1887C127.474 55.6734 127.898 56.5217 127.898 57.264C128.004 59.2789 124.929 59.8091 123.444 59.8091ZM131.292 38.6002C131.292 39.6606 130.867 41.0392 130.019 42.5238C128.322 45.281 127.05 45.8112 125.883 45.8112C124.929 45.8112 124.505 45.0689 124.505 43.9024C124.505 42.948 124.929 41.5694 125.671 40.4029C126.838 38.6002 128.428 37.1156 129.807 37.1156C130.761 37.0095 131.292 37.5397 131.292 38.6002ZM126.944 4.3478C125.989 4.3478 124.929 3.81758 124.929 2.22691C124.929 0.636241 126.201 0.106018 127.156 0.106018C128.534 0.106018 129.595 1.06042 129.595 2.75713C129.595 4.66593 128.216 6.78682 125.777 6.78682C125.565 6.78682 125.459 6.57473 125.459 6.46869C125.459 6.2566 125.565 6.15056 125.671 6.15056C127.368 5.83242 128.004 4.77198 128.004 4.02967C127.898 4.24175 127.474 4.3478 126.944 4.3478ZM146.774 5.62033C146.986 5.62033 147.198 5.51429 147.092 5.3022L146.456 0.530196C146.35 0.212063 146.244 0.106018 146.032 0.106018C145.926 0.106018 145.82 0.212063 145.714 0.424152C145.396 0.742285 145.077 1.06042 144.441 1.06042C143.381 1.06042 142.32 0.318107 139.881 0.318107C136.594 0.318107 132.14 1.69669 132.14 6.57473C132.14 11.4528 135.958 12.9374 139.351 14.2099C142.85 15.4825 145.608 16.4369 145.608 20.1484C145.608 24.1781 142.744 25.5567 139.987 25.5567C137.018 25.5567 133.413 24.1781 132.246 19.4061C132.14 18.9819 132.034 18.8759 131.716 18.8759C131.504 18.8759 131.292 19.088 131.292 19.5122V25.4507C131.292 25.7688 131.504 25.9809 131.716 25.9809C131.822 25.9809 132.034 25.8748 132.14 25.6628C132.352 25.3446 132.67 25.0265 133.306 25.0265C134.685 25.0265 136.276 26.7232 140.199 26.7232C143.593 26.7232 149.425 25.6627 149.425 18.8759C149.425 16.2248 148.365 12.7253 141.79 10.9226C137.124 9.65003 135.746 7.74122 135.746 5.3022C135.746 3.28735 136.912 1.27251 140.305 1.27251C141.896 1.27251 144.653 1.69669 146.456 5.19616C146.456 5.51429 146.562 5.62033 146.774 5.62033ZM144.865 49.4167C143.381 51.4316 141.048 53.2343 138.078 53.2343C135.852 53.2343 134.473 51.6437 134.473 49.5228C134.473 43.1601 141.578 36.3732 146.244 36.3732C147.835 36.3732 149.001 37.0095 149.001 38.7062C149.001 41.2513 146.774 42.5238 142.85 43.7964C141.684 44.1145 139.351 44.6447 138.185 44.8568C137.654 45.7052 136.912 47.4019 136.912 48.7805C136.912 50.5832 137.866 51.6437 139.457 51.6437C141.366 51.6437 143.169 50.159 144.229 48.9925C144.653 48.6744 145.183 49.0986 144.865 49.4167ZM142.744 42.842C144.971 42.0997 146.986 40.9332 146.986 39.0244C146.986 37.9639 146.562 37.5397 145.502 37.5397C144.335 37.5397 143.063 38.4941 142.32 39.2365C141.154 40.4029 139.881 41.8876 138.821 43.7964C139.563 43.6903 141.26 43.2661 142.744 42.842Z" fill="#0F0C0C"/>
<path d="M2.55382 61.93H11.7797C12.2039 61.93 12.416 62.6723 11.7797 62.6723C10.9313 62.6723 9.02254 63.0965 9.02254 65.0053V81.018C9.02254 82.8208 9.8709 83.4571 13.9006 83.4571C17.7182 83.4571 21.3237 83.0329 23.1265 77.9427C23.2325 77.5186 23.9748 77.5186 23.8688 78.1548L22.7023 84.5175H2.87196C2.23569 84.5175 2.34173 83.7752 2.76591 83.7752C4.03845 83.7752 5.62911 83.1389 5.62911 80.8059V65.4295C5.62911 63.4146 4.46262 62.6723 2.55382 62.6723C2.12964 62.6723 2.0236 61.93 2.55382 61.93ZM146.88 92.5769H2.87196V93.9555H146.88V92.5769ZM146.88 96.9247H2.87196V100H146.88V96.9247ZM35.8518 84.7296C42.4266 84.7296 47.1986 80.0636 47.1986 73.0647C47.1986 66.8081 42.5326 61.824 35.8518 61.824C29.277 61.824 24.6111 67.0202 24.6111 73.0647C24.505 79.6395 28.9589 84.7296 35.8518 84.7296ZM28.2166 73.0647C28.2166 67.2322 30.8677 62.7784 35.8518 62.7784C40.1996 62.7784 43.5931 67.0202 43.5931 73.0647C43.5931 80.4878 40.6238 83.6692 35.8518 83.6692C31.1858 83.6692 28.2166 79.2153 28.2166 73.0647ZM48.7892 61.93C48.3651 61.93 48.259 62.6723 48.7892 62.6723C49.4255 62.6723 50.8041 62.8844 50.8041 64.7932L50.698 80.6999C50.698 82.3966 50.0618 83.8812 48.4711 83.8812C47.9409 83.8812 47.9409 84.6236 48.3651 84.6236H54.9398C55.364 84.6236 55.364 83.8812 54.8338 83.8812C53.8794 83.8812 52.1827 83.4571 52.1827 80.6999L52.0766 64.5811C52.0766 64.5811 69.0437 84.5175 69.1498 84.6236H70.3163L70.4223 65.5355C70.4223 63.6267 71.2707 62.6723 73.2855 62.6723C73.7097 62.6723 73.7097 62.0361 73.2855 62.0361H65.8624C65.4382 62.0361 65.4382 62.6723 65.8624 62.6723C66.6047 62.6723 68.9377 62.7784 68.9377 65.3234L69.1498 79.0032L54.6217 61.93H48.7892ZM75.4064 61.824C74.6641 61.824 74.7702 62.6723 75.1943 62.6723C76.0427 62.6723 77.5273 63.0965 77.5273 64.7932V80.912C77.5273 82.6087 77.1031 83.6692 75.0883 83.6692C74.5581 83.6692 74.5581 84.5175 75.0883 84.5175H85.7988C90.4647 84.5175 98.312 82.2906 98.312 72.9587C98.312 63.5207 91.8433 61.824 85.6927 61.824H75.4064ZM81.0268 64.8993C81.0268 62.8844 82.1933 62.7784 84.9504 62.7784C89.8285 62.7784 94.6005 65.2174 94.6005 72.8526C94.6005 80.2757 90.5708 83.4571 85.1625 83.4571H83.996C82.6175 83.4571 80.9207 83.1389 80.9207 80.3818V64.8993H81.0268ZM112.734 84.7296C119.309 84.7296 124.081 80.0636 124.081 73.0647C124.081 66.8081 119.521 61.824 112.734 61.824C106.159 61.824 101.493 67.0202 101.493 73.0647C101.387 79.6395 105.841 84.7296 112.734 84.7296ZM105.099 73.0647C105.099 67.2322 107.75 62.7784 112.734 62.7784C117.082 62.7784 120.475 67.0202 120.475 73.0647C120.475 80.4878 117.506 83.6692 112.734 83.6692C108.068 83.6692 105.099 79.2153 105.099 73.0647ZM125.565 61.93C125.141 61.93 125.035 62.6723 125.565 62.6723C126.202 62.6723 127.58 62.8844 127.58 64.7932L127.474 80.6999C127.474 82.3966 126.838 83.8812 125.247 83.8812C124.717 83.8812 124.717 84.6236 125.141 84.6236H131.716C132.14 84.6236 132.14 83.8812 131.61 83.8812C130.656 83.8812 128.959 83.4571 128.959 80.6999L128.853 64.5811C128.853 64.5811 145.82 84.5175 145.926 84.6236H147.093L147.199 65.5355C147.199 63.6267 148.047 62.6723 150.062 62.6723C150.486 62.6723 150.486 62.0361 150.062 62.0361H142.639C142.214 62.0361 142.214 62.6723 142.639 62.6723C143.381 62.6723 145.714 62.7784 145.714 65.3234L145.926 79.2153L131.398 62.0361H125.565V61.93Z" fill="#0F0C0C"/>
</g>
<defs>
<clipPath id="clip0_12_2653">
<rect width="150.053" height="100" fill="white" transform="translate(0.220703)"/>
</clipPath>
</defs>
</svg>
