<svg width="218" height="100" viewBox="0 0 218 100" fill="none" xmlns="http://www.w3.org/2000/svg">
<g clip-path="url(#clip0_12_2565)">
<path d="M67.5276 42.4868H68.6038V57.374H67.5276C67.1689 55.2217 66.6308 54.6836 65.0165 54.6836H25.377V53.2486C26.9912 52.7105 27.5293 52.1725 27.5293 50.1994V4.1028C27.5293 2.12979 27.1706 1.41233 25.377 1.0536V-0.381313H39.3674V1.0536C37.7531 1.41233 37.215 2.12979 37.215 4.1028V44.9979H65.0165C66.6308 44.9979 67.1689 44.8185 67.5276 42.4868Z" fill="#6E152F"/>
<path d="M88.416 53.4465V54.8814H74.605V53.4465C76.2193 52.9084 76.578 52.3703 76.578 50.3973V4.30065C76.578 2.32764 76.2193 1.61018 74.605 1.25146V-0.183459H88.416V1.43082C86.8018 1.78955 86.443 2.50701 86.443 4.48002V50.3973C86.443 52.3703 86.6224 52.9084 88.416 53.4465Z" fill="#6E152F"/>
<path d="M96.2646 54.8038H109.896V53.3689C108.103 52.8308 107.744 52.2927 107.744 50.3197V32.2039H124.066C134.469 32.2039 140.747 25.9262 140.747 15.7024C140.747 6.01672 134.469 -0.0816762 122.811 -0.0816762H96.2646V1.35324C97.8789 1.89133 98.417 2.42943 98.417 4.40243V50.4991C98.417 52.4721 97.8789 53.0102 96.2646 53.3689V54.8038ZM120.479 9.24527C128.012 9.24527 131.779 10.8596 131.779 16.0611C131.779 21.0833 128.192 23.2357 120.838 23.2357H107.923V9.42464H120.479" fill="#6E152F"/>
<path d="M130.637 54.8038H146.78V53.3689C144.986 52.8308 144.269 52.1134 144.269 51.0372C144.269 50.4991 144.448 49.961 144.807 49.2435L148.394 40.8134H172.25L176.016 49.2435C176.375 49.961 176.554 50.6785 176.554 51.0372C176.554 52.1134 175.837 52.8308 174.043 53.3689V54.8038H192.697V53.3689C190.366 52.8308 189.289 51.0372 187.854 47.988L167.945 5.47862C167.586 4.76116 167.407 4.04371 167.407 3.68498C167.407 2.60879 168.124 2.0707 169.918 1.35324V-0.0816762H152.34V1.35324C154.134 1.89133 155.031 2.78816 155.031 4.04371C155.031 4.5818 154.851 4.94053 154.493 5.65799L135.301 48.1673C134.224 50.6785 133.686 52.6515 130.637 53.3689V54.8038ZM160.591 13.9087L169.021 33.2801H151.802L160.591 13.9087Z" fill="#6E152F"/>
<path d="M0.528486 73.9695H0.349121V70.9204H0.528486C0.528486 71.2791 0.70785 71.4584 1.06658 71.4584H10.0348C10.3935 71.4584 10.5729 71.4584 10.5729 70.9204H10.7523V73.9695H10.5729C10.5729 73.6108 10.3935 73.4315 10.0348 73.4315H6.80624V81.6822C6.80624 82.0409 6.80624 82.2203 7.34433 82.2203V82.579H3.93641V82.2203C4.29514 82.0409 4.4745 82.0409 4.4745 81.6822V73.4315H1.06658C0.70785 73.4315 0.70785 73.4315 0.528486 73.9695Z" fill="#231F20"/>
<path d="M15.0526 82.3764V82.5558H12.0034V82.3764C12.3621 82.3764 12.5415 82.1971 12.5415 81.8383V74.8431C12.5415 74.4844 12.5415 74.305 12.0034 74.305V74.1257H15.0526C14.6939 74.1257 14.5145 74.305 14.5145 74.6638V77.1749H19.3574V74.8431C19.3574 74.4844 19.178 74.305 18.8193 74.305V74.1257H21.8685C21.5097 74.1257 21.3304 74.305 21.3304 74.6638V81.8383C21.3304 82.1971 21.3304 82.3764 21.8685 82.3764V82.5558H18.9986V82.3764C19.3574 82.3764 19.5367 82.1971 19.5367 81.8383V78.7891H14.6939V81.8383C14.5145 82.1971 14.6939 82.3764 15.0526 82.3764Z" fill="#231F20"/>
<path d="M32.2609 73.4602H32.4402V76.1507H32.2609C32.2609 75.792 32.0815 75.6126 31.7228 75.6126H26.3418V77.4063H29.5704C29.9291 77.4063 30.1085 77.4063 30.1085 76.8682H30.4672V79.3793H30.2879C30.2879 79.0205 30.1085 78.8412 29.7498 78.8412H26.5212V80.8142H32.0815C32.4402 80.8142 32.6196 80.8142 32.6196 80.2761H32.799V82.9666H32.4402C32.4402 82.6078 32.2609 82.4285 31.9021 82.4285H23.6514C24.0101 82.4285 24.1895 82.2491 24.1895 81.8904V74.8952C24.1895 74.5364 24.0101 74.3571 23.6514 74.3571V74.1777H31.5434C32.0815 73.9983 32.0815 73.819 32.2609 73.4602Z" fill="#231F20"/>
<path d="M49.9497 80.1302H50.129V83.1794H49.9497C49.9497 82.8207 49.7703 82.6414 49.4116 82.6414H39.9053V82.2826C40.264 82.1033 40.4434 82.1033 40.4434 81.7445V72.4176C40.4434 72.0589 40.264 71.8795 39.9053 71.8795V71.5208H43.3132V71.7001C42.7751 71.8795 42.7751 71.8795 42.7751 72.4176V80.6683H49.4116C49.7703 80.6683 49.7703 80.6683 49.9497 80.1302Z" fill="#231F20"/>
<path d="M54.3851 82.3764V82.5558H51.3359V82.3764C51.6947 82.3764 51.874 82.1971 51.874 81.8383V74.8431C51.874 74.4844 51.874 74.305 51.3359 74.305V74.1257H54.3851C54.0264 74.1257 53.847 74.305 53.847 74.6638V81.8383C53.847 82.1971 54.0264 82.3764 54.3851 82.3764Z" fill="#231F20"/>
<path d="M55.3535 74.1882V74.0088H58.9408V74.1882C58.5821 74.3675 58.4027 74.3675 58.4027 74.7263C58.4027 74.9056 58.4027 74.9056 58.4027 75.085L60.7344 79.7485L62.8868 74.9056C62.8868 74.7263 62.8868 74.7263 62.8868 74.5469C63.0662 74.3675 62.8868 74.3675 62.5281 74.1882V74.0088H65.936V74.1882C65.2186 74.3675 65.2186 74.7263 64.8598 75.2643L61.99 81.5421C61.99 81.5421 61.99 81.7215 61.99 81.9008C61.99 82.0802 62.1694 82.2596 62.5281 82.4389V82.6183H58.9408V82.4389C59.2995 82.2596 59.4789 82.2596 59.4789 81.9008C59.4789 81.7215 59.4789 81.7215 59.2995 81.5421L56.2503 75.2643C56.071 74.7263 55.8916 74.3675 55.3535 74.1882Z" fill="#231F20"/>
<path d="M75.2379 73.4602H75.4173V76.1507H75.2379C75.2379 75.792 75.0585 75.6126 74.6998 75.6126H69.3189V77.4063H72.5474C72.9062 77.4063 73.0855 77.4063 73.0855 76.8682H73.4443V79.3793H73.2649C73.2649 79.0205 73.0855 78.8412 72.7268 78.8412H69.4982V80.8142H75.0585C75.4173 80.8142 75.5966 80.8142 75.5966 80.2761H75.776V82.9666H75.4173C75.4173 82.6078 75.2379 82.4285 74.8792 82.4285H66.6284C66.9871 82.4285 67.1665 82.2491 67.1665 81.8904V74.8952C67.1665 74.5364 66.9871 74.3571 66.6284 74.3571V74.1777H74.5205C75.0585 73.9983 75.0585 73.819 75.2379 73.4602Z" fill="#231F20"/>
<path d="M79.5131 75.501V77.474H82.0242C83.4591 77.474 84.3559 77.1153 84.3559 76.3978C84.3559 75.6804 83.4591 75.501 82.0242 75.501H79.5131ZM80.0511 82.3169V82.6756H77.002V82.4962C77.3607 82.4962 77.54 82.3169 77.54 81.9581V74.9629C77.54 74.6042 77.54 74.4248 77.002 74.4248V74.2455H82.7416C85.0734 74.2455 86.3289 75.3217 86.3289 76.7566C86.3289 78.1915 85.2527 78.9089 83.8178 79.2677L85.4321 81.5994C85.7908 82.1375 86.1495 82.3169 86.6876 82.6756H83.1003V82.4962C83.4591 82.4962 83.4591 82.3169 83.4591 82.1375C83.4591 82.1375 83.2797 81.7788 83.2797 81.5994L81.6654 79.0883H79.5131V81.7788C79.5131 82.1375 79.6924 82.3169 80.0511 82.3169Z" fill="#231F20"/>
<path d="M90.4549 75.501V77.474H92.7867C94.2216 77.474 95.1184 77.1153 95.1184 76.3978C95.1184 75.6804 94.401 75.501 92.7867 75.501H90.4549ZM90.993 82.3169V82.6756H87.9438V82.4962C88.3026 82.4962 88.4819 82.3169 88.4819 81.9581V74.9629C88.4819 74.6042 88.4819 74.4248 87.9438 74.4248V74.2455H93.6835C96.0152 74.2455 97.4502 75.3217 97.4502 76.7566C97.2708 78.0121 95.8359 79.0883 93.8629 79.0883H90.4549V81.7788C90.4549 82.1375 90.6343 82.3169 90.993 82.3169Z" fill="#231F20"/>
<path d="M103.388 81.0618C105.182 81.0618 106.437 79.8063 106.437 78.192C106.437 76.5777 105.182 75.5015 103.388 75.5015C101.594 75.5015 100.339 76.7571 100.339 78.3714C100.339 79.9856 101.594 81.0618 103.388 81.0618ZM108.59 78.192C108.59 80.8825 106.437 82.8555 103.388 82.8555C100.339 82.8555 98.1865 80.8825 98.1865 78.3714C98.1865 75.6809 100.339 73.7079 103.388 73.7079C106.437 73.7079 108.59 75.6809 108.59 78.192Z" fill="#231F20"/>
<path d="M114.819 81.0618C116.612 81.0618 117.868 79.8063 117.868 78.192C117.868 76.5777 116.612 75.5015 114.819 75.5015C113.025 75.5015 111.77 76.7571 111.77 78.3714C111.77 79.9856 113.025 81.0618 114.819 81.0618ZM120.02 78.192C120.02 80.8825 117.868 82.8555 114.819 82.8555C111.77 82.8555 109.617 80.8825 109.617 78.3714C109.617 75.6809 111.77 73.7079 114.819 73.7079C117.868 73.7079 120.02 75.6809 120.02 78.192Z" fill="#231F20"/>
<path d="M124.099 74.1882C123.74 74.1882 123.56 74.3676 123.56 74.7263V80.8247H128.941C129.3 80.8247 129.479 80.8247 129.479 80.2866H129.659V83.1564H129.479C129.479 82.7977 129.3 82.6183 128.941 82.6183H121.049V82.439C121.408 82.439 121.587 82.2596 121.587 81.9009V74.9057C121.587 74.3676 121.408 74.1882 121.049 74.1882V74.0088H124.099V74.1882Z" fill="#231F20"/>
<path d="M139.298 82.3622V82.7209H136.07V82.3622C136.429 82.1829 136.608 82.1829 136.608 81.8241V72.4972C136.608 72.1384 136.608 71.9591 136.07 71.9591V71.6004H139.298V71.7797C138.94 71.7797 138.76 71.9591 138.76 72.3178V81.8241C138.76 82.1829 138.94 82.1829 139.298 82.3622Z" fill="#231F20"/>
<path d="M148.765 74.7926C148.765 74.4339 148.585 74.2545 148.227 74.2545V74.0752H151.096V74.2545C150.738 74.2545 150.558 74.4339 150.558 74.7926V81.7879C150.558 82.1466 150.558 82.3259 151.096 82.3259V82.5053H147.868V82.3259C148.047 82.3259 148.227 82.1466 148.227 81.9672C148.227 81.9672 148.227 81.7879 148.047 81.7879L143.025 76.7656V81.7879C143.025 82.1466 143.204 82.3259 143.563 82.3259V82.5053H140.693V82.3259C141.052 82.3259 141.231 82.1466 141.231 81.7879V74.7926C141.231 74.4339 141.231 74.2545 140.693 74.2545V74.0752H144.101V74.2545C143.922 74.2545 143.743 74.4339 143.743 74.6133C143.743 74.7926 143.743 74.7926 143.922 74.7926L148.765 79.4561V74.7926Z" fill="#231F20"/>
<path d="M153.564 79.8271L153.923 80.0065V80.1859C153.923 80.5446 155.537 81.2621 157.152 81.2621C158.766 81.2621 159.663 80.724 159.663 80.1859C159.663 79.2891 158.228 79.4684 156.076 79.2891C153.923 78.9303 152.847 78.2129 152.847 76.778C152.847 74.9843 154.461 73.9081 156.972 73.9081C158.587 73.9081 159.663 74.4462 159.842 74.4462C160.201 74.4462 160.56 74.8049 160.918 74.8049C160.918 74.8049 161.098 74.8049 161.277 74.6256L161.457 74.8049L160.38 76.778L160.022 76.5986C160.022 76.5986 160.022 76.5986 160.022 76.4192C160.022 76.0605 158.587 75.1637 156.972 75.1637C155.537 75.343 154.82 75.7018 154.82 76.2399C154.82 77.316 156.434 76.778 158.766 77.1367C160.56 77.6748 161.457 78.5716 161.457 79.8271C161.457 81.4414 159.663 82.8763 156.972 82.8763C154.461 82.8763 153.206 81.9795 153.026 81.9795C152.847 81.9795 152.847 81.9795 152.847 82.1589H152.488L153.564 79.8271Z" fill="#231F20"/>
<path d="M162.791 76.149H162.612V73.4585H162.791C162.791 73.8173 162.971 73.9966 163.329 73.9966H170.504C170.863 73.9966 171.042 73.9966 171.042 73.4585H171.221V76.149C171.221 75.7903 171.042 75.6109 170.683 75.6109H167.993V81.7093C167.993 82.068 168.172 82.2474 168.531 82.2474V82.4268H165.482V82.2474C165.84 82.2474 166.02 82.068 166.02 81.7093V75.6109H163.329C162.971 75.6109 162.971 75.7903 162.791 76.149Z" fill="#231F20"/>
<path d="M176.035 82.3764V82.5558H172.986V82.3764C173.345 82.3764 173.524 82.1971 173.524 81.8383V74.8431C173.524 74.4844 173.524 74.305 172.986 74.305V74.1257H176.035C175.676 74.1257 175.497 74.305 175.497 74.6638V81.8383C175.497 82.1971 175.676 82.3764 176.035 82.3764Z" fill="#231F20"/>
<path d="M177.555 76.149H177.376V73.4585H177.555C177.555 73.8173 177.735 73.9966 178.093 73.9966H185.268C185.627 73.9966 185.806 73.9966 185.806 73.4585H185.985V76.149C185.985 75.7903 185.806 75.6109 185.447 75.6109H182.757V81.7093C182.757 82.068 182.936 82.2474 183.295 82.2474V82.4268H180.246V82.2474C180.605 82.2474 180.784 82.068 180.784 81.7093V75.6109H178.093C177.735 75.6109 177.735 75.7903 177.555 76.149Z" fill="#231F20"/>
<path d="M194.39 74.1882V74.0088H197.439V74.1882C197.081 74.1882 197.081 74.3675 197.081 74.7263V79.3897C197.081 81.9008 195.825 82.7977 192.597 82.7977C189.368 82.7977 188.112 81.7215 188.112 79.3897V74.7263C187.933 74.3675 187.933 74.1882 187.395 74.1882V74.0088H190.444V74.1882C190.085 74.1882 189.906 74.3675 189.906 74.7263V79.031C189.906 80.4659 190.444 81.1834 192.238 81.1834C194.032 81.1834 194.57 80.4659 194.57 78.8517V74.7263C194.928 74.3675 194.749 74.1882 194.39 74.1882Z" fill="#231F20"/>
<path d="M198.986 76.149H198.807V73.4585H198.986C198.986 73.8173 199.165 73.9966 199.524 73.9966H206.699C207.057 73.9966 207.237 73.9966 207.237 73.4585H207.416V76.149C207.416 75.7903 207.237 75.6109 206.878 75.6109H204.188V81.7093C204.188 82.068 204.367 82.2474 204.726 82.2474V82.4268H201.676V82.2474C202.035 82.2474 202.215 82.068 202.215 81.7093V75.6109H199.524C199.165 75.6109 199.165 75.7903 198.986 76.149Z" fill="#231F20"/>
<path d="M217.43 73.4602H217.609V76.1507H217.43C217.43 75.792 217.25 75.6126 216.892 75.6126H211.511V77.4063H214.739C215.098 77.4063 215.277 77.4063 215.277 76.8682H215.636V79.3793H215.457C215.457 79.0205 215.277 78.8412 214.919 78.8412H211.69V80.8142H217.25C217.609 80.8142 217.789 80.8142 217.789 80.2761H217.968V82.9666H217.609C217.609 82.6078 217.43 82.4285 217.071 82.4285H208.82C209.179 82.4285 209.358 82.2491 209.358 81.8904V74.8952C209.358 74.5364 209.179 74.3571 208.82 74.3571V74.1777H216.712C217.25 73.9983 217.25 73.819 217.43 73.4602Z" fill="#231F20"/>
<path d="M21.7602 90.3202H21.9396V93.0107H21.7602C21.7602 92.6519 21.5808 92.4726 21.2221 92.4726H15.8412V94.2662H19.0697C19.4285 94.2662 19.6078 94.2662 19.6078 93.7281H19.9666V96.2392H19.7872C19.7872 95.8805 19.6078 95.7011 19.2491 95.7011H16.0205V98.571C15.8412 99.109 15.8412 99.109 16.3793 99.2884V99.4678H13.3301V99.2884C13.6888 99.2884 13.8682 99.109 13.8682 98.7503V91.7551C13.8682 91.3964 13.6888 91.217 13.3301 91.217V91.0376H21.2221C21.5808 90.8583 21.5808 90.6789 21.7602 90.3202Z" fill="#231F20"/>
<path d="M28.08 97.9218C29.8736 97.9218 31.1292 96.6663 31.1292 95.052C31.1292 93.4377 29.8736 92.3615 28.08 92.3615C26.2863 92.3615 25.0308 93.6171 25.0308 95.2313C25.0308 96.8456 26.2863 97.9218 28.08 97.9218ZM33.2816 95.052C33.2816 97.7424 31.1292 99.7155 28.08 99.7155C25.0308 99.7155 22.8784 97.7424 22.8784 95.2313C22.8784 92.5409 25.0308 90.5679 28.08 90.5679C31.1292 90.5679 33.2816 92.5409 33.2816 95.052Z" fill="#231F20"/>
<path d="M37.0663 92.3611V94.3341H39.5774C41.0123 94.3341 41.9091 93.9753 41.9091 93.2579C41.9091 92.5404 41.0123 92.3611 39.5774 92.3611H37.0663ZM37.6044 99.1769V99.5356H34.5552V99.3563C34.9139 99.3563 35.0933 99.1769 35.0933 98.8182V91.823C35.0933 91.4642 35.0933 91.2849 34.5552 91.2849V91.1055H40.2948C42.6266 91.1055 43.8821 92.1817 43.8821 93.6166C43.8821 95.0515 42.8059 95.769 41.371 96.1277L42.9853 98.4595C43.344 98.9976 43.7028 99.1769 44.2409 99.5356H40.6536V99.3563C41.0123 99.3563 41.0123 99.1769 41.0123 98.9976C41.0123 98.9976 40.8329 98.6388 40.8329 98.4595L39.2187 95.9484H37.0663V98.6388C37.0663 98.9976 37.2456 99.1769 37.6044 99.1769Z" fill="#231F20"/>
<path d="M53.8747 90.2127V93.0825H56.9239C58.7176 93.0825 59.6144 92.7238 59.6144 91.6476C59.7937 90.5714 58.7176 90.2127 56.9239 90.2127H53.8747ZM51.0049 99.1809C51.3636 99.1809 51.543 99.0015 51.543 98.6428V89.3158C51.543 88.9571 51.3636 88.7777 51.0049 88.7777V88.419H57.462C60.3318 88.419 61.7667 89.6746 61.7667 91.6476C61.7667 93.6206 60.1525 95.0555 57.6414 95.0555H53.8747V98.8222C53.8747 99.0015 53.8747 99.1809 54.4128 99.1809V99.5396H51.0049V99.1809Z" fill="#231F20"/>
<path d="M71.7589 90.3202H71.9383V93.0107H71.7589C71.7589 92.652 71.5795 92.4726 71.2208 92.4726H65.8399V94.2662H69.0684C69.4272 94.2662 69.6065 94.2662 69.6065 93.7281H69.9653V96.2392H69.7859C69.7859 95.8805 69.6065 95.7012 69.2478 95.7012H66.0192V97.6742H71.5795C71.9383 97.6742 72.1176 97.6742 72.1176 97.1361H72.297V99.8265H71.9383C71.9383 99.4678 71.7589 99.2884 71.4002 99.2884H63.1494C63.5081 99.2884 63.6875 99.1091 63.6875 98.7504V91.7551C63.6875 91.3964 63.5081 91.217 63.1494 91.217V91.0377H71.0414C71.5795 90.8583 71.5795 90.679 71.7589 90.3202Z" fill="#231F20"/>
<path d="M76.1678 92.3611V94.3341H78.6789C80.1139 94.3341 81.0107 93.9753 81.0107 93.2579C81.0107 92.5404 80.1139 92.3611 78.6789 92.3611H76.1678ZM76.7059 99.1769V99.5356H73.6567V99.3563C74.0155 99.3563 74.1948 99.1769 74.1948 98.8182V91.823C74.1948 91.4642 74.1948 91.2849 73.6567 91.2849V91.1055H79.3964C81.7281 91.1055 82.9837 92.1817 82.9837 93.6166C82.9837 95.0515 81.9075 95.769 80.4726 96.1277L82.0869 98.4595C82.4456 98.9976 82.8043 99.1769 83.3424 99.5356H79.7551V99.3563C80.1139 99.3563 80.1139 99.1769 80.1139 98.9976C80.1139 98.9976 79.9345 98.6388 79.9345 98.4595L78.3202 95.9484H76.1678V98.6388C76.1678 98.9976 76.3472 99.1769 76.7059 99.1769Z" fill="#231F20"/>
<path d="M93.2695 90.3202H93.4488V93.0107H93.2695C93.2695 92.6519 93.0901 92.4726 92.7314 92.4726H87.3505V94.2662H90.579C90.9377 94.2662 91.1171 94.2662 91.1171 93.7281H91.4758V96.2392H91.2965C91.2965 95.8805 91.1171 95.7011 90.7584 95.7011H87.5298V98.571C87.3505 99.109 87.3505 99.109 87.8886 99.2884V99.4678H84.8394V99.2884C85.1981 99.2884 85.3774 99.109 85.3774 98.7503V91.7551C85.3774 91.3964 85.1981 91.217 84.8394 91.217V91.0376H92.7314C93.0901 90.8583 93.0901 90.6789 93.2695 90.3202Z" fill="#231F20"/>
<path d="M99.3402 97.9218C101.134 97.9218 102.389 96.6663 102.389 95.052C102.389 93.4377 101.134 92.3615 99.3402 92.3615C97.5466 92.3615 96.291 93.6171 96.291 95.2313C96.291 96.8456 97.5466 97.9218 99.3402 97.9218ZM104.542 95.052C104.542 97.7424 102.389 99.7155 99.3402 99.7155C96.291 99.7155 94.1387 97.7424 94.1387 95.2313C94.1387 92.5409 96.291 90.5679 99.3402 90.5679C102.389 90.5679 104.542 92.5409 104.542 95.052Z" fill="#231F20"/>
<path d="M108.158 92.3611V94.3341H110.669C112.104 94.3341 113.001 93.9753 113.001 93.2579C113.001 92.5404 112.104 92.3611 110.669 92.3611H108.158ZM108.696 99.1769V99.5356H105.647V99.3563C106.006 99.3563 106.185 99.1769 106.185 98.8182V91.823C106.185 91.4642 106.185 91.2849 105.647 91.2849V91.1055H111.387C113.718 91.1055 114.974 92.1817 114.974 93.6166C114.974 95.0515 113.898 95.769 112.463 96.1277L114.077 98.4595C114.436 98.9976 114.795 99.1769 115.333 99.5356H111.745V99.3563C112.104 99.3563 112.104 99.1769 112.104 98.9976C112.104 98.9976 111.925 98.6388 111.925 98.4595L110.31 95.9484H108.158V98.6388C108.158 98.9976 108.337 99.1769 108.696 99.1769Z" fill="#231F20"/>
<path d="M119.367 99.2382V99.4176H116.497V99.2382C116.856 99.2382 117.035 99.0589 117.035 98.7001V91.7049C117.035 91.3462 117.035 91.1668 116.497 91.1668V90.9875H120.084C119.905 90.9875 119.726 91.1668 119.726 91.3462C119.726 91.5256 119.726 91.7049 119.905 91.7049L122.237 96.0097L124.748 91.8843C124.748 91.7049 124.748 91.5256 124.748 91.5256C124.748 91.1668 124.748 91.1668 124.389 90.9875V90.8081H127.976V90.9875C127.618 90.9875 127.438 91.1668 127.438 91.5256V98.7001C127.438 99.0589 127.438 99.2382 127.976 99.2382V99.4176H124.927V99.2382C125.286 99.2382 125.465 99.0589 125.465 98.7001V93.4986L122.057 99.2382L118.829 93.3192V98.7001C118.829 99.0589 119.008 99.2382 119.367 99.2382Z" fill="#231F20"/>
<path d="M132.273 99.2382V99.4176H129.224V99.2382C129.582 99.2382 129.762 99.0589 129.762 98.7001V91.7049C129.762 91.3462 129.762 91.1668 129.224 91.1668V90.9875H132.273C131.914 90.9875 131.735 91.1668 131.735 91.5256V98.7001C131.735 99.0589 131.914 99.2382 132.273 99.2382Z" fill="#231F20"/>
<path d="M141.766 91.6526C141.766 91.2939 141.587 91.1145 141.228 91.1145V90.9352H144.098V91.1145C143.739 91.1145 143.56 91.2939 143.56 91.6526V98.6478C143.56 99.0066 143.56 99.1859 144.098 99.1859V99.3653H140.869V99.1859C141.049 99.1859 141.228 99.0066 141.228 98.8272C141.228 98.8272 141.228 98.6478 141.049 98.6478L136.027 93.6256V98.6478C136.027 99.0066 136.206 99.1859 136.565 99.1859V99.3653H133.695V99.1859C134.054 99.1859 134.233 99.0066 134.233 98.6478V91.6526C134.233 91.2939 134.233 91.1145 133.695 91.1145V90.9352H137.103V91.1145C136.923 91.1145 136.744 91.2939 136.744 91.4733C136.744 91.6526 136.744 91.6526 136.923 91.6526L141.766 96.3161V91.6526Z" fill="#231F20"/>
<path d="M150.441 99.7014C147.392 99.7014 145.24 97.7283 145.24 95.2172C145.24 92.7061 147.213 90.5538 150.621 90.5538C152.594 90.5538 153.491 91.2712 154.029 91.2712C154.208 91.2712 154.387 91.2712 154.387 91.2712L154.567 91.4506L153.849 93.4236H153.491C153.491 93.0649 152.056 92.3474 150.621 92.3474C148.648 92.3474 147.392 93.603 147.392 95.2172C147.392 96.6522 148.648 97.9077 150.8 97.9077C151.697 97.9077 152.594 97.7283 153.311 97.3696V96.2934H151.338C150.979 96.2934 150.8 96.2934 150.8 96.8315H150.441V94.3204H150.621C150.621 94.6792 150.8 94.8585 151.159 94.8585H155.284V95.2172C154.925 95.2172 154.746 95.3966 154.746 95.7553V97.3696C154.746 97.7283 154.746 97.9077 155.284 97.9077V98.2664C153.67 99.1633 151.876 99.7014 150.441 99.7014Z" fill="#231F20"/>
<path d="M165.677 95.1237H169.264L167.47 91.1777L165.677 95.1237ZM161.372 99.2491C161.91 99.0697 162.09 98.711 162.269 98.1729L166.215 89.5634C166.215 89.384 166.394 89.384 166.394 89.2047C166.394 89.0253 166.215 88.8459 165.856 88.6666V88.3078H169.443V88.6666C169.085 88.6666 168.905 88.8459 168.905 89.0253C168.905 89.2047 168.905 89.2047 169.085 89.384L173.21 97.9935C173.389 98.711 173.569 99.0697 174.107 99.2491V99.6078H170.161V99.2491C170.52 99.0697 170.699 98.8903 170.699 98.711C170.699 98.5316 170.699 98.5316 170.52 98.3522L169.802 96.5586H164.959L164.242 98.3522C164.242 98.5316 164.063 98.711 164.063 98.711C164.063 98.8903 164.242 99.0697 164.601 99.2491V99.6078H161.372V99.2491Z" fill="#231F20"/>
<path d="M177.819 92.3611V94.3341H180.33C181.765 94.3341 182.662 93.9753 182.662 93.2579C182.662 92.5404 181.765 92.3611 180.33 92.3611H177.819ZM178.357 99.1769V99.5356H175.308V99.3563C175.666 99.3563 175.846 99.1769 175.846 98.8182V91.823C175.846 91.4642 175.846 91.2849 175.308 91.2849V91.1055H181.047C183.379 91.1055 184.635 92.1817 184.635 93.6166C184.635 95.0515 183.558 95.769 182.123 96.1277L183.738 98.4595C184.096 98.9976 184.455 99.1769 184.993 99.5356H181.406V99.3563C181.765 99.3563 181.765 99.1769 181.765 98.9976C181.765 98.9976 181.585 98.6388 181.585 98.4595L179.971 95.9484H177.819V98.6388C177.819 98.9976 177.998 99.1769 178.357 99.1769Z" fill="#231F20"/>
<path d="M186.414 93.009H186.234V90.3186H186.414C186.414 90.6773 186.593 90.8567 186.952 90.8567H194.126C194.485 90.8567 194.665 90.8567 194.665 90.3186H194.844V93.009C194.844 92.6503 194.665 92.471 194.306 92.471H191.615V98.5693C191.615 98.9281 191.795 99.1074 192.153 99.1074V99.2868H189.104V99.1074C189.463 99.1074 189.642 98.9281 189.642 98.5693V92.471H186.952C186.593 92.471 186.593 92.6503 186.414 93.009Z" fill="#231F20"/>
<path d="M196.982 96.6872L197.341 96.8666V97.0459C197.341 97.4047 198.955 98.1221 200.57 98.1221C202.184 98.1221 203.081 97.584 203.081 97.0459C203.081 96.1491 201.646 96.3285 199.494 96.1491C197.341 95.7904 196.265 95.0729 196.265 93.638C196.265 91.8444 197.879 90.7682 200.39 90.7682C202.005 90.7682 203.081 91.3063 203.26 91.3063C203.619 91.3063 203.978 91.665 204.336 91.665C204.336 91.665 204.516 91.665 204.695 91.4856L204.874 91.665L203.798 93.638H203.44C203.44 93.638 203.44 93.638 203.44 93.4586C203.44 93.0999 202.005 92.2031 200.39 92.2031C198.955 92.2031 198.238 92.5618 198.238 93.0999C198.238 94.1761 199.852 93.638 202.184 93.9967C203.978 94.5348 204.874 95.4316 204.874 96.6872C204.874 98.3015 203.081 99.7364 200.39 99.7364C197.879 99.7364 196.624 98.8396 196.444 98.8396C196.265 98.8396 196.265 98.8396 196.265 99.0189H195.906L196.982 96.6872Z" fill="#231F20"/>
</g>
<defs>
<clipPath id="clip0_12_2565">
<rect width="217.667" height="100" fill="white" transform="translate(0.273438)"/>
</clipPath>
</defs>
</svg>
