<svg width="188" height="100" viewBox="0 0 188 100" fill="none" xmlns="http://www.w3.org/2000/svg">
<g clip-path="url(#clip0_12_2688)">
<path d="M28.8407 59.913V56.3704H27.5977C26.1683 56.3704 25.7954 55.7489 25.7954 54.5681V36.6688H28.2192V33.1262H15.6648V36.6688H16.9079C18.3373 36.6688 18.7102 37.2903 18.7102 38.4711V44.2511H11.0036V36.6688H13.4274V33.1262H0.873047V36.6688H2.11606C3.54551 36.6688 3.91842 37.2903 3.91842 38.4711V56.4326H1.4324V59.9752H13.9868V56.4326H12.7438C11.3143 56.4326 10.9414 55.8111 10.9414 54.6302V48.2909H18.5859V56.4326H16.162V59.9752L28.8407 59.913ZM49.6611 59.913V56.9298H48.1074C47.2994 56.9298 46.8643 56.5569 46.8643 55.6868V46.8614C46.8643 41.2679 43.3218 39.4034 38.2254 39.4034C35.988 39.4034 33.2534 39.9006 31.1403 40.6464V44.3754C33.7506 43.3189 35.8016 43.0081 37.2932 43.0081C39.0955 43.0081 40.1521 43.8161 40.1521 45.5563V46.7993C33.7506 46.9236 29.2136 49.4718 29.2136 54.0709C29.2136 58.5457 32.259 60.4724 35.6773 60.4724C38.1011 60.4724 40.4629 59.2915 41.3951 58.3593C41.8923 59.478 43.1975 59.913 44.6891 59.913H49.6611ZM40.1521 55.2517C39.7792 55.5625 38.8469 55.9975 37.9768 55.9975C36.4852 55.9975 35.553 55.0653 35.553 53.5737C35.553 51.647 37.231 50.0933 40.1521 49.9068V55.2517ZM61.8426 59.913V56.9298H61.0346C60.0402 56.9298 59.543 56.6812 59.543 55.6868V34.0585C59.543 33.064 59.0458 32.7533 57.865 32.7533C56.3112 32.7533 53.7009 33.064 49.599 33.064L50.2205 36.1094H52.8308V56.9298H50.5934V59.913H61.8426Z" fill="#B40756"/>
<path d="M23.9931 21.1933C23.9931 19.018 23.123 17.34 21.7557 16.0348C20.8856 15.2268 19.4561 14.4189 18.2131 13.7974L14.9191 12.2436C12.2467 11.0006 10.7551 10.0684 10.7551 8.45246C10.7551 7.023 12.1845 6.02859 13.9869 6.02859C15.2299 6.02859 16.4108 6.52579 17.0944 7.2716C17.7159 7.8931 18.151 8.76321 18.4617 9.81976L18.8346 11.1871C19.0211 11.8086 19.2697 12.2436 20.0776 12.2436H22.3772V1.98881H18.7103L18.5239 3.35612C17.2809 2.23741 15.292 1.49161 12.806 1.49161C7.77185 1.49161 3.66992 4.59913 3.66992 9.75761C3.66992 13.1759 5.65873 15.9105 9.82281 17.6507L13.0546 19.018C15.6028 20.0746 16.6594 20.8825 16.6594 22.4363C16.6594 22.8713 16.4729 23.4307 16.1 23.8036C15.5406 24.363 14.5462 24.798 13.3032 24.798C10.5686 24.798 8.82841 23.3064 8.3312 20.6339L8.14475 19.7017C7.9583 18.6451 7.5854 18.4587 6.46669 18.4587H4.16713V28.8378H7.834L8.0826 27.284C9.32561 28.4027 11.6252 29.335 14.049 29.335C20.6991 29.335 23.9931 25.8546 23.9931 21.1933ZM48.4182 28.8378V25.8546H47.6103C46.6159 25.8546 46.1187 25.6681 46.1187 24.6116V14.9161C46.1187 12.6787 45.4971 11.0628 44.4406 10.0062C43.3219 8.88751 41.6438 8.32815 39.8415 8.32815C38.1634 8.32815 36.1124 8.82536 33.875 10.5656V2.98322C33.875 1.98881 33.3778 1.67806 32.197 1.67806C30.6432 1.67806 28.0329 1.98881 23.931 1.98881L24.5525 5.03418H27.1628V25.7924H24.9254V28.7756H36.1124V25.7924H35.3666C34.3722 25.7924 33.875 25.606 33.875 24.5494V14.1703C34.8694 13.3002 35.9881 12.7408 37.169 12.7408C38.5363 12.7408 39.4064 13.4866 39.4064 15.1647V25.7924H37.5419V28.7756H48.4182V28.8378ZM67.4362 18.3965C67.4362 12.803 64.3287 8.32815 58.3623 8.32815C52.1472 8.32815 48.2939 12.9273 48.2939 18.9559C48.2939 25.2331 51.8365 29.3971 58.238 29.3971C61.4698 29.3971 64.8259 28.092 66.6904 26.4139L64.9502 23.555C63.4586 24.6116 61.5319 25.3574 59.6674 25.3574C56.8707 25.3574 55.3791 23.2443 55.2548 19.9503H67.3119C67.4362 19.3909 67.4362 18.9559 67.4362 18.3965ZM61.0969 16.0348C61.0969 16.3456 61.0347 16.6563 61.0347 16.9671H55.3791C55.4412 15.1025 56.0627 12.1193 58.4866 12.1193C60.724 12.0572 61.0969 14.4189 61.0969 16.0348ZM76.1373 6.8987C76.1373 4.90988 77.3803 4.28838 79.0584 4.28838C80.1771 4.28838 81.2958 4.53698 82.2902 4.84773V0.932256C81.3579 0.559354 79.0584 0 76.9453 0C72.3461 0 69.4872 2.23741 69.4872 6.65009C69.4872 6.65009 69.4872 7.83095 70.0466 8.88751H67.4984V11.9329H70.4816V25.7924H68.2442V28.7756H79.4934V25.7924H78.6855C77.6911 25.7924 77.1939 25.4195 77.1939 24.5494V11.9329H81.793L81.1715 8.88751H76.8209C76.1373 8.0174 76.1373 6.8987 76.1373 6.8987ZM106.902 3.79117C106.902 1.67806 105.162 0.372902 103.173 0.372902C101.184 0.372902 99.4437 1.61591 99.4437 3.79117C99.4437 5.90429 101.184 7.20945 103.173 7.20945C105.162 7.20945 106.902 5.90429 106.902 3.79117ZM91.3641 6.8987C91.3641 5.03418 92.4207 4.28838 93.9745 4.28838C95.2175 4.28838 96.5226 4.59913 97.517 4.90988L98.0764 1.05656C96.5848 0.497203 94.1609 0 92.11 0C87.2622 0 84.6519 2.48602 84.6519 6.46364C84.6519 6.46364 84.6519 7.33375 85.1491 8.88751H82.1659L82.7874 11.9329H85.3977V25.7924H83.1603V28.7756H94.4095V25.7924H93.6016C92.6072 25.7924 92.11 25.4195 92.11 24.5494V11.9329H100.065V25.7924H97.8278V28.7756H109.077V25.7924H108.269C107.275 25.7924 106.777 25.606 106.777 24.5494V9.88191C106.777 8.88751 106.28 8.57676 105.099 8.57676C103.546 8.57676 100.065 8.88751 96.0254 8.88751H91.737C91.3641 8.07955 91.3641 6.8987 91.3641 6.8987ZM128.592 18.3965C128.592 12.803 125.485 8.32815 119.518 8.32815C113.303 8.32815 109.45 12.9273 109.45 18.9559C109.45 25.2331 112.992 29.3971 119.394 29.3971C122.626 29.3971 125.982 28.092 127.846 26.4139L126.106 23.555C124.615 24.6116 122.688 25.3574 120.823 25.3574C118.027 25.3574 116.535 23.2443 116.411 19.9503H128.468C128.592 19.3909 128.592 18.9559 128.592 18.3965ZM122.191 16.0348C122.191 16.3456 122.129 16.6563 122.129 16.9671H116.473C116.535 15.1025 117.094 12.1193 119.58 12.1193C121.88 12.0572 122.191 14.4189 122.191 16.0348ZM140.587 28.8378V25.8546H139.779C138.785 25.8546 138.288 25.6681 138.288 24.6116V2.98322C138.288 1.98881 137.79 1.67806 136.61 1.67806C135.056 1.67806 132.446 1.98881 128.344 1.98881L128.965 5.03418H131.575V25.7924H129.338V28.7756H140.587V28.8378ZM162.775 28.8378V25.8546H161.408C160.351 25.8546 160.04 25.2952 160.04 24.4873V2.98322C160.04 1.98881 159.543 1.67806 158.362 1.67806C156.809 1.67806 154.198 1.98881 150.096 1.98881L150.718 5.03418H153.328V8.88751C152.209 8.51461 150.966 8.266 149.848 8.266C145.186 8.32815 140.712 11.8086 140.712 18.6451C140.712 25.1709 144.068 29.335 149.599 29.335C151.836 29.335 153.887 28.4027 154.944 27.284C155.503 28.3406 156.871 28.7756 158.3 28.7756H162.775V28.8378ZM153.39 24.5494C152.955 24.9223 152.209 25.3574 151.153 25.3574C149.413 25.3574 147.735 23.8658 147.735 18.7694C147.735 13.3623 149.537 11.9329 151.277 11.9329C152.209 11.9329 153.079 12.2436 153.452 12.4301L153.39 24.5494Z" fill="#B40756"/>
<path d="M27.4734 66.9982V63.4556H15.4162V66.9982H16.5971C18.0266 66.9982 18.3995 67.4954 18.3995 68.8005V81.4792C18.3995 82.9087 18.213 84.0274 17.6537 84.7732C17.0322 85.7054 15.9756 86.2026 14.6704 86.2026C13.5517 86.2026 12.433 85.7054 11.8115 84.8353C11.0036 83.6545 11.0036 82.4115 11.0036 79.3661V66.936H13.4274V63.3934H0.873047V66.936H2.0539C3.48336 66.936 3.85627 67.4332 3.85627 68.7384V80.2983C3.85627 83.5923 4.53992 86.4512 6.77734 88.3779C8.5797 89.9317 11.3765 90.7396 14.5461 90.7396C18.2752 90.7396 21.1341 89.4966 22.8121 87.5699C24.4902 85.6433 25.0496 82.9708 25.0496 80.1119V66.9982H27.4734ZM51.0284 90.2424V87.2592H50.2205C49.2261 87.2592 48.7289 87.0727 48.7289 86.0162V76.3829C48.7289 74.1455 48.1074 72.5295 47.0508 71.473C45.9321 70.3543 44.1919 69.7949 42.4517 69.7949C40.7736 69.7949 38.7226 70.2921 36.4852 72.0323V71.4108C36.4852 70.4164 35.988 70.1057 34.8072 70.1057C33.2534 70.1057 30.6431 70.4164 26.5412 70.4164L27.1627 73.4618H29.773V87.3213H27.5356V90.3046H38.6605V87.3213H37.9768C36.9824 87.3213 36.4852 87.1349 36.4852 86.0783V75.6992C37.4796 74.8291 38.5983 74.2698 39.7792 74.2698C41.1465 74.2698 42.0166 75.0156 42.0166 76.6936V87.3213H40.0278V90.3046L51.0284 90.2424ZM63.2721 90.2424V87.2592H62.4641C61.4697 87.2592 60.9725 87.0727 60.9725 86.0162V71.3487C60.9725 70.3543 60.4753 70.0435 59.2944 70.0435C57.7407 70.0435 55.1304 70.3543 51.0284 70.3543L51.6499 73.3996H54.2602V87.2592H52.0228V90.2424H63.2721ZM85.5841 73.3996L84.9625 70.3543H75.9507V73.3996H78.0017L74.5834 83.5923L71.4759 75.2642C71.103 74.2076 71.3516 73.4618 72.5325 73.4618H73.4026V70.4164H62.0912V73.4618H64.3286L71.0409 90.3667H76.5101L82.2901 75.0777C82.7873 73.7104 83.4709 73.524 84.5275 73.524H85.5841V73.3996ZM103.235 79.8633C103.235 74.2698 100.127 69.7949 94.1608 69.7949C87.9458 69.7949 84.0924 74.3941 84.0924 80.4226C84.0924 86.6998 87.635 90.8639 94.0365 90.8639C97.2683 90.8639 100.624 89.5588 102.489 87.8807L100.749 85.0839C99.2571 86.2026 97.3305 86.8863 95.466 86.8863C92.6692 86.8863 91.1776 84.7732 91.0533 81.4792H103.11C103.235 80.8577 103.235 80.3605 103.235 79.8633ZM96.8954 77.5016C96.8954 77.8123 96.8333 78.1231 96.8333 78.4338H91.1776C91.2397 76.5693 91.8612 73.5861 94.2851 73.5861C96.5225 73.5239 96.8954 75.8857 96.8954 77.5016ZM119.705 74.7048V71.0379C119.705 70.23 119.27 69.7949 118.213 69.7949C116.224 69.7949 114.235 70.8515 112.992 72.4674V71.3487C112.992 70.3543 112.495 70.0435 111.314 70.0435C109.761 70.0435 107.15 70.3543 103.048 70.3543L103.67 73.3996H106.28V87.2592H104.043V90.2424H115.292V87.2592H114.484C113.49 87.2592 112.992 87.0727 112.992 86.0162V76.1964C114.857 74.9534 116.535 74.6427 118.213 74.6427C118.71 74.6427 119.394 74.6427 119.705 74.7048ZM136.734 84.8353C136.734 81.6657 134.994 79.9876 132.197 78.7446L129.089 77.3773C127.287 76.5693 126.665 76.1343 126.665 75.1399C126.665 74.1455 127.66 73.3375 129.089 73.3375C130.767 73.3375 132.073 74.2076 132.321 76.01L132.445 76.9422C132.57 77.7502 132.943 78.1231 133.937 78.1231H135.615V70.2921H133.191L133.005 71.4108C131.886 70.3543 130.27 69.7328 127.971 69.7328C124.055 69.7328 120.513 72.1566 120.513 76.01C120.513 79.3661 122.564 81.1685 125.36 82.225L128.095 83.3437C130.022 84.0895 130.581 84.5867 130.581 85.5811C130.581 86.5134 129.587 87.2592 128.095 87.2592C125.92 87.2592 124.366 86.1405 124.117 84.276L123.993 83.468C123.807 82.4736 123.558 82.3493 122.439 82.3493H120.761V90.3046H123.185L123.496 89.0616C125.05 90.3046 126.976 90.8639 129.089 90.8639C133.378 90.8639 136.734 88.3779 136.734 84.8353ZM148.915 90.2424V87.2592H148.107C147.113 87.2592 146.616 87.0727 146.616 86.0162V71.3487C146.616 70.3543 146.119 70.0435 144.938 70.0435C143.384 70.0435 140.774 70.3543 136.672 70.3543L137.293 73.3996H139.904V87.2592H137.666V90.2424H148.915ZM162.713 89.9317V86.2026C162.029 86.3891 160.972 86.6998 160.04 86.6998C159.108 86.6998 158.238 86.3269 157.803 85.3947C157.492 84.8353 157.306 83.8409 157.306 82.4115V73.3996H161.967L161.345 70.3543H157.181V65.1958L152.458 65.9416C151.153 66.128 150.593 66.8739 150.593 68.2412V70.3543H148.107V73.3996H150.593V82.2872C150.593 85.954 151.215 87.8807 152.52 89.1237C153.639 90.2424 155.379 90.8018 157.554 90.8018C159.729 90.8018 161.656 90.2424 162.713 89.9317ZM187.324 73.3996L186.703 70.3543H175.764V73.3996H177.877V84.9596C176.883 85.8297 175.764 86.3891 174.583 86.3891C173.216 86.3891 172.346 85.6433 172.346 83.9652V71.3487C172.346 70.3543 171.849 70.0435 170.668 70.0435C169.114 70.0435 166.504 70.3543 162.402 70.3543L163.023 73.3996H165.634V84.276C165.634 86.4512 166.255 88.1293 167.312 89.1237C168.431 90.2424 170.171 90.8018 171.911 90.8018C173.589 90.8018 175.64 90.3046 177.877 88.5643V91.2368C177.877 92.542 177.691 93.7228 177.132 94.5308C176.448 95.463 175.143 95.9602 173.403 95.9602C171.6 95.9602 169.736 95.5873 167.933 94.9658V99.1921C169.301 99.6271 171.787 100 173.962 100C179.555 100 182.725 97.5762 183.968 94.2822C184.59 92.6041 184.59 90.4289 184.59 88.5643V75.0156C184.59 73.7725 185.211 73.3375 186.206 73.3375L187.324 73.3996Z" fill="#740232"/>
<path d="M61.0967 65.2579C61.0967 63.1448 59.3565 61.8397 57.3677 61.8397C55.3789 61.8397 53.6387 63.0827 53.6387 65.2579C53.6387 67.371 55.3789 68.6762 57.3677 68.6762C59.3565 68.6762 61.0967 67.371 61.0967 65.2579ZM146.678 65.2579C146.678 63.1448 144.938 61.8397 142.949 61.8397C140.96 61.8397 139.22 63.0827 139.22 65.2579C139.22 67.371 140.96 68.6762 142.949 68.6762C144.938 68.6762 146.678 67.371 146.678 65.2579Z" fill="#740232"/>
<path d="M73.9619 59.913V56.9298H73.1539C72.1595 56.9298 71.6623 56.6812 71.6623 55.6868V34.0585C71.6623 33.064 71.1651 32.7533 69.9843 32.7533C68.4305 32.7533 65.8202 33.064 61.7183 33.064L62.3398 36.1094H64.9501V56.9298H62.7127V59.913H73.9619Z" fill="#B40756"/>
<path d="M130.581 59.913V56.9298H129.773C128.778 56.9298 128.281 56.7433 128.281 55.6868V46.0535C128.281 43.8161 127.66 42.2001 126.603 41.1436C125.484 40.0249 123.744 39.4655 122.004 39.4655C119.269 39.4655 116.97 40.5842 115.292 42.0758C115.043 41.7029 114.795 41.3922 114.484 41.1436C113.365 40.0249 111.625 39.4655 109.885 39.4655C108.331 39.4655 106.156 40.0249 104.105 41.7029V41.0193C104.105 40.0249 103.607 39.7141 102.427 39.7141C100.873 39.7141 98.2625 40.0249 94.1606 40.0249L94.7821 43.0703H97.3924V56.9919H95.155V59.9752H106.218V56.9919H105.596C104.602 56.9919 104.105 56.7433 104.105 55.7489V45.3077C105.037 44.4376 106.156 43.8782 107.274 43.8782C108.642 43.8782 109.512 44.6862 109.512 46.3021V56.9298H107.709V59.913H118.337V56.9298H117.716C116.721 56.9298 116.224 56.7433 116.224 55.6868V46.0535C116.224 45.8049 116.162 45.5563 116.162 45.2455C117.281 44.2511 118.337 43.8782 119.394 43.8782C120.761 43.8782 121.631 44.6862 121.631 46.3021V56.9298H119.829V59.913H130.581ZM84.7759 55.1896C84.403 55.5003 83.4707 55.9354 82.6006 55.9354C81.109 55.9354 80.1767 55.0031 80.1767 53.5115C80.1767 51.5849 81.8548 50.0311 84.7759 49.8446V55.1896ZM94.2849 59.913V56.9298H92.7311C91.9232 56.9298 91.4881 56.5569 91.4881 55.6868V46.8614C91.4881 41.2679 87.9455 39.4034 82.7871 39.4034C80.5496 39.4034 77.815 39.9006 75.7019 40.6464V44.3754C78.3122 43.3189 80.3632 43.0081 81.917 43.0081C83.7193 43.0081 84.7759 43.8161 84.7759 45.5563V46.7993C78.3744 46.9236 73.8374 49.5339 73.8374 54.0709C73.8374 58.5457 76.8828 60.4724 80.301 60.4724C82.7249 60.4724 85.0866 59.2915 86.0189 58.3593C86.5161 59.478 87.8212 59.913 89.3129 59.913H94.2849Z" fill="#B40756"/>
</g>
<defs>
<clipPath id="clip0_12_2688">
<rect width="186.451" height="100" fill="white" transform="translate(0.873047)"/>
</clipPath>
</defs>
</svg>
