<svg width="157" height="100" viewBox="0 0 157 100" fill="none" xmlns="http://www.w3.org/2000/svg">
<g clip-path="url(#clip0_12_2656)">
<path d="M5.76039 64.3319C3.20795 64.3319 0.655508 65.6081 0.655508 68.5434C0.655508 73.3931 7.16423 71.734 7.16423 74.7969C7.16423 76.0731 5.88801 76.7113 4.73941 76.7113C3.59081 76.7113 2.56984 76.2008 2.05935 75.3074L0.14502 77.0941C1.29362 78.3703 2.9527 79.0085 4.61179 79.0085C7.29185 79.0085 9.58905 77.6046 9.58905 74.6693C9.58905 69.8197 3.08033 71.3511 3.08033 68.5434C3.08033 67.2672 4.22892 66.7567 5.37752 66.7567C6.27088 66.7567 7.29185 67.1396 7.80234 67.9053L9.58905 65.991C8.6957 64.8424 7.29185 64.3319 5.76039 64.3319ZM64.4665 64.3319C60.255 64.3319 57.1921 67.2672 57.1921 71.6064C57.1921 75.9455 60.255 78.7532 64.4665 78.7532C68.8057 78.6256 71.741 75.8179 71.741 71.4788C71.8686 67.1396 68.8057 64.3319 64.4665 64.3319ZM105.688 64.3319C103.136 64.3319 100.584 65.6081 100.584 68.5434C100.584 73.3931 107.092 71.734 107.092 74.7969C107.092 76.0731 105.816 76.7113 104.667 76.7113C103.519 76.7113 102.498 76.2008 101.987 75.3074L100.201 77.0941C101.349 78.3703 103.008 79.0085 104.667 79.0085C107.348 79.0085 109.645 77.6046 109.645 74.6693C109.645 69.8197 103.136 71.3511 103.136 68.5434C103.136 67.2672 104.285 66.7567 105.433 66.7567C106.327 66.7567 107.348 67.1396 107.858 67.9053L109.645 65.7358C108.496 64.8424 107.092 64.3319 105.688 64.3319ZM10.9929 64.7148V67.012H15.2044V78.498H17.6292V67.012H21.8408V64.7148H10.9929ZM26.1799 64.7148L20.1817 78.3703H22.9894L24.2656 75.3074H30.2638L31.54 78.3703H34.3477L28.2219 64.7148H26.1799ZM35.7516 64.7148V78.498H38.1764V72.755H44.3022V70.5854H38.1764V67.012H44.5575V64.7148H35.7516ZM46.8547 64.7148V78.498H49.2795V72.755H55.4054V70.5854H49.2795V67.012H55.7882V64.7148H46.8547ZM74.1658 64.7148V78.498H76.5906V72.6274H78.3773L81.5679 78.498H84.5032L80.8021 72.3721C82.8441 72.1169 83.9927 70.5854 83.9927 68.6711C83.9927 65.6081 81.5679 64.7148 78.8878 64.7148H74.1658ZM86.4175 64.7148V78.498H91.5224C94.8406 78.498 98.7968 76.3284 98.7968 71.6064C98.7968 67.012 95.4787 64.7148 91.7776 64.7148H86.4175ZM112.197 64.7148V78.498H114.622V72.3721H121.003V78.498H123.428V64.7148H121.131V70.2025H114.75V64.7148H112.197ZM126.491 64.7148V78.498H128.916V64.7148H126.491ZM131.979 64.7148V78.498H134.403V72.6274H136.19L139.381 78.498H142.316L138.743 72.3721C140.784 72.1169 141.933 70.5854 141.933 68.6711C141.933 65.6081 139.381 64.7148 136.828 64.7148H131.979ZM144.23 64.7148V78.498H153.674V76.2008H146.655V72.4997H152.909V70.2025H146.655V66.8844H153.291V64.5872H144.23V64.7148ZM63.956 66.6291C64.0837 66.6291 64.3389 66.6291 64.4665 66.6291C67.2742 66.6291 69.1885 68.7987 69.1885 71.4788C69.1885 74.4141 67.2742 76.5836 64.4665 76.5836C61.6588 76.5836 59.7445 74.4141 59.7445 71.4788C59.8721 68.9263 61.5312 66.8844 63.956 66.6291ZM76.5906 66.7567H78.7602C80.0364 66.7567 81.5679 66.8844 81.5679 68.5434C81.5679 70.3302 79.9088 70.4578 78.5049 70.4578H76.5906V66.7567ZM134.403 66.7567H136.573C137.849 66.7567 139.381 66.8844 139.381 68.5434C139.381 70.3302 137.849 70.4578 136.445 70.4578H134.531V66.7567H134.403ZM88.8423 66.8844H91.0119C93.9472 66.8844 96.1168 68.1606 96.1168 71.4788C96.1168 74.7969 93.692 76.2008 90.629 76.2008H88.8423V66.8844ZM27.2009 67.6501L29.2428 73.1378H25.0313L27.2009 67.6501ZM75.0591 85.1343C72.2515 85.3896 70.9752 87.4315 70.9752 88.963C70.9752 94.3231 77.7392 92.2811 77.7392 95.4717C77.7392 97.0032 76.2077 97.7689 75.0591 97.7689C73.9105 97.7689 72.7619 97.2584 72.1238 96.3651L70.5924 97.6413C71.4857 98.9175 73.1448 99.5556 74.9315 99.5556C77.6116 99.5556 79.7812 98.0241 79.7812 95.3441C79.7812 90.3668 73.0172 92.4088 73.0172 88.963C73.0172 88.0696 73.6553 86.921 75.6973 86.921C76.7182 86.921 77.6116 87.4315 78.1221 88.1972L79.6535 86.7934C78.6326 85.5172 77.2287 85.2619 75.6973 85.2619C75.442 85.1343 75.3144 85.1343 75.0591 85.1343ZM1.166 85.5172V94.1955C1.166 97.386 3.46319 99.5556 6.52612 99.5556C9.58905 99.5556 11.8862 97.386 11.8862 94.1955V85.5172H9.97192V93.9402C9.97192 95.5993 9.07856 97.8965 6.52612 97.8965C3.97368 97.8965 3.08033 95.7269 3.08033 93.9402V85.5172H1.166ZM14.9492 85.5172V99.3004H16.8635V87.942L24.5208 99.3004H26.9456V85.5172H25.1589V96.7479L17.6292 85.5172H14.9492ZM30.3914 85.5172V99.3004H32.3058V85.5172H30.3914ZM33.9649 85.5172L39.325 99.3004H41.1117L46.4718 85.5172H44.4299L40.2183 96.7479L36.1344 85.5172H33.9649ZM48.0033 85.5172V99.3004H57.1921V97.5137H49.79V93.0469H56.2987V91.2602H49.79V87.1763H56.8092V85.5172H48.0033ZM59.8721 85.5172V99.3004H61.7865V93.1745H63.8284L67.4018 99.3004H69.699L65.8704 93.0469C67.9123 92.7916 69.1885 91.1325 69.1885 89.4735C69.1885 87.6868 68.2952 85.6448 64.7218 85.6448H59.8721V85.5172ZM82.4612 85.5172V99.3004H84.3756V85.5172H82.4612ZM86.2899 85.5172V87.1763H90.7567V99.1727H92.671V87.1763H97.1378V85.5172H86.2899ZM97.0101 85.5172L102.243 93.4297V99.3004H104.157V93.4297L109.262 85.5172H107.092L103.264 91.5154L99.435 85.5172H97.0101ZM61.7865 87.0486H64.2113C65.7427 87.0486 67.1466 87.4315 67.1466 89.2182C67.1466 91.1325 65.7427 91.3878 64.2113 91.3878H61.7865V87.0486Z" fill="black"/>
<path d="M153.79 -0.0110474L112.985 0.0227613V30.5163C113.864 29.6712 114.912 29.0627 116.095 28.4541C117.076 27.947 118.09 27.4737 119.104 27.2033L119.036 22.1661H119.138H123.431C123.431 23.2817 123.397 24.5664 123.397 25.9862C126.609 25.1749 130.091 24.7016 133.742 24.7016C137.123 24.7016 140.368 25.1073 143.411 25.8172V22.1323H147.772V26.8314V27.0004C147.873 27.0343 147.975 27.0681 148.076 27.1019C148.955 27.3723 149.834 27.778 150.679 28.2175C151.829 28.826 152.944 29.5021 153.79 30.3473V-0.0110474ZM133.472 28.9612C130.159 28.9612 126.981 29.3669 124.141 30.0768C124.378 34.2351 129.55 42.0444 133.506 45.966C137.427 42.0444 142.633 34.2351 142.87 30.0768C139.997 29.3331 136.819 28.9612 133.472 28.9612ZM147.197 31.4629C146.116 35.1478 144.358 38.9342 141.924 42.5177C140.368 44.8165 138.644 46.8787 136.853 48.6705L136.65 48.8733C137.427 49.6847 138.34 50.3946 139.388 51.0031C144.899 54.181 151.761 52.6597 154.669 47.5887C157.576 42.5177 155.446 35.8578 149.936 32.6462C149.057 32.1391 148.144 31.7334 147.197 31.4629ZM119.882 31.5305C118.935 31.801 117.988 32.2405 117.076 32.7476C111.531 35.8916 109.435 42.5177 112.343 47.5211C115.284 52.5245 122.147 54.0119 127.691 50.8679C128.739 50.2594 129.652 49.5833 130.429 48.7719L130.226 48.5691C128.401 46.7773 126.711 44.7489 125.155 42.4839C122.721 38.9004 120.963 35.1478 119.882 31.5305ZM133.506 51.7469C133.269 51.9835 133.1 52.2202 132.83 52.4568C126.88 57.7307 118.597 58.1702 112.985 54.0457V58.2378C112.985 58.2716 113.019 58.3054 113.12 58.3392V59.8943H153.722V58.3392C153.79 58.2716 153.857 58.2378 153.857 58.1701C153.857 56.6488 153.891 59.2182 153.891 54.3838L153.654 54.4852C148.076 58.0349 140.132 57.4264 134.351 52.5921C134.114 52.3554 133.742 51.9835 133.506 51.7469ZM113.492 85.6887V99.448H153.384V85.6887H113.492Z" fill="#E21D38"/>
<path d="M113.454 85.6622H153.399V99.4454H113.454V85.6622Z" stroke="#E21D38" stroke-width="12.0281" stroke-miterlimit="14.5868"/>
</g>
<defs>
<clipPath id="clip0_12_2656">
<rect width="155.68" height="100" fill="white" transform="translate(0.324219)"/>
</clipPath>
</defs>
</svg>
