<svg width="133" height="100" viewBox="0 0 133 100" fill="none" xmlns="http://www.w3.org/2000/svg">
<g clip-path="url(#clip0_12_2707)">
<path d="M12.2302 59.0422H14.5124V69.018C14.5124 70.7469 14.3222 72.13 13.9245 73.1501C13.5269 74.1701 12.818 75 11.798 75.6397C10.7779 76.2794 9.42936 76.6079 7.76961 76.6079C6.14444 76.6079 4.83047 76.3313 3.79313 75.778C2.77307 75.2248 2.02964 74.4122 1.59741 73.3576C1.16519 72.3029 0.94043 70.8506 0.94043 69.0353V59.0595H3.22259V69.018C3.22259 70.5222 3.3609 71.6287 3.63753 72.3375C3.91415 73.0464 4.39824 73.5996 5.07252 73.98C5.74679 74.3603 6.57667 74.5505 7.56214 74.5505C9.23918 74.5505 10.4321 74.1701 11.1583 73.4094C11.8671 72.6487 12.2302 71.1791 12.2302 69.018V59.0422ZM18.0566 76.2967V63.7967H19.9584V65.5775C20.8747 64.2116 22.206 63.5201 23.9349 63.5201C24.6956 63.5201 25.3872 63.6584 26.0096 63.9177C26.6493 64.1944 27.1161 64.5401 27.4273 64.9896C27.7385 65.4219 27.9632 65.9578 28.0843 66.563C28.1707 66.9606 28.2053 67.6349 28.2053 68.6204V76.314H26.0787V68.7068C26.0787 67.8423 25.9923 67.2027 25.8367 66.7704C25.6638 66.3382 25.3872 66.0097 24.955 65.7504C24.54 65.491 24.0386 65.37 23.4854 65.37C22.5863 65.37 21.8083 65.6639 21.1514 66.2345C20.4944 66.805 20.1659 67.8942 20.1659 69.5021V76.3313H18.0566V76.2967ZM31.4902 61.48V59.0422H33.6168V61.48H31.4902ZM31.4902 76.2967V63.7967H33.6168V76.2967H31.4902ZM40.3249 76.2967L35.5704 63.7967H37.8007L40.4805 71.2829C40.7745 72.0955 41.0338 72.9253 41.2758 73.8071C41.466 73.1501 41.7254 72.3548 42.0711 71.4212L44.8547 63.7967H47.0331L42.2959 76.2967H40.3249ZM57.4757 72.2683L59.6714 72.545C59.3256 73.8244 58.6859 74.8098 57.7523 75.5187C56.8187 76.2275 55.6258 76.5733 54.1735 76.5733C52.3408 76.5733 50.8886 76.0028 49.8166 74.879C48.7447 73.7552 48.2088 72.1646 48.2088 70.1418C48.2088 68.0325 48.7447 66.4074 49.8339 65.249C50.9231 64.0906 52.3236 63.5028 54.0525 63.5028C55.7295 63.5028 57.0953 64.0733 58.15 65.2144C59.2046 66.3555 59.7406 67.9461 59.7406 70.0208C59.7406 70.1418 59.7406 70.332 59.7233 70.5913H50.4045C50.4909 71.9571 50.8713 73.0118 51.5628 73.7552C52.2544 74.4813 53.1361 74.8444 54.1735 74.8444C54.9515 74.8444 55.6085 74.6369 56.1617 74.2393C56.715 73.8244 57.1472 73.1674 57.4757 72.2683ZM50.5082 68.8451H57.493C57.4065 67.7905 57.1299 67.0125 56.6977 66.4765C56.0234 65.6639 55.1417 65.249 54.0697 65.249C53.1016 65.249 52.2717 65.5775 51.6147 66.2345C50.9577 66.8914 50.5946 67.7559 50.5082 68.8451ZM62.3166 76.2967V63.7967H64.2184V65.6985C64.7025 64.8168 65.152 64.2289 65.567 63.9523C65.9819 63.6757 66.4314 63.5201 66.9328 63.5201C67.6417 63.5201 68.3678 63.7448 69.1112 64.2116L68.3851 66.1826C67.8664 65.8714 67.3478 65.7158 66.8291 65.7158C66.3623 65.7158 65.9473 65.8541 65.5843 66.1307C65.2212 66.4074 64.9446 66.7877 64.789 67.2891C64.5469 68.0498 64.4432 68.8624 64.4432 69.7614V76.314H62.3166V76.2967ZM69.5435 72.5623L71.6354 72.2338C71.7565 73.0809 72.085 73.7206 72.6209 74.1701C73.1569 74.6197 73.9176 74.8444 74.8685 74.8444C75.8367 74.8444 76.5628 74.6542 77.0296 74.2566C77.4964 73.8589 77.7385 73.3921 77.7385 72.8562C77.7385 72.3721 77.531 72.009 77.1161 71.7324C76.8222 71.5422 76.096 71.3002 74.9549 71.0062C73.3989 70.6086 72.327 70.2801 71.7219 69.9862C71.1168 69.6923 70.6673 69.2946 70.3561 68.7932C70.0449 68.2919 69.8892 67.7213 69.8892 67.1162C69.8892 66.563 70.0103 66.0443 70.2696 65.5602C70.5289 65.0934 70.8747 64.6957 71.307 64.3845C71.6354 64.1425 72.085 63.935 72.6555 63.7621C73.226 63.5892 73.8312 63.5028 74.4881 63.5028C75.4736 63.5028 76.3381 63.6411 77.0815 63.935C77.8249 64.2116 78.3782 64.592 78.724 65.0761C79.0697 65.5602 79.3291 66.1999 79.4501 67.0125L77.3754 67.2891C77.289 66.6494 77.0123 66.148 76.5628 65.7849C76.1133 65.4219 75.4736 65.249 74.6437 65.249C73.6756 65.249 72.984 65.4046 72.5518 65.7331C72.1368 66.0616 71.9294 66.4246 71.9294 66.8569C71.9294 67.1335 72.0158 67.3755 72.1887 67.6003C72.3616 67.8251 72.6382 68.0152 73.0013 68.1708C73.2087 68.2573 73.8312 68.4302 74.8685 68.7068C76.3727 69.1044 77.41 69.4329 78.0151 69.6923C78.6029 69.9516 79.0697 70.3147 79.4155 70.7988C79.7613 71.2829 79.9169 71.888 79.9169 72.6141C79.9169 73.323 79.7094 73.98 79.2945 74.6024C78.8796 75.2248 78.2917 75.7089 77.5137 76.0547C76.7357 76.4004 75.854 76.5733 74.8685 76.5733C73.2433 76.5733 71.9985 76.2275 71.1514 75.5533C70.3042 74.879 69.7855 73.8935 69.5435 72.5623ZM82.4584 61.48V59.0422H84.585V61.48H82.4584ZM82.4584 76.2967V63.7967H84.585V76.2967H82.4584ZM92.4515 74.4122L92.7627 76.2794C92.1576 76.4004 91.6389 76.4696 91.1548 76.4696C90.3941 76.4696 89.789 76.3486 89.3567 76.1065C88.9245 75.8645 88.6306 75.536 88.4577 75.1383C88.2848 74.7407 88.1984 73.9108 88.1984 72.6314V65.4392H86.6424V63.7967H88.1984V60.702L90.3076 59.4226V63.7967H92.4342V65.4392H90.3249V72.7524C90.3249 73.3576 90.3595 73.7379 90.4287 73.9108C90.4978 74.0837 90.6188 74.222 90.7917 74.3257C90.9646 74.4295 91.2067 74.4813 91.5179 74.4813C91.7599 74.4813 92.0711 74.4641 92.4515 74.4122ZM94.4224 81.1204L94.1804 79.1321C94.6472 79.2531 95.0448 79.3223 95.3906 79.3223C95.8574 79.3223 96.2378 79.2358 96.5144 79.0802C96.791 78.9246 97.0331 78.6999 97.206 78.4233C97.3443 78.2158 97.5518 77.6798 97.8457 76.85C97.8803 76.7289 97.9494 76.556 98.0359 76.3313L93.3159 63.7967H95.5981L98.2087 71.0408C98.5545 71.9571 98.8484 72.9253 99.1078 73.9454C99.3498 72.9772 99.6437 72.0263 99.9722 71.0927L102.652 63.7967H104.779L100.007 76.5042C99.4881 77.87 99.1078 78.8209 98.8139 79.3396C98.4335 80.0311 98.0013 80.5498 97.5172 80.8783C97.0331 81.2068 96.4453 81.3624 95.771 81.3624C95.3733 81.3797 94.9238 81.2932 94.4224 81.1204ZM112.472 70.0553C112.472 67.7386 113.112 66.027 114.409 64.9032C115.481 63.9696 116.795 63.5201 118.333 63.5201C120.045 63.5201 121.463 64.0906 122.552 65.2144C123.641 66.3382 124.194 67.8942 124.194 69.8825C124.194 71.4903 123.952 72.7524 123.468 73.6861C122.984 74.6024 122.275 75.3285 121.359 75.8299C120.442 76.3486 119.422 76.5906 118.333 76.5906C116.587 76.5906 115.169 76.0374 114.08 74.9136C113.008 73.7725 112.472 72.1646 112.472 70.0553ZM114.651 70.0553C114.651 71.6632 114.996 72.8562 115.705 73.6515C116.414 74.4468 117.279 74.8444 118.351 74.8444C119.405 74.8444 120.27 74.4468 120.978 73.6515C121.67 72.8562 122.033 71.6286 122.033 69.9862C122.033 68.4475 121.687 67.2718 120.978 66.4765C120.27 65.6812 119.405 65.2836 118.351 65.2836C117.296 65.2836 116.414 65.6812 115.705 66.4765C114.996 67.2545 114.651 68.4475 114.651 70.0553ZM127.185 76.2967V65.4392H125.318V63.7967H127.185V62.4654C127.185 61.6183 127.254 60.9959 127.41 60.5982C127.617 60.045 127.981 59.5955 128.482 59.267C129.001 58.9212 129.709 58.7483 130.643 58.7483C131.248 58.7483 131.905 58.8174 132.614 58.9558L132.303 60.8057C131.871 60.7192 131.456 60.6847 131.058 60.6847C130.418 60.6847 129.951 60.823 129.692 61.0996C129.433 61.3762 129.295 61.8949 129.295 62.6383V63.7967H131.732V65.4392H129.295V76.2967H127.185Z" fill="#00519F"/>
<path d="M0.94043 99.7061V82.4343H13.4231V84.4744H3.22259V89.7649H12.7662V91.805H3.22259V97.6833H13.8208V99.7234H0.94043V99.7061ZM24.8858 98.1674C24.1078 98.8417 23.3471 99.3085 22.6209 99.5851C21.8948 99.8617 21.1168 100 20.2869 100C18.9211 100 17.8491 99.6715 17.123 98.9973C16.3796 98.323 16.0165 97.4758 16.0165 96.4212C16.0165 95.8161 16.1548 95.2455 16.4314 94.7441C16.7081 94.2428 17.0711 93.8278 17.5207 93.5339C17.9702 93.2227 18.4888 92.998 19.0421 92.8423C19.457 92.7386 20.0794 92.6349 20.9266 92.5311C22.6382 92.3237 23.9003 92.0816 24.7129 91.805C24.7129 91.5111 24.7302 91.3382 24.7302 91.2518C24.7302 90.3873 24.5227 89.7822 24.1251 89.4191C23.5891 88.935 22.7765 88.693 21.7046 88.693C20.7018 88.693 19.9757 88.8659 19.4916 89.2116C19.0248 89.5574 18.6617 90.1798 18.437 91.0616L16.3623 90.7849C16.5525 89.9032 16.8637 89.1771 17.2959 88.6411C17.7281 88.0879 18.3505 87.6729 19.1631 87.379C19.9757 87.0851 20.9266 86.9295 21.9985 86.9295C23.0704 86.9295 23.9349 87.0505 24.6092 87.3098C25.2834 87.5692 25.7675 87.8804 26.0787 88.2607C26.3899 88.6411 26.6147 89.1252 26.7357 89.6957C26.8049 90.0588 26.8395 90.7158 26.8395 91.6494V94.4675C26.8395 96.4385 26.8913 97.6833 26.9778 98.202C27.0642 98.7206 27.2544 99.222 27.5137 99.7061H25.318C25.0933 99.2739 24.955 98.7552 24.8858 98.1674ZM24.7129 93.4302C23.9522 93.7414 22.7938 94.018 21.2551 94.2255C20.3906 94.3465 19.7682 94.4848 19.4052 94.6577C19.0421 94.8133 18.7655 95.0381 18.5753 95.3493C18.3851 95.6432 18.2814 95.989 18.2814 96.352C18.2814 96.9226 18.4888 97.3894 18.9211 97.7697C19.3533 98.1501 19.9757 98.3403 20.8056 98.3403C21.6182 98.3403 22.3443 98.1674 22.984 97.8043C23.6237 97.4412 24.0905 96.9572 24.3844 96.3347C24.6092 95.8507 24.7302 95.1418 24.7302 94.2082V93.4302H24.7129ZM29.3118 95.9717L31.4038 95.6432C31.5248 96.4903 31.8533 97.13 32.3893 97.5796C32.9252 98.0291 33.6859 98.2538 34.6368 98.2538C35.605 98.2538 36.3312 98.0637 36.798 97.666C37.2648 97.2684 37.5068 96.8015 37.5068 96.2656C37.5068 95.7815 37.2993 95.4184 36.8844 95.1418C36.5905 94.9516 35.8644 94.7096 34.7233 94.4157C33.1673 94.018 32.0953 93.6895 31.4902 93.3956C30.8851 93.1017 30.4356 92.704 30.1244 92.2027C29.8132 91.7013 29.6576 91.1307 29.6576 90.5256C29.6576 89.9724 29.7786 89.4537 30.0379 88.9696C30.2973 88.5028 30.6431 88.1051 31.0753 87.7939C31.4038 87.5519 31.8533 87.3444 32.4238 87.1715C32.9944 86.9986 33.5995 86.9122 34.2565 86.9122C35.2419 86.9122 36.1064 87.0505 36.8498 87.3444C37.5933 87.6211 38.1465 88.0014 38.4923 88.4855C38.8381 88.9696 39.0974 89.6093 39.2184 90.4219L37.1437 90.6985C37.0573 90.0588 36.7807 89.5574 36.3312 89.1944C35.8816 88.8313 35.242 88.6584 34.4121 88.6584C33.4439 88.6584 32.7523 88.814 32.3201 89.1425C31.9052 89.471 31.6977 89.834 31.6977 90.2663C31.6977 90.5429 31.7841 90.785 31.957 91.0097C32.1299 91.2345 32.4065 91.4246 32.7696 91.5802C32.9771 91.6667 33.5995 91.8396 34.6368 92.1162C36.141 92.5139 37.1783 92.8423 37.7834 93.1017C38.3713 93.361 38.8381 93.7241 39.1839 94.2082C39.5296 94.6923 39.6852 95.2974 39.6852 96.0235C39.6852 96.7324 39.4778 97.3894 39.0628 98.0118C38.6479 98.6342 38.0601 99.1183 37.2821 99.4641C36.5041 99.8098 35.6223 99.9827 34.6368 99.9827C33.0117 99.9827 31.7668 99.637 30.9197 98.9627C30.0898 98.3057 29.5366 97.3029 29.3118 95.9717ZM46.8429 97.8216L47.1541 99.6888C46.549 99.8098 46.0303 99.879 45.5462 99.879C44.7855 99.879 44.1804 99.758 43.7482 99.5159C43.3159 99.2739 43.022 98.9454 42.8491 98.5477C42.6762 98.1501 42.5898 97.3202 42.5898 96.0408V88.8486H41.0338V87.2061H42.5898V84.1114L44.6991 82.832V87.2061H46.8256V88.8486H44.6991V96.1619C44.6991 96.767 44.7336 97.1473 44.8028 97.3202C44.872 97.4931 44.993 97.6314 45.1659 97.7352C45.3388 97.8389 45.5808 97.8908 45.892 97.8908C46.1514 97.9081 46.4626 97.8735 46.8429 97.8216ZM55.7641 99.7061V82.4343H58.0462V97.6833H66.5525V99.7234H55.7641V99.7061ZM68.2295 93.4648C68.2295 91.148 68.8692 89.4364 70.1659 88.3126C71.2378 87.379 72.5518 86.9295 74.0905 86.9295C75.8021 86.9295 77.2198 87.5 78.309 88.6238C79.3982 89.7476 79.9515 91.3036 79.9515 93.2919C79.9515 94.8997 79.7094 96.1618 79.2253 97.0955C78.7413 98.0118 78.0324 98.7379 77.1161 99.2393C76.1998 99.758 75.1797 100 74.0905 100C72.3443 100 70.9266 99.4468 69.8374 98.323C68.7655 97.1819 68.2295 95.574 68.2295 93.4648ZM70.4079 93.4648C70.4079 95.0726 70.7537 96.2656 71.4626 97.0609C72.1541 97.8562 73.0359 98.2538 74.1078 98.2538C75.1624 98.2538 76.0269 97.8562 76.7357 97.0609C77.4273 96.2656 77.7904 95.0381 77.7904 93.3956C77.7904 91.8569 77.4446 90.6812 76.7357 89.8859C76.0269 89.0906 75.1624 88.693 74.1078 88.693C73.0532 88.693 72.1714 89.0906 71.4626 89.8859C70.7537 90.6639 70.4079 91.8569 70.4079 93.4648ZM82.4411 99.7061V87.2061H84.3429V88.9869C85.2592 87.6211 86.5905 86.9295 88.3194 86.9295C89.0801 86.9295 89.7717 87.0678 90.3941 87.3271C91.0338 87.6038 91.5006 87.9495 91.8118 88.3991C92.123 88.8313 92.3478 89.3673 92.4688 89.9724C92.5552 90.37 92.5898 91.0443 92.5898 92.0298V99.7234H90.4632V92.1162C90.4632 91.2518 90.3768 90.6121 90.2212 90.1798C90.0483 89.7476 89.7717 89.4191 89.3395 89.1598C88.9245 88.9004 88.4231 88.7794 87.8699 88.7794C86.9709 88.7794 86.1928 89.0733 85.5359 89.6439C84.8789 90.2144 84.5504 91.3036 84.5504 92.9115V99.7407H82.4411V99.7061ZM103.983 99.7061V98.1328C103.188 99.3776 102.03 100 100.491 100C99.4881 100 98.5718 99.7234 97.7419 99.1701C96.9121 98.6169 96.2551 97.8562 95.8056 96.8707C95.3561 95.8852 95.114 94.7614 95.114 93.4648C95.114 92.2199 95.3215 91.0789 95.7364 90.0761C96.1513 89.056 96.7738 88.278 97.6036 87.7421C98.4335 87.2061 99.3671 86.9295 100.387 86.9295C101.148 86.9295 101.805 87.0851 102.393 87.4136C102.981 87.7248 103.465 88.1397 103.828 88.6584V82.4689H105.937V99.7407H103.983V99.7061ZM97.2751 93.4648C97.2751 95.0726 97.6209 96.2656 98.2952 97.0609C98.9695 97.8562 99.7648 98.2538 100.681 98.2538C101.615 98.2538 102.393 97.8735 103.05 97.1128C103.689 96.352 104.018 95.1937 104.018 93.6376C104.018 91.926 103.689 90.6639 103.032 89.8686C102.375 89.0733 101.563 88.6757 100.595 88.6757C99.661 88.6757 98.8657 89.056 98.226 89.834C97.5863 90.5948 97.2751 91.8223 97.2751 93.4648ZM108.496 93.4648C108.496 91.148 109.135 89.4364 110.432 88.3126C111.504 87.379 112.818 86.9295 114.357 86.9295C116.068 86.9295 117.486 87.5 118.575 88.6238C119.664 89.7476 120.218 91.3036 120.218 93.2919C120.218 94.8997 119.976 96.1618 119.492 97.0955C119.008 98.0118 118.299 98.7379 117.382 99.2393C116.466 99.758 115.446 100 114.357 100C112.611 100 111.193 99.4468 110.104 98.323C109.032 97.1819 108.496 95.574 108.496 93.4648ZM110.674 93.4648C110.674 95.0726 111.02 96.2656 111.729 97.0609C112.42 97.8562 113.302 98.2538 114.374 98.2538C115.429 98.2538 116.293 97.8562 117.002 97.0609C117.694 96.2656 118.057 95.0381 118.057 93.3956C118.057 91.8569 117.711 90.6812 117.002 89.8859C116.293 89.0906 115.429 88.693 114.374 88.693C113.319 88.693 112.438 89.0906 111.729 89.8859C111.02 90.6639 110.674 91.8569 110.674 93.4648ZM122.707 99.7061V87.2061H124.609V88.9869C125.525 87.6211 126.857 86.9295 128.586 86.9295C129.346 86.9295 130.038 87.0678 130.66 87.3271C131.3 87.6038 131.767 87.9495 132.078 88.3991C132.389 88.8313 132.614 89.3673 132.735 89.9724C132.821 90.37 132.856 91.0443 132.856 92.0298V99.7234H130.729V92.1162C130.729 91.2518 130.643 90.6121 130.487 90.1798C130.315 89.7476 130.038 89.4191 129.606 89.1598C129.191 88.9004 128.689 88.7794 128.136 88.7794C127.237 88.7794 126.459 89.0733 125.802 89.6439C125.145 90.2144 124.817 91.3036 124.817 92.9115V99.7407H122.707V99.7061Z" fill="#00519F"/>
<path d="M1.3208 0V28.89C1.3208 34.9412 1.68387 39.5401 2.4273 42.6349C2.94597 44.7268 4.0179 46.7324 5.64307 48.6342C7.26824 50.536 9.48124 52.092 12.2821 53.2849C15.0829 54.4779 19.1804 55.083 24.6092 55.083C29.1043 55.083 32.735 54.5297 35.5186 53.4405C38.3021 52.3513 40.5324 50.8645 42.1922 49.0145C43.8519 47.1646 44.993 44.8997 45.6154 42.2026C46.2378 39.5228 46.549 34.9412 46.549 28.4405V0H37.2994V29.962C37.2994 34.2497 37.1438 37.3271 36.8153 39.177C36.4868 41.027 35.4667 42.5657 33.8243 43.8278C32.1818 45.0899 27.531 45.7469 24.2807 45.7469C21.0822 45.7469 16.7772 45.0726 14.9446 43.7241C13.0947 42.3755 11.9363 40.5947 11.4522 38.3817C11.1756 36.9986 11.02 33.973 11.02 29.3223V0H1.3208ZM94.1977 0.449516V54.1667H132.337V45.0553H103.88V0.449516H94.1977Z" fill="#00519F"/>
<path d="M50.0415 54.1667V0H92.0885V9.16321H59.7061V21.1791H89.9447V30.3077H59.7061V45.0553H92.0712V54.184H50.0415V54.1667Z" fill="#0097DB"/>
</g>
<defs>
<clipPath id="clip0_12_2707">
<rect width="131.933" height="100" fill="white" transform="translate(0.94043)"/>
</clipPath>
</defs>
</svg>
