<svg width="114" height="100" viewBox="0 0 114 100" fill="none" xmlns="http://www.w3.org/2000/svg">
<g clip-path="url(#clip0_12_2696)">
<path d="M8.27814 75.8865C8.27814 77.1868 8.27814 78.7234 6.62329 79.669C5.67767 80.26 4.49563 80.26 4.14102 80.26C3.4318 80.26 1.77696 80.1418 0.949533 79.078C0.00390625 78.0142 0.00390625 76.9504 0.00390625 76.0047V68.2033H2.24977V75.8865C2.24977 76.5957 2.36797 77.4232 2.72258 77.7778C3.07719 78.1324 3.78641 78.3688 4.37743 78.3688C5.08665 78.3688 5.79587 78.1324 6.15048 77.6596C6.50509 77.1868 6.50509 76.3593 6.50509 75.8865V68.2033H8.27814V75.8865ZM21.8715 80.1418H19.8621L15.2521 72.5768C15.1339 72.3404 14.6611 71.513 14.5429 71.2766V80.26H12.7699V68.2033H15.1339L19.271 75.1773C19.271 75.2955 19.6257 75.7683 19.9803 76.5957V68.2033H21.7533V80.1418H21.8715Z" fill="#003B49"/>
<path d="M27.1904 68.2033H29.3181V80.1418H27.1904V68.2033ZM37.0013 80.1418L33.337 68.2033H35.7011L38.4197 77.4232L41.1384 68.2033H42.9115L39.2472 80.1418H37.0013ZM46.9304 80.1418V68.2033H54.6136V69.9764H49.058V73.286H53.5498V74.9409H49.058V78.3688H54.7318V80.1418H46.9304Z" fill="#003B49"/>
<path d="M66.1977 80.1418L64.3064 75.2955H61.2331V80.1418H59.1055V68.2033H64.3064C65.8431 68.2033 66.6705 68.4397 67.3797 69.1489C67.9707 69.7399 68.4435 70.4492 68.4435 71.7494C68.4435 73.9953 66.9069 74.5863 66.3159 74.9409L68.4435 80.1418H66.1977ZM61.3513 73.5224H64.07C65.1338 73.5224 66.3159 73.1678 66.3159 71.6312C66.3159 70.6856 65.7249 69.8581 64.1882 69.8581H61.3513V73.5224ZM73.7627 76.8321C73.8809 77.3049 74.1173 78.0142 75.1811 78.3688C75.7721 78.6052 76.245 78.6052 76.7178 78.6052C78.7272 78.6052 79.0818 77.5413 79.0818 77.0685C79.0818 75.8865 78.1362 75.6501 77.6634 75.5319L74.9447 74.8227C73.1717 74.3499 72.3442 73.1678 72.3442 71.6312C72.3442 69.3853 74.1173 68.0851 76.5996 68.0851C77.7816 68.0851 78.9636 68.4397 79.9093 69.1489C80.6185 69.7399 80.8549 70.3309 80.8549 70.6856L78.8454 71.1584C78.7272 70.8038 78.3726 69.8581 76.5996 69.8581C74.9447 69.8581 74.5901 70.6856 74.5901 71.3948C74.5901 72.3404 75.6539 72.695 76.2449 72.8132L78.2544 73.286C79.3182 73.5224 81.3277 74.1135 81.3277 76.7139C81.3277 79.078 79.3182 80.4964 76.5996 80.4964C75.1811 80.4964 73.8809 80.1418 72.9353 79.3144C72.1078 78.7234 71.8714 77.896 71.7532 77.4231C71.7532 77.4231 73.7627 76.8321 73.7627 76.8321Z" fill="#003B49"/>
<path d="M85.7011 68.2033H87.8288V80.1418H85.7011V68.2033ZM95.0392 80.1418V70.0946H91.8477V68.2033H100.477V70.0946H97.4033V80.1418H95.0392ZM107.451 80.1418V75.1773L103.432 68.2033H106.032L108.869 73.1678L111.588 68.2033H113.597L109.815 75.1773V80.1418H107.451ZM9.9328 99.8818C6.15029 99.8818 4.96826 96.4539 4.96826 93.7352C4.96826 90.5437 6.74131 87.5886 10.051 87.5886C13.3607 87.5886 15.0155 90.5437 15.0155 93.7352C15.0155 97.2813 13.1243 99.8818 9.9328 99.8818ZM12.1787 90.5437C11.5876 89.3617 10.5238 89.2435 10.051 89.2435C7.80514 89.2435 7.33233 91.4894 7.33233 93.617C7.33233 95.0355 7.56873 97.9905 10.051 97.9905C11.1148 97.9905 11.9423 97.2813 12.2969 96.5721C12.5333 95.9811 12.8879 95.2719 12.8879 93.4988C12.7697 93.1442 12.7697 91.7258 12.1787 90.5437ZM18.6798 99.6454V87.7068H26.1267V89.5981H20.8075V92.7896H25.0628V94.6808H20.8075V99.6454H18.6798Z" fill="#003B49"/>
<path d="M36.0558 96.3357C36.174 96.8085 36.4105 97.5177 37.4743 97.8723C38.0653 98.1087 38.5381 98.1087 39.0109 98.1087C41.0204 98.1087 41.375 97.0449 41.375 96.5721C41.375 95.39 40.4294 95.1536 39.9566 95.0354L37.2379 94.3262C35.4648 93.8534 34.6374 92.6714 34.6374 91.1347C34.6374 88.8889 36.4105 87.5886 38.8927 87.5886C40.0748 87.5886 41.2568 87.9432 42.2024 88.6525C42.9116 89.2435 43.148 89.8345 43.148 90.1891L41.1386 90.6619C41.0204 90.3073 40.6658 89.3617 38.8927 89.3617C37.2379 89.3617 36.8833 90.1891 36.8833 90.8983C36.8833 91.8439 37.9471 92.1986 38.5381 92.3168L40.5476 92.7896C41.6114 93.026 43.6209 93.617 43.6209 96.2175C43.6209 98.5815 41.6114 100 38.8927 100C37.4743 100 36.174 99.6454 35.2284 98.8179C34.401 98.2269 34.1646 97.3995 34.0464 96.9267L36.0558 96.3357ZM55.7958 95.39C55.7958 96.6903 55.7958 98.2269 54.1409 99.1726C53.1953 99.7636 52.0133 99.7636 51.6587 99.7636C50.9495 99.7636 49.2946 99.6454 48.4672 98.5815C47.5216 97.5177 47.5216 96.4539 47.5216 95.5082V87.7068H49.7674V95.39C49.7674 96.0993 49.8856 96.9267 50.2402 97.2813C50.5949 97.6359 51.3041 97.8723 51.8951 97.8723C52.6043 97.8723 53.3135 97.6359 53.6681 97.1631C54.0227 96.6903 54.0227 95.8629 54.0227 95.39V87.7068H55.7958V95.39ZM60.8785 96.3357C60.9967 96.8085 61.2331 97.5177 62.297 97.8723C62.888 98.1087 63.3608 98.1087 63.8336 98.1087C65.8431 98.1087 66.1977 97.0449 66.1977 96.5721C66.1977 95.39 65.2521 95.1536 64.7792 95.0354L61.9424 94.3262C60.1693 93.8534 59.3419 92.6714 59.3419 91.1347C59.3419 88.8889 61.1149 87.5886 63.5972 87.5886C64.7792 87.5886 65.9613 87.9432 66.9069 88.6525C67.6161 89.2435 67.8525 89.8345 67.8525 90.1891L65.8431 90.6619C65.7249 90.3073 65.3703 89.3617 63.5972 89.3617C61.9424 89.3617 61.5878 90.1891 61.5878 90.8983C61.5878 91.8439 62.6516 92.1986 63.2426 92.3168L65.2521 92.7896C66.3159 93.026 68.3253 93.617 68.3253 96.2175C68.3253 98.5815 66.3159 100 63.5972 100C62.1788 100 60.8785 99.6454 59.9329 98.8179C59.1055 98.2269 58.8691 97.3995 58.7509 96.9267L60.8785 96.3357ZM73.0535 96.3357C73.1717 96.8085 73.4081 97.5177 74.4719 97.8723C75.0629 98.1087 75.5358 98.1087 76.0086 98.1087C78.018 98.1087 78.3726 97.0449 78.3726 96.5721C78.3726 95.39 77.427 95.1536 76.9542 95.0354L74.2355 94.3262C72.4625 93.8534 71.635 92.6714 71.635 91.1347C71.635 88.8889 73.4081 87.5886 75.8904 87.5886C77.0724 87.5886 78.2544 87.9432 79.2001 88.6525C79.9093 89.2435 80.1457 89.8345 80.1457 90.1891L78.1362 90.6619C78.018 90.3073 77.6634 89.3617 75.8904 89.3617C74.2355 89.3617 73.8809 90.1891 73.8809 90.8983C73.8809 91.8439 74.9447 92.1986 75.5357 92.3168L77.5452 92.7896C78.609 93.026 80.6185 93.617 80.6185 96.2175C80.6185 98.5815 78.609 100 75.8904 100C74.4719 100 73.1717 99.6454 72.2261 98.8179C71.3986 98.2269 71.1622 97.3995 71.044 96.9267L73.0535 96.3357Z" fill="#003B49"/>
<path d="M84.4012 99.6454V87.7068H92.0845V89.4799H86.5289V92.7896H91.0206V94.4444H86.5289V97.7541H92.2027V99.6454H84.4012ZM102.959 99.6454L100.24 94.9173L97.5218 99.6454H95.5124L99.2949 93.3806L95.9852 87.7068H98.4674L100.713 91.7258L103.077 87.7068H105.087L101.777 93.1442L105.441 99.6454H102.959ZM15.2523 32.3877C15.2523 45.0355 20.8079 52.1277 32.9828 52.1277C41.7298 52.1277 48.5856 47.0449 51.7771 39.1253C51.7771 39.0071 51.8953 39.0071 51.8953 39.0071V39.1253C56.0324 47.1631 64.6613 52.1277 76.5998 52.1277C89.2476 52.1277 99.2949 45.6265 99.2949 35.9338C99.2949 28.9598 94.9213 24.7045 86.0561 20.6856C84.7558 20.0946 82.0372 18.7943 80.8551 18.2033C76.2452 15.9574 73.5265 13.948 73.5265 9.81087C73.5265 5.43735 77.4272 2.48227 82.6282 2.48227C90.7842 2.48227 93.9757 8.51064 96.2216 15.13H98.231L97.1672 0.70922H95.6306L95.3941 0.945626C94.3303 2.24586 93.0301 2.24586 90.9024 1.53664C88.4202 0.70922 85.5833 0 82.3918 0C72.5809 0 65.2523 6.14657 65.2523 13.948C65.2523 20.5674 69.153 24.8227 76.8362 28.2506C77.9001 28.7234 80.5005 30.0236 81.919 30.6147C86.4107 32.7423 90.075 34.87 90.075 39.7163C90.075 45.9811 83.692 49.409 76.718 49.409C65.6069 49.409 59.3421 42.1986 59.3421 29.9054V1.41844H39.9568V3.4279H40.5478C47.9946 4.13712 48.9402 5.43735 48.9402 13.1206V29.7872C48.9402 41.6076 44.0939 48.5816 36.0561 48.5816C28.7275 48.5816 26.0088 42.9078 26.0088 33.0969V1.41844H6.85986V3.4279H7.33268C14.3067 4.13712 15.3705 4.96454 15.3705 12.8842L15.2523 32.3877Z" fill="#003B49"/>
</g>
<defs>
<clipPath id="clip0_12_2696">
<rect width="113.593" height="100" fill="white" transform="translate(0.00390625)"/>
</clipPath>
</defs>
</svg>
