<svg xmlns="http://www.w3.org/2000/svg" viewBox="0 0 375.81 246.06"><defs><style>.cls-1{fill:#b2ddf4;opacity:0.5;}.cls-2,.cls-3{fill:#ccdbe4;}.cls-3,.cls-4,.cls-6{fill-rule:evenodd;}.cls-12,.cls-15,.cls-17,.cls-4,.cls-5,.cls-8,.cls-9{fill:none;stroke-miterlimit:10;}.cls-4,.cls-5{stroke:#fdf3ee;stroke-width:1.05px;}.cls-6{fill:#72d0db;}.cls-7{fill:#1199e1;}.cls-8,.cls-9{stroke:#000;}.cls-8{stroke-width:2.06px;}.cls-9{stroke-width:1.91px;}.cls-10{fill:#243762;}.cls-11{fill:#db740e;}.cls-12,.cls-17{stroke:#4c2839;stroke-linecap:round;}.cls-12{stroke-width:1.3px;}.cls-13{fill:#1a1a1a;}.cls-14{fill:#feb273;}.cls-15{stroke:#ef9c81;stroke-width:0.95px;}.cls-16{fill:#4e293a;}.cls-17{stroke-width:1.55px;}.cls-18{fill:#a32938;}</style></defs><g id="Calque_2" data-name="Calque 2"><g id="DESIGNED_BY_FREEPIK" data-name="DESIGNED BY FREEPIK"><path class="cls-1" d="M340.49,181.32a153.38,153.38,0,1,0-304,29H337.74A154.39,154.39,0,0,0,340.49,181.32Z"/><circle class="cls-1" cx="43.46" cy="28.81" r="28.81" transform="translate(-8.01 20.45) rotate(-24.31)"/><circle class="cls-1" cx="356.99" cy="78.42" r="18.82" transform="translate(12.43 200.36) rotate(-31.88)"/><path class="cls-2" d="M223.87,164.9c2.55-11.71,6.06-22.83,12.64-34.56s16.26-24,30.89-38.93c0,0-.46,3-1.66,8a131,131,0,0,1-6.48,19.71C252.88,134.64,241.41,153.33,223.87,164.9Z"/><path class="cls-2" d="M218.82,172.19c5-9.17,2.9-21.45-1-32.35s-9.51-20.57-11.07-25.33a101.06,101.06,0,0,0-4.45,23.88C201.73,151.09,204.12,165.66,218.82,172.19Z"/><path class="cls-2" d="M217.8,174.19c10.14-9.39,22.81-13.82,35.11-16.41S277,154.44,284.64,153a78.26,78.26,0,0,1-6.19,6.11,98.9,98.9,0,0,1-16.11,11.91C249.18,178.82,232,183.6,217.8,174.19Z"/><path class="cls-2" d="M202.54,194.21c8.43-10.88,4.61-25.32-1.4-36.54A97.5,97.5,0,0,0,187,138a64,64,0,0,0-1.2,6.61,86.28,86.28,0,0,0-.88,15.64C185.4,172.32,188.75,186.55,202.54,194.21Z"/><path class="cls-2" d="M203.1,193.49c9.58-6.91,22.75-10.51,36.17-10.94s27.19,2.52,37.45,9.67a80.19,80.19,0,0,1-16.46,7.25c-9.6,3-21.95,4.74-32.48.34s-16.68-6.05-20.2-6.5S203.1,193.49,203.1,193.49Z"/><path class="cls-2" d="M191.12,204.43c0,.34.08.67.1,1l.51.07.91,0c2.48-6.43,1.28-14.89-3.18-22.44a41.16,41.16,0,0,0-29.56-19.46,56.13,56.13,0,0,0,3.9,11.71c2.94,6.38,7.84,13.9,16.12,17.9C188,197.08,190.56,201.2,191.12,204.43Z"/><path class="cls-2" d="M104.63,168.06a101.73,101.73,0,0,1-21.52-22c-6.55-9.22-12.49-21-18.71-37.5,0,0,2.11,1.43,5.43,4.13a111.84,111.84,0,0,1,12.51,12C91.73,135.08,101.84,150.51,104.63,168.06Z"/><path class="cls-2" d="M108.37,174.52c-5.15-7.11-15-9.84-24.38-10.73s-18.44,0-22.49-.51a84,84,0,0,0,16.28,11.89C87,180.12,98.65,183.47,108.37,174.52Z"/><path class="cls-2" d="M109.52,176c-3.62-11.1-2.72-22.39-.57-32.74s5.49-19.63,7-26a66.3,66.3,0,0,1,2.49,6.91,86.46,86.46,0,0,1,3.52,16.58C123.36,153.6,121.22,168.45,109.52,176Z"/><path class="cls-2" d="M119.35,194.81c-5.3-10.32-17.29-12.52-27.62-11.9a76,76,0,0,0-19.31,3.89,55.66,55.66,0,0,0,4.51,3.27,71.08,71.08,0,0,0,11.35,6.22C97.4,200.18,109.09,202.66,119.35,194.81Z"/><path class="cls-2" d="M119,194.13c-2-9.8-.28-21.17,3.85-31.61s10.88-19.94,19.58-25.27a69.57,69.57,0,0,1-.06,15.19c-.91,8.44-3.74,18.5-10.5,25s-10,10.63-11.52,13.17S119,194.13,119,194.13Z"/><path class="cls-2" d="M125.91,207.85c-3.1-6.4-1.23-15.42,4.11-22.95s14.31-13.53,25.8-12.79a41.73,41.73,0,0,1-4.18,10.22c-3,5.35-7.94,11-15.12,13-7,1.95-9.57,5.11-10.48,7.72A7.77,7.77,0,0,0,125.91,207.85Z"/><path class="cls-3" d="M116,210.52a4.63,4.63,0,0,1,1.1.06c2.07.34,4.28-.05,6.41-.15l0,0c2.08-2.53-2.51-1.1,4.61-9.76,3.6-4.38.88-19.31-11.71-32.15,5.13,10.14,2.94,24,1.8,20.26s-1.08-20.6-7.54-25.35A76.43,76.43,0,0,0,87,151.51c9.58,11.53,11.9,22.1,8.56,22.14-1.44,0-7.66-22.39-18-24.27A109.29,109.29,0,0,0,48,148.55c.95,9.12,1.52,17.66,5,24.27,8.16,15.66,33.16,14,35,18.37,1.41,3.32-21.51.38-31.42-8,4.54,10.66,13,20.3,19.09,24.61s21.42-3.32,25.47-3.38c3.89-.06,2.68,3.56-7.8,6,.69,0-.68.09,0,0,1.18-.25,1.22.16,2.4-.09a5.39,5.39,0,0,1,3.13.07,55.29,55.29,0,0,1,5.9,0,21.8,21.8,0,0,1,2.8,0C110.4,209.93,113.07,210.29,116,210.52Z"/><path class="cls-4" d="M60,160s24.71,14.15,58.83,50"/><line class="cls-5" x1="80.67" y1="164.8" x2="85.5" y2="178.72"/><path class="cls-3" d="M319.94,178.06c3.63-6.89,4.27-15.81,5.31-25.34a114.58,114.58,0,0,0-30.85.72c-10.82,1.91-17.43,25.28-18.94,25.26-3.48-.06-1-11.09,9.06-23.08a80,80,0,0,0-24.86,12.28c-6.77,4.93-6.77,22.38-8,26.45s-3.43-10.59,2-21.16c-13.22,13.36-16.14,28.93-12.4,33.53,7.39,9.08,13.32-.92,15.48,1.73.61.76.83,1,0,2a9,9,0,0,1,2.38,0c1.18,0,2.69-.47,3.66-.14.64,0,1.05-.11,1.69-.14a11.81,11.81,0,0,1,1.19,0c4.74-.21,8.76.14,13.51.18l2.4,0a140.48,140.48,0,0,1,19.57-.22,69.15,69.15,0,0,0,15-21.37c-10.39,8.72-34.36,11.67-32.87,8.2C285.23,192.53,311.34,194.38,319.94,178.06Z"/><path class="cls-4" d="M312.67,164.66s-19,8.26-54.87,45.56"/><line class="cls-5" x1="291.02" y1="169.53" x2="286.24" y2="183.09"/><path class="cls-6" d="M166.33,210.13a49.33,49.33,0,0,0,1.73-11.5,31.86,31.86,0,0,1-8.26,12C162,210.53,164.16,210.2,166.33,210.13Z"/><path class="cls-6" d="M127.1,210.42c1,0,1.93,0,2.88,0-1.29-1-2.81-2.27-4.6-3.84.32,1.36.61,2.65.89,3.89C126.55,210.42,126.83,210.41,127.1,210.42Z"/><path class="cls-7" d="M138.93,209.36a4.43,4.43,0,0,1,2.25.4,49.93,49.93,0,0,1,5.86-.33c.88-.07,1.76-.1,2.64-.1,1.45-.17,2.9-.39,4.38-.51,1.75-.14,3.5-.07,5.25-.08-7.65-22-29.48-74.58-69.22-95.88,0,0-9.42,36.5,40.92,97.24,2.07-.13,4.11-.37,6.17-.58C137.76,209.46,138.34,209.4,138.93,209.36Z"/><line class="cls-5" x1="97.56" y1="129.43" x2="144.93" y2="209.11"/><line class="cls-5" x1="120.24" y1="167.59" x2="121.96" y2="149.53"/><line class="cls-5" x1="124.69" y1="189.36" x2="135.52" y2="193.29"/><path class="cls-7" d="M207.41,206.56c2.94.45,6.05.86,9,1.37a27.59,27.59,0,0,1,3.18.48c1.06-.08,1.8.58,2.73.69l.47.08C278.25,148.8,270,110.79,270,110.79c-56.54,30.24-60.17,64-71.06,94.35,2.08.39,4.16.81,6.26,1.14C205.92,206.39,206.91,206.23,207.41,206.56Z"/><line class="cls-5" x1="261.9" y1="127.06" x2="210.08" y2="206.96"/><line class="cls-5" x1="237.75" y1="164.3" x2="236.75" y2="146.64"/><line class="cls-5" x1="232.45" y1="185.88" x2="221.47" y2="189.39"/><path class="cls-8" d="M61,210.58s-29.72-20.49-26.08-61.74"/><circle class="cls-2" cx="35.36" cy="146.32" r="5.58"/><path class="cls-2" d="M39.23,138.52a3.2,3.2,0,1,1-3.42-3A3.2,3.2,0,0,1,39.23,138.52Z"/><path class="cls-8" d="M60.28,209.84s-30.92,3.21-43.92-27"/><path class="cls-2" d="M19.46,178.55a4.43,4.43,0,1,1-6.11-1.36A4.41,4.41,0,0,1,19.46,178.55Z"/><circle class="cls-2" cx="13.36" cy="175.38" r="2.54" transform="translate(-160.73 150.24) rotate(-77.43)"/><path class="cls-8" d="M310.92,210.58s29.71-20.49,26.08-61.74"/><path class="cls-2" d="M331,145.92a5.58,5.58,0,1,0,6-5.17A5.57,5.57,0,0,0,331,145.92Z"/><path class="cls-2" d="M332.68,138.52a3.2,3.2,0,1,0,3.43-3A3.21,3.21,0,0,0,332.68,138.52Z"/><path class="cls-8" d="M311.63,209.84s30.93,3.21,43.92-27"/><path class="cls-2" d="M352.45,178.55a4.43,4.43,0,1,0,6.11-1.36A4.43,4.43,0,0,0,352.45,178.55Z"/><circle class="cls-2" cx="358.56" cy="175.38" r="2.54" transform="translate(-29.43 81.64) rotate(-12.48)"/><line class="cls-9" y1="210.58" x2="373.61" y2="210.58"/><polygon class="cls-9" points="85.52 221.01 31.3 245.11 339.76 245.11 287.04 221.01 85.52 221.01"/><polygon class="cls-10" points="166.56 173.39 155.92 190.7 176.34 214.96 196.94 214.96 216.15 190.29 204.26 173.39 166.56 173.39"/><path class="cls-10" d="M155.92,190.7s-45.82,3.54-57.31,15.54-4.87,19.95,5.11,25c14,7.15,55.51,5.62,81.77-3.07l4.29-25Z"/><path class="cls-10" d="M215,190.1s48,4.14,59.46,16.14,4.87,19.95-5.1,25c-14,7.15-64.66,6-90.92-2.72l4.85-25.37Z"/><path class="cls-11" d="M225.72,210.58l-10.32-1.23-1.57-4.07,4-1.79s-.56-5.75,4.38-6.71,10.84,3,16.58.46c5.3-2.37,11.78-4.55,17.83-1.27a2.13,2.13,0,0,1,1,2.52l0,.07a2.13,2.13,0,0,1-2.28,1.47,15.71,15.71,0,0,0-9.69,2.11c-3.81,2.31-13,5.88-19.95,8.44Z"/><line class="cls-12" x1="192.98" y1="207.85" x2="213.23" y2="205.85"/><path class="cls-12" d="M181.37,229.47c-16.14-3.73-33-13.29-33-13.29l1-1.71"/><path class="cls-12" d="M155.35,207.58s74.71-2.31,93.87,9.77"/><path class="cls-12" d="M119,212.38s13.54-6.34,22.78-2.19"/><path class="cls-11" d="M150.41,214.94l4.94-7.53-4.94-2.67s1-5.69-3.85-7-11,2.17-16.57-.84c-5.09-2.78-11.38-5.46-17.67-2.66a2.15,2.15,0,0,0-1.2,2.43l0,.08a2.16,2.16,0,0,0,2.16,1.65,15.64,15.64,0,0,1,9.5,2.85C129,205.65,150.41,214.94,150.41,214.94Z"/><line class="cls-12" x1="167.21" y1="199.06" x2="178.51" y2="207.25"/><path class="cls-13" d="M215.53,97.59C207.88,85.25,206.6,65,206.6,65L187.81,57.2v-.64l-1.14.32-1.13-.32v.64l-18.65,7.57s-2,21.1-9.67,33.44-2.13,27.42,29.45,25.18C218.26,125.63,223.08,109.78,215.53,97.59Z"/><path class="cls-14" d="M197.16,107l18.19,5.83c3.4,1.24,4.27,5,3.38,8.53l-14.47,52h-37.7l-13.07-53.15c-.54-2.44.65-6,3-6.93l19.67-7.23Z"/><path class="cls-11" d="M210.58,134l19,42.51a8.79,8.79,0,0,0,10.12,5.6h0a8.78,8.78,0,0,0,6.42-11.49c-3.74-10.61-15-32.06-18.85-42.67a8.87,8.87,0,0,0-12.73-4.69h0A8.88,8.88,0,0,0,210.58,134Z"/><path class="cls-14" d="M216,113.31s6.22.57,13.93,20.92l-18.05,9.37L206,126.14Z"/><line class="cls-12" x1="213.13" y1="142.57" x2="215.68" y2="131.02"/><path class="cls-11" d="M234.16,162.16c-.52-.17-.23.94-45.79-18.36l-2,2.62c-.09,2.71.53,5.31,2.21,6.41l45,28.38Z"/><path class="cls-11" d="M186.42,146.42l-.27-22.21a.9.9,0,0,1,.9-.91h0a.9.9,0,0,1,.89.76l6,26.31Z"/><line class="cls-15" x1="221.04" y1="157.37" x2="229.95" y2="160.82"/><path class="cls-11" d="M161.89,134l-19,42.51a8.78,8.78,0,0,1-10.12,5.6h0a8.77,8.77,0,0,1-6.41-11.49c3.74-10.61,15-32.06,18.85-42.67a8.87,8.87,0,0,1,12.73-4.69h0A8.88,8.88,0,0,1,161.89,134Z"/><path class="cls-14" d="M156.47,113.31s-6.22.57-13.93,20.92l18.05,9.37,5.87-17.46Z"/><line class="cls-12" x1="158.8" y1="142.57" x2="156.26" y2="131.02"/><path class="cls-11" d="M138.32,162.16c.51-.17.22.94,45.78-18.36l2,2.62c.18,3.07-.73,5.44-2.42,6.54l-44.81,28.25Z"/><path class="cls-11" d="M186.06,146.42l.27-22.21a.9.9,0,0,0-.9-.91h0a.89.89,0,0,0-.89.76l-6,26.31Z"/><line class="cls-15" x1="186.22" y1="123.86" x2="186.42" y2="147.54"/><line class="cls-15" x1="151.43" y1="157.37" x2="142.94" y2="160.82"/><path class="cls-11" d="M179.35,104.26l-14,5.66a45.17,45.17,0,0,0,20.33,5.21,49.22,49.22,0,0,0,21.78-4.91l-14.58-6.56Z"/><path class="cls-11" d="M192.93,90.39a39.28,39.28,0,0,0-5.17.64c-3,.56-5.47-1-6.08,1,0,0-2.46-2-2.46-2L178,110.07a17,17,0,0,0,16.71-.25Z"/><path class="cls-16" d="M177.32,87.78s3.63,9,16.24,9.64l-1.06-12Z"/><path class="cls-13" d="M206.7,65.07c0,11.48-8.94,20.79-20,20.79s-20-9.31-20-20.79,8.94-19.3,20-19.3S206.7,53.58,206.7,65.07Z"/><path class="cls-11" d="M202.4,65.47a71.33,71.33,0,0,1-1.89,16.17c-.92,3.91-3.52,6.65-7.2,8.86l-.67.4a12.92,12.92,0,0,1-12.86.14h0c-4-2.27-6.77-5.26-7.63-9.46a103.93,103.93,0,0,1-1.73-16.11S168.93,49,186.18,49.29,202.4,65.47,202.4,65.47Z"/><path class="cls-11" d="M172.3,81.9c-2.91,2.81-10.16-5.45-7.47-8.75,2.48-3,6,.43,6,.43l.6,3.1.88,4.18.23.93Z"/><path class="cls-11" d="M200.5,81.7c3.09,2.43,10.56-6.56,7.57-9.16s-6.25.82-6.25.82l-.54,3.11-.81,4.18-.21.94Z"/><polygon class="cls-13" points="167.46 70.74 171.13 75.39 170.39 64.06 167.46 70.74"/><polygon class="cls-13" points="204.94 70.74 201.62 75.28 202.38 64.06 204.94 70.74"/><polyline class="cls-17" points="186.66 74.84 186.93 76.93 186 77.52"/><path class="cls-18" d="M181.13,81.71h10.11s-1.14,1.66-5.06,1.66C182,83.37,181.13,81.71,181.13,81.71Z"/><path class="cls-18" d="M181.13,81.71l2.31-1.19a2.08,2.08,0,0,1,1.59-.07l1.22.47,1.09-.44a2.11,2.11,0,0,1,1.6.06l2.3,1.17Z"/><path class="cls-17" d="M181.13,71.59a3.57,3.57,0,0,1-4.32,0"/><path class="cls-17" d="M195.27,71.59a3.57,3.57,0,0,1-4.32,0"/><path class="cls-16" d="M189.38,66.52s5.14.27,8.57,2.35c0,0,0-2.16-3.27-3.11A5.91,5.91,0,0,0,189.38,66.52Z"/><path class="cls-16" d="M182.8,66.52s-5.14.27-8.57,2.35c0,0,0-2.16,3.26-3.11A5.93,5.93,0,0,1,182.8,66.52Z"/><path class="cls-13" d="M172.3,52.6s6,12.16,31.93,12.77c0,0,2.8-11.51-10.49-16.08S172.3,52.6,172.3,52.6Z"/><path class="cls-13" d="M168.61,67.39s8-2.35,9-15.57C177.65,51.82,169.54,53.05,168.61,67.39Z"/><path class="cls-12" d="M170.8,78s-.41-2.2-3.46-2.14"/><path class="cls-12" d="M201.77,78s.41-2.2,3.46-2.14"/></g></g></svg>