<svg width="240" height="118" viewBox="0 0 240 118" fill="none" xmlns="http://www.w3.org/2000/svg">
<circle cx="122.504" cy="15.5914" r="14.6305" fill="#B2DDF4"/>
<path d="M0 15.5946H45.675C74.1459 15.5946 96.6374 23.5336 114.446 59.7929C126.322 83.9641 140.128 103.045 155.866 117.039H78.7525C47.7953 117.039 22.6936 103.843 12.4309 66.3162C5.5891 41.2983 1.44463 24.3915 0 15.5946Z" fill="#E0F2FE"/>
<path d="M240 15.5946L194.326 15.5946C165.855 15.5946 143.364 23.5336 125.555 59.7929C113.679 83.9641 99.8735 103.045 84.1343 117.039L161.247 117.039C192.204 117.039 217.306 103.843 227.568 66.3162C234.41 41.2983 238.554 24.3915 239.999 15.5946H240Z" fill="#1199E1"/>
</svg>
