<svg width="396" height="257" viewBox="0 0 396 257" fill="none" xmlns="http://www.w3.org/2000/svg">
<path d="M97.15 127.08C88.9 135.33 77.93 139.87 66.26 139.87H61.91C63.19 142.33 63.19 145.28 61.91 147.74H74.52C85.17 147.74 94.52 140.55 97.25 130.25L98.43 125.8L97.15 127.08ZM97.15 127.08C88.9 135.33 77.93 139.87 66.26 139.87H61.91C63.19 142.33 63.19 145.28 61.91 147.74H74.52C85.17 147.74 94.52 140.55 97.25 130.25L98.43 125.8L97.15 127.08ZM97.15 127.08C88.9 135.33 77.93 139.87 66.26 139.87H61.91C63.19 142.33 63.19 145.28 61.91 147.74H74.52C85.17 147.74 94.52 140.55 97.25 130.25L98.43 125.8L97.15 127.08ZM97.15 127.08C88.9 135.33 77.93 139.87 66.26 139.87H61.91C63.19 142.33 63.19 145.28 61.91 147.74H74.52C85.17 147.74 94.52 140.55 97.25 130.25L98.43 125.8L97.15 127.08ZM97.15 127.08C88.9 135.33 77.93 139.87 66.26 139.87H61.91C63.19 142.33 63.19 145.28 61.91 147.74H74.52C85.17 147.74 94.52 140.55 97.25 130.25L98.43 125.8L97.15 127.08ZM97.15 127.08C88.9 135.33 77.93 139.87 66.26 139.87H61.91C63.19 142.33 63.19 145.28 61.91 147.74H74.52C85.17 147.74 94.52 140.55 97.25 130.25L98.43 125.8L97.15 127.08ZM97.15 127.08C88.9 135.33 77.93 139.87 66.26 139.87H61.91C63.19 142.33 63.19 145.28 61.91 147.74H74.52C85.17 147.74 94.52 140.55 97.25 130.25L98.43 125.8L97.15 127.08ZM97.15 127.08C88.9 135.33 77.93 139.87 66.26 139.87H61.91C63.19 142.33 63.19 145.28 61.91 147.74H74.52C85.17 147.74 94.52 140.55 97.25 130.25L98.43 125.8L97.15 127.08ZM97.15 127.08C88.9 135.33 77.93 139.87 66.26 139.87H61.91C63.19 142.33 63.19 145.28 61.91 147.74H74.52C85.17 147.74 94.52 140.55 97.25 130.25L98.43 125.8L97.15 127.08ZM78.59 2.5C56.22 2.5 38.02 20.7 38.02 43.07V45.05C41.83 41.98 46.67 40.15 51.94 40.15C64.06 40.15 73.92 49.84 74.17 61.91C76.85 60.13 80.28 60.04 83.02 61.57C83.44 49.66 93.22 40.15 105.24 40.15C110.51 40.15 115.35 41.98 119.16 45.06V43.07C119.16 20.7 100.96 2.5 78.59 2.5ZM97.15 127.08C88.9 135.33 77.93 139.87 66.26 139.87H61.91C63.19 142.33 63.19 145.28 61.91 147.74H74.52C85.17 147.74 94.52 140.55 97.25 130.25L98.43 125.8L97.15 127.08ZM105.24 84.63C93.5 84.63 83.89 75.53 83.06 64.01C80.84 62.14 77.63 61.97 75.23 63.61L74.46 64.12C74.35 64.2 74.23 64.25 74.1 64.28C73.14 75.68 63.58 84.63 51.94 84.63C46.67 84.63 41.83 82.8 38.02 79.73V163.15H119.16V79.72C115.35 82.8 110.51 84.63 105.24 84.63ZM100.59 123.49L98.7 130.63C95.79 141.59 85.85 149.24 74.52 149.24H53.53C53.12 149.24 52.78 148.9 52.78 148.49C52.78 148.08 53.12 147.74 53.53 147.74H60.15C61.78 145.38 61.78 142.23 60.15 139.87H53.53C53.12 139.87 52.78 139.54 52.78 139.12C52.78 138.7 53.12 138.37 53.53 138.37H66.26C77.53 138.37 88.12 133.99 96.09 126.02L99.34 122.77C99.58 122.53 99.95 122.49 100.24 122.65C100.53 122.82 100.68 123.17 100.59 123.49ZM66.26 139.87H61.91C63.19 142.33 63.19 145.28 61.91 147.74H74.52C85.17 147.74 94.52 140.55 97.25 130.25L98.43 125.8L97.15 127.08C88.9 135.33 77.93 139.87 66.26 139.87ZM97.15 127.08C88.9 135.33 77.93 139.87 66.26 139.87H61.91C63.19 142.33 63.19 145.28 61.91 147.74H74.52C85.17 147.74 94.52 140.55 97.25 130.25L98.43 125.8L97.15 127.08ZM97.15 127.08C88.9 135.33 77.93 139.87 66.26 139.87H61.91C63.19 142.33 63.19 145.28 61.91 147.74H74.52C85.17 147.74 94.52 140.55 97.25 130.25L98.43 125.8L97.15 127.08ZM97.15 127.08C88.9 135.33 77.93 139.87 66.26 139.87H61.91C63.19 142.33 63.19 145.28 61.91 147.74H74.52C85.17 147.74 94.52 140.55 97.25 130.25L98.43 125.8L97.15 127.08ZM97.15 127.08C88.9 135.33 77.93 139.87 66.26 139.87H61.91C63.19 142.33 63.19 145.28 61.91 147.74H74.52C85.17 147.74 94.52 140.55 97.25 130.25L98.43 125.8L97.15 127.08ZM97.15 127.08C88.9 135.33 77.93 139.87 66.26 139.87H61.91C63.19 142.33 63.19 145.28 61.91 147.74H74.52C85.17 147.74 94.52 140.55 97.25 130.25L98.43 125.8L97.15 127.08ZM97.15 127.08C88.9 135.33 77.93 139.87 66.26 139.87H61.91C63.19 142.33 63.19 145.28 61.91 147.74H74.52C85.17 147.74 94.52 140.55 97.25 130.25L98.43 125.8L97.15 127.08ZM97.15 127.08C88.9 135.33 77.93 139.87 66.26 139.87H61.91C63.19 142.33 63.19 145.28 61.91 147.74H74.52C85.17 147.74 94.52 140.55 97.25 130.25L98.43 125.8L97.15 127.08ZM97.15 127.08C88.9 135.33 77.93 139.87 66.26 139.87H61.91C63.19 142.33 63.19 145.28 61.91 147.74H74.52C85.17 147.74 94.52 140.55 97.25 130.25L98.43 125.8L97.15 127.08Z" fill="white"/>
<path d="M138.17 115.98C131.11 115.98 124.93 119.85 121.66 125.59V77.39C125.28 73.43 127.48 68.17 127.48 62.39C127.48 56.61 125.28 51.34 121.66 47.39V43.07C121.66 19.32 102.34 0 78.59 0C54.84 0 35.52 19.32 35.52 43.07V47.38C31.91 51.33 29.7 56.6 29.7 62.39C29.7 68.18 31.91 73.44 35.52 77.4V125.59C32.25 119.85 26.07 115.98 19.01 115.98C8.53001 115.98 0 124.51 0 134.99V256.26H157.18V134.99C157.18 124.51 148.65 115.98 138.17 115.98ZM35.52 253.76H2.5V134.99C2.5 125.89 9.90001 118.48 19.01 118.48C28.12 118.48 35.52 125.89 35.52 134.99V253.76ZM119.16 253.76H38.02V165.65H119.16V253.76ZM119.16 163.15H38.02V79.73C41.83 82.8 46.67 84.63 51.94 84.63C63.58 84.63 73.14 75.68 74.1 64.28C74.23 64.25 74.35 64.2 74.46 64.12L75.23 63.61C77.63 61.97 80.84 62.14 83.06 64C83.89 75.53 93.5 84.63 105.24 84.63C110.51 84.63 115.35 82.8 119.16 79.72V163.15ZM119.16 45.06C115.35 41.98 110.51 40.15 105.24 40.15C93.22 40.15 83.44 49.66 83.02 61.57C80.28 60.04 76.85 60.13 74.17 61.91C73.92 49.84 64.06 40.15 51.94 40.15C46.67 40.15 41.83 41.98 38.02 45.05V43.07C38.02 20.7 56.22 2.5 78.59 2.5C100.96 2.5 119.16 20.7 119.16 43.07V45.06ZM154.68 253.76H121.66V134.99C121.66 125.89 129.07 118.48 138.17 118.48C147.27 118.48 154.68 125.89 154.68 134.99V253.76Z" fill="#101828"/>
<path d="M154.68 134.99V253.76H121.66V134.99C121.66 125.89 129.07 118.48 138.17 118.48C147.27 118.48 154.68 125.89 154.68 134.99Z" fill="#FF8606"/>
<path d="M35.52 134.99V253.76H2.5V134.99C2.5 125.89 9.90001 118.48 19.01 118.48C28.12 118.48 35.52 125.89 35.52 134.99Z" fill="#FF8606"/>
<path d="M38.0195 165.65V253.76H119.159V165.65H38.0195ZM91.8595 248.6C91.8595 249.01 91.5195 249.35 91.1095 249.35C90.6995 249.35 90.3595 249.01 90.3595 248.6V182.13C90.3595 181.72 90.6895 181.38 91.1095 181.38C91.5295 181.38 91.8595 181.72 91.8595 182.13V248.6ZM99.1495 220.55C99.1495 220.96 98.8195 221.3 98.3995 221.3C97.9795 221.3 97.6495 220.96 97.6495 220.55V170.8C97.6495 170.39 97.9895 170.05 98.3995 170.05C98.8095 170.05 99.1495 170.39 99.1495 170.8V220.55ZM106.45 236.52C106.45 236.93 106.11 237.27 105.7 237.27C105.29 237.27 104.95 236.93 104.95 236.52V184.56C104.95 184.15 105.28 183.81 105.7 183.81C106.12 183.81 106.45 184.15 106.45 184.56V236.52ZM113.74 245.42C113.74 245.84 113.41 246.17 112.99 246.17C112.57 246.17 112.24 245.84 112.24 245.42V170.8C112.24 170.39 112.58 170.05 112.99 170.05C113.4 170.05 113.74 170.39 113.74 170.8V245.42Z" fill="#223550"/>
<path d="M113.74 170.8V245.42C113.74 245.84 113.41 246.17 112.99 246.17C112.57 246.17 112.24 245.84 112.24 245.42V170.8C112.24 170.39 112.58 170.05 112.99 170.05C113.4 170.05 113.74 170.39 113.74 170.8Z" fill="#101828"/>
<path d="M106.45 184.56V236.52C106.45 236.93 106.11 237.27 105.7 237.27C105.29 237.27 104.95 236.93 104.95 236.52V184.56C104.95 184.15 105.28 183.81 105.7 183.81C106.12 183.81 106.45 184.15 106.45 184.56Z" fill="#101828"/>
<path d="M99.1495 170.8V220.55C99.1495 220.96 98.8195 221.3 98.3995 221.3C97.9795 221.3 97.6495 220.96 97.6495 220.55V170.8C97.6495 170.39 97.9895 170.05 98.3995 170.05C98.8095 170.05 99.1495 170.39 99.1495 170.8Z" fill="#101828"/>
<path d="M91.8595 182.13V248.6C91.8595 249.01 91.5195 249.35 91.1095 249.35C90.6995 249.35 90.3595 249.01 90.3595 248.6V182.13C90.3595 181.72 90.6895 181.38 91.1095 181.38C91.5295 181.38 91.8595 181.72 91.8595 182.13Z" fill="#101828"/>
<path d="M63.4507 151.78H59.2207C58.9407 151.78 58.7207 151.56 58.7207 151.28C58.7207 151 58.9407 150.78 59.2207 150.78H63.4507C63.7307 150.78 63.9507 151 63.9507 151.28C63.9507 151.56 63.7307 151.78 63.4507 151.78Z" fill="#101828"/>
<path d="M103.641 124.47C103.641 124.47 103.621 124.47 103.601 124.47C103.191 124.45 102.871 124.1 102.891 123.68C103.041 120.74 100.101 120.49 99.9807 120.48C99.5707 120.45 99.2607 120.09 99.2907 119.68C99.3207 119.27 99.6707 118.96 100.091 118.99C101.651 119.11 104.561 120.25 104.391 123.76C104.371 124.16 104.041 124.47 103.641 124.47Z" fill="#101828"/>
<path d="M100.24 122.65C99.95 122.49 99.58 122.53 99.34 122.77L96.09 126.02C88.12 133.99 77.53 138.37 66.26 138.37H53.53C53.12 138.37 52.78 138.71 52.78 139.12C52.78 139.53 53.12 139.87 53.53 139.87H60.15C61.78 142.23 61.78 145.38 60.15 147.74H53.53C53.12 147.74 52.78 148.08 52.78 148.49C52.78 148.9 53.12 149.24 53.53 149.24H74.52C85.85 149.24 95.79 141.59 98.7 130.63L100.59 123.49C100.68 123.17 100.53 122.82 100.24 122.65ZM97.25 130.25C94.52 140.55 85.17 147.74 74.52 147.74H61.91C63.19 145.28 63.19 142.33 61.91 139.87H66.26C77.93 139.87 88.9 135.33 97.15 127.08L98.43 125.8L97.25 130.25Z" fill="#101828"/>
<path d="M210.679 45.8C209.359 46.9 208.159 48.15 207.129 49.52C208.149 48.14 209.349 46.89 210.679 45.8Z" fill="#C38686"/>
<path d="M212.339 44.56C213.199 43.97 214.089 43.46 215.029 43.01C214.099 43.47 213.199 43.99 212.339 44.56Z" fill="#C38686"/>
<path d="M230.959 41.9299C231.549 42.1099 232.139 42.3299 232.709 42.5799C232.139 42.3399 231.549 42.1199 230.959 41.9299Z" fill="#C38686"/>
<path d="M232.719 82.1899C233.429 81.8899 234.119 81.5399 234.789 81.1699C234.119 81.5499 233.429 81.8899 232.719 82.1899Z" fill="#C38686"/>
<path d="M233.669 43.01C234.469 43.39 235.239 43.82 235.979 44.31C235.239 43.84 234.469 43.4 233.669 43.01Z" fill="#C38686"/>
<path d="M237.839 79.09C237.949 78.99 238.069 78.89 238.189 78.79V78.81C238.079 78.91 237.959 79 237.839 79.09Z" fill="#C38686"/>
<path d="M240.689 48.44V76.33C239.939 77.22 239.089 78.03 238.189 78.79V45.96C239.089 46.71 239.929 47.54 240.689 48.44Z" fill="#C38686"/>
<path d="M241.309 49.1899C241.879 49.9099 242.389 50.6599 242.849 51.4499C242.379 50.6599 241.859 49.9099 241.309 49.1899Z" fill="#C38686"/>
<path d="M242.849 73.31C243.159 72.79 243.449 72.25 243.719 71.7C243.449 72.25 243.169 72.79 242.849 73.31Z" fill="#C38686"/>
<path d="M242.849 51.45C243.169 51.97 243.449 52.51 243.719 53.06C243.449 52.51 243.159 51.97 242.849 51.45Z" fill="#C38686"/>
<path d="M238.189 43.07V44.03C234.339 41.12 229.539 39.39 224.349 39.39C211.949 39.39 201.799 49.25 201.369 61.55C199.099 60.56 196.259 60.58 194.019 61.68C193.659 49.32 183.489 39.39 171.049 39.39C165.779 39.39 160.929 41.17 157.049 44.16V43.07C157.049 20.7 175.249 2.5 197.619 2.5C219.989 2.5 238.189 20.7 238.189 43.07Z" fill="#E0F2FE"/>
<path d="M154.699 163.14V134.99C154.699 134.25 154.649 133.52 154.549 132.81V165.64H157.199V163.14H154.699Z" fill="#231F20"/>
<path d="M238.189 45.9599V78.7899C238.069 78.8899 237.949 78.9899 237.839 79.0899C237.719 79.1899 237.609 79.2899 237.479 79.3899C237.229 79.5799 236.989 79.7599 236.739 79.9399C236.109 80.3799 235.469 80.7899 234.789 81.1699C234.119 81.5399 233.429 81.8899 232.719 82.1899C231.999 82.4899 231.249 82.7599 230.489 82.9799C230.279 83.0499 230.079 83.1099 229.869 83.1599C229.249 83.3299 228.619 83.4599 227.979 83.5699C227.779 83.6099 227.579 83.6399 227.379 83.6599C227.269 83.6799 227.159 83.6999 227.049 83.7099C226.819 83.7399 226.589 83.7699 226.369 83.7799C226.069 83.8099 225.759 83.8399 225.459 83.8499C225.099 83.8699 224.719 83.8799 224.349 83.8799C221.009 83.8799 217.849 83.1199 215.029 81.7599C214.569 81.5299 214.109 81.2899 213.659 81.0299C213.209 80.7699 212.769 80.4899 212.339 80.2099C211.759 79.8199 211.209 79.3999 210.679 78.9699C210.449 78.7799 210.219 78.5799 209.989 78.3799C209.769 78.1699 209.549 77.9699 209.339 77.7599C208.039 76.4899 206.909 75.0699 205.969 73.5299C203.989 70.2699 202.849 66.4599 202.849 62.3799C202.849 58.2999 203.989 54.4899 205.969 51.2299C206.329 50.6399 206.719 50.0699 207.129 49.5199C208.159 48.1499 209.359 46.8999 210.679 45.7999C210.949 45.5799 211.209 45.3699 211.489 45.1599C211.769 44.9599 212.049 44.7599 212.339 44.5599C213.199 43.9899 214.099 43.4699 215.029 43.0099C215.349 42.8599 215.669 42.7199 215.989 42.5799C216.949 42.1699 217.949 41.8399 218.979 41.5699C220.689 41.1299 222.489 40.8899 224.349 40.8899C224.719 40.8899 225.089 40.8999 225.459 40.9199C225.759 40.9199 226.069 40.9599 226.369 40.9899C226.589 41.0099 226.819 41.0299 227.049 41.0599C227.159 41.0699 227.269 41.0899 227.379 41.1099C227.579 41.1299 227.779 41.1599 227.979 41.1999C228.129 41.2199 228.269 41.2499 228.419 41.2799C228.589 41.3099 228.749 41.3399 228.909 41.3799C229.099 41.4199 229.279 41.4599 229.459 41.5099C229.709 41.5599 229.949 41.6299 230.189 41.6999C230.449 41.7699 230.699 41.8499 230.959 41.9299C231.549 42.1199 232.139 42.3399 232.709 42.5799C233.029 42.7199 233.349 42.8599 233.669 43.0099C234.469 43.3999 235.239 43.8399 235.979 44.3099C236.229 44.4799 236.489 44.6499 236.739 44.8299C237.009 45.0299 237.279 45.2299 237.549 45.4399C237.759 45.6099 237.979 45.7799 238.189 45.9599Z" fill="#025681"/>
<path d="M245.839 62.3799C245.839 62.7499 245.829 63.1199 245.809 63.4899C245.799 63.8099 245.769 64.1199 245.739 64.4299C245.729 64.6099 245.709 64.7799 245.679 64.9499C245.659 65.1499 245.639 65.3399 245.609 65.5399C245.609 65.6199 245.579 65.7099 245.569 65.7899C245.519 66.0799 245.469 66.3699 245.409 66.6599C245.399 66.6999 245.399 66.7399 245.379 66.7899C245.329 67.0699 245.269 67.3499 245.189 67.6199C245.179 67.6899 245.159 67.7499 245.139 67.8199C245.079 68.0899 244.999 68.3499 244.919 68.6099C244.599 69.6799 244.189 70.7099 243.719 71.6999C243.449 72.2499 243.159 72.7899 242.849 73.3099C242.529 73.8499 242.189 74.3699 241.829 74.8699C241.649 75.1199 241.469 75.3699 241.279 75.6099C241.089 75.8599 240.889 76.0899 240.689 76.3299V48.4399C240.869 48.6499 241.049 48.8699 241.229 49.0899C241.249 49.1299 241.279 49.1599 241.309 49.1899C241.859 49.9099 242.379 50.6599 242.849 51.4499C243.159 51.9699 243.449 52.5099 243.719 53.0599C244.189 54.0499 244.599 55.0799 244.919 56.1499C244.999 56.4099 245.069 56.6699 245.139 56.9399C245.159 57.0099 245.179 57.0699 245.189 57.1399C245.259 57.4099 245.329 57.6899 245.379 57.9699C245.389 58.0099 245.399 58.0499 245.409 58.0899C245.469 58.3999 245.529 58.7199 245.579 59.0399C245.589 59.0799 245.589 59.1299 245.599 59.1699C245.629 59.3899 245.659 59.6099 245.679 59.8299C245.709 59.9899 245.729 60.1599 245.739 60.3299C245.769 60.6399 245.799 60.9499 245.809 61.2699C245.829 61.6399 245.839 62.0099 245.839 62.3799Z" fill="#025681"/>
<path d="M162.58 82.1399C162.08 81.9299 161.6 81.6899 161.12 81.4399C161.6 81.6899 162.08 81.9199 162.58 82.1399Z" fill="#C38686"/>
<path d="M157.05 46.1101V78.6401C156.15 77.8701 155.3 77.0401 154.55 76.1301V48.6301C155.32 47.7201 156.15 46.8701 157.05 46.1101Z" fill="#C38686"/>
<path d="M157.05 78.6399C157.26 78.8199 157.45 79.0199 157.67 79.1899C157.46 79.0199 157.25 78.8399 157.05 78.6699V78.6399Z" fill="#C38686"/>
<path d="M158.94 80.1299C158.7 79.9699 158.48 79.7999 158.25 79.6399C158.05 79.4899 157.86 79.3399 157.67 79.1899C157.76 79.2599 157.86 79.3399 157.96 79.3999C158.28 79.6599 158.61 79.8999 158.94 80.1299Z" fill="#C38686"/>
<path d="M159.68 80.6201C159.68 80.6201 159.66 80.6101 159.65 80.6001C159.65 80.6001 159.67 80.6101 159.68 80.6201Z" fill="#C38686"/>
<path d="M161.12 81.4399C161.12 81.4399 161.06 81.4099 161.03 81.3899C161.06 81.4099 161.09 81.4199 161.12 81.4399Z" fill="#C38686"/>
<path d="M161.03 81.3901C160.57 81.1501 160.12 80.8901 159.69 80.6201C160.13 80.8901 160.58 81.1501 161.03 81.3901Z" fill="#C38686"/>
<path d="M158.51 44.9399C159.77 44.0099 161.13 43.2399 162.58 42.6299C161.14 43.2499 159.77 44.0299 158.51 44.9399Z" fill="#C38686"/>
<path d="M162.58 42.63C163.16 42.37 163.75 42.15 164.35 41.96C163.75 42.16 163.16 42.38 162.58 42.63Z" fill="#C38686"/>
<path d="M176.42 41.5701C177.45 41.8301 178.45 42.1701 179.41 42.5801C178.45 42.1701 177.45 41.8401 176.42 41.5701Z" fill="#C38686"/>
<path d="M180.37 81.76C181.3 81.3 182.2 80.78 183.06 80.21C182.2 80.79 181.31 81.31 180.37 81.76Z" fill="#C38686"/>
<path d="M180.37 43.01C181.31 43.46 182.2 43.97 183.06 44.56C182.2 43.99 181.3 43.47 180.37 43.01Z" fill="#C38686"/>
<path d="M189.43 73.53C188.18 75.6 186.58 77.44 184.72 78.97C186.58 77.42 188.18 75.59 189.43 73.53Z" fill="#C38686"/>
<path d="M183.91 45.1599C186.12 46.8099 188 48.8699 189.43 51.2299C187.99 48.8799 186.11 46.8199 183.91 45.1599Z" fill="#C38686"/>
<path d="M238.19 80.7299V163.14H157.2V164.39H155.8V163.14H157.05V80.5999C160.93 83.5999 165.78 85.3799 171.05 85.3799C183.4 85.3799 193.49 75.5999 194.01 63.3699L194.5 63.1099C196.6 62.0099 199.37 62.0699 201.37 63.2299C201.82 75.5199 211.96 85.3799 224.35 85.3799C229.54 85.3799 234.34 83.6499 238.19 80.7299Z" fill="#E0F2FE"/>
<path d="M154.7 163.14V134.99C154.7 134.25 154.65 133.52 154.55 132.81V165.64H157.2V163.14H154.7Z" fill="#231F20"/>
<path d="M257.36 115.98C250.19 115.98 243.93 119.97 240.69 125.84V78.54C244.8 74.39 247.34 68.68 247.34 62.38C247.34 56.08 244.8 50.37 240.69 46.22V43.07C240.69 31.19 235.86 20.43 228.07 12.63C220.26 4.83 209.5 0 197.62 0C173.87 0 154.55 19.32 154.55 43.07V46.39C150.53 50.52 148.05 56.17 148.05 62.38C148.05 68.59 150.53 74.24 154.55 78.37V125.32C151.24 119.73 145.15 115.98 138.19 115.98C127.71 115.98 119.18 124.5 119.18 134.99V256.25H276.37V134.99C276.37 124.5 267.84 115.98 257.36 115.98ZM240.69 48.44C243.9 52.19 245.84 57.06 245.84 62.38C245.84 67.7 243.9 72.57 240.69 76.33V48.44ZM157.05 43.07C157.05 20.7 175.25 2.5 197.62 2.5C219.99 2.5 238.19 20.7 238.19 43.07V44.03C234.34 41.12 229.55 39.39 224.35 39.39C211.95 39.39 201.8 49.25 201.37 61.55C199.1 60.56 196.26 60.58 194.02 61.68C193.66 49.32 183.49 39.39 171.05 39.39C165.78 39.39 160.93 41.17 157.05 44.16V43.07ZM238.19 45.96V78.81C234.45 81.98 229.62 83.88 224.35 83.88C212.5 83.88 202.85 74.24 202.85 62.38C202.85 50.52 212.5 40.89 224.35 40.89C229.62 40.89 234.45 42.79 238.19 45.96ZM157.05 46.1C157.05 46.1 157.1 46.05 157.13 46.03C157.34 45.85 157.55 45.68 157.77 45.51C158.01 45.31 158.26 45.13 158.51 44.94C159.45 44.26 160.46 43.65 161.51 43.12C161.86 42.95 162.22 42.79 162.58 42.63C163.16 42.38 163.75 42.16 164.35 41.96C164.6 41.88 164.85 41.8 165.1 41.73C165.31 41.67 165.53 41.61 165.74 41.56C166.03 41.48 166.32 41.41 166.62 41.35C167.03 41.26 167.45 41.19 167.86 41.13C168.1 41.09 168.34 41.06 168.58 41.04C169.03 40.98 169.48 40.94 169.94 40.92C170.31 40.9 170.68 40.89 171.05 40.89C172.91 40.89 174.71 41.13 176.42 41.57C177.45 41.84 178.45 42.17 179.41 42.58C179.73 42.72 180.05 42.86 180.37 43.01C181.3 43.47 182.2 43.99 183.06 44.56C183.35 44.76 183.63 44.96 183.91 45.16C184.19 45.37 184.45 45.58 184.72 45.8C186.04 46.9 187.24 48.15 188.27 49.52C188.68 50.07 189.07 50.64 189.43 51.23C191.41 54.49 192.55 58.3 192.55 62.38C192.55 66.46 191.41 70.27 189.43 73.53C188.49 75.07 187.36 76.49 186.06 77.76C185.85 77.97 185.63 78.17 185.41 78.38C185.18 78.58 184.95 78.78 184.72 78.97C184.19 79.4 183.64 79.82 183.06 80.21C182.63 80.49 182.19 80.77 181.74 81.03C181.29 81.3 180.84 81.54 180.37 81.76C177.55 83.12 174.39 83.88 171.05 83.88C170.68 83.88 170.31 83.87 169.94 83.85C169.48 83.83 169.03 83.79 168.58 83.74C168.34 83.71 168.1 83.68 167.86 83.64C167.45 83.58 167.03 83.51 166.62 83.42C166.32 83.36 166.03 83.29 165.74 83.21C165.7 83.21 165.66 83.2 165.62 83.18C165.36 83.12 165.11 83.05 164.86 82.97C164.59 82.89 164.33 82.81 164.07 82.71C163.87 82.64 163.66 82.57 163.46 82.49C163.17 82.38 162.87 82.26 162.58 82.14C161.3 81.59 160.08 80.91 158.94 80.13C158.61 79.9 158.28 79.66 157.96 79.4C157.86 79.34 157.76 79.26 157.67 79.19C157.45 79.02 157.26 78.82 157.05 78.64V46.1ZM153.98 75.43C153.79 75.18 153.61 74.94 153.44 74.69C153.26 74.44 153.09 74.19 152.93 73.93C152.77 73.68 152.61 73.42 152.46 73.16C152.45 73.15 152.45 73.14 152.44 73.13C152.29 72.87 152.15 72.61 152.01 72.35C151.87 72.08 151.73 71.8 151.6 71.52C151.47 71.25 151.34 70.97 151.22 70.68C150.96 70.06 150.73 69.42 150.53 68.77C150.42 68.43 150.32 68.09 150.24 67.75C150.1 67.23 149.98 66.71 149.89 66.18C149.79 65.65 149.72 65.12 149.67 64.58C149.59 63.86 149.55 63.12 149.55 62.38C149.55 61.64 149.59 60.9 149.67 60.18C149.72 59.64 149.79 59.11 149.89 58.58C149.98 58.05 150.1 57.53 150.24 57.01C150.32 56.67 150.42 56.33 150.53 55.99C150.72 55.34 150.95 54.7 151.22 54.08C151.24 54.04 151.26 53.99 151.28 53.94C151.4 53.64 151.54 53.35 151.68 53.06C151.92 52.57 152.17 52.09 152.45 51.62C152.6 51.35 152.76 51.09 152.93 50.83C153.26 50.32 153.61 49.82 153.98 49.34C154.16 49.1 154.36 48.88 154.55 48.64V76.13C154.36 75.9 154.16 75.67 153.98 75.43ZM238.34 253.75H157.2V165.64H154.7V253.75H121.68V134.99C121.68 125.88 129.09 118.48 138.19 118.48C146.57 118.48 153.49 124.73 154.55 132.81C154.65 133.52 154.7 134.25 154.7 134.99V163.14H157.05V80.6C160.93 83.6 165.78 85.38 171.05 85.38C183.4 85.38 193.49 75.6 194.01 63.37L194.5 63.11C196.6 62.01 199.37 62.07 201.37 63.23C201.82 75.52 211.96 85.38 224.35 85.38C229.55 85.38 234.34 83.65 238.19 80.73V163.14H157.2V165.64H238.34V253.75ZM273.87 253.75H240.84V134.99C240.84 125.88 248.25 118.48 257.36 118.48C266.47 118.48 273.87 125.88 273.87 134.99V253.75Z" fill="#101828"/>
<path d="M154.55 48.6399V76.1299C154.36 75.8999 154.16 75.6699 153.98 75.4299C153.79 75.1799 153.61 74.9399 153.44 74.6899C153.26 74.4399 153.09 74.1899 152.93 73.9299C152.77 73.6799 152.61 73.4199 152.46 73.1599C152.45 73.1499 152.45 73.1399 152.44 73.1299C152.29 72.8699 152.15 72.6099 152.01 72.3499C151.87 72.0799 151.73 71.7999 151.6 71.5199C151.47 71.2499 151.34 70.9699 151.22 70.6799C150.96 70.0599 150.73 69.4199 150.53 68.7699C150.42 68.4399 150.33 68.0999 150.24 67.7499C150.1 67.2299 149.98 66.7099 149.89 66.1799C149.8 65.6499 149.73 65.1199 149.67 64.5799C149.6 63.8599 149.56 63.1199 149.56 62.3799C149.56 61.6399 149.6 60.9099 149.67 60.1799C149.73 59.6399 149.8 59.1099 149.89 58.5799C149.98 58.0499 150.1 57.5299 150.24 57.0099C150.33 56.6699 150.42 56.3299 150.53 55.9899C150.72 55.3399 150.95 54.6999 151.22 54.0799C151.24 54.0399 151.26 53.9899 151.28 53.9399C151.41 53.6499 151.54 53.3499 151.68 53.0599C151.92 52.5699 152.17 52.0899 152.45 51.6199C152.6 51.3499 152.76 51.0899 152.93 50.8299C153.26 50.3199 153.61 49.8199 153.98 49.3399C154.16 49.0999 154.36 48.8799 154.55 48.6399Z" fill="#025681"/>
<path d="M192.55 62.3799C192.55 66.4599 191.41 70.2699 189.43 73.5299C188.18 75.5899 186.58 77.4199 184.72 78.9699C184.19 79.3999 183.64 79.8199 183.06 80.2099C182.2 80.7799 181.3 81.2999 180.37 81.7599C177.55 83.1199 174.39 83.8799 171.05 83.8799C170.68 83.8799 170.31 83.8699 169.94 83.8499C169.48 83.8299 169.03 83.7899 168.58 83.7399C168.34 83.7099 168.1 83.6799 167.86 83.6399C167.45 83.5799 167.03 83.5099 166.62 83.4199C166.32 83.3599 166.03 83.2899 165.74 83.2099C165.7 83.2099 165.66 83.1999 165.62 83.1799C165.36 83.1199 165.11 83.0499 164.86 82.9699C164.59 82.8899 164.33 82.8099 164.07 82.7099C163.87 82.6399 163.66 82.5699 163.46 82.4899C163.17 82.3799 162.87 82.2599 162.58 82.1399C160.56 81.2699 158.69 80.0899 157.05 78.6699V46.0999C157.52 45.6899 158.01 45.3099 158.51 44.9399C159.77 44.0299 161.14 43.2499 162.58 42.6299C163.16 42.3799 163.75 42.1599 164.35 41.9599C164.6 41.8799 164.85 41.7999 165.1 41.7299C165.31 41.6699 165.53 41.6099 165.74 41.5599C166.03 41.4799 166.32 41.4099 166.62 41.3499C167.03 41.2599 167.45 41.1899 167.86 41.1299C168.1 41.0899 168.34 41.0599 168.58 41.0399C169.03 40.9799 169.48 40.9399 169.94 40.9199C170.31 40.8999 170.68 40.8899 171.05 40.8899C172.91 40.8899 174.71 41.1299 176.42 41.5699C177.45 41.8399 178.45 42.1699 179.41 42.5799C179.73 42.7199 180.05 42.8599 180.37 43.0099C181.3 43.4699 182.2 43.9899 183.06 44.5599C183.35 44.7599 183.63 44.9599 183.91 45.1599C186.11 46.8199 187.99 48.8799 189.43 51.2299C191.41 54.4899 192.55 58.2999 192.55 62.3799Z" fill="#025681"/>
<path d="M273.86 134.99V253.75H240.83V134.99C240.83 125.88 248.24 118.48 257.35 118.48C266.46 118.48 273.86 125.88 273.86 134.99Z" fill="#FF8606"/>
<path d="M154.69 134.99V253.75H121.67V134.99C121.67 125.88 129.08 118.48 138.18 118.48C146.55 118.48 153.48 124.73 154.54 132.81C154.64 133.52 154.69 134.25 154.69 134.99Z" fill="#FF8606"/>
<path d="M238.34 165.65H157.2V253.76H238.34V165.65Z" fill="#025681"/>
<path d="M232.03 246.16C231.62 246.16 231.28 245.82 231.28 245.41V170.79C231.28 170.38 231.62 170.04 232.03 170.04C232.44 170.04 232.78 170.38 232.78 170.79V245.41C232.78 245.82 232.44 246.16 232.03 246.16Z" fill="#101828"/>
<path d="M224.73 237.26C224.32 237.26 223.98 236.92 223.98 236.51V184.55C223.98 184.14 224.32 183.8 224.73 183.8C225.14 183.8 225.48 184.14 225.48 184.55V236.51C225.48 236.92 225.14 237.26 224.73 237.26Z" fill="#101828"/>
<path d="M217.44 221.29C217.03 221.29 216.69 220.95 216.69 220.54V170.79C216.69 170.38 217.03 170.04 217.44 170.04C217.85 170.04 218.19 170.38 218.19 170.79V220.54C218.19 220.95 217.85 221.29 217.44 221.29Z" fill="#101828"/>
<path d="M210.14 249.34C209.73 249.34 209.39 249 209.39 248.59V182.12C209.39 181.71 209.73 181.37 210.14 181.37C210.55 181.37 210.89 181.71 210.89 182.12V248.59C210.89 249 210.55 249.34 210.14 249.34Z" fill="#101828"/>
<path d="M219.101 61.98C219.101 64.72 216.871 66.96 214.131 66.96C211.391 66.96 209.151 64.72 209.151 61.98C209.151 59.24 211.381 57 214.131 57C216.881 57 219.101 59.24 219.101 61.98Z" fill="#101828"/>
<path d="M218.221 137.83H177.121C176.711 137.83 176.371 137.49 176.371 137.08C176.371 136.67 176.711 136.33 177.121 136.33H218.221C218.631 136.33 218.971 136.67 218.971 137.08C218.971 137.49 218.631 137.83 218.221 137.83Z" fill="#101828"/>
<path d="M184.851 61.98C184.851 64.72 182.621 66.96 179.881 66.96C177.141 66.96 174.901 64.72 174.901 61.98C174.901 59.24 177.131 57 179.881 57C182.631 57 184.851 59.24 184.851 61.98Z" fill="#101828"/>
<path d="M214.131 57C216.871 57 219.101 59.24 219.101 61.98C219.101 64.72 216.871 66.96 214.131 66.96" fill="#101828"/>
<path d="M329.871 45.8C328.551 46.9 327.351 48.15 326.321 49.52C327.341 48.14 328.541 46.89 329.871 45.8Z" fill="#C38686"/>
<path d="M331.531 44.56C332.391 43.97 333.281 43.46 334.221 43.01C333.291 43.47 332.391 43.99 331.531 44.56Z" fill="#C38686"/>
<path d="M350.151 41.9299C350.741 42.1099 351.331 42.3299 351.901 42.5799C351.331 42.3399 350.741 42.1199 350.151 41.9299Z" fill="#C38686"/>
<path d="M351.911 82.1899C352.621 81.8899 353.311 81.5399 353.981 81.1699C353.311 81.5499 352.621 81.8899 351.911 82.1899Z" fill="#C38686"/>
<path d="M352.861 43.01C353.661 43.39 354.431 43.82 355.171 44.31C354.431 43.84 353.661 43.4 352.861 43.01Z" fill="#C38686"/>
<path d="M357.031 79.09C357.141 78.99 357.261 78.89 357.381 78.79V78.81C357.271 78.91 357.151 79 357.031 79.09Z" fill="#C38686"/>
<path d="M359.881 48.44V76.33C359.131 77.22 358.281 78.03 357.381 78.79V45.96C358.281 46.71 359.121 47.54 359.881 48.44Z" fill="#C38686"/>
<path d="M360.501 49.1899C361.071 49.9099 361.581 50.6599 362.041 51.4499C361.571 50.6599 361.051 49.9099 360.501 49.1899Z" fill="#C38686"/>
<path d="M362.041 73.31C362.351 72.79 362.641 72.25 362.911 71.7C362.641 72.25 362.361 72.79 362.041 73.31Z" fill="#C38686"/>
<path d="M362.041 51.45C362.361 51.97 362.641 52.51 362.911 53.06C362.641 52.51 362.351 51.97 362.041 51.45Z" fill="#C38686"/>
<path d="M357.391 43.07V44.03C353.541 41.12 348.741 39.39 343.551 39.39C331.151 39.39 321.001 49.25 320.571 61.55C318.301 60.56 315.461 60.58 313.221 61.68C312.861 49.32 302.691 39.39 290.251 39.39C284.981 39.39 280.131 41.17 276.251 44.16V43.07C276.251 20.7 294.451 2.5 316.821 2.5C339.191 2.5 357.391 20.7 357.391 43.07Z" fill="#FEB273"/>
<path d="M273.901 163.14V134.99C273.901 134.25 273.851 133.52 273.751 132.81V165.64H276.401V163.14H273.901Z" fill="#231F20"/>
<path d="M357.381 45.9599V78.7899C357.261 78.8899 357.141 78.9899 357.031 79.0899C356.911 79.1899 356.801 79.2899 356.671 79.3899C356.421 79.5799 356.181 79.7599 355.931 79.9399C355.301 80.3799 354.661 80.7899 353.981 81.1699C353.311 81.5399 352.621 81.8899 351.911 82.1899C351.191 82.4899 350.441 82.7599 349.681 82.9799C349.471 83.0499 349.271 83.1099 349.061 83.1599C348.441 83.3299 347.811 83.4599 347.171 83.5699C346.971 83.6099 346.771 83.6399 346.571 83.6599C346.461 83.6799 346.351 83.6999 346.241 83.7099C346.011 83.7399 345.781 83.7699 345.561 83.7799C345.261 83.8099 344.951 83.8399 344.651 83.8499C344.291 83.8699 343.911 83.8799 343.541 83.8799C340.201 83.8799 337.041 83.1199 334.221 81.7599C333.761 81.5299 333.301 81.2899 332.851 81.0299C332.401 80.7699 331.961 80.4899 331.531 80.2099C330.951 79.8199 330.401 79.3999 329.871 78.9699C329.641 78.7799 329.411 78.5799 329.181 78.3799C328.961 78.1699 328.741 77.9699 328.531 77.7599C327.231 76.4899 326.101 75.0699 325.161 73.5299C323.181 70.2699 322.041 66.4599 322.041 62.3799C322.041 58.2999 323.181 54.4899 325.161 51.2299C325.521 50.6399 325.911 50.0699 326.321 49.5199C327.351 48.1499 328.551 46.8999 329.871 45.7999C330.141 45.5799 330.401 45.3699 330.681 45.1599C330.961 44.9599 331.241 44.7599 331.531 44.5599C332.391 43.9899 333.291 43.4699 334.221 43.0099C334.541 42.8599 334.861 42.7199 335.181 42.5799C336.141 42.1699 337.141 41.8399 338.171 41.5699C339.881 41.1299 341.681 40.8899 343.541 40.8899C343.911 40.8899 344.281 40.8999 344.651 40.9199C344.951 40.9199 345.261 40.9599 345.561 40.9899C345.781 41.0099 346.011 41.0299 346.241 41.0599C346.351 41.0699 346.461 41.0899 346.571 41.1099C346.771 41.1299 346.971 41.1599 347.171 41.1999C347.321 41.2199 347.461 41.2499 347.611 41.2799C347.781 41.3099 347.941 41.3399 348.101 41.3799C348.291 41.4199 348.471 41.4599 348.651 41.5099C348.901 41.5599 349.141 41.6299 349.381 41.6999C349.641 41.7699 349.891 41.8499 350.151 41.9299C350.741 42.1199 351.331 42.3399 351.901 42.5799C352.221 42.7199 352.541 42.8599 352.861 43.0099C353.661 43.3999 354.431 43.8399 355.171 44.3099C355.421 44.4799 355.681 44.6499 355.931 44.8299C356.201 45.0299 356.471 45.2299 356.741 45.4399C356.951 45.6099 357.171 45.7799 357.381 45.9599Z" fill="#FF8606"/>
<path d="M365.031 62.3799C365.031 62.7499 365.021 63.1199 365.001 63.4899C364.991 63.8099 364.961 64.1199 364.931 64.4299C364.921 64.6099 364.901 64.7799 364.871 64.9499C364.851 65.1499 364.831 65.3399 364.801 65.5399C364.801 65.6199 364.771 65.7099 364.761 65.7899C364.711 66.0799 364.661 66.3699 364.601 66.6599C364.591 66.6999 364.591 66.7399 364.571 66.7899C364.521 67.0699 364.461 67.3499 364.381 67.6199C364.371 67.6899 364.351 67.7499 364.331 67.8199C364.271 68.0899 364.191 68.3499 364.111 68.6099C363.791 69.6799 363.381 70.7099 362.911 71.6999C362.641 72.2499 362.351 72.7899 362.041 73.3099C361.721 73.8499 361.381 74.3699 361.021 74.8699C360.841 75.1199 360.661 75.3699 360.471 75.6099C360.281 75.8599 360.081 76.0899 359.881 76.3299V48.4399C360.061 48.6499 360.241 48.8699 360.421 49.0899C360.441 49.1299 360.471 49.1599 360.501 49.1899C361.051 49.9099 361.571 50.6599 362.041 51.4499C362.351 51.9699 362.641 52.5099 362.911 53.0599C363.381 54.0499 363.791 55.0799 364.111 56.1499C364.191 56.4099 364.261 56.6699 364.331 56.9399C364.351 57.0099 364.371 57.0699 364.381 57.1399C364.451 57.4099 364.521 57.6899 364.571 57.9699C364.581 58.0099 364.591 58.0499 364.601 58.0899C364.661 58.3999 364.721 58.7199 364.771 59.0399C364.781 59.0799 364.781 59.1299 364.791 59.1699C364.821 59.3899 364.851 59.6099 364.871 59.8299C364.901 59.9899 364.921 60.1599 364.931 60.3299C364.961 60.6399 364.991 60.9499 365.001 61.2699C365.021 61.6399 365.031 62.0099 365.031 62.3799Z" fill="#FF8606"/>
<path d="M281.77 82.1399C281.27 81.9299 280.79 81.6899 280.31 81.4399C280.79 81.6899 281.27 81.9199 281.77 82.1399Z" fill="#C38686"/>
<path d="M276.24 46.1101V78.6401C275.34 77.8701 274.49 77.0401 273.74 76.1301V48.6301C274.51 47.7201 275.34 46.8701 276.24 46.1101Z" fill="#C38686"/>
<path d="M276.24 78.6399C276.45 78.8199 276.64 79.0199 276.86 79.1899C276.65 79.0199 276.44 78.8399 276.24 78.6699V78.6399Z" fill="#C38686"/>
<path d="M278.13 80.1299C277.89 79.9699 277.67 79.7999 277.44 79.6399C277.24 79.4899 277.05 79.3399 276.86 79.1899C276.95 79.2599 277.05 79.3399 277.15 79.3999C277.47 79.6599 277.8 79.8999 278.13 80.1299Z" fill="#C38686"/>
<path d="M278.88 80.6201C278.88 80.6201 278.86 80.6101 278.85 80.6001C278.85 80.6001 278.87 80.6101 278.88 80.6201Z" fill="#C38686"/>
<path d="M280.31 81.4399C280.31 81.4399 280.25 81.4099 280.22 81.3899C280.25 81.4099 280.28 81.4199 280.31 81.4399Z" fill="#C38686"/>
<path d="M280.22 81.3901C279.76 81.1501 279.31 80.8901 278.88 80.6201C279.32 80.8901 279.77 81.1501 280.22 81.3901Z" fill="#C38686"/>
<path d="M277.7 44.9399C278.96 44.0099 280.32 43.2399 281.77 42.6299C280.33 43.2499 278.96 44.0299 277.7 44.9399Z" fill="#C38686"/>
<path d="M281.77 42.63C282.35 42.37 282.94 42.15 283.54 41.96C282.94 42.16 282.35 42.38 281.77 42.63Z" fill="#C38686"/>
<path d="M295.61 41.5701C296.64 41.8301 297.64 42.1701 298.6 42.5801C297.64 42.1701 296.64 41.8401 295.61 41.5701Z" fill="#C38686"/>
<path d="M299.56 81.76C300.49 81.3 301.39 80.78 302.25 80.21C301.39 80.79 300.5 81.31 299.56 81.76Z" fill="#C38686"/>
<path d="M299.56 43.01C300.5 43.46 301.39 43.97 302.25 44.56C301.39 43.99 300.49 43.47 299.56 43.01Z" fill="#C38686"/>
<path d="M308.62 73.53C307.37 75.6 305.77 77.44 303.91 78.97C305.77 77.42 307.37 75.59 308.62 73.53Z" fill="#C38686"/>
<path d="M303.1 45.1599C305.31 46.8099 307.19 48.8699 308.62 51.2299C307.18 48.8799 305.3 46.8199 303.1 45.1599Z" fill="#C38686"/>
<path d="M357.39 80.7299V163.14H276.4V164.39H275V163.14H276.25V80.5999C280.13 83.5999 284.98 85.3799 290.25 85.3799C302.6 85.3799 312.69 75.5999 313.21 63.3699L313.7 63.1099C315.8 62.0099 318.57 62.0699 320.57 63.2299C321.02 75.5199 331.16 85.3799 343.55 85.3799C348.74 85.3799 353.54 83.6499 357.39 80.7299Z" fill="#FEB273"/>
<path d="M273.9 163.14V134.99C273.9 134.25 273.85 133.52 273.75 132.81V165.64H276.4V163.14H273.9Z" fill="#231F20"/>
<path d="M376.55 115.98C369.38 115.98 363.12 119.97 359.88 125.84V78.54C363.99 74.39 366.53 68.68 366.53 62.38C366.53 56.08 363.99 50.37 359.88 46.22V43.07C359.88 31.19 355.05 20.43 347.26 12.63C339.45 4.83 328.69 0 316.81 0C293.06 0 273.74 19.32 273.74 43.07V46.39C269.72 50.52 267.24 56.17 267.24 62.38C267.24 68.59 269.72 74.24 273.74 78.37V125.32C270.43 119.73 264.34 115.98 257.38 115.98C246.9 115.98 238.37 124.5 238.37 134.99V256.25H395.56V134.99C395.56 124.5 387.03 115.98 376.55 115.98ZM359.88 48.44C363.09 52.19 365.03 57.06 365.03 62.38C365.03 67.7 363.09 72.57 359.88 76.33V48.44ZM276.24 43.07C276.24 20.7 294.44 2.5 316.81 2.5C339.18 2.5 357.38 20.7 357.38 43.07V44.03C353.53 41.12 348.74 39.39 343.54 39.39C331.14 39.39 320.99 49.25 320.56 61.55C318.29 60.56 315.45 60.58 313.21 61.68C312.85 49.32 302.68 39.39 290.24 39.39C284.97 39.39 280.12 41.17 276.24 44.16V43.07ZM357.38 45.96V78.81C353.64 81.98 348.81 83.88 343.54 83.88C331.69 83.88 322.04 74.24 322.04 62.38C322.04 50.52 331.69 40.89 343.54 40.89C348.81 40.89 353.64 42.79 357.38 45.96ZM276.24 46.1C276.24 46.1 276.29 46.05 276.32 46.03C276.53 45.85 276.74 45.68 276.96 45.51C277.2 45.31 277.45 45.13 277.7 44.94C278.64 44.26 279.65 43.65 280.7 43.12C281.05 42.95 281.41 42.79 281.77 42.63C282.35 42.38 282.94 42.16 283.54 41.96C283.79 41.88 284.04 41.8 284.29 41.73C284.5 41.67 284.72 41.61 284.93 41.56C285.22 41.48 285.51 41.41 285.81 41.35C286.22 41.26 286.64 41.19 287.05 41.13C287.29 41.09 287.53 41.06 287.77 41.04C288.22 40.98 288.67 40.94 289.13 40.92C289.5 40.9 289.87 40.89 290.24 40.89C292.1 40.89 293.9 41.13 295.61 41.57C296.64 41.84 297.64 42.17 298.6 42.58C298.92 42.72 299.24 42.86 299.56 43.01C300.49 43.47 301.39 43.99 302.25 44.56C302.54 44.76 302.82 44.96 303.1 45.16C303.38 45.37 303.64 45.58 303.91 45.8C305.23 46.9 306.43 48.15 307.46 49.52C307.87 50.07 308.26 50.64 308.62 51.23C310.6 54.49 311.74 58.3 311.74 62.38C311.74 66.46 310.6 70.27 308.62 73.53C307.68 75.07 306.55 76.49 305.25 77.76C305.04 77.97 304.82 78.17 304.6 78.38C304.37 78.58 304.14 78.78 303.91 78.97C303.38 79.4 302.83 79.82 302.25 80.21C301.82 80.49 301.38 80.77 300.93 81.03C300.48 81.3 300.03 81.54 299.56 81.76C296.74 83.12 293.58 83.88 290.24 83.88C289.87 83.88 289.5 83.87 289.13 83.85C288.67 83.83 288.22 83.79 287.77 83.74C287.53 83.71 287.29 83.68 287.05 83.64C286.64 83.58 286.22 83.51 285.81 83.42C285.51 83.36 285.22 83.29 284.93 83.21C284.89 83.21 284.85 83.2 284.81 83.18C284.55 83.12 284.3 83.05 284.05 82.97C283.78 82.89 283.52 82.81 283.26 82.71C283.06 82.64 282.85 82.57 282.65 82.49C282.36 82.38 282.06 82.26 281.77 82.14C280.49 81.59 279.27 80.91 278.13 80.13C277.8 79.9 277.47 79.66 277.15 79.4C277.05 79.34 276.95 79.26 276.86 79.19C276.64 79.02 276.45 78.82 276.24 78.64V46.1ZM273.17 75.43C272.98 75.18 272.8 74.94 272.63 74.69C272.45 74.44 272.28 74.19 272.12 73.93C271.96 73.68 271.8 73.42 271.65 73.16C271.64 73.15 271.64 73.14 271.63 73.13C271.48 72.87 271.34 72.61 271.2 72.35C271.06 72.08 270.92 71.8 270.79 71.52C270.66 71.25 270.53 70.97 270.41 70.68C270.15 70.06 269.92 69.42 269.72 68.77C269.61 68.43 269.51 68.09 269.43 67.75C269.29 67.23 269.17 66.71 269.08 66.18C268.98 65.65 268.91 65.12 268.86 64.58C268.78 63.86 268.74 63.12 268.74 62.38C268.74 61.64 268.78 60.9 268.86 60.18C268.91 59.64 268.98 59.11 269.08 58.58C269.17 58.05 269.29 57.53 269.43 57.01C269.51 56.67 269.61 56.33 269.72 55.99C269.91 55.34 270.14 54.7 270.41 54.08C270.43 54.04 270.45 53.99 270.47 53.94C270.59 53.64 270.73 53.35 270.87 53.06C271.11 52.57 271.36 52.09 271.64 51.62C271.79 51.35 271.95 51.09 272.12 50.83C272.45 50.32 272.8 49.82 273.17 49.34C273.35 49.1 273.55 48.88 273.74 48.64V76.13C273.55 75.9 273.35 75.67 273.17 75.43ZM357.53 253.75H276.39V165.64H273.89V253.75H240.87V134.99C240.87 125.88 248.28 118.48 257.38 118.48C265.76 118.48 272.68 124.73 273.74 132.81C273.84 133.52 273.89 134.25 273.89 134.99V163.14H276.24V80.6C280.12 83.6 284.97 85.38 290.24 85.38C302.59 85.38 312.68 75.6 313.2 63.37L313.69 63.11C315.79 62.01 318.56 62.07 320.56 63.23C321.01 75.52 331.15 85.38 343.54 85.38C348.74 85.38 353.53 83.65 357.38 80.73V163.14H276.39V165.64H357.53V253.75ZM393.06 253.75H360.03V134.99C360.03 125.88 367.44 118.48 376.55 118.48C385.66 118.48 393.06 125.88 393.06 134.99V253.75Z" fill="#101828"/>
<path d="M273.74 48.6399V76.1299C273.55 75.8999 273.35 75.6699 273.17 75.4299C272.98 75.1799 272.8 74.9399 272.63 74.6899C272.45 74.4399 272.28 74.1899 272.12 73.9299C271.96 73.6799 271.8 73.4199 271.65 73.1599C271.64 73.1499 271.64 73.1399 271.63 73.1299C271.48 72.8699 271.34 72.6099 271.2 72.3499C271.06 72.0799 270.92 71.7999 270.79 71.5199C270.66 71.2499 270.53 70.9699 270.41 70.6799C270.15 70.0599 269.92 69.4199 269.72 68.7699C269.61 68.4399 269.52 68.0999 269.43 67.7499C269.29 67.2299 269.17 66.7099 269.08 66.1799C268.99 65.6499 268.92 65.1199 268.86 64.5799C268.79 63.8599 268.75 63.1199 268.75 62.3799C268.75 61.6399 268.79 60.9099 268.86 60.1799C268.92 59.6399 268.99 59.1099 269.08 58.5799C269.17 58.0499 269.29 57.5299 269.43 57.0099C269.52 56.6699 269.61 56.3299 269.72 55.9899C269.91 55.3399 270.14 54.6999 270.41 54.0799C270.43 54.0399 270.45 53.9899 270.47 53.9399C270.6 53.6499 270.73 53.3499 270.87 53.0599C271.11 52.5699 271.36 52.0899 271.64 51.6199C271.79 51.3499 271.95 51.0899 272.12 50.8299C272.45 50.3199 272.8 49.8199 273.17 49.3399C273.35 49.0999 273.55 48.8799 273.74 48.6399Z" fill="#FF8606"/>
<path d="M311.74 62.3799C311.74 66.4599 310.6 70.2699 308.62 73.5299C307.37 75.5899 305.77 77.4199 303.91 78.9699C303.38 79.3999 302.83 79.8199 302.25 80.2099C301.39 80.7799 300.49 81.2999 299.56 81.7599C296.74 83.1199 293.58 83.8799 290.24 83.8799C289.87 83.8799 289.5 83.8699 289.13 83.8499C288.67 83.8299 288.22 83.7899 287.77 83.7399C287.53 83.7099 287.29 83.6799 287.05 83.6399C286.64 83.5799 286.22 83.5099 285.81 83.4199C285.51 83.3599 285.22 83.2899 284.93 83.2099C284.89 83.2099 284.85 83.1999 284.81 83.1799C284.55 83.1199 284.3 83.0499 284.05 82.9699C283.78 82.8899 283.52 82.8099 283.26 82.7099C283.06 82.6399 282.85 82.5699 282.65 82.4899C282.36 82.3799 282.06 82.2599 281.77 82.1399C279.75 81.2699 277.88 80.0899 276.24 78.6699V46.0999C276.71 45.6899 277.2 45.3099 277.7 44.9399C278.96 44.0299 280.33 43.2499 281.77 42.6299C282.35 42.3799 282.94 42.1599 283.54 41.9599C283.79 41.8799 284.04 41.7999 284.29 41.7299C284.5 41.6699 284.72 41.6099 284.93 41.5599C285.22 41.4799 285.51 41.4099 285.81 41.3499C286.22 41.2599 286.64 41.1899 287.05 41.1299C287.29 41.0899 287.53 41.0599 287.77 41.0399C288.22 40.9799 288.67 40.9399 289.13 40.9199C289.5 40.8999 289.87 40.8899 290.24 40.8899C292.1 40.8899 293.9 41.1299 295.61 41.5699C296.64 41.8399 297.64 42.1699 298.6 42.5799C298.92 42.7199 299.24 42.8599 299.56 43.0099C300.49 43.4699 301.39 43.9899 302.25 44.5599C302.54 44.7599 302.82 44.9599 303.1 45.1599C305.3 46.8199 307.18 48.8799 308.62 51.2299C310.6 54.4899 311.74 58.2999 311.74 62.3799Z" fill="#FF8606"/>
<path d="M393.05 134.99V253.75H360.02V134.99C360.02 125.88 367.43 118.48 376.54 118.48C385.65 118.48 393.05 125.88 393.05 134.99Z" fill="#223550"/>
<path d="M273.88 134.99V253.75H240.86V134.99C240.86 125.88 248.27 118.48 257.37 118.48C265.74 118.48 272.67 124.73 273.73 132.81C273.83 133.52 273.88 134.25 273.88 134.99Z" fill="#223550"/>
<path d="M357.53 165.65H276.39V253.76H357.53V165.65Z" fill="#025681"/>
<path d="M351.22 246.16C350.81 246.16 350.47 245.82 350.47 245.41V170.79C350.47 170.38 350.81 170.04 351.22 170.04C351.63 170.04 351.97 170.38 351.97 170.79V245.41C351.97 245.82 351.63 246.16 351.22 246.16Z" fill="#101828"/>
<path d="M343.93 237.26C343.52 237.26 343.18 236.92 343.18 236.51V184.55C343.18 184.14 343.52 183.8 343.93 183.8C344.34 183.8 344.68 184.14 344.68 184.55V236.51C344.68 236.92 344.34 237.26 343.93 237.26Z" fill="#101828"/>
<path d="M336.63 221.29C336.22 221.29 335.88 220.95 335.88 220.54V170.79C335.88 170.38 336.22 170.04 336.63 170.04C337.04 170.04 337.38 170.38 337.38 170.79V220.54C337.38 220.95 337.04 221.29 336.63 221.29Z" fill="#101828"/>
<path d="M329.34 249.34C328.93 249.34 328.59 249 328.59 248.59V182.12C328.59 181.71 328.93 181.37 329.34 181.37C329.75 181.37 330.09 181.71 330.09 182.12V248.59C330.09 249 329.75 249.34 329.34 249.34Z" fill="#101828"/>
<path d="M343.781 133.54C343.781 133.54 343.761 133.54 343.741 133.54C343.331 133.52 343.011 133.17 343.031 132.75C343.181 129.81 340.241 129.56 340.121 129.55C339.711 129.52 339.401 129.16 339.431 128.75C339.461 128.34 339.811 128.04 340.231 128.06C341.791 128.18 344.701 129.32 344.531 132.83C344.511 133.23 344.181 133.54 343.781 133.54Z" fill="#101828"/>
<path d="M290.151 133.54C289.751 133.54 289.421 133.23 289.401 132.83C289.231 129.32 292.141 128.18 293.701 128.06C294.121 128.04 294.471 128.34 294.501 128.75C294.531 129.16 294.221 129.52 293.811 129.55C293.501 129.58 290.751 129.88 290.891 132.75C290.911 133.16 290.591 133.52 290.181 133.54C290.171 133.54 290.151 133.54 290.141 133.54H290.151Z" fill="#101828"/>
<path d="M317.041 143.21C308.481 143.21 299.931 139.95 293.421 133.44L293.291 133.31C293.001 133.02 292.991 132.54 293.291 132.25C293.581 131.96 294.061 131.95 294.351 132.25L294.491 132.38C306.931 144.82 327.181 144.82 339.621 132.38C339.911 132.09 340.391 132.09 340.681 132.38C340.971 132.67 340.971 133.15 340.681 133.44C334.171 139.95 325.611 143.21 317.051 143.21H317.041Z" fill="#101828"/>
<path d="M341.461 63.4899C341.291 63.4899 341.131 63.4299 340.991 63.3199C334.821 58.2999 328.431 63.1199 328.161 63.3299C327.831 63.5799 327.361 63.5199 327.111 63.1999C326.861 62.8699 326.921 62.3999 327.241 62.1499C327.321 62.0899 334.841 56.3699 341.941 62.1599C342.261 62.4199 342.311 62.8899 342.051 63.2099C341.901 63.3899 341.691 63.4899 341.471 63.4899H341.461Z" fill="#101828"/>
<path d="M306.74 63.4899C306.57 63.4899 306.41 63.4299 306.27 63.3199C300.11 58.2899 293.71 63.1199 293.44 63.3299C293.11 63.5799 292.64 63.5199 292.39 63.1999C292.14 62.8699 292.2 62.3999 292.52 62.1499C292.59 62.0899 300.12 56.3699 307.22 62.1599C307.54 62.4199 307.59 62.8899 307.33 63.2099C307.18 63.3899 306.97 63.4899 306.75 63.4899H306.74Z" fill="#101828"/>
</svg>
